<svg width="156" height="157" viewBox="0 0 156 157" fill="none" xmlns="http://www.w3.org/2000/svg">
<g clip-path="url(#clip0_1677_1170)">
<path d="M103.331 138.168L101.585 145.961C99.4439 155.487 87.1587 158.189 81.22 150.428L76.3709 144.082C72.1463 138.557 64.2386 137.499 58.7077 141.718L52.3612 146.56C44.6001 152.486 33.4491 146.649 33.8888 136.894L34.252 128.916C34.5642 121.964 29.1926 116.077 22.2408 115.752L14.263 115.382C4.50751 114.93 -0.28423 103.294 6.32353 96.1068L11.727 90.2254C16.4359 85.1023 16.1045 77.1373 10.9878 72.422L5.11285 67.0122C-2.06839 60.3981 1.73569 48.3996 11.4211 47.1443L19.3415 46.1121C26.2424 45.2136 31.1106 38.899 30.2185 31.9981L29.199 24.0777C27.9501 14.3923 38.5786 7.65068 46.8048 12.914L53.5337 17.2151C59.3959 20.9618 67.1825 19.2541 70.9356 13.3982L75.2431 6.67577C80.5127 -1.55048 92.9827 0.118979 95.9074 9.44121L98.2969 17.0621C100.381 23.7017 107.441 27.3975 114.087 25.3202L121.708 22.9371C131.03 20.0251 139.511 29.3219 135.758 38.3382L132.693 45.7106C130.023 52.1336 133.056 59.506 139.479 62.1886L146.852 65.2663C155.862 69.0258 156.39 81.5977 147.718 86.0964L140.626 89.773C134.452 92.9781 132.037 100.574 135.235 106.754L138.906 113.846C143.392 122.519 135.713 132.491 126.181 130.356L118.388 128.617C111.595 127.1 104.866 131.369 103.344 138.156L103.331 138.168Z" fill="white" stroke="black" stroke-miterlimit="10" stroke-linecap="round" stroke-dasharray="3 3"/>
<path d="M48.5372 70.3383L49.5692 63.2343L54.0092 63.2343L52.9772 70.3383L48.5372 70.3383ZM70.8982 63.2343C71.0662 70.5063 67.0822 74.8023 59.5222 75.4743L57.1942 74.7783L55.8262 63.2343L59.7862 63.2343L60.1942 66.7863C60.4822 66.8823 60.7942 66.9543 61.0822 67.0503L61.2982 66.9303C61.3942 66.5943 61.4662 65.9223 61.7062 63.9063L61.7782 63.2343L65.2342 63.2343L65.1862 63.9783C65.1142 65.0103 65.0182 65.8503 64.8742 66.5463C64.4902 68.4183 63.6982 69.1383 62.0902 69.2823C61.6102 69.3303 61.0822 69.3543 60.4822 69.3303L60.7462 71.5383L61.0822 71.6343C65.1382 70.8423 66.8662 68.3463 66.8422 63.2343L70.8982 63.2343ZM71.6934 75.1143L73.4454 63.2343L77.8854 63.2343L76.1334 75.1143L71.6934 75.1143ZM82.2208 75.1143L84.1648 66.8343L79.6048 66.8343L79.6528 64.9623L80.5168 58.9863L84.7648 58.9863L84.1408 63.2343L88.9648 63.2343L89.1328 64.7223L86.5408 75.1143L82.2208 75.1143ZM103.897 64.4343C104.017 64.9383 104.065 65.5143 104.065 66.1863C104.065 68.1063 103.921 68.5143 102.985 75.1143L98.7855 75.1143C99.0015 73.5303 99.2655 72.0663 99.5055 69.9543C99.6975 68.2983 99.7695 67.5063 99.7455 67.0263L99.3135 66.7143L97.3935 66.7143L96.6255 71.9703C96.2895 74.2503 95.0175 75.4023 92.8815 75.4023C91.8495 75.4023 90.4335 75.0423 89.5695 74.5623L90.4095 71.4183L92.0175 71.9223L92.2815 71.8743L93.0255 66.7143L90.9855 66.7143L90.9855 63.3303C93.1455 63.1863 96.0495 63.1143 99.4815 63.1143C101.929 63.1143 103.057 63.1623 103.537 63.2823C103.681 63.6183 103.801 64.0023 103.897 64.4343ZM61.6937 99.1143L62.3897 93.8343C62.5817 92.5383 62.6537 91.5543 62.6297 91.0263L62.2217 90.7143L57.5177 90.7143L57.5177 87.3063C59.0057 87.1383 60.8537 87.0423 62.8937 87.0423C66.3497 87.0423 67.2617 88.0743 66.9257 91.6503C66.7097 94.1463 66.3257 96.4023 65.8697 99.1143L61.6937 99.1143ZM71.675 99.4503C70.211 99.4503 68.747 99.1623 67.595 98.6343L68.459 95.3703C70.427 95.8743 73.187 96.4743 73.403 96.4503L73.691 96.3063C73.979 95.5143 74.219 93.1143 74.171 91.5783C74.147 90.8103 74.147 91.0983 74.123 90.7383L73.859 90.6183L69.251 90.6183L69.251 87.2343L78.227 87.2343C78.371 87.7143 78.467 88.3383 78.515 89.1063C78.563 90.0423 78.515 91.1703 78.323 92.9463C78.083 94.9143 77.627 96.5703 77.099 97.2903C76.211 98.6343 74.171 99.4503 71.675 99.4503ZM95.5423 87.2343C95.7103 94.5063 91.7263 98.8023 84.1663 99.4743L81.8383 98.7783L80.4703 87.2343L84.4303 87.2343L84.8383 90.7863C85.1263 90.8823 85.4383 90.9543 85.7263 91.0503L85.9423 90.9303C86.0383 90.5943 86.1103 89.9223 86.3503 87.9063L86.4223 87.2343L89.8783 87.2343L89.8303 87.9783C89.7583 89.0103 89.6623 89.8503 89.5183 90.5463C89.1343 92.4183 88.3423 93.1383 86.7343 93.2823C86.2543 93.3303 85.7263 93.3543 85.1263 93.3303L85.3903 95.5383L85.7263 95.6343C89.7823 94.8423 91.5103 92.3463 91.4863 87.2343L95.5423 87.2343Z" fill="black"/>
</g>
<defs>
<clipPath id="clip0_1677_1170">
<rect width="153.801" height="154.84" fill="white" transform="translate(1.51648) rotate(0.561156)"/>
</clipPath>
</defs>
</svg>
