<svg width="149" height="149" viewBox="0 0 149 149" fill="none" xmlns="http://www.w3.org/2000/svg">
<g clip-path="url(#clip0_1677_1164)">
<path d="M48.7012 144.373L41.3369 126.678C41.0894 126.078 40.4874 125.698 39.8386 125.718L20.6283 126.391C19.7521 126.425 19.0431 125.678 19.1233 124.811L20.849 105.729C20.9092 105.083 20.5547 104.469 19.9728 104.189L2.64877 95.8886C1.85949 95.5086 1.57856 94.5285 2.05346 93.7884L12.4813 77.6936C12.8358 77.1469 12.8091 76.4402 12.4211 75.9201L0.956499 60.5454C0.434772 59.8454 0.642125 58.8453 1.41134 58.4119L18.1467 48.9911C18.7153 48.671 19.023 48.0376 18.9227 47.3976L15.9328 28.4692C15.799 27.6025 16.4478 26.8157 17.3307 26.7891L36.541 26.1957C37.1898 26.1757 37.765 25.7556 37.9724 25.1423L44.1529 7.00063C44.4338 6.17389 45.3836 5.78052 46.1729 6.16056L63.4568 14.5346C64.0454 14.8213 64.741 14.708 65.2159 14.2613L79.142 1.06677C79.7775 0.466716 80.8009 0.55339 81.3226 1.26012L92.727 16.6815C93.115 17.2015 93.7838 17.4349 94.4126 17.2549L112.9 12.0144C113.743 11.7744 114.606 12.3278 114.74 13.1945L117.643 32.1362C117.743 32.7763 118.231 33.2897 118.867 33.423L137.683 37.35C138.539 37.53 139.047 38.4168 138.759 39.2435L132.499 57.3585C132.285 57.9719 132.479 58.6519 132.98 59.0653L147.809 71.2597C148.485 71.8131 148.518 72.8399 147.883 73.4399L133.897 86.5811C133.422 87.0278 133.275 87.7145 133.529 88.3146L140.973 105.976C141.315 106.783 140.866 107.703 140.024 107.936L121.509 113.09C120.88 113.263 120.432 113.81 120.372 114.457L118.726 133.545C118.653 134.419 117.823 135.025 116.967 134.845L98.1717 130.838C97.5363 130.705 96.8808 130.972 96.5329 131.518L86.1787 147.66C85.7038 148.4 84.6938 148.553 84.0182 147.993L69.2426 135.739C68.7409 135.325 68.0386 135.259 67.4701 135.585L50.7748 145.08C50.0123 145.513 49.0424 145.18 48.7079 144.373H48.7012Z" fill="white" stroke="black" stroke-miterlimit="10" stroke-linecap="round" stroke-dasharray="3 3"/>
<path d="M51.2609 71.296C51.3809 71.776 51.4289 72.28 51.4289 73.024C51.4289 74.32 51.3329 75.112 50.3489 82H38.7089L39.8369 73.6H38.3489V70.216C40.4849 70.072 43.4129 70 46.8449 70C49.2689 70 50.4209 70.048 50.9009 70.168C51.0449 70.48 51.1409 70.768 51.2609 71.296ZM43.4129 78.448H46.6769C46.7249 77.944 46.7969 77.416 46.8689 76.84C47.0609 75.184 47.1329 74.392 47.1089 73.912L46.6769 73.6H44.0849L43.4129 78.448ZM53.4996 77.224L54.5316 70.12H58.9716L57.9396 77.224H53.4996ZM73.8458 71.32C73.9658 71.824 74.0138 72.4 74.0138 73.072C74.0138 74.992 73.8698 75.4 72.9338 82H68.7338C68.9498 80.416 69.2138 78.952 69.4538 76.84C69.6458 75.184 69.7178 74.392 69.6938 73.912L69.2618 73.6H66.8378L65.5898 82H61.3178L62.5418 73.6H60.9338V70.216C63.0938 70.072 65.9978 70 69.4298 70C71.8778 70 73.0058 70.048 73.4858 70.168C73.6298 70.504 73.7498 70.888 73.8458 71.32ZM75.6715 82L77.4235 70.12H81.8635L80.1115 82H75.6715ZM87.4463 82.192L84.9503 81.952L83.3663 68.608H87.3503L88.4543 78.088L88.7183 78.16C90.0383 77.632 91.0463 76.12 91.0463 74.656C91.0463 73.72 90.6863 73.336 89.8703 73.336H89.2223L88.9343 70.576C89.6783 70.192 90.5903 70 91.5263 70C93.7583 70 95.1503 71.44 95.1503 73.792C95.1503 77.824 92.1023 81.16 87.4463 82.192ZM96.8581 77.224L97.8901 70.12H102.33L101.298 77.224H96.8581ZM113.058 78.52H114.618L114.114 82H103.29L103.794 78.52H109.122C109.41 76.312 109.458 75.688 109.458 74.656C109.458 74.056 109.458 74.032 109.434 73.912L109.026 73.6H104.37V70.192C106.41 70 107.994 69.928 109.53 69.928C112.602 69.928 113.634 70.768 113.634 73.288C113.634 74.176 113.442 76.024 113.058 78.52Z" fill="black"/>
</g>
<defs>
<clipPath id="clip0_1677_1164">
<rect width="149" height="149" fill="white"/>
</clipPath>
</defs>
</svg>
