<svg xmlns="http://www.w3.org/2000/svg" width="142" height="142" viewBox="0 0 142 142" fill="none">
  <path d="M94.7322 126.091L93.1184 133.246C91.1393 141.991 79.7832 144.472 74.2937 137.346L69.8113 131.52C65.9062 126.448 58.5966 125.477 53.484 129.349L47.6175 133.795C40.4433 139.236 30.1357 133.877 30.5421 124.921L30.8779 117.597C31.1665 111.214 26.2011 105.809 19.775 105.51L12.4007 105.171C3.38295 104.756 -1.04639 94.0733 5.06162 87.4743L10.0564 82.0747C14.4092 77.3712 14.1029 70.0586 9.37316 65.7295L3.94251 60.7628C-2.69562 54.6904 0.820763 43.6746 9.77369 42.5222L17.0951 41.5745C23.474 40.7496 27.974 34.9521 27.1494 28.6165L26.207 21.3448C25.0526 12.4527 34.8772 6.26324 42.4813 11.0954L48.7012 15.0442C54.1201 18.4841 61.3178 16.9163 64.7871 11.54L68.7688 5.36818C73.6399 -2.1843 85.1667 -0.651578 87.8703 7.90712L90.0791 14.9038C92.0051 20.9996 98.5313 24.3927 104.675 22.4856L111.719 20.2976C120.336 17.6241 128.176 26.1594 124.707 34.4373L121.874 41.2059C119.406 47.1028 122.209 53.8714 128.147 56.3343L134.962 59.1599C143.29 62.6114 143.779 74.1537 135.763 78.2839L129.207 81.6594C123.499 84.602 121.267 91.5753 124.224 97.2499L127.617 103.761C131.763 111.723 124.666 120.878 115.854 118.919L108.651 117.322C102.372 115.929 96.1517 119.849 94.744 126.079L94.7322 126.091Z" fill="white" stroke="#CDCDCD" stroke-miterlimit="10"/>
</svg>