<svg xmlns="http://www.w3.org/2000/svg" width="138" height="142" viewBox="0 0 138 142" fill="none">
  <path d="M135.164 75.7781L134.281 76.4658C130.809 79.1568 129.992 84.0784 132.408 87.7502L133.076 88.7728C135.248 92.0797 133.703 96.5528 129.962 97.8086L129.133 98.0897C124.939 99.501 122.552 103.926 123.674 108.214L123.96 109.308C124.975 113.171 122.027 116.939 118.042 116.873L117.457 116.861C112.983 116.789 109.236 120.252 108.944 124.731L108.884 125.622C108.622 129.646 104.565 132.284 100.789 130.884L100.443 130.753C96.1949 129.18 91.4699 131.261 89.7517 135.459L89.525 136.009C87.9858 139.771 83.2548 140.967 80.1227 138.377L79.8721 138.168C76.3582 135.262 71.1738 135.692 68.1848 139.137L67.9402 139.424C65.2734 142.498 60.3993 142.097 58.2694 138.629L58.0248 138.228C55.6444 134.347 50.6151 133.067 46.6776 135.345L46.3972 135.507C42.8952 137.528 38.4387 135.585 37.5259 131.638L37.3588 130.914C36.3446 126.513 32.0491 123.702 27.6224 124.534L27.169 124.617C23.2315 125.359 19.6877 122.106 20.0636 118.111L20.159 117.088C20.5826 112.651 17.4803 108.65 13.0834 107.963L12.3675 107.849C8.44789 107.239 6.18084 103.065 7.79164 99.4352L8.28085 98.3409C10.0706 94.3103 8.45386 89.5741 4.57003 87.493L3.68111 87.0146C0.208935 85.1488 -0.572602 80.4963 2.10014 77.596L2.9115 76.7169C5.88851 73.4877 5.88851 68.5123 2.9115 65.2831L2.10014 64.404C-0.572602 61.5037 0.202969 56.8512 3.68111 54.9854L4.57003 54.507C8.44789 52.4259 10.0706 47.6897 8.28085 43.6591L7.79164 42.5648C6.18084 38.9349 8.44789 34.7608 12.3675 34.1508L13.0834 34.0372C17.4803 33.3495 20.5826 29.3548 20.159 24.9116L20.0636 23.8891C19.6818 19.8944 23.2315 16.6412 27.169 17.3827L27.6224 17.4665C32.0491 18.2977 36.3446 15.4811 37.3588 11.0857L37.5259 10.3621C38.4387 6.41531 42.8952 4.46581 46.3972 6.49305L46.6776 6.65451C50.6151 8.92693 55.6444 7.65318 58.0248 3.77212L58.2694 3.37145C60.3993 -0.0969821 65.2734 -0.497646 67.9402 2.57611L68.1848 2.86315C71.1738 6.30767 76.3582 6.73823 79.8721 3.83192L80.1227 3.62262C83.2548 1.03325 87.9858 2.22926 89.525 5.99072L89.7517 6.54089C91.4699 10.7389 96.1949 12.82 100.443 11.2472L100.789 11.1156C104.565 9.7163 108.622 12.3535 108.884 16.3781L108.944 17.2691C109.236 21.7482 112.983 25.2047 117.457 25.1389L118.042 25.1269C122.027 25.0671 124.969 28.8286 123.96 32.6917L123.674 33.7861C122.552 38.0738 124.939 42.499 129.133 43.9103L129.962 44.1914C133.709 45.4472 135.248 49.9203 133.076 53.2272L132.408 54.2498C129.998 57.9276 130.815 62.8432 134.281 65.5342L135.164 66.2219C138.279 68.6379 138.279 73.3502 135.164 75.7661V75.7781Z" fill="white" stroke="#CDCDCD" stroke-miterlimit="10"/>
</svg>