<svg xmlns="http://www.w3.org/2000/svg" width="140" height="141" viewBox="0 0 140 141" fill="none">
  <path d="M45.7127 136.747L38.7808 119.971C38.5478 119.402 37.9811 119.041 37.3704 119.06L19.2881 119.699C18.4633 119.73 17.7959 119.022 17.8715 118.201L19.4958 100.109C19.5525 99.4961 19.2188 98.9146 18.6711 98.6491L2.36419 90.7791C1.62125 90.4188 1.35681 89.4896 1.80384 88.7879L11.6194 73.5284C11.9531 73.0101 11.9279 72.34 11.5628 71.847L0.771278 57.2702C0.280184 56.6064 0.475362 55.6582 1.19941 55.2474L16.9522 46.3154C17.4874 46.012 17.777 45.4115 17.6826 44.8046L14.8682 26.8586C14.7423 26.0369 15.353 25.291 16.1841 25.2657L34.2665 24.7031C34.8772 24.6841 35.4186 24.2859 35.6138 23.7043L41.4314 6.50419C41.6958 5.72036 42.5899 5.3474 43.3328 5.70771L59.6019 13.6472C60.156 13.919 60.8108 13.8116 61.2578 13.388L74.3662 0.878278C74.9644 0.309365 75.9277 0.391541 76.4188 1.06159L87.1536 15.6826C87.5188 16.1757 88.1484 16.3969 88.7402 16.2263L106.143 11.2578C106.936 11.0302 107.748 11.5549 107.874 12.3766L110.607 30.3353C110.701 30.9421 111.161 31.4289 111.759 31.5553L129.47 35.2785C130.275 35.4492 130.754 36.2899 130.483 37.0738L124.59 54.2486C124.389 54.8302 124.571 55.4749 125.043 55.8668L139.002 67.4284C139.638 67.9531 139.669 68.9266 139.071 69.4955L125.906 81.9547C125.459 82.3782 125.32 83.0293 125.56 83.5982L132.567 100.343C132.888 101.108 132.467 101.98 131.673 102.202L114.246 107.088C113.654 107.252 113.232 107.771 113.175 108.384L111.626 126.482C111.557 127.31 110.776 127.885 109.971 127.714L92.2786 123.915C91.6805 123.789 91.0635 124.042 90.7361 124.56L80.9897 139.864C80.5427 140.565 79.592 140.711 78.9561 140.18L65.048 128.561C64.5758 128.169 63.9147 128.106 63.3796 128.416L47.6645 137.417C46.9468 137.828 46.0338 137.512 45.719 136.747H45.7127Z" fill="white" stroke="#CDCDCD" stroke-miterlimit="10"/>
</svg>