<svg width="252" height="253" viewBox="0 0 252 253" fill="none" xmlns="http://www.w3.org/2000/svg">
<g clip-path="url(#clip0_1294_637)">
<path d="M168.07 224.535L165.209 237.268C161.701 252.833 141.572 257.248 131.841 244.567L123.896 234.197C116.974 225.17 104.018 223.442 94.9555 230.334L84.5569 238.247C71.8405 247.93 53.5698 238.393 54.2902 222.453L54.8853 209.417C55.3969 198.058 46.5956 188.438 35.2051 187.907L22.1337 187.303C6.14948 186.564 -1.7017 167.553 9.12499 155.808L17.9785 146.199C25.6939 137.828 25.151 124.813 16.7674 117.109L7.14132 108.269C-4.62502 97.4622 1.6079 77.8574 17.4773 75.8063L30.4547 74.1196C41.7617 72.6516 49.7382 62.3338 48.2765 51.0581L46.606 38.1166C44.5597 22.2911 61.9743 11.2757 75.4529 19.8756L86.4779 26.9034C96.0831 33.0253 108.841 30.2351 114.991 20.6669L122.048 9.68271C130.683 -3.75856 151.114 -1.03074 155.907 14.2013L159.822 26.6535C163.236 37.5023 174.804 43.541 185.693 40.1468L198.18 36.2529C213.454 31.4949 227.35 46.6853 221.201 61.4176L216.179 73.4637C211.805 83.9585 216.774 96.0046 227.298 100.388L239.378 105.417C254.14 111.559 255.007 132.101 240.798 139.452L229.177 145.459C219.061 150.696 215.104 163.107 220.345 173.206L226.358 184.794C233.709 198.964 221.128 215.258 205.509 211.77L192.74 208.928C181.611 206.45 170.586 213.426 168.091 224.514L168.07 224.535Z" fill="white" stroke="black" stroke-width="2" stroke-miterlimit="10"/>
<path d="M164.718 219.287L159.978 237.143C157.118 247.898 143.263 250.938 136.153 242.359L124.345 228.127C117.329 219.673 104.968 218.017 95.9683 224.337L80.8193 234.978C71.6944 241.391 59.1241 234.832 59.2077 223.702L59.3329 205.232C59.406 194.258 51.0015 185.065 40.0391 184.138L21.5804 182.576C10.4614 181.639 5.05329 168.552 12.2885 160.077L24.295 146.011C31.4257 137.651 30.9142 125.23 23.1047 117.484L9.97072 104.459C2.0569 96.6085 6.3479 83.1256 17.3521 81.2723L35.6228 78.1905C46.4808 76.3581 54.0919 66.5088 53.1 55.5767L51.4296 37.1795C50.4273 26.0913 62.4024 18.5221 72.0285 24.1547L88.0023 33.5043C97.4926 39.064 109.677 36.3883 115.962 27.3823L126.548 12.2231C132.927 3.09221 146.991 4.96629 150.728 15.4507L156.94 32.8588C160.636 43.1974 171.682 48.9654 182.31 46.0918L200.195 41.2609C210.969 38.3456 220.533 48.7988 216.638 59.2311L210.176 76.5455C206.334 86.8321 211.084 98.3368 221.076 102.949L237.885 110.706C248.012 115.38 248.597 129.519 238.897 135.017L222.788 144.137C213.214 149.562 209.445 161.41 214.122 171.353L221.994 188.074C226.734 198.142 218.079 209.355 207.106 207.345L188.888 204.014C178.061 202.036 167.527 208.689 164.708 219.308L164.718 219.287Z" fill="#7DC1EF" stroke="black" stroke-width="3" stroke-miterlimit="10"/>
<path d="M53.0895 149.811L53.006 150.04C52.6197 151.134 51.2103 151.446 50.3959 150.613L50.2289 150.436C49.7799 149.978 49.07 149.874 48.5166 150.207L48.3078 150.332C47.3055 150.925 46.0214 150.259 45.9483 149.103L45.9274 148.864C45.8857 148.218 45.4054 147.698 44.7685 147.594L44.5284 147.552C43.38 147.365 42.8266 146.032 43.5157 145.095L43.6618 144.897C44.0377 144.377 44.0064 143.669 43.5888 143.179L43.4322 142.992C42.67 142.107 43.1085 140.743 44.2361 140.462L44.4762 140.399C45.1026 140.243 45.5411 139.681 45.5307 139.035V138.796C45.5098 137.63 46.7313 136.859 47.7754 137.37L47.9946 137.474C48.5793 137.755 49.2683 137.599 49.6755 137.109L49.8321 136.922C50.5734 136.016 52.0037 136.214 52.4735 137.276L52.578 137.495C52.839 138.078 53.4758 138.411 54.1023 138.296L54.3424 138.255C55.4908 138.036 56.4618 139.098 56.1381 140.222L56.0755 140.462C55.898 141.076 56.1695 141.742 56.7332 142.055L56.942 142.169C57.9548 142.742 58.0174 144.179 57.0569 144.824L56.8585 144.96C56.3261 145.324 56.1068 146.001 56.3365 146.605L56.42 146.834C56.8376 147.916 55.9502 149.062 54.7913 148.937L54.5512 148.916C53.9143 148.854 53.3088 149.228 53.0895 149.843V149.811Z" fill="#7DC1EF" stroke="black" stroke-miterlimit="10"/>
<path d="M123.322 79.2108C120.493 77.4929 116.87 77.8782 114.469 80.1375L81.717 110.966C81.717 110.966 75.7973 117.015 76.7996 126.844C77.8019 136.672 83.2309 167.042 83.2309 167.042C83.2309 167.042 84.0661 176.819 99.424 174.278C113.873 171.884 165.397 164.564 165.397 164.564C165.397 164.564 173.78 164.752 172.997 151.654C172.35 140.826 170.836 126.479 169.26 116.776C168.153 109.966 164.113 103.98 158.203 100.398L123.332 79.2108H123.322Z" fill="#C195F4" stroke="black" stroke-miterlimit="10"/>
<path d="M165.042 106.697L133.47 132.33C131.873 133.705 132.019 136.214 133.762 137.401L169.73 160.848C170.262 161.191 171.306 160.535 171.849 160.202C175.252 158.099 169.239 109.279 165.042 106.697Z" stroke="black" stroke-miterlimit="10"/>
<path d="M83.826 116.963C83.826 116.963 78.8042 109.321 85.674 96.4419L155.291 87.3527C155.291 87.3527 151.365 98.0036 152.545 103.522C153.662 108.728 157.097 113.132 157.097 113.132L133.46 132.32C133.46 132.32 132.082 134.059 132.029 135.277L118.05 136.974C116.619 133.007 79.1592 114.652 79.1592 114.652" fill="#F4EDD0"/>
<path d="M83.826 116.963C83.826 116.963 78.8042 109.321 85.674 96.4419L155.291 87.3527C155.291 87.3527 151.365 98.0036 152.545 103.522C153.662 108.728 157.097 113.132 157.097 113.132L133.46 132.32C133.46 132.32 132.082 134.059 132.029 135.277L118.05 136.974C116.619 133.007 79.1592 114.652 79.1592 114.652" stroke="black" stroke-width="0.75" stroke-linecap="round" stroke-linejoin="round"/>
<path d="M85.1206 171.145C85.1206 171.145 120.42 144.762 118.06 136.964" stroke="black" stroke-miterlimit="10"/>
<path d="M143.075 116.901C142.428 112.143 139.505 108.634 136.55 109.071C133.596 109.508 131.727 113.725 132.384 118.483C132.635 120.305 133.209 121.929 134.003 123.231C136.916 122.762 139.839 122.564 142.752 122.086C143.19 120.576 143.336 118.775 143.075 116.89V116.901Z" fill="black"/>
<path d="M114.719 120.795C114.072 116.036 111.149 112.528 108.194 112.965C105.239 113.402 103.371 117.619 104.028 122.377C104.279 124.199 104.853 125.823 105.647 127.125C108.559 126.656 111.483 126.458 114.396 125.979C114.834 124.47 114.98 122.669 114.719 120.784V120.795Z" fill="black"/>
<path d="M120.336 124.865C120.336 124.865 121.109 128.312 124.752 127.676C128.396 127.041 128.083 123.481 128.083 123.481" stroke="black" stroke-width="2" stroke-linecap="round" stroke-linejoin="round"/>
<path d="M106.743 127.781C105.396 129.28 105.365 131.029 105.365 131.029C105.365 131.029 105.511 135.069 108.455 133.621C111.399 132.174 111.305 126.927 111.305 126.927C111.305 126.927 111.232 122.856 107.745 122.273C104.258 121.69 102.201 126.219 102.201 126.219C102.201 126.219 105.406 127.676 105.782 128.135L106.764 127.77L106.743 127.781Z" fill="#F4EDD0" stroke="black" stroke-width="0.75" stroke-linecap="round" stroke-linejoin="round"/>
<path d="M109.582 133.361C109.582 133.361 109.405 136.443 112.819 134.735C115.325 133.476 115.962 129.811 116.129 127.947C116.223 126.906 115.857 125.854 115.032 125.199C114.208 124.543 112.955 124.272 111.086 125.667C111.086 125.667 111.524 127.708 111.023 129.394C110.522 131.081 110.731 130.737 109.572 133.361H109.582Z" fill="#F4EDD0" stroke="black" stroke-width="0.75" stroke-linecap="round" stroke-linejoin="round"/>
<path d="M116.129 127.937C116.129 127.937 117.1 126.968 118.353 127.583C119.605 128.197 120.399 130.488 119.23 132.851C118.06 135.214 116.901 136.839 114.939 136.214C114.939 136.214 113.477 136.099 113.498 134.642C113.498 134.642 116.922 131.799 116.129 127.937Z" fill="#F4EDD0" stroke="black" stroke-width="0.75" stroke-linecap="round" stroke-linejoin="round"/>
<path d="M135.861 131.976C135.861 131.976 136.049 134.038 133.7 134.007C131.351 133.975 129.513 130.581 129.513 130.581C129.513 130.581 128.741 129.322 128.876 127.906C128.991 126.739 129.858 125.73 131.017 125.563C131.299 125.521 131.601 125.532 131.925 125.625C131.925 125.625 132.092 129.967 135.871 131.987L135.861 131.976Z" fill="#F4EDD0" stroke="black" stroke-width="0.75" stroke-linecap="round" stroke-linejoin="round"/>
<path d="M139.734 129.977C139.734 129.977 139.285 133.465 135.861 131.966C133.668 131.008 132.604 128.603 132.123 126.989C131.758 125.771 131.873 124.438 132.572 123.377C133.188 122.46 134.222 121.763 135.903 122.679C135.903 122.679 135.83 126.583 139.724 129.977H139.734Z" fill="#F4EDD0" stroke="black" stroke-width="0.75" stroke-linecap="round" stroke-linejoin="round"/>
<path d="M141.446 123.783C142.574 124.72 144.861 128.603 142.334 129.936C139.807 131.268 137.73 127.76 137.73 127.76C137.73 127.76 133.658 121.773 138.356 119.149C143.054 116.526 145.696 122.304 145.696 122.304C145.696 122.304 144.171 123.626 142.814 124.73L141.446 123.783Z" fill="#F4EDD0" stroke="black" stroke-width="0.75" stroke-linecap="round" stroke-linejoin="round"/>
<path d="M175.67 191.603L175.587 191.832C175.201 192.926 173.791 193.238 172.977 192.405L172.81 192.228C172.361 191.77 171.651 191.666 171.097 191.999L170.889 192.124C169.886 192.717 168.602 192.051 168.529 190.895L168.508 190.656C168.466 190.01 167.986 189.49 167.349 189.386L167.109 189.344C165.961 189.157 165.407 187.824 166.096 186.887L166.243 186.689C166.619 186.168 166.587 185.46 166.17 184.971L166.013 184.784C165.251 183.899 165.689 182.535 166.817 182.254L167.057 182.191C167.683 182.035 168.122 181.473 168.111 180.827V180.588C168.091 179.422 169.312 178.651 170.356 179.161L170.575 179.266C171.16 179.547 171.849 179.391 172.256 178.901L172.413 178.714C173.154 177.808 174.585 178.006 175.054 179.068L175.159 179.286C175.42 179.869 176.057 180.203 176.683 180.088L176.923 180.046C178.072 179.828 179.043 180.89 178.719 182.014L178.656 182.254C178.479 182.868 178.75 183.534 179.314 183.847L179.523 183.961C180.536 184.534 180.598 185.971 179.638 186.616L179.439 186.751C178.907 187.116 178.688 187.793 178.917 188.396L179.001 188.626C179.418 189.708 178.531 190.854 177.372 190.729L177.132 190.708C176.495 190.645 175.89 191.02 175.67 191.634V191.603Z" fill="#7DC1EF" stroke="black" stroke-miterlimit="10"/>
<path d="M149.976 66.4568L149.893 66.6858C149.507 67.779 148.097 68.0914 147.283 67.2584L147.116 67.0814C146.667 66.6233 145.957 66.5192 145.404 66.8524L145.195 66.9773C144.193 67.5708 142.908 66.9045 142.835 65.7488L142.814 65.5093C142.773 64.8638 142.292 64.3432 141.655 64.2391L141.415 64.1975C140.267 64.01 139.714 62.6774 140.403 61.7403L140.549 61.5425C140.925 61.0219 140.893 60.314 140.476 59.8246L140.319 59.6372C139.557 58.7522 139.995 57.3883 141.123 57.1072L141.363 57.0447C141.99 56.8886 142.428 56.3263 142.418 55.6808V55.4414C142.397 54.2753 143.618 53.5048 144.662 54.015L144.882 54.1191C145.466 54.4002 146.155 54.244 146.562 53.7547L146.719 53.5673C147.46 52.6615 148.891 52.8593 149.361 53.9213L149.465 54.1399C149.726 54.723 150.363 55.0561 150.989 54.9416L151.229 54.9C152.378 54.6813 153.349 55.7433 153.025 56.8677L152.962 57.1072C152.785 57.7215 153.056 58.3878 153.62 58.7002L153.829 58.8147C154.842 59.3873 154.904 60.8241 153.944 61.4696L153.745 61.605C153.213 61.9694 152.994 62.6461 153.223 63.25L153.307 63.4791C153.725 64.5619 152.837 65.7071 151.678 65.5822L151.438 65.5614C150.801 65.4989 150.196 65.8737 149.976 66.488V66.4568Z" fill="#7DC1EF" stroke="black" stroke-miterlimit="10"/>
<path d="M172.141 78.3155C172.444 78.1073 172.643 77.9719 172.83 77.7741C173.791 76.7433 173.478 75.4002 172.027 74.0572C171.306 73.4012 170.325 72.7453 169.343 72.256L172.183 70.3819C173.321 70.9858 174.856 72.0686 175.733 72.8807C178.437 75.369 178.771 77.9927 176.683 80.252C176.182 80.783 175.535 81.3244 174.699 81.8762L170.554 84.5207L167.234 81.4598L172.152 78.3051L172.141 78.3155Z" fill="black"/>
<path d="M172.235 84.9996L175.242 83.9064C175.649 85.0829 176.349 86.551 176.86 87.2277C178.113 88.8936 179.721 89.1434 181.465 87.9461C182.77 87.0715 182.791 85.6035 181.506 83.896C181.11 83.3754 180.327 82.5529 179.596 81.9491L182.655 80.7413C183.438 81.3764 184.367 82.3343 184.9 83.0527C187.29 86.2282 187.134 89.3517 184.513 91.309C180.911 93.9952 177.299 93.5996 174.731 90.1846C173.624 88.7166 172.705 86.7696 172.256 85.0101L172.235 84.9996Z" fill="black"/>
<path d="M184.607 93.7245C188.261 92.0066 192.041 93.7558 194.098 98.0974C195.601 101.273 195.048 104.282 192.74 105.365C190.652 106.343 188.428 105.24 187.207 102.647C186.685 101.544 186.445 100.523 186.497 99.6383L188.731 99.4196C188.804 99.7736 188.909 100.117 189.023 100.419C189.504 101.502 190.047 101.877 190.704 101.627C191.268 101.419 191.362 100.482 190.892 99.4821C189.942 97.4831 188.073 96.6293 186.413 97.4102C184.795 98.1702 184.618 100.138 185.85 102.751C186.299 103.709 187.05 104.906 187.791 105.896L184.785 106.447C184.169 105.906 183.333 104.646 182.717 103.334C180.598 98.8366 181.277 95.2967 184.607 93.7245Z" fill="black"/>
<path d="M199.266 115.516L200.08 120.066L193.043 119.514L192.218 114.943L199.255 115.526L199.266 115.516Z" fill="black"/>
<path d="M194.16 122.502C198.201 122.45 200.926 125.594 200.988 130.404C201.04 133.913 199.286 136.422 196.739 136.464C194.432 136.495 192.866 134.569 192.824 131.706C192.803 130.488 193.012 129.457 193.429 128.676L195.549 129.405C195.476 129.759 195.423 130.113 195.403 130.436C195.392 131.622 195.726 132.185 196.426 132.237C197.021 132.278 197.501 131.466 197.48 130.363C197.449 128.145 196.102 126.594 194.265 126.625C192.479 126.646 191.498 128.364 191.54 131.258C191.55 132.31 191.738 133.715 191.999 134.923L189.034 134.184C188.7 133.434 188.46 131.945 188.439 130.488C188.376 125.521 190.475 122.575 194.15 122.523L194.16 122.502Z" fill="black"/>
<path d="M199.85 141.191L199.151 145.761L187.917 140.941L188.616 136.318L199.84 141.191H199.85Z" fill="black"/>
<path d="M199.349 150.54C203.379 152.841 205.185 156.693 204.099 160.681C203.692 162.076 202.868 163.534 202.137 164.148L199.923 162.68C200.31 161.972 200.633 161.108 200.779 160.473C201.322 158.078 200.163 156.131 197.084 154.372L186.257 148.177L187.468 143.752L199.339 150.54H199.349Z" fill="black"/>
<path d="M186.695 149.811L188.867 151.748C188.564 152.144 188.481 152.248 188.408 152.393C188.147 152.956 188.387 153.393 189.577 154.372L195.434 159.286L193.607 163.169L192.813 162.503C192.928 163.398 192.709 164.45 192.197 165.47C190.997 167.948 188.606 168.896 186.257 167.792C185.818 167.584 185.401 167.334 184.586 166.709L180.17 163.055L182.091 158.973L187.061 163.096C187.353 163.357 187.645 163.513 187.76 163.575C188.564 163.95 189.337 163.596 189.786 162.638C190.12 161.93 190.245 161.035 190.078 160.421L185.829 156.85C184.273 155.517 183.835 154.09 184.513 152.591C184.952 151.665 185.63 150.79 186.695 149.791V149.811Z" fill="black"/>
<path d="M144.746 197.871C144.777 198.235 144.809 198.475 144.892 198.735C145.331 200.068 146.657 200.463 148.536 199.839C149.465 199.537 150.509 198.995 151.417 198.381L151.678 201.765C150.593 202.462 148.901 203.275 147.763 203.649C144.266 204.795 141.802 203.816 140.841 200.89C140.612 200.193 140.455 199.37 140.382 198.371L140.079 193.467L144.37 192.061L144.746 197.881V197.871Z" fill="black"/>
<path d="M138.805 194.716L138.315 197.871C137.083 197.663 135.454 197.559 134.619 197.673C132.551 197.954 131.56 199.245 131.768 201.338C131.904 202.9 133.178 203.629 135.297 203.327C135.945 203.233 137.051 202.952 137.928 202.608L137.5 205.857C136.571 206.231 135.276 206.575 134.389 206.7C130.443 207.241 127.78 205.596 127.331 202.358C126.715 197.913 128.814 194.956 133.053 194.362C134.88 194.112 137.03 194.248 138.784 194.716H138.805Z" fill="black"/>
<path d="M125.201 201.286C124.951 205.305 121.589 207.772 116.786 207.47C113.268 207.252 110.898 205.315 111.055 202.785C111.201 200.495 113.237 199.079 116.108 199.256C117.319 199.329 118.342 199.61 119.094 200.089L118.206 202.14C117.862 202.036 117.517 201.963 117.194 201.911C116.003 201.807 115.419 202.098 115.325 202.796C115.231 203.389 116.014 203.92 117.121 203.993C119.334 204.128 120.984 202.91 121.098 201.078C121.213 199.297 119.574 198.194 116.682 198.017C115.628 197.954 114.218 198.017 112.986 198.194L113.957 195.299C114.73 195.018 116.233 194.904 117.695 194.987C122.664 195.299 125.452 197.611 125.222 201.276L125.201 201.286Z" fill="black"/>
<path d="M98.9438 203.566L94.5588 202.077L98.4531 196.216L102.859 197.715L98.9438 203.577V203.566Z" fill="black"/>
<path d="M95.2793 195.726C93.3687 199.266 89.2761 200.109 85.0373 197.84C81.9365 196.174 80.5897 193.425 81.8007 191.187C82.8865 189.167 85.34 188.73 87.8666 190.083C88.942 190.656 89.7459 191.333 90.2261 192.093L88.5557 193.592C88.2842 193.352 88.0023 193.144 87.7309 192.967C86.6973 192.384 86.0396 192.395 85.6637 192.988C85.3296 193.488 85.8203 194.3 86.7913 194.82C88.7436 195.872 90.7586 195.445 91.6356 193.831C92.4813 192.259 91.4581 190.572 88.9002 189.209C87.971 188.709 86.6555 188.188 85.4653 187.824L87.5534 185.606C88.3782 185.679 89.7877 186.189 91.0823 186.887C95.4672 189.24 97.0333 192.509 95.2897 195.737L95.2793 195.726Z" fill="black"/>
<path d="M76.1524 191.603L72.4878 188.782L82.1556 181.317L85.8619 184.169L76.1524 191.603Z" fill="black"/>
<path d="M68.2073 186.679C64.24 189.094 59.9803 188.813 57.0048 185.939C55.9712 184.909 55.0942 183.482 54.9062 182.556L57.2658 181.337C57.6938 182.014 58.2994 182.712 58.7901 183.149C60.638 184.784 62.8932 184.711 65.9313 182.868L76.591 176.402L79.9006 179.599L68.2178 186.689L68.2073 186.679Z" fill="black"/>
<path d="M74.9413 175.965L72.1955 176.923C71.9971 176.465 71.9345 176.34 71.8405 176.205C71.4751 175.705 70.9739 175.705 69.5436 176.267L62.4024 179.005L59.8758 175.528L60.8468 175.163C60.0115 174.841 59.1867 174.122 58.5394 173.196C56.942 170.947 57.2657 168.406 59.3642 166.886C59.761 166.605 60.189 166.355 61.1286 165.949L66.4637 163.857L69.126 167.511L63.1123 169.864C62.7365 169.999 62.465 170.166 62.3502 170.249C61.6298 170.77 61.5671 171.613 62.1936 172.467C62.6529 173.102 63.3838 173.643 63.9998 173.799L69.1886 171.811C71.1097 171.093 72.5713 171.394 73.5632 172.717C74.1687 173.55 74.6072 174.56 74.9622 175.976L74.9413 175.965Z" fill="black"/>
<path d="M53.0687 116.109C52.7346 115.964 52.5049 115.87 52.2439 115.818C50.8657 115.558 49.8739 116.526 49.5189 118.462C49.3414 119.42 49.3101 120.597 49.4041 121.679L46.3033 120.274C46.2093 118.993 46.3242 117.119 46.5434 115.953C47.222 112.34 49.2788 110.664 52.3065 111.237C53.0269 111.372 53.8308 111.632 54.7391 112.049L59.1972 114.152L58.3619 118.587L53.0687 116.109Z" fill="black"/>
<path d="M58.7066 112.455L56.18 110.497C56.963 109.529 57.84 108.155 58.1428 107.374C58.8945 105.437 58.2472 103.938 56.3053 103.105C54.8645 102.47 53.6117 103.23 52.8495 105.219C52.6198 105.823 52.3379 106.926 52.2022 107.863L49.5608 105.916C49.6861 104.917 50.0097 103.626 50.3334 102.793C51.7637 99.0865 54.4991 97.5664 57.5581 98.7325C61.7552 100.346 63.3317 103.615 61.7969 107.603C61.1392 109.321 59.9699 111.133 58.7066 112.434V112.455Z" fill="black"/>
<path d="M59.5313 97.3998C56.1382 95.2342 55.6057 91.1008 58.2054 87.0612C60.1055 84.1043 62.9558 82.9694 65.096 84.3437C67.038 85.5827 67.2781 88.0502 65.7329 90.4553C65.0752 91.4756 64.3339 92.2253 63.5509 92.6521L62.1832 90.8822C62.4442 90.6323 62.6739 90.3616 62.8722 90.1013C63.5404 89.1122 63.5717 88.4667 63.008 88.0398C62.5381 87.6754 61.682 88.0919 61.0869 89.0289C59.8863 90.8926 60.1577 92.9228 61.7133 93.9119C63.2168 94.8698 64.9812 93.9848 66.5473 91.5485C67.1215 90.6635 67.7375 89.3933 68.1968 88.2377L70.264 90.4865C70.1283 91.2986 69.5019 92.6626 68.7189 93.8911C66.0252 98.0765 62.653 99.378 59.5522 97.3998H59.5313Z" fill="black"/>
<path d="M70.2744 73.3804L73.6989 70.2673L76.9667 76.5038L73.5214 79.6273L70.2744 73.37V73.3804Z" fill="black"/>
<path d="M78.9085 73.9843C76.7265 70.6005 77.9585 66.6234 82.0093 64.0205C84.964 62.1152 88.0335 62.2713 89.4116 64.4057C90.654 66.3318 89.8605 68.6848 87.4384 70.2361C86.4152 70.8921 85.4338 71.2669 84.5359 71.3294L84.0243 69.1533C84.3689 69.0284 84.6925 68.8826 84.9744 68.7369C85.9871 68.1122 86.2899 67.5396 85.9558 66.9149C85.6739 66.3839 84.7343 66.4151 83.7947 67.019C81.9258 68.2163 81.3307 70.1841 82.3226 71.725C83.2935 73.2243 85.2668 73.141 87.6994 71.5792C88.5868 71.0066 89.683 70.1112 90.5809 69.2471L91.5206 72.1415C91.0612 72.8286 89.9232 73.8073 88.6912 74.5986C84.5046 77.2952 80.8818 77.0765 78.8877 73.9947L78.9085 73.9843Z" fill="black"/>
<path d="M91.7712 59.2728L96.0204 57.4404L97.8788 69.4969L93.5774 71.3502L91.7607 59.2728H91.7712Z" fill="black"/>
<path d="M99.9774 54.7334C99.7895 50.1106 102.107 46.5291 106.075 45.3422C107.484 44.9465 109.155 44.8632 110.063 45.1548L109.99 47.7993C109.186 47.8409 108.278 48.0283 107.662 48.247C105.333 49.0591 104.3 51.0685 104.435 54.6084L104.916 67.0502L100.51 68.3724L99.9774 54.7334Z" fill="black"/>
<path d="M106.075 65.8217L106.565 62.9585C107.066 63.0105 107.202 63.021 107.359 63.0001C107.975 62.9273 108.225 62.49 108.413 60.9699L109.468 53.4111L113.738 52.8905L113.592 53.9109C114.281 53.3382 115.304 52.9634 116.432 52.8489C119.177 52.5366 121.245 54.0566 121.568 56.6283C121.631 57.1072 121.631 57.5966 121.537 58.6169L120.796 64.2912L116.306 64.843L117.152 58.4503C117.215 58.0651 117.204 57.7319 117.183 57.607C117.079 56.722 116.358 56.2639 115.314 56.3888C114.531 56.4825 113.707 56.8573 113.279 57.3259L112.516 62.8127C112.224 64.8326 111.243 65.9674 109.604 66.1965C108.58 66.3214 107.474 66.2173 106.064 65.8425L106.075 65.8217Z" fill="black"/>
</g>
<defs>
<clipPath id="clip0_1294_637">
<rect width="252" height="253" fill="white"/>
</clipPath>
</defs>
</svg>
