<svg width="135" height="150" viewBox="0 0 135 150" fill="none" xmlns="http://www.w3.org/2000/svg">
<g clip-path="url(#clip0_875_3467)">
<path d="M4.23361 131.447C2.26621 131.126 0.935274 129.26 1.25885 127.276L12.7641 56.7267C12.7641 56.7267 19.0685 0.195475 77.7049 9.75802C136.341 19.3206 123.694 79.9501 123.694 79.9501L113.005 145.494C112.681 147.478 110.826 148.824 108.859 148.504L4.23453 131.441L4.23361 131.447Z" fill="white" stroke="black" stroke-miterlimit="10"/>
<path d="M5.24567 127.422L16.579 57.9275C16.579 57.9275 22.5222 4.94821 76.8717 13.8116C131.221 22.6751 119.392 79.5148 119.392 79.5148L108.824 144.32L5.24475 127.428L5.24567 127.422Z" fill="#9BE0CE" stroke="black" stroke-width="2" stroke-miterlimit="10"/>
<path d="M48.8287 28.5308C48.3544 27.0762 48.051 26.2629 47.8331 25.8397L47.33 25.7229L41.6609 28.3976L40.6346 26.176C41.8157 25.4428 43.5988 24.501 45.9106 23.414C48.7135 22.0946 49.8137 22.7023 50.9686 25.8939C51.718 27.9488 52.3081 30.0298 53.0212 32.5534L50.4415 33.7703C49.9342 32.1309 49.5205 30.6921 48.8213 28.5411L48.8287 28.5308ZM42.8688 30.6662L45.4671 29.4408L47.2218 35.2879L44.6663 36.4972L42.8735 30.6728L42.8688 30.6662Z" fill="black" stroke="black" stroke-miterlimit="10"/>
<path d="M59.4906 21.2772L62.4156 20.863L62.3588 27.4389L59.4515 27.8502L59.485 21.2763L59.4906 21.2772Z" fill="black" stroke="black" stroke-miterlimit="10"/>
<path d="M70.6049 31.4803L71.1403 19.1901L73.812 19.6258L73.7527 21.1148C74.9654 21.2432 76.2639 21.4086 77.4656 21.6046C79.8019 21.9856 80.6768 23.0946 80.3284 25.231C79.7097 29.0245 76.648 31.6846 72.3709 32.1213L70.5984 31.485L70.6049 31.4803ZM77.4466 25.3802C77.5854 24.529 77.2418 24.1026 76.3084 23.9504L73.6368 23.5147L73.3582 29.1633L73.6975 29.3344C75.6873 28.7793 77.1479 27.2468 77.4466 25.3802Z" fill="black" stroke="black" stroke-miterlimit="10"/>
<path d="M82.2093 33.9631L84.0239 32.0543C84.596 32.6279 85.1382 33.2082 85.7112 33.7761L86.0333 33.736C86.1338 33.683 86.7124 32.9846 87.2965 32.1829C87.9595 31.3189 88.6307 30.3347 89.6962 28.6567L87.7832 27.6851L88.9655 25.326L93.4318 27.5994L92.9485 28.9094C91.7605 30.7757 91.1552 31.6723 89.9379 33.2965C87.6481 36.395 86.5606 36.9063 84.547 35.8835C83.9 35.5581 83.0474 34.8404 82.2046 33.9565L82.2093 33.9631Z" fill="black" stroke="black" stroke-miterlimit="10"/>
<path d="M92.4377 39.184L94.655 37.937C96.365 40.6809 97.7636 42.836 98.0062 43.0723L98.323 43.1702C99.2663 42.6991 101.626 40.8618 102.773 39.7007C103.19 39.2825 103.414 39.0471 103.445 38.9943L103.365 38.8192L101.245 36.6855L99.1735 39.3277L97.2119 37.3529L100.002 33.7919L101.072 33.0001L107.007 38.9676C106.593 39.7103 106.274 40.2253 105.905 40.6918C103.83 42.7895 101.325 44.6435 100.084 45.0025C98.345 45.6042 97.0357 45.1881 95.3158 43.4552C94.1381 42.2679 92.9723 40.5501 92.4433 39.1849L92.4377 39.184Z" fill="black" stroke="black" stroke-miterlimit="10"/>
<path d="M35.6915 41.8502C35.643 41.8307 35.59 41.8394 35.55 41.8734C34.6816 42.5188 33.4518 42.2141 32.9795 41.2401C32.9579 41.1961 32.9122 41.1597 32.8619 41.1515C31.7981 40.9896 31.144 39.8992 31.4947 38.8743C31.5142 38.8254 31.5057 38.7719 31.4721 38.7317C30.8342 37.8581 31.1398 36.6175 32.1073 36.1387C32.151 36.1169 32.1872 36.0708 32.1955 36.02C32.3589 34.9472 33.4424 34.2849 34.4582 34.6357C34.5066 34.6552 34.5597 34.6465 34.5997 34.6125C35.468 33.9671 36.6979 34.2718 37.1702 35.2458C37.1917 35.2898 37.2374 35.3262 37.2877 35.3344C38.3515 35.4963 39.0057 36.5867 38.6549 37.6116C38.6355 37.6605 38.644 37.714 38.6776 37.7542C39.3155 38.6278 39.0099 39.8684 38.0424 40.3472C37.9987 40.369 37.9625 40.4151 37.9542 40.4659C37.7907 41.5387 36.7073 42.201 35.6915 41.8502Z" fill="#EAB7E6" stroke="black" stroke-miterlimit="10"/>
<path d="M109.816 53.9385C109.767 53.919 109.714 53.9277 109.674 53.9617C108.806 54.607 107.576 54.3023 107.104 53.3284C107.082 53.2843 107.036 53.248 106.986 53.2398C105.922 53.0778 105.268 51.9874 105.619 50.9625C105.638 50.9136 105.63 50.8602 105.596 50.82C104.958 49.9463 105.264 48.7058 106.231 48.227C106.275 48.2052 106.311 48.159 106.32 48.1083C106.483 47.0355 107.566 46.3731 108.582 46.724C108.631 46.7434 108.684 46.7347 108.724 46.7007C109.592 46.0554 110.822 46.3601 111.294 47.3341C111.316 47.3781 111.362 47.4145 111.412 47.4227C112.476 47.5846 113.13 48.675 112.779 49.6999C112.76 49.7488 112.768 49.8022 112.802 49.8424C113.44 50.7161 113.134 51.9567 112.167 52.4354C112.123 52.4572 112.087 52.5034 112.078 52.5541C111.915 53.6269 110.831 54.2893 109.816 53.9385Z" fill="#EAB7E6" stroke="black" stroke-miterlimit="10"/>
<path d="M85.4835 85.3093C88.5958 90.6429 80.2301 92.0851 79.2712 87.4094C78.5345 83.8346 83.6498 82.1632 85.4835 85.3093Z" fill="white"/>
<path d="M97.4735 87.3629C97.2412 88.4708 96.9859 87.9604 96.4963 88.0426C94.0769 88.4524 89.6813 88.3142 88.0115 90.4607C86.6817 92.1765 86.0667 94.6108 86.7565 96.7139C88.6667 102.523 95.1946 99.9648 99.6584 100.178C96.5909 113.322 85.5528 114.861 74.369 116.203C68.2469 116.94 49.8576 118.802 44.8215 117.032C21.1306 108.689 28.7522 80.0385 51.8865 80.9932C55.9866 89.7689 74.8257 92.7139 74.7823 79.2935C77.8378 79.8034 81.5749 78.5611 84.5696 78.9858C90.0114 79.746 94.0224 83.3686 97.4679 87.362L97.4735 87.3629ZM83.6482 84.0377C79.5447 82.8824 76.9604 88.4906 80.6331 90.2469C85.5782 92.61 88.7226 85.4671 83.6482 84.0377Z" fill="#EAB7E6" stroke="black" stroke-miterlimit="10"/>
<path d="M53.6047 77.5643C51.3897 76.8616 45.9976 73.1584 46.0835 70.6263C46.1212 69.5156 47.1667 68.1006 47.0803 67.7509C46.961 67.2512 40.9794 63.1162 39.9015 60.6836C38.3707 57.2282 41.801 55.7912 41.5539 54.3159C37.2132 51.9761 36.7503 41.8667 42.7418 45.3783C46.3248 47.473 54.6695 55.8356 58.1574 59.1473C62.6437 63.4087 74.3462 73.9103 74.5448 80.1865C74.6924 84.7704 71.8733 88.124 67.4536 88.4853C62.196 88.9183 47.7366 84.7664 53.6 77.5577L53.6047 77.5643Z" fill="white" stroke="black" stroke-miterlimit="10"/>
<path d="M72.0396 73.9104C71.2065 71.4541 74.5143 69.7483 74.6654 68.9628C74.7501 68.5137 73.9762 66.7499 73.9107 65.7092C73.695 62.3525 75.7565 56.5722 79.3639 60.0307C79.4364 55.9977 79.2868 51.3209 83.2348 48.9962C84.2337 49.2748 84.48 50.4029 84.6663 51.2665C85.5418 55.2921 85.9114 67.0992 85.4406 71.2524C84.6619 78.1735 80.4944 79.768 74.6392 79.0099L72.0396 73.9104Z" fill="white" stroke="black" stroke-miterlimit="10"/>
<path d="M89.1183 113.053L89.7165 112.763C92.564 111.381 95.0394 109.325 96.9197 106.768L97.0005 106.659C97.0005 106.659 107.979 115.689 100.341 120.866C93.62 125.418 89.1183 113.053 89.1183 113.053Z" fill="#EAB7E6" stroke="black" stroke-miterlimit="10"/>
<path d="M84.6296 127.84C82.6917 128.711 79.4229 128.594 77.5701 127.007C75.3097 125.071 75.7445 116.248 76.189 115.984L86.1937 114.098C87.4883 118.579 90.2338 125.317 84.624 127.84L84.6296 127.84Z" fill="#EAB7E6" stroke="black" stroke-miterlimit="10"/>
<path d="M86.6439 97.1932C85.8031 94.6084 86.8794 91.4566 89.0457 89.8193C90.3473 88.8395 99.0009 87.4616 100.547 87.7948C106.903 89.1785 107.319 97.4634 100.742 99.6197C96.789 100.919 88.2374 102.094 86.6439 97.1932ZM102.005 90.9258C99.4339 90.5413 98.3875 95.023 101.395 95.4731C103.966 95.8576 105.013 91.3758 102.005 90.9258ZM94.8187 91.3278C92.2413 91.0175 90.7894 94.8544 93.0882 96.0279C96.0974 97.5602 99.1909 91.8557 94.8187 91.3278Z" fill="#EAB7E6" stroke="black" stroke-miterlimit="10"/>
<path d="M49.2509 117.702L44.2311 127.97C41.8653 132.133 33.6014 127.568 35.1722 123.565C36.1123 121.178 38.8192 117.175 39.8533 114.74L41.2209 115.466C42.995 116.41 44.8998 117.079 46.8711 117.447L49.2518 117.696L49.2509 117.702Z" fill="#EAB7E6" stroke="black" stroke-miterlimit="10"/>
<path d="M37.2328 112.935C33.941 116.021 30.414 121.076 25.3994 117.556C24.4314 116.877 23.0606 114.657 23.0982 113.512C23.2236 109.858 28.2077 106.458 31.3313 104.861C32.9258 108.524 34.3168 110.585 37.2318 112.941L37.2328 112.935Z" fill="#EAB7E6" stroke="black" stroke-miterlimit="10"/>
<path d="M94.9817 91.3486C99.5879 91.9898 96.4813 97.6691 93.2801 96.0475C90.8312 94.8091 92.2664 90.9694 94.9817 91.3486Z" fill="black"/>
<path d="M101.854 91.0401C104.915 91.5509 103.966 95.8923 101.346 95.4592C98.2849 94.9484 99.2339 90.607 101.854 91.0401Z" fill="black"/>
<path d="M84.3917 86.4447C87.0656 91.0182 79.8868 92.2547 79.0597 88.2486C78.4293 85.183 82.8113 83.7508 84.3917 86.4447Z" fill="black"/>
</g>
<defs>
<clipPath id="clip0_875_3467">
<rect width="114.394" height="133.07" fill="white" transform="translate(21.4185) rotate(9.26237)"/>
</clipPath>
</defs>
</svg>
