<svg width="66" height="68" viewBox="0 0 66 68" fill="none" xmlns="http://www.w3.org/2000/svg">
<path d="M56.1566 51.9713L56.0341 54.6465C55.8253 59.1399 51.6447 62.3773 47.2371 61.4568L44.6362 60.9127C43.3244 60.6407 41.9717 61.1258 41.1365 62.1732L39.4797 64.2499C36.6699 67.773 31.3682 67.9362 28.3405 64.5945L26.5793 62.6493C25.6806 61.6563 24.2916 61.2528 22.9979 61.611L20.4696 62.3138C16.1211 63.5199 11.7271 60.5364 11.2505 56.0521L10.9736 53.4449C10.8329 52.1118 9.94777 50.9692 8.69041 50.5022L6.23472 49.5818C2.01328 47.9993 0.215761 43.0163 2.45812 39.1078L3.78356 36.8044C4.45082 35.6436 4.40543 34.2063 3.67008 33.0909L2.20846 30.8737C-0.269931 27.1194 1.20984 22.0411 5.31326 20.1956L7.75534 19.0984C8.97638 18.5497 9.78436 17.3618 9.84337 16.0287L9.96592 13.3535C10.1747 8.86015 14.3553 5.62273 18.7629 6.54318L21.3638 7.08728C22.6756 7.35933 24.0283 6.87417 24.8635 5.82677L26.5203 3.75011C29.3301 0.22704 34.6318 0.0638089 37.6595 3.40551L39.4207 5.35068C40.3194 6.34367 41.7084 6.74721 43.0021 6.38901L45.5304 5.68621C49.8789 4.48012 54.2729 7.46362 54.7495 11.9479L55.0264 14.5551C55.1671 15.8882 56.0522 17.0308 57.3096 17.4978L59.7653 18.4182C63.9867 20.0007 65.7842 24.9837 63.5419 28.8922L62.2164 31.1956C61.5492 32.3564 61.5946 33.7937 62.3299 34.9091L63.7915 37.1263C66.2699 40.8806 64.7902 45.9589 60.6867 47.8044L58.2447 48.9016C57.0236 49.4503 56.2156 50.6382 56.1566 51.9713Z" fill="white" stroke="#CDCDCD" stroke-width="0.901917" stroke-miterlimit="10"/>
</svg>
