<svg width="630" height="630" viewBox="0 0 630 630" fill="none" xmlns="http://www.w3.org/2000/svg">
<g clip-path="url(#clip0_1706_470)">
<path d="M526.707 0H103.293C46.2461 0 0 46.2461 0 103.293V526.707C0 583.754 46.2461 630 103.293 630H526.707C583.754 630 630 583.754 630 526.707V103.293C630 46.2461 583.754 0 526.707 0Z" fill="#C1FF7E"/>
<path d="M172.231 412.574C171.406 406.16 176.131 401.172 182.808 401.172C189.484 401.172 195.035 406.16 195.597 412.574C196.16 419.25 191.697 424.238 185.321 424.238C178.944 424.238 173.093 419.25 172.231 412.574Z" fill="black"/>
<path d="M423.938 412.424C423.113 406.873 427.539 402.147 433.39 402.147C439.241 402.147 444.529 406.873 445.092 412.424C445.354 418.537 441.191 423.263 435.64 423.263C429.527 423.263 424.501 418.537 423.976 412.424H423.938ZM434.215 444.979C433.39 439.128 437.816 434.703 443.667 434.703C449.518 434.703 455.069 439.166 455.331 444.979C455.594 450.793 451.431 455.556 445.88 455.556C439.766 455.556 435.04 450.83 434.215 444.979Z" fill="black"/>
<path d="M565.976 392.958C561.775 392.958 529.257 394.908 525.919 394.908C525.281 394.908 524.644 394.946 524.044 395.021C523.631 395.096 523.218 395.133 522.843 395.246C522.768 395.283 522.693 395.283 522.618 395.321C522.468 395.321 522.318 395.321 522.206 395.433C522.018 395.471 521.868 395.546 521.681 395.621H521.643C521.456 395.658 521.306 395.733 521.156 395.808C520.931 395.883 520.705 395.996 520.518 396.146C520.48 396.146 520.443 396.183 520.405 396.183C520.18 396.258 519.993 396.408 519.843 396.521C519.805 396.521 519.805 396.521 519.768 396.521C519.58 396.671 519.393 396.821 519.205 397.008C519.205 397.008 519.13 397.046 519.093 397.083C518.943 397.233 518.793 397.383 518.68 397.533C518.605 397.571 518.53 397.684 518.493 397.759C518.418 397.834 518.38 397.909 518.343 397.984C518.118 398.284 517.93 398.584 517.78 398.959C517.78 398.959 517.742 399.071 517.705 399.146C517.592 399.484 517.48 399.859 517.405 400.234V400.346C517.33 400.722 517.292 401.134 517.292 401.547C517.292 402.409 517.442 403.234 517.78 403.985L517.817 404.06V404.135C517.817 404.135 517.892 404.322 517.93 404.397C518.042 404.622 518.193 404.885 518.343 405.11C518.53 405.41 518.755 405.71 519.018 405.972C519.243 406.198 519.468 406.423 519.73 406.648C520.105 406.985 520.518 407.248 521.006 407.51C521.418 407.773 521.831 407.96 522.281 408.11C522.393 408.185 522.543 408.26 522.693 408.298C523.031 408.448 523.406 408.56 523.781 408.635C524.006 408.71 524.231 408.748 524.456 408.823C524.906 408.898 525.394 409.011 525.919 409.048C545.647 411.261 561.25 411.261 565.976 411.261C570.139 411.261 575.128 407.923 575.128 402.072C575.128 397.083 571.527 392.92 565.976 392.92V392.958Z" fill="black"/>
<path d="M517.292 401.584C517.292 402.447 517.442 403.272 517.78 404.022C517.48 403.272 517.292 402.484 517.292 401.584Z" fill="white"/>
<path d="M329.309 408.786C329.309 414.637 324.283 417.975 320.12 417.975C318.169 417.975 314.006 417.712 308.155 417.412C309.805 422.4 311.493 428.552 312.318 431.89C314.269 440.779 311.493 446.63 305.38 446.892C298.141 447.155 294.24 444.117 293.977 436.616L293.415 416.324L280.062 415.499C275.074 415.237 271.436 412.424 271.436 408.26C271.436 404.097 274.512 401.322 280.062 401.322C283.401 401.322 315.956 399.671 320.12 399.671C325.671 399.671 329.309 403.572 329.309 408.861V408.786Z" fill="black"/>
<path d="M292.29 308.718C290.227 304.967 286.776 302.904 283.176 302.904C281.15 302.904 279.087 303.542 277.212 304.892C271.774 308.83 270.048 316.144 273.236 321.995C275.187 325.521 278.487 327.433 282.088 327.433C284.188 327.433 286.364 326.758 288.427 325.408C293.79 321.845 295.365 314.306 292.29 308.718Z" fill="black"/>
<path d="M57.6853 243.944V279.8H78.3515V322.558H121.934V243.944H57.6853Z" fill="black"/>
<path d="M173.056 243.943V206.737H130.298V279.8H202.274L163.942 387.332H208.612L246.081 283.551V243.943H173.056Z" fill="black"/>
<path d="M361.114 313.444C361.114 364.715 337.41 387.332 281.713 387.332H251.932V351.475H280.325C311.493 351.475 317.569 338.273 317.569 313.444C317.569 288.614 306.805 279.8 280.325 279.8H253.583V243.944H281.713C335.76 243.944 361.114 266.823 361.114 313.444Z" fill="black"/>
<path d="M384.369 183.708C384.144 183.708 383.956 183.745 383.768 183.745C383.693 183.745 383.618 183.745 383.543 183.783C383.844 183.745 384.106 183.745 384.406 183.745H384.669C384.669 183.745 384.481 183.708 384.369 183.708Z" fill="black"/>
<path d="M384.369 183.708C384.144 183.708 383.956 183.745 383.768 183.745C383.693 183.745 383.618 183.745 383.543 183.783C383.844 183.745 384.106 183.745 384.406 183.745H384.669C384.669 183.745 384.481 183.708 384.369 183.708ZM437.891 321.245C438.341 323.945 439.278 326.683 440.666 329.459C441.191 330.584 441.716 331.747 442.316 332.909C441.079 329.346 439.541 325.408 437.891 321.245Z" fill="white"/>
<path d="M486.199 425.138C486.387 427.764 486.199 430.202 485.674 432.415C485.562 432.827 485.487 433.202 485.374 433.54C485.487 433.202 485.599 432.827 485.712 432.415C486.274 430.202 486.424 427.764 486.199 425.138ZM437.891 321.245C438.341 323.945 439.278 326.683 440.666 329.459C441.191 330.584 441.716 331.747 442.316 332.909C441.079 329.346 439.541 325.408 437.891 321.245ZM435.04 228.941H434.178C428.889 228.941 423.938 229.841 419.85 231.716C418.462 232.354 417.187 233.104 416.024 233.929C411.298 237.342 408.373 242.481 408.223 249.57C407.96 263.26 420.3 270.236 440.666 272.374C488.9 277.212 529.107 312.318 529.107 347.95C529.107 358.677 523.481 363.515 517.592 365.915C513.579 367.528 510.616 369.141 510.616 372.892C510.616 377.167 514.104 380.656 518.38 380.918C519.093 380.993 519.768 380.993 520.48 380.993C528.994 380.993 536.946 377.505 543.285 371.166C543.735 370.754 544.185 370.266 544.635 369.779C545.497 368.803 546.36 367.791 547.148 366.703C548.348 365.09 549.473 363.365 550.486 361.527C551.161 360.289 551.798 358.977 552.399 357.664C555.362 350.95 557.199 342.999 557.537 334.035C559.675 272.111 485.149 229.729 435.04 228.941Z" fill="black"/>
<path d="M510.091 420.6C508.553 429.227 505.328 435.715 501.615 440.404C501.014 441.116 500.452 441.791 499.852 442.429C499.552 442.767 499.252 443.067 498.952 443.367C498.351 443.967 497.751 444.492 497.151 445.017C496.551 445.505 495.951 445.992 495.351 446.442H495.313C494.713 446.855 494.151 447.23 493.551 447.605C492.95 447.943 492.35 448.28 491.788 448.543C491.188 448.843 490.625 449.068 490.1 449.293C489.537 449.48 489.012 449.668 488.525 449.78C488 449.93 487.512 450.043 487.062 450.08C486.612 450.155 486.162 450.193 485.749 450.193C485.337 450.193 484.962 450.155 484.624 450.08C480.611 449.293 478.173 446.067 479.523 442.579C480.536 440.066 483.686 438.978 485.374 433.54C485.487 433.202 485.599 432.827 485.712 432.415C486.274 430.202 486.424 427.764 486.199 425.138C486.199 424.726 486.162 424.313 486.087 423.863C486.049 423.113 485.937 422.325 485.824 421.538C485.712 420.6 485.524 419.662 485.299 418.725C484.924 416.962 484.474 415.124 483.874 413.249C483.611 412.349 483.311 411.448 483.011 410.511C478.623 397.346 470.559 382.531 463.995 370.229C456.681 356.389 447.905 343.899 442.316 332.909C441.079 329.346 439.541 325.408 437.891 321.245C436.278 312.468 439.428 304.592 446.817 300.504C450.193 298.703 453.643 297.803 457.057 297.803C459.457 297.803 461.82 298.253 464.108 299.153C465.008 299.529 465.908 299.941 466.808 300.429C467.708 300.916 468.571 301.479 469.434 302.154C470.296 302.792 471.122 303.504 471.909 304.292C472.359 304.667 472.772 305.08 473.147 305.53C473.972 306.392 474.76 307.292 475.472 308.305C476.222 309.28 476.935 310.368 477.648 311.493C484.099 321.17 491.338 335.91 496.964 350.65C503.19 367.078 507.953 385.569 509.866 400.384C510.091 402.222 510.279 403.985 510.429 405.71V405.785C510.879 411.636 510.804 416.737 510.091 420.6Z" fill="black"/>
<path d="M486.199 425.138C486.387 427.764 486.199 430.202 485.674 432.415C485.562 432.827 485.487 433.202 485.374 433.54C485.487 433.202 485.599 432.827 485.712 432.415C486.274 430.202 486.424 427.764 486.199 425.138ZM517.817 404.097C517.705 402.859 517.555 401.659 517.405 400.384C517.33 400.759 517.292 401.172 517.292 401.584C517.292 402.447 517.442 403.272 517.78 404.022L517.817 404.097Z" fill="white"/>
<path d="M383.768 183.745C383.768 183.745 383.618 183.745 383.543 183.783C383.844 183.745 384.106 183.745 384.406 183.745H383.768Z" fill="black"/>
<path d="M440.966 201.899C440.741 202.349 440.441 202.761 440.104 203.136C439.053 204.261 437.591 204.937 435.64 204.937C432.265 204.937 427.426 202.986 420.788 198.073C416.699 195.072 411.711 192.184 406.573 189.821C405.185 189.184 403.835 188.584 402.447 188.059C400.797 187.383 399.146 186.783 397.533 186.258C394.533 185.283 391.607 184.533 388.907 184.12C388.044 183.97 387.182 183.895 386.356 183.82C385.756 183.745 385.194 183.745 384.669 183.745C384.594 183.708 384.481 183.708 384.369 183.708C384.144 183.708 383.956 183.745 383.769 183.745C383.693 183.745 383.618 183.745 383.543 183.783C383.131 183.783 382.756 183.82 382.381 183.858C382.006 183.895 381.668 183.933 381.331 184.008C380.993 184.045 380.655 184.12 380.318 184.233C379.98 184.308 379.68 184.42 379.38 184.533C378.93 184.683 378.48 184.908 378.105 185.171C369.816 190.534 373.304 209.812 386.169 231.266C394.27 244.806 417.75 291.652 430.652 323.345C432.452 327.846 434.065 332.009 435.378 335.76C436.765 339.623 437.816 343.036 438.491 345.812C442.504 362.427 437.703 372.892 426.714 379.043C423.938 380.618 420.45 381.518 416.774 381.518C415.162 381.518 413.549 381.368 411.936 380.993C411.111 380.805 410.323 380.618 409.536 380.355H409.498C408.71 380.055 407.923 379.755 407.135 379.418C403.985 377.992 401.022 375.742 398.546 372.629C392.395 364.865 380.881 356.014 376.042 353.876C372.291 352.263 370.679 348.775 371.204 345.812C371.466 344.574 372.029 343.599 372.817 342.811C373.342 342.286 373.942 341.874 374.617 341.648C374.879 341.498 375.142 341.386 375.442 341.311C375.667 341.198 375.93 341.123 376.192 341.123C376.455 341.048 376.68 341.011 376.98 340.973C377.805 340.861 378.63 340.861 379.53 340.973C389.169 342.324 396.933 344.762 402.859 347.687C380.881 299.979 358.264 269.861 340.036 238.243C326.121 213.826 333.622 182.47 358.526 168.255C359.802 167.542 361.114 166.83 362.427 166.192C363.74 165.555 365.128 164.954 366.515 164.354C367.866 163.792 369.291 163.267 370.716 162.779C372.141 162.291 373.567 161.841 375.029 161.429C380.88 159.854 386.957 158.953 392.995 158.953C397.421 158.953 401.809 159.403 406.085 160.416C408.223 160.904 410.323 161.541 412.386 162.291C422.738 166.155 432.04 173.431 438.678 185.171C438.941 185.621 439.203 186.071 439.428 186.558C439.991 187.684 440.479 188.921 440.854 190.121C440.929 190.346 441.004 190.572 441.079 190.834C441.304 191.584 441.491 192.334 441.641 193.084C441.754 193.76 441.866 194.397 441.941 195.035C442.204 197.66 441.941 200.098 440.966 201.899Z" fill="black"/>
</g>
<defs>
<clipPath id="clip0_1706_470">
<rect width="630" height="630" fill="white"/>
</clipPath>
</defs>
</svg>
