<svg width="356" height="235" viewBox="0 0 356 235" fill="none" xmlns="http://www.w3.org/2000/svg">
<g clip-path="url(#clip0_1978_1336)">
<path d="M241.809 137.144L252.895 121.494C261.017 128.051 266.695 132.334 267.448 132.41L268.597 132.302C270.502 130.276 273.403 124.529 275.449 118.67L274.807 117.761L258.563 111.497L265.596 93.4028L304.484 108.38C304.387 111.225 303.441 115.067 301.841 119.191C297.198 131.124 289.453 143.298 283.982 147.384C278.2 151.688 269.222 151.887 258.865 147.898C252.585 145.483 246.133 141.448 241.809 137.127L241.809 137.144Z" fill="black"/>
<path d="M160.021 127.955L164.884 109.43C174.803 112.733 181.634 114.762 182.373 114.565L183.423 114.064C184.494 111.502 185.175 105.101 185.031 98.9144L184.113 98.2917L166.693 98.1166L166.889 78.6926L208.578 79.1119C209.493 81.7964 209.968 85.7375 209.923 90.1675C209.794 102.963 206.86 117.077 203.154 122.817C199.256 128.861 190.932 132.185 179.833 132.074C173.085 132.006 165.631 130.482 160.055 127.955L160.021 127.955Z" fill="black"/>
<path d="M153.475 109.435L156.12 129.177L109.841 142.327L107.196 122.584L126.951 116.972C126.142 112.261 125.372 108.828 124.454 106.416L123.295 105.774L105.24 110.909L99.7952 91.9568C107.844 88.8172 115.148 86.4198 122.913 84.2145C136.776 80.2813 142.459 82.4174 145.488 92.9276C146.464 96.2944 147.531 102.644 148.579 110.834L153.475 109.452L153.475 109.435Z" fill="black"/>
<path d="M74.1425 137.196L90.684 130.956L99.2625 146.634L79.5761 157.29L74.1423 137.213L74.1425 137.196ZM52.6743 89.9663L76.1844 77.2351L88.4011 122.907L72.4521 131.539L52.6743 89.9663Z" fill="black"/>
<path d="M228.804 82.9791L253.247 89.9047L231.839 137.164L207.396 130.238L228.804 82.9791Z" fill="black"/>
</g>
<defs>
<clipPath id="clip0_1978_1336">
<rect width="252" height="80" fill="white" transform="translate(52.8047 77) rotate(0.576218)"/>
</clipPath>
</defs>
</svg>
