<svg width="65" height="61" viewBox="0 0 65 61" fill="none" xmlns="http://www.w3.org/2000/svg">
<g filter="url(#filter0_d_7_348)">
<path d="M2 30C2 15.0883 14.0883 3 29 3H65V58H29C14.0883 58 2 45.9117 2 31V30Z" fill="#9895F4"/>
</g>
<path d="M49.1507 20.6003V34.9139C49.1507 35.234 48.958 35.4979 48.713 35.5124C45.9159 35.6733 43.0528 36.2377 40.4249 37.4824C40.1257 37.6246 39.8096 37.3334 39.8096 36.9188V22.8768C39.8096 22.6469 39.9115 22.4383 40.0702 22.3362C42.7125 20.6462 45.7395 20.0554 48.6836 20.0001C48.9403 19.995 49.1507 20.2648 49.1507 20.6003Z" fill="white"/>
<path d="M38.521 37.4722C35.9035 36.2335 33.0528 35.6767 30.2675 35.5141C30.014 35.4996 29.8154 35.2263 29.8154 34.896V20.6198C29.8154 20.2742 30.033 19.995 30.2982 20.0001C33.2377 20.0546 36.2425 20.6505 38.8874 22.331C39.052 22.4358 39.1572 22.6511 39.1572 22.8895V36.889C39.1572 37.3181 38.8306 37.6177 38.5216 37.4713L38.521 37.4722Z" fill="white"/>
<path d="M50.4082 23.2713C50.6211 23.3172 50.8719 23.6067 50.9229 23.8876C51.0078 28.7777 50.9353 32.1899 50.9627 37.0902C50.9399 37.5593 50.6603 37.9714 50.2906 37.985H43.7329L40.3896 37.9995C41.3283 37.4529 45.6416 36.3215 49.1363 35.946C49.8562 35.8686 49.7393 34.9202 49.7438 34.2587V23.2713C49.9476 23.3019 50.2141 23.2295 50.4082 23.2713Z" fill="white"/>
<path d="M28.5575 23.2713C28.3446 23.3172 28.0937 23.6067 28.0428 23.8876C27.9578 28.7777 28.0304 32.1899 28.0036 37.0902C28.0264 37.5593 28.306 37.9714 28.6757 37.985H30.4845H35.2341L38.5773 37.9995C37.6386 37.4529 33.3254 36.3215 29.8306 35.946C29.1108 35.8686 29.2277 34.9202 29.2231 34.2587V23.2713C29.0193 23.3019 28.7528 23.2295 28.5588 23.2713H28.5575Z" fill="white"/>
<defs>
<filter id="filter0_d_7_348" x="0" y="0" width="69" height="61" filterUnits="userSpaceOnUse" color-interpolation-filters="sRGB">
<feFlood flood-opacity="0" result="BackgroundImageFix"/>
<feColorMatrix in="SourceAlpha" type="matrix" values="0 0 0 0 0 0 0 0 0 0 0 0 0 0 0 0 0 0 127 0" result="hardAlpha"/>
<feOffset dx="1"/>
<feGaussianBlur stdDeviation="1.5"/>
<feComposite in2="hardAlpha" operator="out"/>
<feColorMatrix type="matrix" values="0 0 0 0 0 0 0 0 0 0 0 0 0 0 0 0 0 0 0.15 0"/>
<feBlend mode="normal" in2="BackgroundImageFix" result="effect1_dropShadow_7_348"/>
<feBlend mode="normal" in="SourceGraphic" in2="effect1_dropShadow_7_348" result="shape"/>
</filter>
</defs>
</svg>
