<svg width="65" height="61" viewBox="0 0 65 61" fill="none" xmlns="http://www.w3.org/2000/svg">
<g filter="url(#filter0_d_1598_3054)">
<path d="M2.26172 19C2.26172 10.1634 9.42516 3 18.2617 3H77.9994V58H18.2617C9.42515 58 2.26172 50.8366 2.26172 42V19Z" fill="#9895F4"/>
</g>
<path d="M50.0755 15.9671V39.028C50.0755 39.5437 49.765 39.9689 49.3704 39.9923C44.8639 40.2515 40.2512 41.1609 36.0173 43.1662C35.5353 43.3952 35.0259 42.9261 35.0259 42.2582V19.6348C35.0259 19.2645 35.1901 18.9284 35.4458 18.7638C39.7028 16.0412 44.5798 15.0893 49.323 15.0001C49.7366 14.9919 50.0755 15.4267 50.0755 15.9671Z" fill="white"/>
<path d="M32.9495 43.1497C28.7324 41.154 24.1396 40.257 19.6521 39.995C19.2438 39.9717 18.9238 39.5314 18.9238 38.9992V15.9986C18.9238 15.4418 19.2743 14.9919 19.7016 15.0001C24.4375 15.0879 29.2786 16.048 33.5399 18.7556C33.8051 18.9243 33.9745 19.2713 33.9745 19.6554V42.2102C33.9745 42.9015 33.4483 43.3843 32.9505 43.1483L32.9495 43.1497Z" fill="white"/>
<path d="M52.101 20.2715C52.444 20.3455 52.8482 20.8119 52.9303 21.2645C53.0671 29.1431 52.9503 34.6405 52.9945 42.5355C52.9576 43.2912 52.5072 43.9551 51.9115 43.977H41.3463L35.96 44.0004C37.4723 43.1198 44.4214 41.2969 50.0519 40.692C51.2117 40.5672 51.0233 39.0392 51.0306 37.9735V20.2715C51.359 20.3208 51.7884 20.2043 52.101 20.2715Z" fill="white"/>
<path d="M16.8972 20.2715C16.5541 20.3455 16.15 20.8119 16.0679 21.2645C15.9311 29.1431 16.0479 34.6405 16.0048 42.5355C16.0416 43.2912 16.4921 43.9551 17.0877 43.977H20.0019H27.654L33.0403 44.0004C31.528 43.1198 24.5789 41.2969 18.9484 40.692C17.7886 40.5672 17.977 39.0392 17.9697 37.9735V20.2715C17.6413 20.3208 17.2119 20.2043 16.8993 20.2715H16.8972Z" fill="white"/>
<defs>
<filter id="filter0_d_1598_3054" x="0.261719" y="0" width="81.7378" height="61" filterUnits="userSpaceOnUse" color-interpolation-filters="sRGB">
<feFlood flood-opacity="0" result="BackgroundImageFix"/>
<feColorMatrix in="SourceAlpha" type="matrix" values="0 0 0 0 0 0 0 0 0 0 0 0 0 0 0 0 0 0 127 0" result="hardAlpha"/>
<feOffset dx="1"/>
<feGaussianBlur stdDeviation="1.5"/>
<feComposite in2="hardAlpha" operator="out"/>
<feColorMatrix type="matrix" values="0 0 0 0 0 0 0 0 0 0 0 0 0 0 0 0 0 0 0.15 0"/>
<feBlend mode="normal" in2="BackgroundImageFix" result="effect1_dropShadow_1598_3054"/>
<feBlend mode="normal" in="SourceGraphic" in2="effect1_dropShadow_1598_3054" result="shape"/>
</filter>
</defs>
</svg>
