<svg width="307" height="177" viewBox="0 0 307 177" fill="none" xmlns="http://www.w3.org/2000/svg">
<g clip-path="url(#clip0_1782_765)">
<path d="M67.9602 151.347C67.4706 147.519 70.2744 144.541 74.2354 144.541C78.1965 144.541 81.4899 147.519 81.8237 151.347C82.1575 155.331 79.5094 158.308 75.7264 158.308C71.9434 158.308 68.472 155.331 67.9602 151.347Z" fill="black"/>
<path d="M217.299 151.279C216.809 147.966 219.435 145.146 222.907 145.146C226.378 145.146 229.516 147.966 229.849 151.279C230.005 154.928 227.535 157.749 224.242 157.749C220.614 157.749 217.633 154.928 217.321 151.279H217.299ZM223.396 170.71C222.907 167.218 225.532 164.576 229.004 164.576C232.475 164.576 235.769 167.24 235.924 170.71C236.08 174.179 233.61 177.022 230.317 177.022C226.69 177.022 223.886 174.202 223.396 170.71Z" fill="black"/>
<path d="M301.57 139.661C299.078 139.661 279.785 140.825 277.804 140.825C277.426 140.825 277.048 140.848 276.692 140.893C276.447 140.937 276.202 140.96 275.98 141.027C275.935 141.049 275.891 141.049 275.846 141.072C275.757 141.072 275.668 141.072 275.601 141.139C275.49 141.161 275.401 141.206 275.29 141.251H275.267C275.156 141.273 275.067 141.318 274.978 141.363C274.845 141.407 274.711 141.475 274.6 141.564C274.578 141.564 274.555 141.587 274.533 141.587C274.4 141.631 274.288 141.721 274.199 141.788C274.177 141.788 274.177 141.788 274.155 141.788C274.044 141.878 273.932 141.967 273.821 142.079C273.821 142.079 273.777 142.101 273.754 142.124C273.665 142.213 273.576 142.303 273.51 142.392C273.465 142.415 273.42 142.482 273.398 142.527C273.354 142.571 273.331 142.616 273.309 142.661C273.176 142.84 273.064 143.019 272.975 143.243C272.975 143.243 272.953 143.31 272.931 143.355C272.864 143.556 272.797 143.78 272.753 144.004V144.071C272.708 144.295 272.686 144.541 272.686 144.788C272.686 145.302 272.775 145.795 272.975 146.243L272.998 146.287V146.332C272.998 146.332 273.042 146.444 273.064 146.489C273.131 146.623 273.22 146.78 273.309 146.914C273.42 147.093 273.554 147.272 273.71 147.429C273.843 147.563 273.977 147.698 274.133 147.832C274.355 148.033 274.6 148.19 274.889 148.347C275.134 148.504 275.379 148.616 275.646 148.705C275.713 148.75 275.802 148.795 275.891 148.817C276.091 148.907 276.313 148.974 276.536 149.018C276.669 149.063 276.803 149.086 276.936 149.13C277.203 149.175 277.493 149.242 277.804 149.265C289.509 150.585 298.766 150.585 301.57 150.585C304.04 150.585 307 148.593 307 145.101C307 142.124 304.864 139.639 301.57 139.639V139.661Z" fill="black"/>
<path d="M272.686 144.81C272.686 145.325 272.775 145.817 272.975 146.265C272.797 145.817 272.686 145.347 272.686 144.81Z" fill="white"/>
<path d="M161.155 149.108C161.155 152.6 158.173 154.592 155.703 154.592C154.546 154.592 152.076 154.436 148.604 154.257C149.583 157.234 150.585 160.905 151.074 162.897C152.232 168.203 150.585 171.695 146.958 171.851C142.663 172.008 140.349 170.195 140.193 165.718L139.859 153.607L131.937 153.115C128.977 152.958 126.819 151.279 126.819 148.795C126.819 146.31 128.644 144.653 131.937 144.653C133.917 144.653 153.233 143.668 155.703 143.668C158.996 143.668 161.155 145.996 161.155 149.153V149.108Z" fill="black"/>
<path d="M139.191 89.3842C137.968 87.1457 135.92 85.9145 133.784 85.9145C132.582 85.9145 131.358 86.295 130.246 87.1009C127.019 89.4514 125.995 93.8165 127.887 97.3086C129.044 99.4128 131.002 100.554 133.139 100.554C134.385 100.554 135.675 100.151 136.899 99.3456C140.082 97.219 141.016 92.7196 139.191 89.3842Z" fill="black"/>
<path d="M0 50.7249V72.1252H12.2613V97.6443H38.1191V50.7249H0Z" fill="black"/>
<path d="M68.4497 50.7249V28.5188H43.0815V72.1252H85.7847L63.0423 136.304H89.5454L111.776 74.3637V50.7249H68.4497Z" fill="black"/>
<path d="M180.025 92.2047C180.025 122.805 165.962 136.304 132.916 136.304H115.247V114.903H132.093C150.585 114.903 154.19 107.024 154.19 92.2047C154.19 77.3857 147.803 72.1252 132.093 72.1252H116.226V50.7249H132.916C164.982 50.7249 180.025 64.3799 180.025 92.2047Z" fill="black"/>
<path d="M193.822 14.7743C193.689 14.7743 193.577 14.7966 193.466 14.7966C193.422 14.7966 193.377 14.7966 193.333 14.819C193.511 14.7966 193.666 14.7966 193.844 14.7966H194C194 14.7966 193.889 14.7743 193.822 14.7743Z" fill="black"/>
<path d="M193.822 14.7743C193.689 14.7743 193.577 14.7966 193.466 14.7966C193.422 14.7966 193.377 14.7966 193.333 14.819C193.511 14.7966 193.666 14.7966 193.844 14.7966H194C194 14.7966 193.889 14.7743 193.822 14.7743ZM225.577 96.8609C225.844 98.4726 226.4 100.107 227.224 101.763C227.535 102.435 227.847 103.129 228.203 103.823C227.468 101.696 226.556 99.3457 225.577 96.8609Z" fill="white"/>
<path d="M254.239 158.868C254.35 160.435 254.239 161.89 253.927 163.211C253.86 163.457 253.816 163.681 253.749 163.882C253.816 163.681 253.882 163.457 253.949 163.211C254.283 161.89 254.372 160.435 254.239 158.868ZM225.577 96.8609C225.844 98.4726 226.4 100.107 227.224 101.763C227.535 102.435 227.847 103.129 228.203 103.823C227.468 101.696 226.556 99.3456 225.577 96.8609ZM223.886 41.7708H223.374C220.236 41.7708 217.299 42.3081 214.873 43.4273C214.05 43.8079 213.293 44.2556 212.604 44.7481C209.8 46.7851 208.064 49.8519 207.975 54.0827C207.819 62.2533 215.14 66.417 227.224 67.6929C255.841 70.5806 279.696 91.5332 279.696 112.799C279.696 119.201 276.358 122.089 272.864 123.522C270.483 124.484 268.725 125.447 268.725 127.685C268.725 130.237 270.795 132.319 273.331 132.476C273.754 132.521 274.155 132.521 274.578 132.521C279.629 132.521 284.347 130.439 288.107 126.656C288.374 126.409 288.641 126.118 288.908 125.827C289.42 125.245 289.932 124.641 290.399 123.992C291.111 123.029 291.779 121.999 292.38 120.903C292.78 120.164 293.159 119.38 293.515 118.597C295.273 114.59 296.363 109.844 296.563 104.494C297.832 67.5362 253.615 42.2409 223.886 41.7708Z" fill="black"/>
<path d="M268.414 156.159C267.501 161.308 265.587 165.181 263.384 167.979C263.028 168.404 262.695 168.807 262.339 169.188C262.161 169.389 261.983 169.568 261.805 169.747C261.448 170.105 261.092 170.419 260.736 170.732C260.38 171.023 260.024 171.314 259.668 171.583H259.646C259.29 171.829 258.956 172.053 258.6 172.277C258.244 172.478 257.888 172.68 257.554 172.836C257.198 173.015 256.864 173.15 256.553 173.284C256.219 173.396 255.908 173.508 255.618 173.575C255.307 173.665 255.017 173.732 254.75 173.754C254.483 173.799 254.216 173.821 253.972 173.821C253.727 173.821 253.504 173.799 253.304 173.754C250.923 173.284 249.476 171.359 250.278 169.277C250.878 167.777 252.748 167.128 253.749 163.882C253.816 163.681 253.883 163.457 253.949 163.211C254.283 161.89 254.372 160.435 254.239 158.868C254.239 158.622 254.216 158.375 254.172 158.107C254.15 157.659 254.083 157.189 254.016 156.719C253.949 156.159 253.838 155.6 253.704 155.04C253.482 153.988 253.215 152.891 252.859 151.772C252.703 151.235 252.525 150.697 252.347 150.138C249.743 142.281 244.959 133.438 241.065 126.096C236.726 117.836 231.518 110.382 228.203 103.823C227.468 101.696 226.556 99.3456 225.577 96.8609C224.62 91.6227 226.489 86.9218 230.873 84.4819C232.876 83.4074 234.923 82.8701 236.948 82.8701C238.372 82.8701 239.774 83.1387 241.132 83.676C241.666 83.8998 242.2 84.1461 242.734 84.4371C243.268 84.7281 243.78 85.0639 244.292 85.4668C244.803 85.8474 245.293 86.2727 245.76 86.7428C246.027 86.9666 246.272 87.2129 246.495 87.4815C246.984 87.9963 247.451 88.5336 247.874 89.138C248.319 89.72 248.742 90.3692 249.165 91.0407C252.992 96.8161 257.287 105.614 260.625 114.411C264.319 124.216 267.145 135.252 268.28 144.094C268.414 145.191 268.525 146.243 268.614 147.272V147.317C268.881 150.809 268.836 153.854 268.414 156.159Z" fill="black"/>
<path d="M254.239 158.868C254.35 160.435 254.239 161.89 253.927 163.211C253.86 163.457 253.816 163.681 253.749 163.882C253.816 163.681 253.882 163.457 253.949 163.211C254.283 161.89 254.372 160.435 254.239 158.868ZM272.998 146.31C272.931 145.571 272.842 144.855 272.753 144.094C272.708 144.318 272.686 144.564 272.686 144.81C272.686 145.325 272.775 145.817 272.975 146.265L272.998 146.31Z" fill="white"/>
<path d="M193.466 14.7966C193.466 14.7966 193.377 14.7966 193.333 14.819C193.511 14.7966 193.666 14.7966 193.844 14.7966H193.466Z" fill="black"/>
<path d="M227.402 25.6311C227.268 25.8997 227.09 26.1459 226.89 26.3698C226.267 27.0414 225.399 27.4443 224.242 27.4443C222.239 27.4443 219.368 26.2803 215.43 23.3478C213.004 21.557 210.044 19.8333 206.996 18.423C206.172 18.0425 205.371 17.6843 204.548 17.3709C203.569 16.968 202.59 16.6098 201.633 16.2964C199.853 15.7144 198.117 15.2667 196.515 15.0205C196.003 14.9309 195.491 14.8862 195.002 14.8414C194.645 14.7966 194.312 14.7966 194 14.7966C193.956 14.7743 193.889 14.7743 193.822 14.7743C193.689 14.7743 193.577 14.7966 193.466 14.7966C193.422 14.7966 193.377 14.7966 193.333 14.819C193.088 14.819 192.865 14.8414 192.643 14.8638C192.42 14.8862 192.22 14.9086 192.02 14.9533C191.819 14.9757 191.619 15.0205 191.419 15.0876C191.219 15.1324 191.041 15.1996 190.862 15.2667C190.595 15.3563 190.328 15.4906 190.106 15.6473C185.188 18.8484 187.258 30.3544 194.89 43.1587C199.697 51.2398 213.627 79.1989 221.282 98.1145C222.35 100.801 223.307 103.285 224.086 105.524C224.909 107.83 225.532 109.867 225.933 111.523C228.314 121.44 225.466 127.685 218.946 131.357C217.299 132.297 215.229 132.834 213.049 132.834C212.092 132.834 211.135 132.744 210.178 132.521C209.688 132.409 209.221 132.297 208.754 132.14H208.732C208.264 131.961 207.797 131.782 207.33 131.58C205.46 130.73 203.702 129.387 202.234 127.529C198.584 122.895 191.753 117.612 188.882 116.336C186.657 115.373 185.7 113.292 186.011 111.523C186.167 110.784 186.501 110.202 186.968 109.732C187.28 109.419 187.636 109.173 188.036 109.038C188.192 108.949 188.348 108.882 188.526 108.837C188.659 108.77 188.815 108.725 188.971 108.725C189.127 108.68 189.26 108.658 189.438 108.636C189.928 108.568 190.417 108.568 190.951 108.636C196.67 109.441 201.277 110.896 204.793 112.642C191.753 84.1685 178.334 66.1931 167.519 47.3224C159.263 32.7496 163.714 14.0355 178.49 5.55154C179.247 5.12622 180.025 4.7009 180.804 4.32035C181.583 3.9398 182.406 3.58164 183.23 3.22347C184.031 2.88769 184.876 2.5743 185.722 2.28329C186.568 1.99229 187.413 1.72366 188.281 1.47743C191.753 0.537246 195.358 0 198.94 0C201.566 0 204.17 0.268623 206.706 0.873024C207.975 1.16403 209.221 1.54458 210.445 1.99229C216.587 4.29796 222.105 8.6407 226.044 15.6473C226.2 15.9159 226.356 16.1845 226.489 16.4755C226.823 17.1471 227.112 17.8858 227.335 18.6021C227.379 18.7364 227.424 18.8707 227.468 19.0274C227.602 19.4751 227.713 19.9229 227.802 20.3706C227.869 20.7735 227.936 21.154 227.98 21.5346C228.136 23.1016 227.98 24.5566 227.402 25.6311Z" fill="black"/>
</g>
<defs>
<clipPath id="clip0_1782_765">
<rect width="307" height="177" fill="white"/>
</clipPath>
</defs>
</svg>
