<svg width="349" height="261" viewBox="0 0 349 261" fill="none" xmlns="http://www.w3.org/2000/svg">
<path d="M288.381 196.642L282.624 195.442C274.918 193.813 273.228 193.527 266.01 194.327L260.167 194.956L258.878 183.299L264.721 182.67C273.601 181.699 276.666 182.213 285.03 183.985L290.787 185.185L288.352 196.642H288.381Z" fill="black"/>
<path d="M207.147 217.299C204.627 217.299 202.564 216.47 200.96 214.842C198.64 212.47 198.067 208.842 199.528 205.813C200.817 203.127 203.509 201.356 206.517 201.213C210.613 201.013 214.365 203.87 215.454 208.013C215.568 208.413 215.626 208.842 215.654 209.27C215.826 211.013 215.368 212.727 214.365 214.156C213.22 215.756 211.558 216.727 209.41 217.099C208.637 217.242 207.863 217.299 207.147 217.299Z" fill="black"/>
<path d="M207.147 200.413C204.627 200.413 202.564 199.585 200.96 197.956C198.64 195.585 198.067 191.956 199.528 188.928C200.817 186.242 203.509 184.47 206.517 184.328C210.613 184.128 214.365 186.985 215.454 191.127C215.568 191.527 215.626 191.956 215.654 192.385C215.826 194.127 215.368 195.842 214.365 197.27C213.22 198.87 211.558 199.842 209.41 200.213C208.637 200.356 207.863 200.413 207.147 200.413Z" fill="black"/>
<path d="M54.4472 144.214V112.9H46.0832V94.1H77.4768V144.185H54.4472V144.214Z" fill="black"/>
<path d="M97.3842 170.528L118.323 112.928H82.0598V69.7859H104.803V94.1285H142.756V111.814L121.56 170.528H97.4129H97.3842Z" fill="black"/>
<path d="M147.339 170.013V151.499H163.236C179.706 151.499 186.38 145.785 186.38 131.728C186.38 118.5 180.394 112.385 167.275 112.385H148.026V93.5857H172.861C197.007 93.5857 209.697 106.1 209.697 129.614C209.697 155.642 194.487 169.956 167.017 169.956H147.339V170.013Z" fill="black"/>
<path d="M273.057 61.4146C277.21 61.2432 283.082 61.7575 288.095 62.9575L293.451 46.9291C288.438 43.472 278.069 40.9006 268.731 40.7292C242.293 40.7292 221.555 58.3004 214.108 86.9287L208.608 108.071C212.36 113.786 214.28 121.243 214.28 130.357C214.28 148.385 206.975 160.814 193.341 166.728L192.167 171.213H221.555L241.606 94.3286C247.306 72.4431 257.331 62.1004 273.057 61.4146Z" fill="black"/>
<path d="M242.15 131.9L226.94 192.756H252.347L268.416 131.9H242.15Z" fill="black"/>
<path d="M272.913 94.5C263.576 94.5 251.66 96.5571 244.757 99.3285L239.228 120.7C247.191 118.3 257.904 116.557 264.807 116.557C279.501 116.557 287.779 122.243 287.779 132.414C287.779 142.585 281.22 149.814 272.57 149.985L267.041 170.156C271.023 170.499 272.054 170.499 273.773 170.499C297.289 170.499 315.077 153.271 315.077 130.157C315.077 107.043 299.18 94.4714 272.913 94.4714V94.5Z" fill="black"/>
<path d="M162.95 140.785C160.372 140.785 158.224 139.928 156.591 138.242C154.214 135.785 153.612 132.071 155.13 128.985C156.448 126.243 159.226 124.414 162.32 124.271C166.53 124.071 170.397 127.014 171.514 131.242C171.629 131.671 171.686 132.1 171.715 132.528C171.887 134.3 171.428 136.1 170.397 137.528C169.223 139.157 167.504 140.185 165.299 140.557C164.497 140.699 163.723 140.757 162.979 140.757L162.95 140.785Z" fill="black"/>
<path d="M110.36 195.042C107.782 195.042 105.634 194.185 104.001 192.499C101.624 190.042 101.022 186.328 102.54 183.242C103.858 180.499 106.636 178.671 109.73 178.528C113.94 178.328 117.807 181.271 118.924 185.499C119.039 185.928 119.096 186.356 119.125 186.785C119.297 188.556 118.838 190.356 117.807 191.785C116.633 193.413 114.914 194.442 112.709 194.813C111.907 194.956 111.133 195.013 110.389 195.013L110.36 195.042Z" fill="black"/>
<path d="M178.99 185.728C169.567 184.299 166.387 183.928 156.648 184.699L151.836 185.07L152.581 194.642L157.364 194.27C159.541 194.099 161.346 193.985 162.921 193.956C162.549 196.213 162.434 198.499 162.606 200.785L162.95 205.584L172.546 204.927L172.202 200.127C172.059 198.242 172.202 196.385 172.603 194.556C174.035 194.756 175.639 194.985 177.53 195.27L182.284 195.985L183.717 186.499L178.962 185.785L178.99 185.728Z" fill="black"/>
</svg>
