<svg width="57" height="38" viewBox="0 0 57 38" fill="none" xmlns="http://www.w3.org/2000/svg">
<g id="&#215;&#156;&#215;&#149;&#215;&#146;&#215;&#149;">
<path id="Vector" d="M51.3376 33.5605L50.1178 33.3023C48.4852 32.9518 48.1271 32.8903 46.5977 33.0625L45.3597 33.1977L45.0866 30.689L46.3246 30.5537C48.206 30.3447 48.8554 30.4553 50.6276 30.8366L51.8474 31.0948L51.3316 33.5605H51.3376Z" fill="black"/>
<path id="Vector_2" d="M34.126 38C33.5919 38 33.1549 37.8217 32.8151 37.4712C32.3235 36.9608 32.2021 36.1799 32.5116 35.5281C32.7847 34.9502 33.3552 34.5689 33.9924 34.5382C34.8603 34.4951 35.6553 35.11 35.886 36.0016C35.9102 36.0877 35.9224 36.1799 35.9285 36.2722C35.9649 36.6472 35.8678 37.0162 35.6553 37.3236C35.4126 37.668 35.0606 37.877 34.6054 37.957C34.4415 37.9877 34.2777 38 34.126 38Z" fill="black"/>
<path id="Vector_3" d="M34.126 34.366C33.5919 34.366 33.1549 34.1877 32.8151 33.8372C32.3235 33.3269 32.2021 32.546 32.5116 31.8942C32.7847 31.3162 33.3552 30.935 33.9924 30.9042C34.8603 30.8612 35.6553 31.4761 35.886 32.3676C35.9102 32.4537 35.9224 32.546 35.9285 32.6382C35.9649 33.0133 35.8678 33.3822 35.6553 33.6896C35.4126 34.034 35.0606 34.243 34.6054 34.323C34.4415 34.3537 34.2777 34.366 34.126 34.366Z" fill="black"/>
<g id="Group">
<path id="Vector_4" d="M1.77215 22.2773V15.5382H0V11.4922H6.65162V22.2712H1.77215V22.2773Z" fill="black"/>
<path id="Vector_5" d="M10.8756 27.9343L15.3121 15.5382H7.62872V6.2534H12.4475V11.4922H20.4889V15.2984L15.9979 27.9343H10.8817H10.8756Z" fill="black"/>
<path id="Vector_6" d="M21.4539 27.8298V23.8453H24.8222C28.3119 23.8453 29.7259 22.6155 29.7259 19.5903C29.7259 16.7434 28.4575 15.4275 25.6779 15.4275H21.5995V11.3816H26.8614C31.9775 11.3816 34.6661 14.0748 34.6661 19.1353C34.6661 24.7369 31.4435 27.8175 25.6233 27.8175H21.4539V27.8298Z" fill="black"/>
</g>
<g id="Group_2">
<path id="Vector_7" d="M48.0907 4.45178C48.9707 4.41489 50.2149 4.52557 51.2769 4.78382L52.4118 1.3343C51.3498 0.590291 49.1528 0.0368932 47.1743 0C41.5726 0 37.1787 3.78155 35.6007 9.94272L34.4355 14.4929C35.2305 15.7227 35.6371 17.3275 35.6371 19.289C35.6371 23.1689 34.0895 25.8437 31.2007 27.1165L30.9519 28.0819H37.1787L41.427 11.5353C42.6347 6.82524 44.7588 4.59935 48.0907 4.45178Z" fill="black"/>
<path id="Vector_8" d="M41.5483 19.6272L38.3257 32.7181H43.7089L47.1136 19.6272H41.5483Z" fill="black"/>
<path id="Vector_9" d="M48.0664 11.5722C46.0879 11.5722 43.5633 12.0149 42.1006 12.6113L40.9293 17.2107C42.6165 16.6942 44.8863 16.3191 46.3489 16.3191C49.4623 16.3191 51.2163 17.5427 51.2163 19.7317C51.2163 21.9207 49.8265 23.4764 47.9936 23.5133L46.8223 27.8544C47.6659 27.9282 47.8844 27.9282 48.2485 27.9282C53.2312 27.9282 57 24.2204 57 19.246C57 14.2715 53.6317 11.566 48.0664 11.566V11.5722Z" fill="black"/>
</g>
<path id="Vector_10" d="M24.7615 21.5333C24.2153 21.5333 23.7601 21.3489 23.4142 20.9861C22.9104 20.4573 22.783 19.6579 23.1047 18.9938C23.3838 18.4036 23.9725 18.01 24.628 17.9793C25.5201 17.9362 26.3394 18.5696 26.5761 19.4796C26.6004 19.5718 26.6125 19.6641 26.6186 19.7563C26.655 20.1375 26.5579 20.5249 26.3394 20.8324C26.0906 21.1828 25.7265 21.4042 25.2591 21.4841C25.0892 21.5149 24.9254 21.5272 24.7676 21.5272L24.7615 21.5333Z" fill="black"/>
<path id="Vector_11" d="M13.6249 33.2162C13.0787 33.2162 12.6235 33.0317 12.2776 32.6689C11.7739 32.1401 11.6464 31.3408 11.9681 30.6767C12.2472 30.0864 12.8359 29.6929 13.4914 29.6621C14.3835 29.6191 15.2028 30.2524 15.4395 31.1625C15.4638 31.2547 15.4759 31.3469 15.482 31.4392C15.5184 31.8204 15.4213 32.2078 15.2028 32.5152C14.954 32.8657 14.5899 33.0871 14.1226 33.167C13.9526 33.1977 13.7888 33.21 13.631 33.21L13.6249 33.2162Z" fill="black"/>
<path id="Vector_12" d="M28.1601 31.2117C26.1634 30.9042 25.4898 30.8243 23.4263 30.9903L22.4067 31.0702L22.5645 33.1301L23.578 33.0502C24.0393 33.0133 24.4216 32.9887 24.7554 32.9825C24.6765 33.4683 24.6523 33.9602 24.6887 34.4521L24.7615 35.4851L26.7946 35.3437L26.7218 34.3107C26.6914 33.9049 26.7218 33.5052 26.8067 33.1117C27.1102 33.1547 27.4501 33.2039 27.8506 33.2654L28.8581 33.4191L29.1615 31.3777L28.1541 31.224L28.1601 31.2117Z" fill="black"/>
</g>
</svg>
