<svg width="660" height="378" viewBox="0 0 660 378" fill="none" xmlns="http://www.w3.org/2000/svg">
<g clip-path="url(#clip0_1706_358)">
<path d="M146.103 323.215C145.051 315.04 151.079 308.682 159.594 308.682C168.11 308.682 175.19 315.04 175.907 323.215C176.625 331.724 170.932 338.082 162.799 338.082C154.667 338.082 147.204 331.724 146.103 323.215Z" fill="black"/>
<path d="M467.157 323.071C466.105 315.996 471.75 309.972 479.213 309.972C486.676 309.972 493.421 315.996 494.139 323.071C494.474 330.864 489.164 336.887 482.083 336.887C474.285 336.887 467.875 330.864 467.205 323.071H467.157ZM480.265 364.567C479.213 357.109 484.858 351.468 492.321 351.468C499.784 351.468 506.864 357.157 507.199 364.567C507.534 371.976 502.224 378.048 495.144 378.048C487.346 378.048 481.318 372.024 480.265 364.567Z" fill="black"/>
<path d="M648.327 298.26C642.969 298.26 601.492 300.746 597.234 300.746C596.421 300.746 595.607 300.794 594.842 300.889C594.316 300.985 593.789 301.033 593.311 301.176C593.215 301.224 593.12 301.224 593.024 301.272C592.833 301.272 592.641 301.272 592.498 301.415C592.259 301.463 592.067 301.559 591.828 301.654H591.78C591.541 301.702 591.35 301.798 591.158 301.893C590.871 301.989 590.584 302.132 590.345 302.323C590.297 302.323 590.249 302.371 590.201 302.371C589.914 302.467 589.675 302.658 589.484 302.802C589.436 302.802 589.436 302.802 589.388 302.802C589.149 302.993 588.91 303.184 588.671 303.423C588.671 303.423 588.575 303.471 588.527 303.519C588.336 303.71 588.144 303.901 588.001 304.092C587.905 304.14 587.809 304.283 587.762 304.379C587.666 304.475 587.618 304.57 587.57 304.666C587.283 305.048 587.044 305.431 586.853 305.909C586.853 305.909 586.805 306.052 586.757 306.148C586.613 306.578 586.47 307.056 586.374 307.534V307.678C586.279 308.156 586.231 308.682 586.231 309.207C586.231 310.307 586.422 311.359 586.853 312.315L586.901 312.41V312.506C586.901 312.506 586.996 312.745 587.044 312.841C587.188 313.128 587.379 313.462 587.57 313.749C587.809 314.131 588.097 314.514 588.431 314.849C588.718 315.135 589.005 315.422 589.34 315.709C589.819 316.139 590.345 316.474 590.967 316.809C591.493 317.143 592.019 317.382 592.593 317.573C592.737 317.669 592.928 317.765 593.12 317.813C593.55 318.004 594.029 318.147 594.507 318.243C594.794 318.338 595.081 318.386 595.368 318.482C595.942 318.577 596.564 318.721 597.234 318.769C622.398 321.589 642.299 321.589 648.327 321.589C653.637 321.589 660 317.334 660 309.877C660 303.519 655.407 298.212 648.327 298.212V298.26Z" fill="black"/>
<path d="M586.231 309.255C586.231 310.355 586.422 311.406 586.853 312.363C586.47 311.406 586.231 310.403 586.231 309.255Z" fill="white"/>
<path d="M346.457 318.434C346.457 325.892 340.046 330.146 334.736 330.146C332.248 330.146 326.938 329.812 319.475 329.429C321.58 335.788 323.733 343.628 324.785 347.882C327.273 359.212 323.733 366.67 315.935 367.005C306.702 367.339 301.727 363.467 301.392 353.906L300.674 328.043L283.643 326.991C277.28 326.657 272.64 323.071 272.64 317.765C272.64 312.458 276.563 308.921 283.643 308.921C287.901 308.921 329.426 306.817 334.736 306.817C341.816 306.817 346.457 311.789 346.457 318.53V318.434Z" fill="black"/>
<path d="M299.239 190.888C296.608 186.108 292.206 183.478 287.614 183.478C285.03 183.478 282.399 184.291 280.007 186.012C273.07 191.032 270.87 200.354 274.936 207.812C277.424 212.305 281.634 214.743 286.226 214.743C288.905 214.743 291.68 213.883 294.311 212.162C301.152 207.62 303.162 198.011 299.239 190.888Z" fill="black"/>
<path d="M0 108.328V154.03H26.3598V208.529H81.9498V108.328H0Z" fill="black"/>
<path d="M147.156 108.328V60.9045H92.6182V154.03H184.423L135.531 291.089H192.508L240.3 158.811V108.328H147.156Z" fill="black"/>
<path d="M387.025 196.912C387.025 262.262 356.79 291.089 285.748 291.089H247.763V245.387H283.978C323.733 245.387 331.483 228.559 331.483 196.912C331.483 165.264 317.753 154.03 283.978 154.03H249.868V108.328H285.748C354.685 108.328 387.025 137.489 387.025 196.912Z" fill="black"/>
<path d="M416.686 31.5518C416.399 31.5518 416.16 31.5996 415.921 31.5996C415.825 31.5996 415.729 31.5996 415.633 31.6474C416.016 31.5996 416.351 31.5996 416.734 31.5996H417.069C417.069 31.5996 416.829 31.5518 416.686 31.5518Z" fill="black"/>
<path d="M416.686 31.5518C416.399 31.5518 416.16 31.5996 415.921 31.5996C415.825 31.5996 415.729 31.5996 415.633 31.6474C416.016 31.5996 416.351 31.5996 416.734 31.5996H417.069C417.069 31.5996 416.829 31.5518 416.686 31.5518ZM484.954 206.855C485.528 210.297 486.724 213.787 488.494 217.325C489.164 218.759 489.833 220.241 490.599 221.723C489.02 217.181 487.059 212.162 484.954 206.855Z" fill="white"/>
<path d="M546.571 339.277C546.811 342.624 546.571 345.731 545.902 348.552C545.758 349.078 545.662 349.556 545.519 349.986C545.662 349.556 545.806 349.078 545.95 348.552C546.667 345.731 546.858 342.624 546.571 339.277ZM484.954 206.855C485.528 210.298 486.724 213.787 488.494 217.325C489.163 218.759 489.833 220.241 490.599 221.723C489.02 217.182 487.059 212.162 484.954 206.855ZM481.318 89.2056H480.217C473.472 89.2056 467.157 90.3529 461.943 92.7432C460.172 93.5559 458.546 94.512 457.063 95.5637C451.035 99.9141 447.304 106.463 447.112 115.499C446.777 132.948 462.517 141.84 488.494 144.565C550.016 150.732 601.3 195.478 601.3 240.893C601.3 254.566 594.124 260.733 586.613 263.792C581.495 265.848 577.715 267.903 577.715 272.684C577.715 278.134 582.164 282.58 587.618 282.914C588.527 283.01 589.388 283.01 590.297 283.01C601.157 283.01 611.299 278.564 619.384 270.485C619.958 269.959 620.532 269.338 621.106 268.716C622.206 267.473 623.307 266.182 624.311 264.796C625.842 262.74 627.277 260.541 628.569 258.199C629.43 256.621 630.243 254.948 631.009 253.275C634.788 244.718 637.132 234.583 637.563 223.157C640.29 144.23 545.232 90.2095 481.318 89.2056Z" fill="black"/>
<path d="M577.046 333.493C575.084 344.488 570.97 352.759 566.234 358.734C565.468 359.643 564.751 360.503 563.985 361.316C563.603 361.746 563.22 362.128 562.837 362.511C562.072 363.276 561.306 363.945 560.541 364.614C559.775 365.236 559.01 365.857 558.244 366.431H558.197C557.431 366.957 556.714 367.435 555.948 367.913C555.183 368.343 554.417 368.773 553.7 369.108C552.934 369.491 552.217 369.777 551.547 370.064C550.829 370.303 550.16 370.542 549.538 370.686C548.868 370.877 548.246 371.02 547.672 371.068C547.098 371.164 546.524 371.212 545.997 371.212C545.471 371.212 544.993 371.164 544.562 371.068C539.443 370.064 536.334 365.953 538.056 361.507C539.348 358.304 543.366 356.918 545.519 349.986C545.663 349.556 545.806 349.077 545.95 348.552C546.667 345.731 546.859 342.624 546.571 339.277C546.571 338.751 546.524 338.226 546.428 337.652C546.38 336.696 546.237 335.692 546.093 334.688C545.95 333.493 545.71 332.298 545.423 331.103C544.945 328.856 544.371 326.513 543.605 324.123C543.271 322.976 542.888 321.828 542.505 320.633C536.908 303.853 526.622 284.97 518.25 269.29C508.921 251.649 497.727 235.73 490.599 221.723C489.02 217.181 487.059 212.162 484.954 206.855C482.897 195.669 486.915 185.63 496.34 180.419C500.645 178.124 505.046 176.977 509.4 176.977C512.462 176.977 515.476 177.55 518.394 178.698C519.542 179.176 520.69 179.702 521.838 180.323C522.986 180.945 524.087 181.662 525.187 182.522C526.287 183.335 527.34 184.243 528.344 185.247C528.919 185.725 529.445 186.251 529.923 186.825C530.976 187.924 531.98 189.072 532.889 190.362C533.846 191.605 534.755 192.992 535.664 194.426C543.892 206.76 553.126 225.547 560.302 244.335C568.243 265.274 574.319 288.842 576.758 307.726C577.046 310.068 577.285 312.315 577.476 314.514V314.61C578.05 322.067 577.955 328.569 577.046 333.493Z" fill="black"/>
<path d="M546.571 339.277C546.811 342.624 546.571 345.731 545.902 348.552C545.758 349.078 545.662 349.556 545.519 349.986C545.662 349.556 545.806 349.078 545.949 348.552C546.667 345.731 546.858 342.624 546.571 339.277ZM586.9 312.458C586.757 310.881 586.566 309.351 586.374 307.726C586.279 308.204 586.231 308.73 586.231 309.255C586.231 310.355 586.422 311.407 586.853 312.363L586.9 312.458Z" fill="white"/>
<path d="M415.921 31.5996C415.921 31.5996 415.729 31.5996 415.633 31.6474C416.016 31.5996 416.351 31.5996 416.734 31.5996H415.921Z" fill="black"/>
<path d="M488.876 54.7376C488.589 55.3112 488.207 55.8371 487.776 56.3152C486.437 57.7493 484.571 58.6098 482.083 58.6098C477.778 58.6098 471.606 56.1239 463.139 49.8614C457.924 46.0369 451.561 42.3559 445.007 39.3441C443.237 38.5314 441.515 37.7665 439.745 37.0973C437.64 36.2368 435.535 35.4719 433.478 34.8026C429.651 33.5596 425.919 32.6035 422.475 32.0777C421.374 31.8864 420.274 31.7908 419.221 31.6952C418.456 31.5996 417.738 31.5996 417.069 31.5996C416.973 31.5518 416.829 31.5518 416.686 31.5518C416.399 31.5518 416.16 31.5996 415.921 31.5996C415.825 31.5996 415.729 31.5996 415.633 31.6474C415.107 31.6474 414.629 31.6952 414.15 31.743C413.672 31.7908 413.242 31.8386 412.811 31.9342C412.38 31.982 411.95 32.0776 411.519 32.2211C411.089 32.3167 410.706 32.4601 410.323 32.6035C409.749 32.7947 409.175 33.0816 408.697 33.4162C398.124 40.2524 402.573 64.8246 418.982 92.1695C429.316 109.427 459.264 169.137 475.72 209.533C478.017 215.269 480.074 220.576 481.748 225.356C483.518 230.28 484.858 234.631 485.719 238.168C490.838 259.346 484.714 272.684 470.697 280.524C467.157 282.532 462.708 283.679 458.02 283.679C455.963 283.679 453.905 283.488 451.848 283.01C450.796 282.771 449.791 282.532 448.787 282.197H448.739C447.734 281.815 446.729 281.432 445.725 281.002C441.706 279.186 437.927 276.317 434.769 272.349C426.924 262.454 412.237 251.171 406.065 248.446C401.282 246.391 399.224 241.945 399.894 238.168C400.229 236.591 400.947 235.348 401.951 234.344C402.621 233.674 403.386 233.149 404.248 232.862C404.582 232.671 404.917 232.527 405.3 232.431C405.587 232.288 405.922 232.192 406.257 232.192C406.592 232.097 406.879 232.049 407.261 232.001C408.314 231.858 409.366 231.858 410.515 232.001C422.809 233.722 432.712 236.83 440.271 240.558C412.237 179.75 383.389 141.362 360.139 101.061C342.391 69.9398 351.959 29.9742 383.724 11.8558C385.351 10.9475 387.025 10.0392 388.7 9.22651C390.374 8.41381 392.144 7.64892 393.914 6.88403C395.636 6.16694 397.454 5.49766 399.272 4.87619C401.09 4.25471 402.908 3.68104 404.774 3.15518C412.237 1.14734 419.987 0 427.689 0C433.334 0 438.932 0.573669 444.385 1.86442C447.112 2.4859 449.791 3.2986 452.422 4.25471C465.626 9.1787 477.491 18.453 485.958 33.4162C486.293 33.9899 486.628 34.5635 486.915 35.185C487.633 36.6192 488.255 38.1968 488.733 39.7266C488.829 40.0134 488.924 40.3002 489.02 40.6349C489.307 41.591 489.546 42.5471 489.738 43.5032C489.881 44.3637 490.025 45.1764 490.12 45.9891C490.455 49.3355 490.12 52.4429 488.876 54.7376Z" fill="black"/>
</g>
<defs>
<clipPath id="clip0_1706_358">
<rect width="660" height="378" fill="white"/>
</clipPath>
</defs>
</svg>
