<svg width="100" height="40" viewBox="0 0 100 40" fill="none" xmlns="http://www.w3.org/2000/svg">
<rect width="100" height="40" rx="20" fill="#D5D2FF"/>
<rect x="49" width="51" height="40" rx="20" fill="#9895F4"/>
<path d="M17.9902 25H16.4062V19.186C16.4062 17.764 15.7762 17.044 14.5522 17.044H10.1062V15.658H14.8582C16.8922 15.658 17.9902 16.882 17.9902 19.15V25ZM11.6902 25H10.1062V20.05H11.6902V25ZM28.37 25H20.324V23.614H25.31V19.186C25.31 17.854 24.77 17.044 23.456 17.044H20.414V15.658H23.762C25.85 15.658 26.894 16.9 26.894 19.15V23.614H28.37V25ZM35.8822 25H34.2082L37.1602 17.044H30.1762V15.658H38.8522V16.972L35.8822 25ZM31.9402 27.376H30.3562V20.05H31.9402V27.376ZM41.9964 25.108H40.4664V23.722H41.7804C42.6444 23.722 43.0764 23.272 43.0764 22.39V17.044H40.7724V15.658H44.6424V22.408C44.6424 24.136 43.7064 25.108 41.9964 25.108Z" fill="#7D79F0"/>
</svg>
