<svg width="88" height="32" viewBox="0 0 88 32" fill="none" xmlns="http://www.w3.org/2000/svg">
<g id="&#215;&#148;&#215;&#146;&#215;&#147;&#215;&#168;&#215;&#149;&#215;&#170; &#215;&#160;&#215;&#164;&#215;&#170;&#215;&#151;&#215;&#149;&#215;&#170;">
<path id="Vector" d="M40.627 21.282C40.3317 21.5915 40.0717 21.933 40.0788 22.3931C40.0906 23.1341 40.6948 24.375 40.6628 25.0593C40.6446 25.4464 40.3897 25.7853 40.073 25.9737C39.7907 26.1412 38.1586 26.8581 37.8816 26.9108C37.4606 26.9904 37.0597 26.9258 36.756 26.6143C36.1172 25.96 35.5814 24.1795 34.5744 24.057C34.1651 24.0068 33.0968 24.012 32.6822 24.0583C31.4484 24.1971 31.1486 26.061 30.4023 26.7316C30.165 26.9447 29.7994 27.0216 29.4884 26.991C29.2003 26.9623 27.3701 26.2337 27.0931 26.0623C26.7457 25.8472 26.5078 25.4947 26.5215 25.0717C26.5528 24.1117 27.3277 22.8096 26.8969 21.8926C26.7907 21.6671 25.8182 20.6915 25.5783 20.4738C24.5609 19.553 23.1015 20.6641 21.9941 20.6687C21.7014 20.67 21.3038 20.4699 21.1233 20.236C20.9682 20.0346 20.1678 18.2039 20.1013 17.9341C20.0035 17.5359 20.0602 17.0556 20.3646 16.7597C20.9519 16.1881 22.4138 15.7169 22.8101 14.9688C22.8838 14.8293 22.9203 14.7361 22.9385 14.5758C22.9868 14.1535 22.9894 13.0416 22.9327 12.6265C22.8858 12.2798 22.6498 11.9552 22.3845 11.7408C21.8507 11.3094 20.7368 10.8773 20.3053 10.4309C20.0107 10.1265 19.9514 9.73157 20.0341 9.32555C20.1013 8.99643 20.729 7.44013 20.9049 7.13317C21.7295 5.69548 23.8315 7.4675 25.0693 6.93049C25.4115 6.7819 25.9427 6.11389 26.2288 5.80823C26.5782 5.4348 26.9269 5.24058 26.9165 4.60777C26.9047 3.87784 26.3311 2.70019 26.3285 1.99829C26.3272 1.72066 26.515 1.3381 26.7235 1.15497C26.8949 1.00442 28.7943 0.172179 29.0641 0.106355C29.4559 0.0105528 29.9454 0.0789831 30.24 0.368997C30.6376 0.760028 31.1029 1.8106 31.4888 2.31372C31.7098 2.60113 32.0454 2.89962 32.4209 2.94589C32.825 2.99542 33.9708 2.99346 34.3724 2.93872C34.7191 2.8918 35.0437 2.65587 35.2581 2.39062C35.6896 1.85687 36.1218 0.743083 36.5683 0.311646C36.8642 0.0255423 37.2911 -0.0474501 37.6874 0.0274974C37.9207 0.0718142 39.6278 0.775017 39.8663 0.911878C41.4157 1.80082 39.2106 4.14049 40.2783 5.38787C40.4588 5.59903 41.5884 6.66915 41.7761 6.75778C42.7434 7.21203 44.0476 6.33808 45.0018 6.33482C45.2945 6.33351 45.6921 6.53359 45.8726 6.76756C46.0278 6.96894 46.8282 8.79961 46.8947 9.06942C46.9905 9.46111 46.922 9.95055 46.632 10.2451C46.2409 10.6427 45.1902 11.108 44.687 11.4938C44.3996 11.7147 44.1011 12.0504 44.0548 12.4258C44.0046 12.835 44.0098 13.9032 44.0561 14.3177C44.1923 15.526 46.0141 15.8545 46.7174 16.6098C46.98 16.8913 47.0309 17.1911 46.9833 17.5711C46.9481 17.8513 46.2513 19.5881 46.0897 19.8703C45.2658 21.3067 43.1534 19.5099 41.8902 20.103C41.6216 20.2288 40.8825 21.0167 40.6263 21.2852L40.627 21.282ZM33.0277 7.85006C28.5107 8.22675 26.1995 13.6067 29.1319 17.1155C32.0291 20.5827 37.6639 19.4415 38.9238 15.1141C40.0365 11.295 36.9939 7.51964 33.0277 7.85006Z" fill="black"/>
</g>
</svg>
