<svg width="27" height="27" viewBox="0 0 27 27" fill="none" xmlns="http://www.w3.org/2000/svg">
<path d="M20.627 21.282C20.3317 21.5915 20.0717 21.933 20.0788 22.3931C20.0906 23.1341 20.6948 24.375 20.6628 25.0593C20.6446 25.4464 20.3897 25.7853 20.073 25.9737C19.7907 26.1412 18.1586 26.8581 17.8816 26.9108C17.4606 26.9903 17.0597 26.9258 16.756 26.6143C16.1172 25.96 15.5814 24.1795 14.5744 24.057C14.1651 24.0068 13.0968 24.012 12.6822 24.0583C11.4484 24.1971 11.1486 26.061 10.4023 26.7316C10.165 26.9447 9.79935 27.0216 9.48844 26.991C9.20035 26.9623 7.37011 26.2337 7.09309 26.0623C6.74569 25.8472 6.50778 25.4947 6.52147 25.0717C6.55275 24.1117 7.32774 22.8096 6.8969 21.8926C6.79066 21.6671 5.81818 20.6915 5.57832 20.4738C4.56087 19.553 3.10149 20.6641 1.99409 20.6687C1.70144 20.67 1.30384 20.4699 1.12329 20.236C0.968166 20.0346 0.167761 18.2039 0.101278 17.9341C0.00350834 17.5359 0.0602145 17.0556 0.364603 16.7597C0.951872 16.1881 2.41385 15.7169 2.81014 14.9688C2.88379 14.8293 2.9203 14.7361 2.93855 14.5758C2.98678 14.1535 2.98939 13.0416 2.93268 12.6265C2.88575 12.2798 2.6498 11.9552 2.38452 11.7408C1.8507 11.3094 0.736779 10.8773 0.30529 10.4309C0.0106781 10.1265 -0.0486353 9.73157 0.0341427 9.32555C0.101278 8.99643 0.728957 7.44013 0.904942 7.13317C1.72946 5.69548 3.83151 7.4675 5.06927 6.93049C5.41146 6.7819 5.94267 6.11389 6.22881 5.80823C6.57818 5.4348 6.92689 5.24058 6.91646 4.60777C6.90473 3.87784 6.33114 2.70019 6.32854 1.99829C6.32723 1.72066 6.51495 1.3381 6.72353 1.15497C6.89495 1.00442 8.79428 0.172179 9.06413 0.106355C9.45585 0.0105528 9.94535 0.0789831 10.24 0.368997C10.6376 0.760028 11.1029 1.8106 11.4888 2.31372C11.7098 2.60113 12.0454 2.89962 12.4209 2.94589C12.825 2.99542 13.9708 2.99346 14.3724 2.93872C14.7191 2.8918 15.0437 2.65587 15.2581 2.39062C15.6896 1.85687 16.1218 0.743083 16.5683 0.311646C16.8642 0.0255423 17.2911 -0.0474501 17.6874 0.0274974C17.9207 0.0718142 19.6278 0.775017 19.8663 0.911878C21.4157 1.80082 19.2106 4.14049 20.2783 5.38787C20.4588 5.59903 21.5884 6.66915 21.7761 6.75778C22.7434 7.21203 24.0476 6.33808 25.0018 6.33482C25.2945 6.33351 25.6921 6.53359 25.8726 6.76756C26.0278 6.96894 26.8282 8.79961 26.8947 9.06942C26.9905 9.46111 26.922 9.95055 26.632 10.2451C26.2409 10.6427 25.1902 11.108 24.687 11.4938C24.3996 11.7147 24.1011 12.0504 24.0548 12.4258C24.0046 12.835 24.0098 13.9032 24.0561 14.3177C24.1923 15.526 26.0141 15.8545 26.7174 16.6098C26.98 16.8913 27.0309 17.1911 26.9833 17.5711C26.9481 17.8513 26.2513 19.5881 26.0897 19.8703C25.2658 21.3067 23.1534 19.5099 21.8902 20.103C21.6216 20.2288 20.8825 21.0167 20.6263 21.2852L20.627 21.282ZM13.0277 7.85006C8.51075 8.22675 6.19948 13.6067 9.13191 17.1155C12.0291 20.5827 17.6639 19.4415 18.9238 15.1141C20.0365 11.295 16.9939 7.51964 13.0277 7.85006Z" fill="black"/>
</svg>
