<svg width="66" height="62" viewBox="0 0 66 62" fill="none" xmlns="http://www.w3.org/2000/svg">
<g filter="url(#filter0_d_1598_3045)">
<path d="M62 42.9991C62 51.8356 54.8366 58.9991 46 58.9991L-14 58.9991L-14 3.80862L46 3.80861C54.8366 3.80861 62 10.972 62 19.8086L62 42.9991Z" fill="#9895F4"/>
</g>
<g clip-path="url(#clip0_1598_3045)">
<path d="M35.821 19.9813L47.0598 38.1528C47.1844 38.3543 47.2619 38.5866 47.2838 38.8221L48.2288 49.1416C46.775 48.3662 42.9965 46.2554 39.6133 44.3499C39.387 44.2235 39.1961 44.0388 39.0599 43.8186L27.4999 25.1278L35.821 19.9813ZM35.8894 18.7281L26.3468 24.63C26.1968 24.7228 26.1496 24.9198 26.2417 25.0687L38.1762 44.3651C38.4037 44.733 38.7214 45.0382 39.0989 45.2511C41.0459 46.3477 47.3188 49.874 48.2808 50.336C48.661 50.5195 48.9031 50.5081 49.0569 50.413C49.3645 50.2228 49.3195 49.6936 49.3195 49.6936L48.3149 38.7225C48.2789 38.3261 48.1512 37.9449 47.9422 37.607L36.3281 18.8287C36.236 18.6798 36.0386 18.634 35.8886 18.7268L35.8894 18.7281Z" fill="white"/>
<path d="M25.2629 23.4838L35.3426 17.2497L33.5068 14.2816C33.5068 14.2816 33.0559 13.4031 31.7693 13.3996C30.4827 13.3961 26.3935 14.4997 23.4394 18.5516C23.4394 18.5516 22.8721 19.5252 23.3282 20.3555C23.7842 21.1858 25.2629 23.4838 25.2629 23.4838Z" fill="white"/>
<path d="M46.3614 48.1202C46.3614 48.1202 47.1338 46.9713 48.1968 46.9851L48.9127 47.0353L49.0628 49.8817C49.0628 49.8817 49.0175 50.2367 48.6595 50.1311C48.3014 50.0256 46.2033 48.9186 46.2033 48.9186C46.2033 48.9186 46.0863 48.8111 46.3606 48.119L46.3614 48.1202Z" fill="white"/>
<path d="M38.9607 44.1343L39.6984 41.8892C39.8479 41.6238 40.146 41.4688 40.449 41.4994L42.7326 41.3482C43.0744 41.3824 43.4055 41.1794 43.5296 40.8587L44.7606 38.6563C44.8743 38.361 45.1658 38.1617 45.4843 38.1637L47.7062 38.7271L35.7329 19.3681L26.9883 24.7766L38.96 44.133L38.9607 44.1343Z" fill="white"/>
</g>
<defs>
<filter id="filter0_d_1598_3045" x="-16" y="0.808594" width="82" height="61.1905" filterUnits="userSpaceOnUse" color-interpolation-filters="sRGB">
<feFlood flood-opacity="0" result="BackgroundImageFix"/>
<feColorMatrix in="SourceAlpha" type="matrix" values="0 0 0 0 0 0 0 0 0 0 0 0 0 0 0 0 0 0 127 0" result="hardAlpha"/>
<feOffset dx="1"/>
<feGaussianBlur stdDeviation="1.5"/>
<feComposite in2="hardAlpha" operator="out"/>
<feColorMatrix type="matrix" values="0 0 0 0 0 0 0 0 0 0 0 0 0 0 0 0 0 0 0.15 0"/>
<feBlend mode="normal" in2="BackgroundImageFix" result="effect1_dropShadow_1598_3045"/>
<feBlend mode="normal" in="SourceGraphic" in2="effect1_dropShadow_1598_3045" result="shape"/>
</filter>
<clipPath id="clip0_1598_3045">
<rect width="11.8813" height="41.5847" fill="white" transform="translate(22 18.25) rotate(-31.7362)"/>
</clipPath>
</defs>
</svg>
