<svg width="63" height="55" viewBox="0 0 63 55" fill="none" xmlns="http://www.w3.org/2000/svg">
<path d="M63 27C63 12.0883 50.9117 0 36 0H0V55H36C50.9117 55 63 42.9117 63 28V27Z" fill="#9895F4"/>
<path d="M24.1298 17.6195L28.6366 30.5037C28.6866 30.6466 28.7051 30.8041 28.6903 30.9577L28.0345 37.6852C27.2661 37.0298 25.2803 35.2651 23.5041 33.675C23.3851 33.5693 23.294 33.43 23.2394 33.2739L18.6037 20.0214L24.1298 17.6195ZM24.3177 16.8223L17.9805 19.5768C17.8808 19.6201 17.8297 19.7415 17.8667 19.8471L22.6525 33.529C22.7438 33.7898 22.8957 34.0202 23.0938 34.1978C24.116 35.1129 27.4103 38.0567 27.9247 38.4576C28.1279 38.6166 28.2724 38.6356 28.3746 38.5912C28.5788 38.5024 28.6145 38.1578 28.6145 38.1578L29.3117 31.0055C29.3371 30.7471 29.3064 30.4886 29.2227 30.249L24.5653 16.9344C24.5283 16.8289 24.417 16.7781 24.3174 16.8214L24.3177 16.8223Z" fill="white"/>
<path d="M17.4743 18.7236L24.1682 15.814L23.432 13.7095C23.432 13.7095 23.2688 13.0967 22.5084 12.955C21.748 12.8133 19.2002 13.0785 16.9765 15.3595C16.9765 15.3595 16.5265 15.923 16.6984 16.5055C16.8703 17.088 17.4743 18.7236 17.4743 18.7236Z" fill="white"/>
<path d="M27.0501 36.827C27.0501 36.827 27.6421 36.1731 28.269 36.2972L28.6865 36.4071L28.4402 38.2507C28.4402 38.2507 28.3716 38.4737 28.1723 38.3672C27.973 38.2606 26.8627 37.3225 26.8627 37.3225C26.8627 37.3225 26.8061 37.2407 27.0498 36.8262L27.0501 36.827Z" fill="white"/>
<path d="M23.1434 33.4658L23.8438 32.1045C23.9634 31.9503 24.1579 31.8831 24.3335 31.9356L25.7016 32.0861C25.8997 32.1451 26.1194 32.0507 26.2305 31.8583L27.2176 30.5777C27.3196 30.4005 27.5154 30.3042 27.7035 30.34L28.951 30.9425L24.1496 17.2163L18.3423 19.7405L23.143 33.465L23.1434 33.4658Z" fill="white"/>
</svg>
