<svg width="156" height="157" viewBox="0 0 156 157" fill="none" xmlns="http://www.w3.org/2000/svg">
<g clip-path="url(#clip0_1135_191)">
<path d="M106.062 136.925L104.676 144.79C102.975 154.404 90.8269 157.668 84.5378 150.188L79.4021 144.071C74.9281 138.746 66.9802 138.053 61.649 142.521L55.5317 147.65C48.0512 153.927 36.6437 148.609 36.6346 138.843L36.6308 130.857C36.6232 123.898 30.9867 118.264 24.0272 118.259L16.041 118.256C6.27494 118.252 0.953536 106.85 7.22399 99.366L12.3515 93.2425C16.8199 87.9084 16.1229 79.9671 10.7949 75.4919L4.6775 70.3578C-2.80012 64.0807 0.448526 51.9201 10.066 50.221L17.9306 48.8258C24.7829 47.6112 29.3558 41.0795 28.1475 34.2269L26.7651 26.3617C25.0724 16.7439 35.3798 9.52102 43.8392 14.4007L50.7586 18.388C56.7869 21.8614 64.4867 19.7976 67.9667 13.7755L71.9607 6.86214C76.8467 -1.59759 89.3803 -0.502976 92.7304 8.675L95.4676 16.178C97.8542 22.7149 105.077 26.0823 111.62 23.7018L119.124 20.9709C128.302 17.6336 137.202 26.5307 133.867 35.7101L131.144 43.2155C128.772 49.7544 132.141 56.9796 138.68 59.3642L146.186 62.0999C155.359 65.4413 156.466 77.9757 148.009 82.8681L141.094 86.8668C135.073 90.3523 133.01 98.0506 136.489 104.078L140.481 110.994C145.361 119.451 138.149 129.765 128.529 128.071L120.664 126.691C113.809 125.489 107.283 130.063 106.074 136.912L106.062 136.925Z" fill="white" stroke="black" stroke-miterlimit="10" stroke-dasharray="2 2"/>
<path d="M48.4325 70.5343L49.4141 63.4232L53.854 63.3917L52.8724 70.5028L48.4325 70.5343ZM70.7426 63.2718C70.9622 70.5424 67.0088 74.8666 59.4537 75.5922L57.1209 74.9128L55.671 63.3788L59.6309 63.3507L60.0641 66.8997C60.3528 66.9936 60.6653 67.0634 60.9539 67.1574L61.1691 67.0358C61.2627 66.6992 61.3299 66.0267 61.5556 64.009L61.6228 63.3365L65.0787 63.312L65.036 64.0563C64.9714 65.0888 64.8813 65.9295 64.7423 66.6265C64.3716 68.5012 63.5847 69.2268 61.9777 69.3822C61.4981 69.4336 60.9703 69.4613 60.3701 69.4416L60.6498 71.6476L60.9865 71.7413C65.0367 70.9205 66.747 68.4123 66.6867 63.3006L70.7426 63.2718ZM71.6221 75.1459L73.2897 63.2537L77.7296 63.2222L76.062 75.1144L71.6221 75.1459ZM82.1492 75.0712L84.0344 66.7776L79.4745 66.8099L79.5092 64.9377L80.3308 58.9557L84.5787 58.9255L83.9848 63.1779L88.8087 63.1436L88.9873 64.6304L86.4691 75.0405L82.1492 75.0712ZM103.75 64.2376C103.873 64.7408 103.925 65.3164 103.93 65.9884C103.944 67.9084 103.802 68.3174 102.913 74.9238L98.7134 74.9536C98.9182 73.3682 99.1718 71.9023 99.3968 69.7887C99.5771 68.1313 99.6434 67.3389 99.616 66.859L99.1818 66.5501L97.2619 66.5637L96.5312 71.8251C96.2114 74.1074 94.9476 75.2684 92.8116 75.2835C91.7797 75.2909 90.3611 74.9409 89.4938 74.4671L90.3114 71.3172L91.923 71.8097L92.1866 71.7599L92.894 66.5947L90.854 66.6092L90.83 63.2253C92.989 63.066 95.8924 62.9734 99.3243 62.949C101.772 62.9316 102.901 62.9716 103.381 63.0882C103.528 63.4232 103.65 63.8063 103.75 64.2376ZM61.7929 99.2162L62.4514 93.9314C62.6342 92.6341 62.6992 91.6496 62.6714 91.1218L62.2612 90.8127L57.5574 90.8461L57.5332 87.4382C59.02 87.2596 60.8672 87.1505 62.9072 87.136C66.3631 87.1115 67.2824 88.137 66.9718 91.7153C66.7735 94.2128 66.4055 96.4714 65.9688 99.1866L61.7929 99.2162ZM71.7764 99.4814C70.3124 99.4918 68.8464 99.2142 67.6907 98.6944L68.5315 95.4243C70.503 95.9143 73.2672 96.4947 73.483 96.4692L73.77 96.3232C74.0524 95.5291 74.2753 93.1275 74.2164 91.5919C74.187 90.8241 74.189 91.1121 74.1625 90.7522L73.8976 90.6341L69.2898 90.6668L69.2658 87.2829L78.2415 87.2192C78.3889 87.6982 78.4894 88.3215 78.5428 89.0891C78.5974 90.0248 78.5574 91.1531 78.3781 92.9304C78.152 94.9 77.7078 96.5592 77.1849 97.283C76.3065 98.6332 74.2723 99.4637 71.7764 99.4814ZM95.5563 87.0964C95.7759 94.367 91.8225 98.6911 84.2675 99.4168L81.9346 98.7373L80.4847 87.2033L84.4446 87.1752L84.8778 90.7242C85.1665 90.8182 85.479 90.888 85.7677 90.9819L85.9828 90.8604C86.0764 90.5237 86.1437 89.8512 86.3693 87.8336L86.4366 87.1611L89.8925 87.1365L89.8498 87.8809C89.7851 88.9133 89.6951 89.754 89.556 90.451C89.1853 92.3257 88.3984 93.0513 86.7915 93.2067C86.3118 93.2581 85.784 93.2858 85.1839 93.2661L85.4635 95.4722L85.8002 95.5658C89.8505 94.745 91.5607 92.2368 91.5004 87.1251L95.5563 87.0964Z" fill="black"/>
</g>
<defs>
<clipPath id="clip0_1135_191">
<rect width="153.801" height="154.84" fill="white" transform="translate(1.51648) rotate(0.561156)"/>
</clipPath>
</defs>
</svg>
