<svg width="81" height="24" viewBox="0 0 81 24" fill="none" xmlns="http://www.w3.org/2000/svg">
<path d="M8.19063 18C8.63063 14.9 8.93063 12.74 9.03063 11.38C9.09063 10.58 9.11063 10.26 9.09063 10.02L8.69063 9.66H2.89063V8.26C3.99063 8.16 5.95063 8.1 8.01063 8.1C10.2106 8.1 10.7906 8.76 10.6906 10.96C10.6306 12.32 10.2506 15.22 9.81063 18H8.19063ZM2.37063 18L3.13063 12.58H4.77063L3.97063 18H2.37063ZM12.9813 13.76L13.8013 8.18H15.4613L14.6413 13.76H12.9813ZM17.2586 13.76L18.0786 8.18H19.7386L18.9186 13.76H17.2586ZM22.4397 18.16C21.7797 18.16 20.8797 17.96 20.0397 17.66L20.4797 16.18C21.3397 16.46 22.2597 16.68 22.8797 16.78L23.1797 16.58C23.2997 16.32 23.4797 15.58 23.6197 14.82C23.8597 13.44 24.0397 12.06 24.3197 9.68H21.9597V8.18H25.9197L26.0397 9.08C25.7597 11.48 25.5597 13.02 25.2797 14.56C24.7797 17.42 24.1797 18.16 22.4397 18.16ZM31.1798 18.18C29.8798 18.18 28.1598 17.86 26.7998 17.34L27.2398 15.92C29.9798 16.68 32.2598 17.04 32.8598 16.82L33.1598 16.58C33.6198 15.42 34.0198 12.78 34.0198 10.96C34.0198 10.06 34.0198 9.86 33.9598 9.72L33.7798 9.64H29.8998L30.3198 13.26H28.7598L28.2398 8.94L28.3598 8.18H35.3798C35.5198 8.72 35.6198 9.14 35.6598 9.56C35.7798 12.02 35.3198 15.18 34.6998 16.36C34.0398 17.76 33.2398 18.18 31.1798 18.18ZM41.2866 20.9L43.3266 6.94H44.9466L42.9266 20.9H41.2866ZM46.4322 18L47.8522 8.18H49.5122L48.0922 18H46.4322ZM61.9945 8.18C62.0945 14.16 59.4145 17.38 53.7345 18.1L52.7345 17.9L51.5945 8.18H53.1545L53.5345 11.56C54.2745 11.76 54.8945 11.88 55.7145 11.98L55.8545 11.88C56.0345 11.02 56.1545 10.08 56.2345 8.78L56.2745 8.18H57.7945L57.7745 8.7C57.6745 10.04 57.5745 10.82 57.4545 11.38C57.1745 12.58 56.6745 13.04 55.5145 13.1C54.9145 13.12 54.2545 13.08 53.7145 13.02L54.0945 16.42L54.2545 16.48C58.4745 15.88 60.3945 13.36 60.4145 8.18H61.9945ZM67.2498 18L68.9298 9.72H64.0498V8.58L64.6498 4.4H66.2698L65.7298 8.18H70.5698L70.6898 9.06L68.8698 18H67.2498ZM78.0311 12.6L76.1711 9.7L74.3511 12.56L73.2311 11.78L75.4111 9.12L72.1111 8.32L72.5311 6.96L75.6911 8.2L75.4711 4.82H76.8911L76.6711 8.2L79.8111 6.96L80.2511 8.32L76.9511 9.14L79.1311 11.76L78.0311 12.6Z" fill="#7D79F0"/>
<path d="M0 22L80 22" stroke="#7D79F0" stroke-dasharray="3 3"/>
</svg>
