<svg width="141" height="157" viewBox="0 0 141 157" fill="none" xmlns="http://www.w3.org/2000/svg">
<g clip-path="url(#clip0_2088_4072)">
<path d="M4.88033 137.145C2.82254 136.81 1.42808 134.872 1.76358 132.814L13.6929 59.6459C13.6929 59.6459 20.2039 1.01171 81.5341 11.011C142.864 21.0102 129.726 83.8872 129.726 83.8872L118.643 151.864C118.308 153.922 116.37 155.317 114.312 154.981L4.88128 137.139L4.88033 137.145Z" fill="white" stroke="black" stroke-miterlimit="10"/>
<path d="M5.93283 132.972L17.6839 60.8968C17.6839 60.8968 23.8223 5.94665 80.6687 15.2149C137.515 24.4831 125.228 83.4298 125.228 83.4298L114.27 150.641L5.93188 132.978L5.93283 132.972Z" fill="#9BE0CE" stroke="black" stroke-width="2" stroke-miterlimit="10"/>
<path d="M38.644 39.8224C38.5932 39.8021 38.5378 39.8111 38.496 39.8463C37.5889 40.5146 36.3024 40.1968 35.8071 39.1858C35.7845 39.1401 35.7367 39.1023 35.684 39.0938C34.5714 38.9244 33.8858 37.7923 34.2511 36.7296C34.2713 36.6789 34.2624 36.6235 34.2272 36.5817C33.5589 35.6746 33.8767 34.3881 34.8876 33.8927C34.9333 33.8702 34.9711 33.8223 34.9797 33.7697C35.1491 32.6571 36.2811 31.9714 37.3438 32.3367C37.3945 32.357 37.45 32.3481 37.4918 32.3129C38.3989 31.6446 39.6854 31.9623 40.1807 32.9733C40.2033 33.019 40.2511 33.0568 40.3037 33.0654C41.4164 33.2348 42.102 34.3668 41.7367 35.4295C41.7164 35.4802 41.7254 35.5357 41.7606 35.5774C42.4289 36.4846 42.1111 37.7711 41.1002 38.2664C41.0545 38.289 41.0167 38.3368 41.0081 38.3894C40.8387 39.5021 39.7067 40.1877 38.644 39.8224Z" fill="#EAB7E6" stroke="black" stroke-miterlimit="10"/>
<path d="M115.081 54.2292C115.031 54.2089 114.975 54.2179 114.933 54.2531C114.026 54.9213 112.74 54.6036 112.244 53.5926C112.222 53.5469 112.174 53.5091 112.121 53.5005C111.009 53.3311 110.323 52.1991 110.688 51.1364C110.709 51.0857 110.7 51.0302 110.664 50.9885C109.996 50.0813 110.314 48.7948 111.325 48.2995C111.371 48.277 111.408 48.2291 111.417 48.1765C111.586 47.0638 112.718 46.3782 113.781 46.7435C113.832 46.7638 113.887 46.7548 113.929 46.7196C114.836 46.0513 116.123 46.3691 116.618 47.3801C116.641 47.4258 116.688 47.4636 116.741 47.4722C117.854 47.6416 118.539 48.7736 118.174 49.8363C118.154 49.887 118.163 49.9425 118.198 49.9842C118.866 50.8914 118.548 52.1778 117.537 52.6732C117.492 52.6957 117.454 52.7436 117.445 52.7962C117.276 53.9088 116.144 54.5945 115.081 54.2292Z" fill="#EAB7E6" stroke="black" stroke-miterlimit="10"/>
<path d="M54.7074 27.1739C54.7005 26.5906 54.675 26.2684 54.6028 25.9745C54.2778 24.6553 53.0803 24.1599 51.1675 24.6283C49.9426 24.9267 48.2408 25.5734 46.9158 26.2276L47.1067 22.9219C48.4395 22.2931 50.2474 21.6216 51.517 21.3065C55.4924 20.3342 58.0951 21.3767 58.8094 24.2838C58.9754 24.959 59.0363 25.6531 59.0291 26.3961C58.9896 28.4422 58.9452 29.9293 58.8699 30.9432L54.5628 31.9994C54.6379 30.6553 54.7031 28.7095 54.7064 27.1797L54.7074 27.1739ZM47.5454 28.0346L51.5704 27.0525L51.3258 32.786L47.3251 33.7661L47.5454 28.0346Z" fill="black"/>
<path d="M64.0807 19.9641L68.5637 19.8908L66.9314 26.1482L62.4192 26.2167L64.0759 19.9573L64.0807 19.9641Z" fill="black"/>
<path d="M71.114 26.224C71.6272 22.3767 74.9738 20.1077 79.2673 20.6817C82.7989 21.1795 84.849 23.4762 84.4495 26.4417C83.9363 30.289 80.5557 32.5824 76.1921 31.997C72.8096 31.5416 70.7241 29.1671 71.113 26.2298L71.114 26.224ZM80.2291 26.1197C80.3846 24.9448 79.7492 23.983 78.7115 23.7958C76.9829 23.466 75.2569 24.7029 75.0206 26.4468C74.8526 27.6977 75.6196 28.699 76.8948 28.8649C78.5043 29.0793 79.9937 27.8578 80.2291 26.1197Z" fill="black"/>
<path d="M84.022 32.4874L85.8904 29.9354C86.6735 30.5432 87.3342 30.945 87.8773 31.1475C89.2073 31.6404 90.4227 31.1424 91.4188 29.7445L94.6647 25.1485L98.7219 26.6562L95.456 31.3749C93.1435 34.7368 90.6232 35.8022 87.5957 34.6784C86.3905 34.2299 85.1112 33.4632 84.0171 32.4806L84.022 32.4874Z" fill="black"/>
<path d="M97.1533 34.1422C98.5083 32.3467 100.679 32.2446 102.882 33.9C103.571 34.4205 104.295 35.2106 104.651 35.8208L102.952 37.0801C102.78 36.92 102.495 36.6454 102.345 36.5311C101.634 35.9951 100.983 35.9428 100.66 36.3763C100.346 36.7932 100.706 37.4941 101.61 38.1696C103.139 39.3191 104.899 39.1619 105.956 37.756C106.953 36.4301 106.333 34.6366 104.345 33.1363C103.505 32.5072 102.183 31.8176 101.087 31.3989L103.247 29.7465C104.421 29.98 106.13 30.7987 107.327 31.7021C110.599 34.1619 111.379 37.4398 109.356 40.1287C107.011 43.2511 103.404 43.5453 99.8227 40.8489C96.8019 38.58 95.7741 35.9758 97.1533 34.1422Z" fill="black"/>
<path d="M16.8142 96.9673C16.8142 96.9673 24.1619 77.0044 24.8521 74.2063L73.6983 94.851L66.5895 116.293L16.8084 96.9663L16.8142 96.9673Z" fill="#C0E54C" stroke="black" stroke-miterlimit="10"/>
<path d="M17.6771 91.2327C17.6771 91.2327 27.4328 72.3285 28.4604 69.6334L74.3883 96.1398L64.6944 116.542L17.6771 91.2327Z" fill="#C0E54C" stroke="black" stroke-miterlimit="10"/>
<path d="M20.2561 83.6233C20.2561 83.6233 33.0547 66.6316 34.5222 64.1462L75.3327 98.0042L62.3397 116.483L20.2512 83.6165L20.2561 83.6233Z" fill="#C0E54C" stroke="black" stroke-miterlimit="10"/>
<path d="M25.6262 74.4645C25.6262 74.4645 41.8728 60.7295 43.8529 58.6338L76.1416 100.699L59.3781 115.838L25.6262 74.4645Z" fill="#C0E54C" stroke="black" stroke-miterlimit="10"/>
<path d="M30.9452 67.6439C30.9452 67.6439 49.7173 57.6335 52.0953 56.0047L74.8112 103.927L55.2393 115.199L30.9452 67.6439Z" fill="#C0E54C" stroke="black" stroke-miterlimit="10"/>
<path d="M39.2022 61.3924C39.2022 61.3924 59.3064 54.4378 61.9088 53.1997L76.8635 104.075L55.7719 112.153L39.2022 61.3924Z" fill="#C0E54C" stroke="black" stroke-miterlimit="10"/>
<path d="M47.8642 57.6254C47.8642 57.6254 68.7738 53.7188 71.5334 52.8785L78.807 105.406L56.7498 110.278L47.8642 57.6254Z" fill="#C0E54C" stroke="black" stroke-miterlimit="10"/>
<path d="M55.4007 56.6757C55.4007 56.6757 76.6633 55.9414 79.516 55.5243L78.8521 108.552L56.3157 110.069L55.4066 56.6767L55.4007 56.6757Z" fill="#C0E54C" stroke="black" stroke-miterlimit="10"/>
<path d="M64.5983 55.9548C64.5983 55.9548 85.5895 59.4252 88.4636 59.5757L77.3568 111.429L54.9614 108.474L64.5983 55.9548Z" fill="#C0E54C" stroke="black" stroke-miterlimit="10"/>
<path d="M71.601 57.6906C71.601 57.6906 92.0226 63.6607 94.858 64.159L77.591 114.3L55.7148 108.675L71.6001 57.6965L71.601 57.6906Z" fill="#C0E54C" stroke="black" stroke-miterlimit="10"/>
<path d="M80.6669 61.0171C80.6669 61.0171 99.4647 70.9835 102.143 72.0384L75.1275 117.667L54.8342 107.745L80.6679 61.0113L80.6669 61.0171Z" fill="#C0E54C" stroke="black" stroke-miterlimit="10"/>
<path d="M89.0091 64.8438C89.0091 64.8438 105.313 78.5086 107.712 80.1059L71.7731 119.101L53.9944 105.166L89.0081 64.8497L89.0091 64.8438Z" fill="#C0E54C" stroke="black" stroke-miterlimit="10"/>
<path d="M97.8692 70.3153C97.8692 70.3153 111.03 87.0264 113.053 89.0847L69.8916 119.892L55.3467 102.613L97.8741 70.3221L97.8692 70.3153Z" fill="#C0E54C" stroke="black" stroke-miterlimit="10"/>
<path d="M108.217 81.9406C108.217 81.9406 115.918 101.771 117.253 104.329L66.97 121.174L58.1083 100.399L108.216 81.9465L108.217 81.9406Z" fill="#C0E54C" stroke="black" stroke-miterlimit="10"/>
<path d="M47.818 106.865C47.92 106.24 49.0407 104.298 50.0986 102.19C51.1564 100.082 53.0078 98.2232 53.0078 98.2232C53.0078 98.2232 56.0709 95.6319 56.3618 92.7807C56.6526 89.9294 53.3971 89.3206 53.3971 89.3206C55.9368 84.6755 52.83 83.1548 52.83 83.1548C50.5773 81.9533 48.2009 83.2042 48.2009 83.2042C50.1579 79.5564 47.7699 77.8227 47.7699 77.8227C47.7699 77.8227 45.9679 76.2867 43.6339 77.1304C41.2998 77.9741 37.252 82.7034 37.252 82.7034C37.252 82.7034 37.7621 80.7521 37.6595 79.5411C37.5569 78.3301 36.7417 77.7351 36.7417 77.7351C36.7417 77.7351 35.8338 76.5308 33.8047 76.8661C31.7755 77.2015 28.7544 81.1919 28.7544 81.1919L26.2623 84.9926L25.5958 84.8839L23.0863 87.8716L22.6088 90.2483L20.0355 94.7679C18.5028 98.6469 19.8728 101.913 19.8728 101.913C19.8728 101.913 25.9156 115.315 26.1515 116.224C26.3875 117.132 29.8149 122.024 29.8149 122.024C29.8149 122.024 39.7943 132.851 46.7649 124.11C53.7354 115.368 47.8072 106.858 47.8072 106.858L47.818 106.865Z" fill="#EAB7E6" stroke="black" stroke-linecap="round" stroke-linejoin="round"/>
<path d="M28.7602 81.1929C28.7602 81.1929 29.2256 83.3813 31.8107 81.6602C34.3959 79.9392 34.5511 78.9503 34.5511 78.9503C34.5511 78.9503 35.2569 77.2349 33.3766 76.9884C33.3766 76.9884 31.3385 77.8204 28.767 81.188L28.7602 81.1929Z" stroke="black" stroke-linecap="round" stroke-linejoin="round"/>
<path d="M37.252 82.7034C37.252 82.7034 30.2779 90.4364 29.0228 92.3923C27.7677 94.3482 26.3535 97.3163 25.8819 99.1419" stroke="black" stroke-linecap="round" stroke-linejoin="round"/>
<path d="M39.7685 80.041C39.7685 80.041 39.2008 82.235 41.844 81.5196C44.4862 80.8102 45.438 79.537 45.438 79.537C45.438 79.537 47.0984 77.9293 44.8453 76.8778C43.9089 76.4371 40.8397 78.9554 39.7685 80.041Z" stroke="black" stroke-linecap="round" stroke-linejoin="round"/>
<path d="M32.1124 100.902C33.5303 97.0641 35.8104 94.7112 38.4501 91.3667C41.0899 88.0222 48.2077 83.1993 48.2077 83.1993C48.2077 83.1993 46.4515 84.4373 45.8182 84.8982C45.5657 85.0851 45.4964 85.3259 45.5011 85.5547C45.5171 85.9354 45.751 86.2676 46.0953 86.4378C46.4397 86.6079 47.1491 86.7476 47.8366 86.7637C48.7511 86.7867 50.4269 86.2258 51.4087 85.2096C52.3906 84.1934 51.7742 82.8206 51.7742 82.8206" stroke="black" stroke-linecap="round" stroke-linejoin="round"/>
<path d="M53.4029 89.3216C53.4029 89.3216 50.3572 89.9293 47.6389 92.5408C47.6389 92.5408 40.7997 98.7834 39.061 103.595" stroke="black" stroke-linecap="round" stroke-linejoin="round"/>
<path d="M53.7728 89.5559C53.7728 89.5559 54.7933 90.9166 53.3959 92.015C51.9927 93.1126 49.9199 93.4948 49.9199 93.4948C49.9199 93.4948 48.0081 93.9573 48.0281 92.1781C48.0281 92.1781 51.0998 89.2761 53.7738 89.5501L53.7728 89.5559Z" stroke="black" stroke-linecap="round" stroke-linejoin="round"/>
<path d="M78.2434 111.55C78.3454 110.924 77.8508 108.731 77.4735 106.407C77.0962 104.083 75.8922 101.75 75.8922 101.75C75.8922 101.75 73.7506 98.3584 74.3288 95.548C74.9071 92.7376 78.1969 93.1359 78.1969 93.1359C77.1717 87.9396 80.5926 87.4231 80.5926 87.4231C83.0994 86.9556 84.9914 88.8604 84.9914 88.8604C84.2194 84.7977 87.0254 83.8569 87.0254 83.8569C87.0254 83.8569 89.2112 82.9289 91.1787 84.444C93.1462 85.959 95.5862 91.6801 95.5862 91.6801C95.5862 91.6801 95.6862 89.6679 96.1457 88.5426C96.6053 87.4172 97.5633 87.0993 97.5633 87.0993C97.5633 87.0993 98.793 86.2195 100.621 87.1537C102.455 88.0889 104.136 92.798 104.136 92.798L105.368 97.1697L106.772 101.516L107.264 103.282L108.355 108.369C108.649 112.528 106.365 115.235 106.365 115.235C106.365 115.235 96.5718 126.199 96.0761 126.994C95.5803 127.789 90.8343 131.427 90.8343 131.427C90.8343 131.427 78.0639 138.749 74.0394 128.316C70.0209 117.885 78.2317 111.548 78.2317 111.548L78.2434 111.55Z" fill="#EAB7E6" stroke="black" stroke-linecap="round" stroke-linejoin="round"/>
<path d="M104.143 92.7931C104.143 92.7931 103.044 94.7445 101.092 92.3257C99.1459 89.9079 99.2953 88.918 99.2953 88.918C99.2953 88.918 99.1407 87.0684 101.007 87.4026C101.007 87.4026 102.703 88.8135 104.143 92.7931Z" stroke="black" stroke-linecap="round" stroke-linejoin="round"/>
<path d="M95.5862 91.6801C95.5862 91.6801 99.911 101.153 100.524 103.396C101.136 105.638 101.589 108.899 101.487 110.772" stroke="black" stroke-linecap="round" stroke-linejoin="round"/>
<path d="M93.9873 88.3827C93.9873 88.3827 93.8706 90.6442 91.5605 89.1693C89.2562 87.6954 88.7261 86.1986 88.7261 86.1986C88.7261 86.1986 87.6293 84.1653 90.0888 83.8402C91.1137 83.7012 93.2843 87.0258 93.9814 88.3817L93.9873 88.3827Z" stroke="black" stroke-linecap="round" stroke-linejoin="round"/>
<path d="M95.018 110.588C94.8196 106.505 93.3534 103.571 91.8417 99.5915C90.33 95.6122 84.9904 88.8663 84.9904 88.8663C84.9904 88.8663 86.2905 90.5726 86.7573 91.2068C86.9442 91.4594 86.9334 91.7096 86.8621 91.9261C86.7377 92.2839 86.4094 92.5304 86.0338 92.5892C85.6581 92.648 84.9333 92.5658 84.2734 92.3802C83.3903 92.1282 81.963 91.0913 81.3353 89.8247C80.7076 88.5581 81.7008 87.4357 81.7008 87.4357" stroke="black" stroke-linecap="round" stroke-linejoin="round"/>
<path d="M78.1969 93.1359C78.1969 93.1359 80.918 94.6298 82.7244 97.943C82.7244 97.943 87.3713 105.956 87.5821 111.068" stroke="black" stroke-linecap="round" stroke-linejoin="round"/>
<path d="M77.7707 93.2465C77.7707 93.2465 76.3847 94.2388 77.3938 95.7056C78.3961 97.1773 80.2634 98.1659 80.2634 98.1659C80.2634 98.1659 81.9468 99.1786 82.4637 97.4804C82.4637 97.4804 80.4067 93.7903 77.7707 93.2465Z" stroke="black" stroke-linecap="round" stroke-linejoin="round"/>
<path d="M22.6205 90.2502C22.6205 90.2502 23.7105 88.7175 27.1776 90.4951C27.1776 90.4951 28.6976 91.5891 29.0228 92.3923L32.1743 88.375C32.1743 88.375 31.2523 87.0364 31.0933 86.9445L31.2 86.2897C31.2 86.2897 29.4584 85.5977 25.6008 84.8907L23.0921 87.8725L22.6146 90.2492L22.6205 90.2502Z" fill="#FFF471" stroke="black" stroke-miterlimit="10"/>
<path d="M25.8677 85.7564C25.8677 85.7564 29.1628 86.2697 29.8043 86.7523L28.2205 88.8467C28.2205 88.8467 24.9681 87.9983 24.3153 87.9159L25.8619 85.7555L25.8677 85.7564Z" fill="#9BE0CE" stroke="black" stroke-miterlimit="10"/>
<path d="M92.0185 100.016C92.0185 100.016 94.3871 97.0839 99.2377 98.5469L101.101 103.244L100.871 104.725C100.871 104.725 100.547 103.069 100.067 102.997C99.5862 102.925 96.6806 102.121 93.7697 104.257C93.7697 104.257 92.5808 100.69 92.0176 100.022L92.0185 100.016Z" fill="#FFF471" stroke="black" stroke-linecap="round" stroke-linejoin="round"/>
</g>
<defs>
<clipPath id="clip0_2088_4072">
<rect width="119.648" height="138.01" fill="white" transform="translate(22.661 0.812164) rotate(9.26)"/>
</clipPath>
</defs>
</svg>
