<svg width="250" height="251" viewBox="0 0 250 251" fill="none" xmlns="http://www.w3.org/2000/svg">
<g clip-path="url(#clip0_1294_722)">
<path d="M81.7135 243.205L69.3572 213.397C68.9419 212.386 67.9319 211.746 66.8432 211.78L34.6112 212.914C33.1411 212.97 31.9514 211.712 32.0861 210.252L34.9816 178.108C35.0826 177.019 34.4878 175.985 33.5114 175.514L4.44425 161.53C3.11995 160.89 2.64859 159.239 3.44541 157.993L20.9418 130.88C21.5366 129.959 21.4917 128.768 20.8408 127.892L1.60487 101.993C0.729486 100.813 1.07739 99.1286 2.36802 98.3986L30.4476 82.5286C31.4015 81.9895 31.9178 80.9225 31.7494 79.8443L26.7328 47.9582C26.5084 46.4981 27.597 45.1728 29.0784 45.1279L61.3104 44.1283C62.399 44.0946 63.3642 43.387 63.7121 42.3537L74.082 11.793C74.5533 10.4003 76.147 9.73767 77.4713 10.3779L106.471 24.4845C107.459 24.9675 108.626 24.7766 109.423 24.0241L132.789 1.79705C133.855 0.786224 135.572 0.932233 136.447 2.12276L155.582 28.1011C156.233 28.9771 157.355 29.3702 158.41 29.067L189.43 20.2391C190.844 19.8347 192.292 20.7669 192.517 22.227L197.387 54.1355C197.556 55.2137 198.375 56.0786 199.441 56.3032L231.011 62.9185C232.447 63.2217 233.3 64.7155 232.818 66.1082L222.313 96.624C221.954 97.6573 222.28 98.8029 223.121 99.4993L248.002 120.042C249.136 120.974 249.192 122.703 248.126 123.714L224.659 145.851C223.862 146.604 223.615 147.761 224.042 148.772L236.533 178.524C237.105 179.883 236.353 181.433 234.939 181.826L203.874 190.508C202.819 190.8 202.067 191.721 201.966 192.81L199.205 224.966C199.082 226.437 197.69 227.459 196.254 227.156L164.718 220.406C163.651 220.181 162.552 220.63 161.968 221.551L144.595 248.743C143.798 249.989 142.104 250.248 140.97 249.304L116.179 228.661C115.337 227.964 114.159 227.852 113.205 228.402L85.1926 244.396C83.9132 245.126 82.2859 244.564 81.7247 243.205H81.7135Z" fill="white" stroke="black" stroke-width="2" stroke-miterlimit="10"/>
<path d="M85.8098 233.883L74.4523 205.513C74.0819 204.569 73.1504 203.974 72.1404 204.03L41.6367 205.479C40.5369 205.535 39.639 204.592 39.7513 203.491L42.86 173.088C42.961 172.077 42.4223 171.122 41.502 170.695L13.8265 157.79C12.8277 157.319 12.4685 156.072 13.0858 155.151L29.9537 129.678C30.5149 128.836 30.4812 127.735 29.864 126.926L11.3463 102.622C10.6729 101.746 10.9422 100.476 11.9186 99.9373L38.6851 85.2354C39.5717 84.7524 40.0543 83.7528 39.8859 82.7532L34.7796 52.6305C34.6 51.5411 35.4193 50.5415 36.5303 50.519L67.0564 49.9462C68.0665 49.9237 68.9531 49.2723 69.2673 48.3064L78.7282 19.2507C79.0761 18.195 80.2657 17.7008 81.2533 18.195L108.547 31.8861C109.445 32.3353 110.545 32.1668 111.263 31.4593L133.137 10.1308C133.933 9.35581 135.224 9.46813 135.864 10.3666L153.674 35.1881C154.269 36.008 155.313 36.3674 156.278 36.0754L185.547 27.371C186.602 27.0566 187.702 27.7529 187.848 28.8536L192.09 59.1111C192.236 60.1107 192.988 60.9193 193.987 61.1102L223.952 67.0067C225.04 67.2201 225.68 68.3545 225.299 69.3878L215.007 98.1627C214.67 99.1174 214.962 100.173 215.748 100.813L239.54 119.974C240.404 120.671 240.449 121.962 239.63 122.715L217.162 143.403C216.421 144.088 216.186 145.166 216.59 146.098L228.755 174.132C229.193 175.143 228.632 176.311 227.566 176.603L198.061 184.465C197.084 184.723 196.377 185.577 196.31 186.588L194.065 217.07C193.987 218.171 192.943 218.946 191.866 218.698L162.08 211.937C161.093 211.713 160.071 212.139 159.544 212.993L143.405 238.938C142.822 239.881 141.542 240.072 140.701 239.353L117.469 219.518C116.695 218.867 115.595 218.766 114.731 219.283L88.3911 234.748C87.4371 235.31 86.2138 234.883 85.7986 233.861L85.8098 233.883Z" fill="#B7E862" stroke="#231F20" stroke-width="3" stroke-miterlimit="10"/>
<path d="M78.4589 145.267L77.6284 132.059L64.7221 134.957L71.815 123.782L59.6606 118.537L71.9609 113.662L65.216 102.273L78.0324 105.564L79.2669 92.3785L87.6953 102.588L96.4379 92.6481L97.2572 105.856L110.175 102.959L103.082 114.134L115.225 119.379L102.925 124.253L109.67 135.642L96.8531 132.351L95.6299 145.537L87.1903 135.328L78.4589 145.267Z" fill="#F4EDD0" stroke="black" stroke-width="0.75" stroke-linecap="round" stroke-linejoin="round"/>
<path d="M134.775 101.858L135.942 89.4022L123.474 90.2221L131.722 80.8326L121.151 74.1499L133.35 71.4095L128.726 59.7849L140.207 64.738L143.282 52.6193L149.657 63.379L159.275 55.3822L158.107 67.8379L170.587 67.0292L162.327 76.4187L172.899 83.0901L160.7 85.8418L165.324 97.4551L153.854 92.5021L150.768 104.632L144.393 93.8611L134.775 101.858Z" fill="#F4EDD0" stroke="black" stroke-width="0.75" stroke-linecap="round" stroke-linejoin="round"/>
<path d="M150.498 135.552C152.911 138.248 155.773 140.618 158.736 142.673C161.912 144.874 169.24 149.187 173.011 149.086C174.639 149.041 177.175 147.929 178.005 149.771C180.205 154.679 174.392 155.611 171.002 156.263C163.023 157.802 154.022 157.757 146.11 155.825C134.416 152.972 123.339 145.009 119.748 133.104C118.457 134.867 117.604 136.99 116.415 138.865C107.414 152.983 91.107 159.161 74.7105 155.993C73.3413 155.735 66.3382 153.781 65.7322 153.039C64.868 151.995 65.0027 148.884 66.3494 148.176C67.4268 147.615 70.6815 147.446 72.2302 147.008C89.3563 142.28 102.364 123.344 104.709 106.328C106.437 93.76 101.746 77.2049 110.231 66.4451C111.319 65.0637 117.38 59.886 117.503 59.2121C118.322 54.6746 114.798 48.4861 113.732 44.1283C113.407 42.8142 113.149 41.9269 114.069 40.7364C115.786 38.5126 123.833 37.1536 125.191 40.0064C126.033 41.7809 126.291 46.7565 126.414 48.868C126.605 52.2711 126.268 55.6967 126.796 59.0886C126.919 59.448 128.782 60.4363 129.276 60.8519C137.57 67.7929 136.683 88.8743 137.401 99.0388C137.816 104.946 137.536 107.844 141.666 112.37C147.434 118.671 155.47 121.591 163.988 120.884C166.21 120.704 173.236 118.357 174.077 121.726C174.65 124.04 171.586 123.804 170.655 124.691C169.936 125.365 168.893 127.87 168.163 128.926C165.773 132.374 160.936 135.417 156.66 135.462L150.543 135.53L150.498 135.552ZM119.456 43.8587C118.098 44.0384 116.482 43.7689 115.079 43.9037C116.471 48.3513 118.637 52.7653 118.962 57.4937C119.119 59.74 119.041 59.9871 117.514 61.5146C115.752 63.2667 113.429 64.6818 111.824 66.5799C103.216 76.7219 107.56 93.1198 106.191 105.362C104.821 117.604 98.4131 130.453 88.8288 138.832C82.6787 144.2 74.9686 148.569 66.7198 149.457C66.7984 150.67 66.0689 151.939 67.4717 152.557C76.2255 156.42 89.1318 156.173 97.953 152.736C108.446 148.648 115.674 139.798 119.647 129.453L120.208 129.128C124.585 152.399 151.306 159.228 171.743 154.78C172.843 154.544 175.671 153.882 176.502 153.32C177.108 152.916 176.906 151.141 176.861 150.456L176.659 150.153C174.526 150.041 172.821 150.759 170.655 150.22C163.618 148.491 154 141.404 149.14 136.069C133.608 119.019 137.3 100.847 134.955 79.8218C134.147 72.6449 132.766 63.1543 125.247 60.1219L125.191 52.4059L124.315 41.7922C123.193 42.7356 120.904 43.6566 119.467 43.8475L119.456 43.8587ZM169.454 123.939C170.396 122.872 171.878 123.074 172.854 122.198C170.834 120.334 167.243 121.872 164.74 122.153C155.066 123.265 146.593 119.828 140.151 112.662C139.668 112.123 139.32 111.337 138.759 110.922C139.859 119.502 143.439 127.544 149.241 133.935C155.391 134.833 162.294 134.115 166.424 129.004C167.613 127.522 168.466 125.051 169.454 123.928V123.939Z" fill="black"/>
<path d="M119.456 43.8588C120.892 43.6678 123.182 42.7468 124.304 41.8034L125.18 52.4171L125.236 60.1331C132.755 63.1656 134.135 72.6561 134.943 79.833C137.3 100.858 133.608 119.031 149.129 136.08C153.989 141.415 163.607 148.502 170.643 150.232C172.821 150.771 174.526 150.052 176.648 150.164L176.85 150.467C176.894 151.153 177.096 152.927 176.49 153.332C175.649 153.893 172.832 154.545 171.732 154.792C151.295 159.239 124.562 152.411 120.197 129.139L119.635 129.465C115.663 139.798 108.435 148.659 97.9417 152.747C89.1206 156.184 76.2031 156.431 67.4605 152.568C66.0576 151.95 66.7871 150.681 66.7086 149.468C74.9461 148.581 82.6674 144.212 88.8176 138.843C98.4019 130.464 104.754 118.076 106.179 105.373C107.605 92.6705 103.205 76.7444 111.813 66.5912C113.429 64.6931 115.741 63.2779 117.503 61.5258C119.041 60.0096 119.108 59.7512 118.951 57.5049C118.625 52.7653 116.459 48.3626 115.068 43.9149C116.459 43.7801 118.076 44.0497 119.445 43.87L119.456 43.8588ZM152.597 145.537C149.443 143.369 146.256 141.213 143.652 138.382C131.543 125.264 132.014 106.732 130.802 90.1098C130.398 84.5278 129.826 78.957 128.793 73.4648L127.839 70.2751C131.386 89.3236 127.357 109.855 135.561 127.948C138.961 135.451 145.044 142.134 152.597 145.537ZM111.106 89.5145C109.075 90.3793 108.749 95.9951 109.468 98.2076C109.838 99.3645 110.635 101.409 112.262 101.644C116.1 101.768 115.988 91.4351 112.812 89.537C112.24 89.2 111.735 89.245 111.117 89.5033L111.106 89.5145ZM122.733 89.8627C120.657 89.7167 119.905 94.0071 120.152 96.4892C120.275 97.7359 120.971 102.97 123.687 101.959C127.267 100.611 126.796 92.401 123.563 90.1884C123.238 89.9638 123.171 89.8964 122.733 89.8627Z" fill="#F7DE63"/>
<path d="M169.454 123.939C168.466 125.062 167.613 127.533 166.424 129.015C162.305 134.126 155.392 134.845 149.241 133.946C143.439 127.555 139.859 119.514 138.759 110.933C139.32 111.348 139.668 112.135 140.151 112.674C146.582 119.839 155.055 123.276 164.74 122.164C167.243 121.884 170.834 120.345 172.854 122.209C171.878 123.085 170.396 122.883 169.454 123.95V123.939Z" fill="#F7DE63"/>
<path d="M152.597 145.537C145.033 142.134 138.961 135.451 135.561 127.948C127.357 109.855 131.386 89.3236 127.839 70.2751L128.793 73.4648C129.826 78.957 130.398 84.5278 130.802 90.1098C132.014 106.732 131.532 125.264 143.652 138.382C146.267 141.213 149.455 143.369 152.597 145.537Z" fill="black"/>
<path d="M123.048 102.09C124.95 102.071 126.465 99.3143 126.43 95.9338C126.395 92.5534 124.824 89.8289 122.922 89.8485C121.019 89.8681 119.505 92.6244 119.539 96.0048C119.574 99.3853 121.145 102.11 123.048 102.09Z" fill="white" stroke="black" stroke-miterlimit="10"/>
<path d="M112.202 101.595C114.104 101.576 115.619 98.8195 115.584 95.4391C115.549 92.0587 113.978 89.3342 112.076 89.3538C110.173 89.3734 108.659 92.1297 108.693 95.5101C108.728 98.8905 110.299 101.615 112.202 101.595Z" fill="white" stroke="black" stroke-miterlimit="10"/>
<path d="M112.229 101C113.562 100.986 114.627 99.4914 114.608 97.6616C114.589 95.8319 113.494 94.3597 112.161 94.3734C110.829 94.3871 109.764 95.8816 109.782 97.7114C109.801 99.5411 110.897 101.013 112.229 101Z" fill="black" stroke="black" stroke-miterlimit="10"/>
<path d="M123.04 101.382C124.373 101.369 125.438 99.8741 125.419 98.0444C125.4 96.2146 124.305 94.7424 122.972 94.7561C121.639 94.7699 120.574 96.2643 120.593 98.0941C120.612 99.9239 121.708 101.396 123.04 101.382Z" fill="black" stroke="black" stroke-miterlimit="10"/>
<path d="M117.335 117.355C119.275 117.335 120.824 115.011 120.795 112.164C120.766 109.317 119.169 107.026 117.229 107.046C115.289 107.066 113.74 109.39 113.77 112.237C113.799 115.084 115.395 117.375 117.335 117.355Z" fill="black"/>
<path d="M71.4783 166.674L76.6969 171.133L75.0247 172.178C76.5398 172.178 78.2905 172.953 79.7832 174.222C83.3184 177.243 83.5092 182.398 80.1872 186.296C76.6408 190.451 70.4794 190.901 66.3943 187.419C64.4191 185.723 63.3081 183.937 62.7918 181.646L59.2903 184.038L53.7125 179.276L71.4671 166.674H71.4783ZM75.1594 181.938C76.4837 180.377 76.248 178.041 74.6207 176.659C72.7128 175.019 70.0305 175.143 68.5042 176.929C67.0902 178.58 67.3819 181.129 69.099 182.601C70.9508 184.184 73.4984 183.892 75.1594 181.938Z" fill="black"/>
<path d="M91.2529 181.59L97.852 184.701L90.7255 193.225L84.0928 190.092L91.2642 181.578L91.2529 181.59Z" fill="black"/>
<path d="M102.689 185.846L109.692 187.161L108.727 189.059C110.085 188.272 111.869 188.048 113.755 188.396C117.739 189.148 119.748 192.305 118.94 196.584C118.76 197.55 118.367 198.695 117.829 199.942C116.673 202.379 115.36 205.209 114.271 207.568L107.189 206.231C108.615 203.244 110.085 200.313 111.409 197.213C111.611 196.82 111.746 196.325 111.813 195.988C112.105 194.438 111.319 193.338 109.759 193.035C108.794 192.855 107.762 193.046 106.707 193.585L101.151 205.086L94.1484 203.772L102.689 185.835V185.846Z" fill="black"/>
<path d="M126.863 188.755L134.135 188.183L130.735 207.153L123.384 207.725L126.863 188.744V188.755Z" fill="black"/>
<path d="M138.849 198.246C137.637 194.775 138.12 190.957 140.173 186.487C141.531 183.387 143.731 180.5 144.584 179.433L151.71 176.951C149.993 179.939 147.143 184.061 145.538 189.317C144.685 192.057 144.55 193.866 145.055 195.315C145.717 197.213 147.625 198.033 149.601 197.347C151.811 196.572 152.799 194.742 152.07 192.641C151.598 191.271 150.162 190.418 148.153 190.215L149.645 185.678C153.753 185.285 157.277 187.351 158.511 190.901C160.296 196.022 157.266 201.054 151.06 203.221C145.661 205.108 140.51 203.019 138.849 198.257V198.246Z" fill="black"/>
<path d="M159.645 178.041L165.728 174.02L169.308 184.544L163.191 188.598L159.645 178.052V178.041Z" fill="black"/>
<path d="M176.143 183.218L178.163 181.073C180.968 178.086 181.552 173.245 179.375 171.189C178.107 169.988 176.367 170.403 174.493 172.391C173.528 173.413 172.226 175.233 171.687 176.367L169.072 171.852C169.869 170.201 171.317 168.224 172.899 166.54C176.434 162.777 180.43 162.148 183.415 164.956C185.749 167.146 186.411 170.246 185.267 173.503L188.981 169.561L191.81 174.222L178.971 187.868L176.143 183.207V183.218Z" fill="black"/>
</g>
<defs>
<clipPath id="clip0_1294_722">
<rect width="250" height="251" fill="white"/>
</clipPath>
</defs>
</svg>
