<svg width="251" height="251" viewBox="0 0 251 251" fill="none" xmlns="http://www.w3.org/2000/svg">
<g clip-path="url(#clip0_1294_775)">
<path d="M125.495 249.894C194.198 249.894 249.894 194.198 249.894 125.495C249.894 56.7907 194.198 1.09534 125.495 1.09534C56.7907 1.09534 1.09534 56.7907 1.09534 125.495C1.09534 194.198 56.7907 249.894 125.495 249.894Z" fill="white" stroke="black" stroke-width="2" stroke-miterlimit="10"/>
<path d="M125.494 241.481C189.643 241.481 241.646 189.479 241.646 125.33C241.646 61.1817 189.643 9.17902 125.494 9.17902C61.346 9.17902 9.34332 61.1817 9.34332 125.33C9.34332 189.479 61.346 241.481 125.494 241.481Z" fill="#FFF471" stroke="black" stroke-width="3" stroke-miterlimit="10"/>
<path d="M166.811 47.5821C172.588 47.5821 177.272 42.8987 177.272 37.1215C177.272 31.3443 172.588 26.6609 166.811 26.6609C161.034 26.6609 156.351 31.3443 156.351 37.1215C156.351 42.8987 161.034 47.5821 166.811 47.5821Z" fill="#FAAF40" stroke="black" stroke-miterlimit="10"/>
<path d="M29.6402 143.382C35.4175 143.382 40.1009 138.698 40.1009 132.921C40.1009 127.144 35.4175 122.46 29.6402 122.46C23.863 122.46 19.1796 127.144 19.1796 132.921C19.1796 138.698 23.863 143.382 29.6402 143.382Z" fill="#FAAF40" stroke="black" stroke-miterlimit="10"/>
<path d="M183.888 214.788C189.665 214.788 194.348 210.104 194.348 204.327C194.348 198.55 189.665 193.866 183.888 193.866C178.111 193.866 173.427 198.55 173.427 204.327C173.427 210.104 178.111 214.788 183.888 214.788Z" fill="#FAAF40" stroke="black" stroke-miterlimit="10"/>
<path d="M178.849 163.81L173.898 173.46C172.595 176.001 168.4 179.824 166.088 181.511C159.505 186.33 147.27 193.253 130.993 189.233C110.729 184.227 102.196 167.195 102.196 167.195C102.196 167.195 90.5966 147.533 107.684 126.371" fill="#FAAF40"/>
<path d="M178.849 163.81L173.898 173.46C172.595 176.001 168.4 179.824 166.088 181.511C159.505 186.33 147.27 193.253 130.993 189.233C110.729 184.227 102.196 167.195 102.196 167.195C102.196 167.195 90.5966 147.533 107.684 126.371" stroke="black" stroke-linecap="round" stroke-linejoin="round"/>
<path d="M178.855 163.826C186.694 146.743 176.646 125.368 156.413 116.083C136.18 106.798 113.422 113.12 105.583 130.203C97.744 147.285 107.791 168.661 128.025 177.946C148.258 187.231 171.015 180.909 178.855 163.826Z" fill="#FAAF40" stroke="black" stroke-linecap="round" stroke-linejoin="round"/>
<path d="M140.369 165.19C140.369 165.19 149.11 156.493 140.468 146.931C131.826 137.368 121.88 144.959 121.88 144.959" stroke="black" stroke-width="2" stroke-linecap="round" stroke-linejoin="round"/>
<path d="M107.476 159.308L102.196 167.195" stroke="black" stroke-linecap="round" stroke-linejoin="round"/>
<path d="M116.305 170.294L110.926 178.247" stroke="black" stroke-linecap="round" stroke-linejoin="round"/>
<path d="M128.025 177.929L123.534 186.363" stroke="black" stroke-linecap="round" stroke-linejoin="round"/>
<path d="M139.756 181.577L136.349 190.197" stroke="black" stroke-linecap="round" stroke-linejoin="round"/>
<path d="M148.804 182.179L145.474 190.142" stroke="black" stroke-linecap="round" stroke-linejoin="round"/>
<path d="M107.684 126.382C107.684 126.382 99.7428 138.814 103.609 149.066L98.6912 156.055C98.6912 156.055 95.5257 140.238 107.684 126.382Z" fill="black"/>
<path d="M177.447 166.855L173.887 173.471C173.887 173.471 165.464 184.797 155.463 187.47L158.618 180.591C158.618 180.591 169.298 178.86 177.447 166.855Z" fill="black"/>
<path d="M145.233 127.236C141.75 126.382 137.335 130.763 137.324 134.235C137.313 141.541 149.494 135.933 148.037 129.646C147.621 128.156 146.668 127.576 145.233 127.225V127.236ZM157.117 150.249C157.928 149.888 160.491 147.818 161.411 145.802C162.452 143.513 161.214 140.424 158.706 140.238C149.757 139.581 147.139 154.686 157.117 150.238V150.249Z" fill="black"/>
<path d="M142.889 129.241C144.105 129.58 145.485 130.391 145.835 131.891C147.413 136.579 137.587 139.997 137.182 134.641C136.985 132.088 139.942 128.408 142.889 129.23V129.241Z" fill="black"/>
<path d="M144.05 74.944L149.329 84.4297C150.72 86.9271 151.564 92.5353 151.684 95.3942C152.035 103.544 150.994 117.564 138.617 128.868C123.194 142.932 104.289 140.567 104.289 140.567C104.289 140.567 81.4942 139.285 73.3886 113.325" fill="#FAAF40"/>
<path d="M144.05 74.944L149.329 84.4297C150.72 86.9271 151.564 92.5353 151.684 95.3942C152.035 103.544 150.994 117.564 138.617 128.868C123.194 142.932 104.289 140.567 104.289 140.567C104.289 140.567 81.4942 139.285 73.3886 113.325" stroke="black" stroke-linecap="round" stroke-linejoin="round"/>
<path d="M127.559 125.051C146.518 113.382 153.902 90.9469 144.05 74.9398C134.199 58.9328 110.843 55.4155 91.884 67.0838C72.9248 78.7521 65.5416 101.187 75.3931 117.194C85.2446 133.202 108.6 136.719 127.559 125.051Z" fill="#FAAF40" stroke="black" stroke-linecap="round" stroke-linejoin="round"/>
<path d="M95.8652 103.96C95.8652 103.96 99.4032 115.768 111.912 112.668C124.421 109.557 122.417 97.2125 122.417 97.2125" stroke="black" stroke-width="2" stroke-linecap="round" stroke-linejoin="round"/>
<path d="M100.663 131.793L104.289 140.567" stroke="black" stroke-linecap="round" stroke-linejoin="round"/>
<path d="M114.694 130.555L118.32 139.449" stroke="black" stroke-linecap="round" stroke-linejoin="round"/>
<path d="M127.554 125.056L132.078 133.469" stroke="black" stroke-linecap="round" stroke-linejoin="round"/>
<path d="M137.105 117.312L142.385 124.936" stroke="black" stroke-linecap="round" stroke-linejoin="round"/>
<path d="M142.637 110.127L147.402 117.323" stroke="black" stroke-linecap="round" stroke-linejoin="round"/>
<path d="M73.3886 113.325C73.3886 113.325 79.3145 126.831 89.9832 129.317L93.0721 137.291C93.0721 137.291 78.1534 131.136 73.3886 113.325Z" fill="black"/>
<path d="M145.802 77.8029L149.329 84.4297C149.329 84.4297 154.072 97.7273 150.742 107.531L146.777 101.09C146.777 101.09 151.268 91.2428 145.813 77.8029H145.802Z" fill="black"/>
<path d="M94.9561 82.5786C92.3163 84.9993 93.4992 91.1004 96.391 93.0392C102.459 97.103 104.562 83.8602 98.5269 81.5818C97.0591 81.0999 96.0405 81.5818 94.9561 82.5676V82.5786ZM120.697 85.4813C120.85 84.605 120.554 81.3189 119.393 79.4459C118.068 77.299 114.815 76.6199 113.27 78.6025C107.761 85.6784 118.857 96.2376 120.708 85.4813H120.697Z" fill="black"/>
<path d="M95.3285 85.6456C96.2815 84.8241 97.7164 84.123 99.1732 84.6707C103.949 85.9632 101.331 96.0295 96.6539 93.3897C94.4194 92.1301 93.0064 87.6391 95.3285 85.6456Z" fill="black"/>
<path d="M189.649 45.9063L194.359 50.4958L186.068 55.3701L181.39 50.8025L189.66 45.9063H189.649ZM196.769 54.8772C197.591 54.3405 198.029 54.0119 198.368 53.6504C199.968 52.0074 199.672 49.9262 197.437 47.7464C196.002 46.3553 193.691 44.6137 191.676 43.4089L196.495 40.6705C198.478 41.9082 200.92 43.7594 202.41 45.2162C207.054 49.7509 207.734 54.2419 204.218 57.8456C203.407 58.6781 202.476 59.401 201.424 60.0582C198.5 61.8655 196.375 63.1581 194.885 63.9686L189.847 59.0614C191.807 57.9442 194.611 56.2683 196.769 54.8881V54.8772Z" fill="black"/>
<path d="M203.768 62.2708C209.278 58.7547 215.675 60.343 219.377 66.1265C222.389 70.9241 221.546 75.8532 217.307 78.5697C211.797 82.0858 205.346 80.4865 201.578 74.6045C198.664 70.0478 199.562 64.9763 203.779 62.2818L203.768 62.2708ZM213.342 73.1477C215.029 72.0742 215.598 70.2669 214.777 68.821C213.419 66.3784 210.023 65.6336 207.536 67.2328C205.751 68.3719 205.247 70.3764 206.343 72.0961C207.734 74.2649 210.855 74.7469 213.342 73.1477Z" fill="black"/>
<path d="M208.183 82.7429L213.451 82.2172C213.517 83.7945 213.714 85.0103 214.032 85.8647C214.831 87.9678 216.77 88.8769 219.629 88.5483L229.005 87.442L231.437 93.8608L221.886 95.0766C215.094 95.9638 211.02 94.1236 209.201 89.337C208.478 87.431 208.084 85.087 208.172 82.7429H208.183Z" fill="black"/>
<path d="M214.996 98.0121L219.87 98.5817C219.618 100.488 219.552 102.996 219.772 104.267C220.33 107.421 222.368 108.878 225.577 108.44C227.976 108.144 229.016 106.14 228.447 102.908C228.271 101.923 227.768 100.236 227.187 98.8994L232.215 99.3594C232.839 100.772 233.442 102.733 233.683 104.091C234.745 110.116 232.357 114.3 227.406 115.176C220.604 116.381 215.916 113.325 214.777 106.841C214.284 104.058 214.371 100.74 214.985 98.0121H214.996Z" fill="black"/>
<path d="M224.799 130.774C225.752 131.015 226.289 131.125 226.782 131.147C229.071 131.234 230.418 129.624 230.539 126.502C230.616 124.509 230.353 121.617 229.893 119.317L235.161 121.058C235.577 123.37 235.829 126.415 235.753 128.496C235.501 134.98 232.62 138.496 227.581 138.31C226.42 138.266 225.259 138.058 224.065 137.719C220.768 136.755 218.38 136.043 216.781 135.484L217.055 128.452C219.191 129.164 222.324 130.117 224.799 130.785V130.774ZM226.694 119.47L226.442 126.042L217.263 123.15L217.515 116.622L226.694 119.47Z" fill="black"/>
<path d="M221.579 151.663C227.647 154.083 230.09 160.206 227.549 166.592C225.413 171.839 220.911 174.03 216.234 172.157C210.165 169.736 207.701 163.558 210.286 157.063C212.29 152.035 216.946 149.811 221.579 151.663ZM218.326 165.782C220.177 166.526 221.984 165.935 222.674 164.423C223.857 161.893 222.488 158.706 219.75 157.61C217.778 156.822 215.861 157.588 215.105 159.483C214.152 161.882 215.587 164.697 218.326 165.782Z" fill="black"/>
<path d="M219.246 182.059L214.799 188.291L205.357 185.191L211.677 192.662L207.668 198.292L195.641 183.833L200.088 177.6L209.65 180.887L203.254 173.153L207.263 167.534L219.246 182.059Z" fill="black"/>
<path d="M149.899 220.801C149.954 221.776 150.02 222.324 150.162 222.806C150.775 225.007 152.736 225.807 155.737 224.953C157.665 224.416 160.327 223.277 162.386 222.138L162.342 227.68C160.272 228.775 157.446 229.958 155.442 230.528C149.187 232.281 144.959 230.616 143.601 225.763C143.283 224.646 143.13 223.474 143.086 222.236C142.987 218.808 142.933 216.31 142.976 214.612L149.746 212.707C149.724 214.963 149.779 218.227 149.899 220.79V220.801ZM161.225 219.136L154.894 220.911L154.828 211.294L161.115 209.53L161.214 219.136H161.225Z" fill="black"/>
<path d="M139.964 223.134C140.238 229.663 135.638 234.394 128.781 234.679C123.118 234.876 119.284 231.656 119.076 226.628C118.802 220.1 123.435 215.324 130.424 215.04C135.835 214.81 139.756 218.15 139.964 223.145V223.134ZM125.746 225.938C125.834 227.932 127.094 229.345 128.759 229.356C131.552 229.411 133.907 226.848 133.786 223.901C133.699 221.776 132.22 220.341 130.183 220.429C127.609 220.538 125.626 222.992 125.746 225.949V225.938Z" fill="black"/>
<path d="M120.051 216.65L117.871 221.48C116.469 220.746 115.319 220.308 114.421 220.155C112.197 219.793 110.444 221.02 109.294 223.66L105.559 232.324L98.7789 231.218L102.503 222.335C105.132 216.014 108.769 213.408 113.818 214.229C115.834 214.558 118.057 215.39 120.051 216.639V216.65Z" fill="black"/>
<path d="M103.401 214.897L100.466 218.83C98.9432 217.658 96.8073 216.354 95.5914 215.905C92.5792 214.81 90.3009 215.839 89.0741 218.851C88.1321 221.075 89.3479 222.981 92.4368 224.098C93.3788 224.438 95.0876 224.843 96.5334 225.007L93.6198 229.126C92.0863 228.962 90.0818 228.502 88.7893 228.031C83.0387 225.938 80.607 221.787 82.3267 217.055C84.6817 210.56 89.6765 208.029 95.8543 210.275C98.516 211.239 101.342 212.98 103.39 214.875L103.401 214.897Z" fill="black"/>
<path d="M70.1464 207C69.4563 207.701 69.0949 208.106 68.832 208.533C67.6052 210.472 68.3281 212.455 70.9679 214.12C72.6548 215.182 75.2836 216.409 77.5072 217.176L73.3558 220.856C71.1541 220.056 68.3829 218.742 66.6303 217.636C61.1426 214.163 59.5544 209.902 62.238 205.652C62.8623 204.667 63.6291 203.768 64.5163 202.903C67.0028 200.537 68.821 198.828 70.1136 197.722L76.0613 201.479C74.3745 202.98 71.9866 205.203 70.1574 207H70.1464ZM78.975 214.306L73.4215 210.79L80.5304 204.305L86.0509 207.799L78.975 214.306Z" fill="black"/>
<path d="M53.7271 193.702C48.5899 197.744 42.0616 196.78 37.8226 191.38C34.3613 186.9 34.7227 181.905 38.6769 178.794C43.8141 174.753 50.3972 175.716 54.7239 181.215C58.0647 185.465 57.6594 190.613 53.738 193.691L53.7271 193.702ZM43.146 183.811C41.5796 185.049 41.1743 186.889 42.1383 188.258C43.7265 190.558 47.1769 190.964 49.499 189.135C51.164 187.82 51.4707 185.783 50.211 184.184C48.6118 182.157 45.4681 181.982 43.146 183.811Z" fill="black"/>
<path d="M28.5777 176.45L25.4012 169.484L32.8168 162.868L23.1777 164.599L20.3188 158.311L38.8522 155.135L42.0287 162.101L34.3941 168.728L44.2851 167.052L47.144 173.34L28.5777 176.439V176.45Z" fill="black"/>
<path d="M29.8484 97.0045C28.9721 96.5663 28.4682 96.3473 27.9863 96.2268C25.7627 95.6572 24.1087 96.9497 23.331 99.9729C22.8381 101.912 22.4876 104.781 22.4438 107.136L17.6571 104.321C17.7447 101.977 18.1281 98.9432 18.6429 96.9278C20.2531 90.6405 23.813 87.8035 28.6873 89.0522C29.8155 89.337 30.8999 89.7861 32.0062 90.3776C35.0294 92.0097 37.2091 93.2146 38.655 94.1018L36.9134 100.915C34.9746 99.7757 32.1158 98.1874 29.8374 97.0045H29.8484ZM25.6203 107.651L27.2524 101.276L35.6209 106.03L33.9998 112.361L25.6203 107.64V107.651Z" fill="black"/>
<path d="M32.773 87.2668C26.9895 84.2327 25.1931 77.8906 28.3806 71.8004C31.0423 66.8056 35.7523 65.0968 40.2104 67.4299C45.9939 70.4641 47.8121 76.8609 44.5699 83.0606C42.0615 87.8583 37.1982 89.5889 32.7839 87.2668H32.773ZM37.4611 73.5639C35.6975 72.6329 33.8464 73.0272 32.992 74.4621C31.5462 76.85 32.5867 80.1689 35.2046 81.5381C37.0886 82.5239 39.0712 81.9653 40.0132 80.1579C41.2072 77.8687 40.079 74.9331 37.4611 73.553V73.5639Z" fill="black"/>
<path d="M48.3379 73.301L45.26 68.9853C46.5963 68.1419 47.5602 67.3751 48.1407 66.6632C49.5647 64.9325 49.3894 62.7856 47.6916 60.4635L42.0834 52.8727L46.4539 47.5712L52.2593 55.2605C56.3997 60.7154 56.8269 65.1735 53.5737 69.1277C52.2812 70.705 50.441 72.2056 48.3598 73.301H48.3379Z" fill="black"/>
<path d="M58.2509 59.7734L56.323 55.2606C58.0975 54.5267 60.3101 53.3437 61.2959 52.5112C63.7495 50.452 64.0015 47.9655 62.0189 45.3915C60.5621 43.4636 58.3056 43.5513 55.7863 45.6653C55.0196 46.3115 53.8147 47.5822 52.9384 48.7542L50.8353 44.1647C51.7445 42.916 53.1465 41.4153 54.1981 40.5281C58.8862 36.6067 63.7057 36.5848 66.937 40.4514C71.3732 45.7529 71.0555 51.3392 66.006 55.5563C63.8372 57.3746 60.9126 58.941 58.2399 59.7734H58.2509Z" fill="black"/>
<path d="M81.7571 34.9418C81.4943 33.9998 81.319 33.485 81.089 33.0359C80.0265 31.0095 77.9563 30.6371 75.185 32.0939C73.4106 33.0249 71.0446 34.6899 69.2701 36.2343L68.1638 30.8014C69.9602 29.3007 72.4795 27.5482 74.3197 26.5843C80.0703 23.572 84.5503 24.3169 86.8943 28.775C87.4311 29.8046 87.8254 30.9109 88.1321 32.1158C88.9427 35.4457 89.5122 37.8773 89.8189 39.5532L83.5864 42.8174C83.1373 40.6157 82.4034 37.4282 81.7571 34.9418ZM71.0227 38.9289L76.85 35.8728L78.9092 45.271L73.1258 48.3051L71.0227 38.9289Z" fill="black"/>
<path d="M101.473 27.3838C100.564 20.9103 104.683 15.7512 111.485 14.7982C117.093 14.0534 121.234 16.8794 121.935 21.8633C122.844 28.3368 118.692 33.5397 111.77 34.5146C106.414 35.2704 102.175 32.3239 101.484 27.3838H101.473ZM115.352 23.2105C115.078 21.228 113.676 19.9573 112.011 20.1107C109.229 20.3298 107.136 23.112 107.542 26.0365C107.837 28.1396 109.448 29.4212 111.463 29.1473C114.015 28.7859 115.746 26.1461 115.341 23.2215L115.352 23.2105Z" fill="black"/>
<path d="M129.011 14.3163L136.634 15.0611L138.65 24.7988L141.98 15.5869L148.858 16.266L142.319 33.9012L134.696 33.1563L132.79 23.2215L129.274 32.6196L122.395 31.9405L129.022 14.3163H129.011Z" fill="black"/>
</g>
<defs>
<clipPath id="clip0_1294_775">
<rect width="251" height="251" fill="white"/>
</clipPath>
</defs>
</svg>
