<svg width="182" height="182" viewBox="0 0 182 182" fill="none" xmlns="http://www.w3.org/2000/svg">
<g clip-path="url(#clip0_625_572)">
<path d="M112.525 178.018L91.9708 154.778C88.8551 151.26 83.6003 150.634 79.7405 153.315L54.2571 171.042C46.9329 176.138 37.0859 169.857 38.6322 161.081L44.0032 130.539C44.817 125.919 42.0269 121.415 37.5277 120.068L7.76598 111.222C-0.790521 108.68 -2.02284 97.083 5.82449 92.811L33.0867 77.9636C37.2138 75.7115 39.0042 70.7314 37.2371 66.3782L25.5998 37.6352C22.2516 29.3699 30.5756 21.1742 38.8065 24.6335L67.429 36.6601C71.7653 38.4826 76.776 36.7646 79.0895 32.6783L94.3424 5.67666C98.7253 -2.08951 110.328 -0.696474 112.757 7.8823L121.186 37.7281C122.465 42.2438 126.929 45.0996 131.568 44.345L162.225 39.4113C171.037 37.9951 177.187 47.9204 171.979 55.1642L153.866 80.3433C151.122 84.1626 151.68 89.4213 155.156 92.5788L178.129 113.44C184.732 119.441 180.803 130.423 171.874 130.876L140.868 132.443C136.172 132.675 132.393 136.39 132.091 141.08L130.08 172.017C129.498 180.92 118.442 184.693 112.537 178.007L112.525 178.018Z" fill="white" stroke="black" stroke-linecap="round" stroke-linejoin="round"/>
<path d="M115.269 175.36L92.9589 150.134C89.6805 146.431 84.135 145.758 80.066 148.59L52.4085 167.826C47.7815 171.041 41.5618 167.083 42.5383 161.534L48.3744 128.391C49.2347 123.516 46.2934 118.779 41.5502 117.363L9.2424 107.763C3.83646 106.161 3.05754 98.8358 8.01008 96.131L37.5974 80.0182C41.9454 77.6501 43.8288 72.403 41.9687 67.8176L29.3432 36.6136C27.2273 31.3897 32.4821 26.2239 37.6788 28.4063L68.7426 41.466C73.3115 43.3814 78.5896 41.5821 81.031 37.2753L97.5859 7.96352C100.353 3.05307 107.677 3.93533 109.212 9.35656L118.361 41.7446C119.71 46.5042 124.406 49.5108 129.301 48.7214L162.573 43.3698C168.142 42.476 172.025 48.7446 168.735 53.3184L149.076 80.6567C146.181 84.6733 146.774 90.2222 150.436 93.5423L175.373 116.179C179.547 119.964 177.059 126.905 171.421 127.184L137.764 128.879C132.812 129.123 128.836 133.046 128.522 137.98L126.336 171.564C125.976 177.182 118.989 179.562 115.257 175.348L115.269 175.36Z" fill="#FAAF40" stroke="black" stroke-width="2" stroke-linecap="round" stroke-linejoin="round"/>
<path d="M40.6317 92.1724L47.1188 90.0016L48.6069 98.2089L42.1198 100.38L40.6317 92.1724Z" fill="black"/>
<path d="M56.1752 92.9154L51.8854 94.3549L51.0948 91.5572L49.7346 84L56.059 81.8872L56.9309 86.728L61.6858 85.1376L62.5229 86.9253L63.3715 99.4859L56.9425 101.633L56.1752 92.9154Z" fill="black"/>
<path d="M65.5688 83.8258L72.056 81.655L73.5441 89.8623L67.0569 92.0331L65.5688 83.8258Z" fill="black"/>
<path d="M92.2148 78.869C92.924 80.9701 93.4472 83.4312 94.3888 89.0962L88.2621 91.1509C87.3437 86.1824 86.7856 83.6053 86.4136 82.7114L86.1462 82.6186L84.7976 83.0713L86.3671 91.7894L80.0427 93.9021L78.4733 85.1841L76.9852 85.6832L75.2878 80.6451C77.6014 79.6584 81.2518 78.2885 84.3326 77.2554C86.7391 76.4544 88.8666 75.8275 90.378 75.4792L91.3197 76.7562C91.6568 77.3947 91.9474 78.1028 92.2148 78.8922V78.869Z" fill="black"/>
<path d="M111.665 72.3681C112.385 74.5273 112.92 76.9884 113.839 82.5953L107.712 84.65C106.817 79.7628 106.235 77.1044 105.863 76.2106L105.596 76.1177L104.736 76.4079L105.433 80.2852C106.084 83.8258 105.003 85.985 102.166 86.9253C100.76 87.3897 98.6439 87.529 97.1558 87.2156L96.9465 82.456L98.8066 82.5257L99.0624 82.3167L98.3881 78.5207L96.4466 79.1708L94.7493 74.1326C97.1674 73.1111 100.829 71.7413 103.794 70.7429C106.096 69.9767 108.223 69.3499 109.839 68.9668L110.781 70.2437C111.118 70.8822 111.409 71.5903 111.676 72.3797L111.665 72.3681Z" fill="black"/>
<path d="M131.172 65.8325C131.893 67.9917 132.428 70.4527 133.346 76.0597L127.22 78.1144C126.325 73.2272 125.743 70.5688 125.371 69.6749L125.104 69.5821L124.244 69.8723L124.941 73.7496C125.592 77.2902 124.511 79.4494 121.674 80.3897C120.268 80.854 118.152 80.9933 116.664 80.6799L116.454 75.9204L118.314 75.99L118.57 75.7811L117.896 71.985L115.954 72.6351L114.257 67.597C116.675 66.5754 120.337 65.2056 123.302 64.2073C125.592 63.4411 127.731 62.8142 129.347 62.4312L130.289 63.7081C130.626 64.3466 130.917 65.0547 131.184 65.8441L131.172 65.8325Z" fill="black"/>
<path d="M70.9398 106.637L77.9036 104.303L79.0197 117.282L74.288 118.861L70.9398 106.637ZM74.4857 120.486L79.2638 119.58L80.8333 124.247L74.9972 126.197L74.4973 120.486H74.4857Z" fill="black"/>
<path d="M95.7491 103.735L96.0165 104.907C97.4464 111.036 97.0976 112.615 91.8661 114.635L95.7956 122.947L89.4712 125.06L81.6355 108.448L87.925 106.347L89.8897 110.491C90.1571 110.491 90.3548 110.514 90.471 110.514L90.6803 110.328C90.5756 109.492 90.3548 108.366 89.9711 106.869L89.6921 105.766L95.7491 103.746V103.735Z" fill="black"/>
<path d="M108.328 105.58L107.944 105.406L100.597 107.867L98.8647 102.713C101.446 101.633 104.573 100.473 107.782 99.393C112.188 97.9187 113.757 98.7429 114.734 103.096C115.257 105.383 115.629 107.565 116.21 111.779L110.049 113.846C109.153 109.017 108.758 106.602 108.316 105.569L108.328 105.58ZM100.829 109.632L107.282 107.473L108.514 114.38L102.062 116.539L100.829 109.632Z" fill="black"/>
<path d="M124.627 108.982L123.941 107.565L119.698 111.327L118.605 105.209L121 103.386L117.663 96.3979L124.011 94.2736L130.08 107.159L124.627 108.982Z" fill="black"/>
<path d="M133.904 96.9088L129.615 98.3483L128.824 95.5506L127.464 87.9934L133.788 85.8806L134.66 90.7214L139.415 89.131L140.252 90.9188L141.101 103.479L134.672 105.627L133.904 96.9088Z" fill="black"/>
</g>
<defs>
<clipPath id="clip0_625_572">
<rect width="182" height="182" fill="white"/>
</clipPath>
</defs>
</svg>
