<svg width="204" height="248" viewBox="0 0 204 248" fill="none" xmlns="http://www.w3.org/2000/svg">
<g clip-path="url(#clip0_1294_688)">
<path d="M101.89 246.16C157.61 246.16 202.78 191.279 202.78 123.58C202.78 55.8809 157.61 1 101.89 1C46.17 1 1 55.8809 1 123.58C1 191.279 46.17 246.16 101.89 246.16Z" fill="white" stroke="#231F20" stroke-width="2" stroke-miterlimit="10"/>
<path d="M103.684 239.548C155.495 238.888 196.833 186.31 196.015 122.112C195.197 57.9145 152.533 6.40704 100.722 7.06719C48.9104 7.72735 7.57229 60.3052 8.39027 124.503C9.20825 188.701 51.8726 240.208 103.684 239.548Z" fill="#FAAF40" stroke="black" stroke-width="3" stroke-linecap="round" stroke-linejoin="round"/>
<path d="M126.08 133.79L147.95 117.19C140.42 115.59 134.35 117.96 134.35 117.96L117.11 131.72L133.95 118.02C131.16 115.42 124.64 117.66 124.64 117.66L114.6 123.58L81.25 139.94C81.25 139.94 69.42 132.77 60.45 131.71C51.48 130.65 54.71 139.94 54.71 139.94L68.02 151.67C74.02 159.39 73.34 173.97 73.34 173.97L70.2 231.59L72.57 232.57C98.7 245.37 114.83 240.47 134.43 231.59C134.43 231.59 129.87 168.66 128.5 160.91L145.41 143.53C145.41 143.53 156.98 134.94 153.44 127.85C149.89 120.76 131.65 136.67 131.65 136.67" fill="#EAB7E6"/>
<path d="M126.08 133.79L147.95 117.19C140.42 115.59 134.35 117.96 134.35 117.96L117.11 131.72L133.95 118.02C131.16 115.42 124.64 117.66 124.64 117.66L114.6 123.58L81.25 139.94C81.25 139.94 69.42 132.77 60.45 131.71C51.48 130.65 54.71 139.94 54.71 139.94L68.02 151.67C74.02 159.39 73.34 173.97 73.34 173.97L70.2 231.59L72.57 232.57C98.7 245.37 114.83 240.47 134.43 231.59C134.43 231.59 129.87 168.66 128.5 160.91L145.41 143.53C145.41 143.53 156.98 134.94 153.44 127.85C149.89 120.76 131.65 136.67 131.65 136.67" stroke="black" stroke-miterlimit="10"/>
<path d="M110.87 131.28C110.87 131.28 124.51 130.41 133.71 138.25L110.87 131.28Z" fill="#EAB7E6"/>
<path d="M110.87 131.28C110.87 131.28 124.51 130.41 133.71 138.25" stroke="black" stroke-miterlimit="10"/>
<path d="M94.76 142.11C94.76 142.11 104.91 139.38 109.01 151.28L94.76 142.11Z" fill="#EAB7E6"/>
<path d="M94.76 142.11C94.76 142.11 104.91 139.38 109.01 151.28" stroke="black" stroke-miterlimit="10"/>
<path d="M96.1 166.21C96.1 166.21 98.41 165.2 101.29 166.21H96.1Z" fill="#EAB7E6"/>
<path d="M96.1 166.21C96.1 166.21 98.41 165.2 101.29 166.21" stroke="black" stroke-miterlimit="10"/>
<path d="M147.94 117.19C147.94 117.19 157.26 118.55 153.42 127.86C153.42 127.86 151.56 120.22 131.63 136.68L126.07 133.79L147.94 117.19Z" fill="#EAB7E6" stroke="black" stroke-miterlimit="10"/>
<path d="M134.729 60.34L67.4672 67.2908C64.3194 67.6161 62.0313 70.4316 62.3566 73.5795L66.1465 110.254C66.4718 113.402 69.2874 115.69 72.4352 115.365L139.697 108.414C142.845 108.089 145.133 105.273 144.808 102.125L141.018 65.4506C140.692 62.3028 137.877 60.0147 134.729 60.34Z" fill="#7DC1EF" stroke="black" stroke-miterlimit="10"/>
<path d="M141.498 70.0971L62.8364 78.226L63.8839 88.362L142.545 80.2331L141.498 70.0971Z" fill="black"/>
<path d="M68.6799 74.44L89.0199 72.27" stroke="black" stroke-miterlimit="10"/>
<path d="M68.26 71.23L98.61 68" stroke="black" stroke-miterlimit="10"/>
<path d="M100.61 105.82C100.61 105.82 105.9 113.54 111.27 104.79" stroke="black" stroke-linecap="round" stroke-linejoin="round"/>
<path d="M131.09 103.26C130.5 97.73 127.01 93.56 123.28 93.93C119.55 94.3 117 99.09 117.59 104.62C117.81 106.73 118.46 108.64 119.39 110.18C123.07 109.77 126.75 109.67 130.43 109.24C131.06 107.51 131.32 105.45 131.09 103.26Z" stroke="black" stroke-linecap="round" stroke-linejoin="round"/>
<path d="M131.25 104.98C130.75 100.12 127.32 96.5 123.59 96.88C119.86 97.27 117.24 101.51 117.75 106.37C117.91 107.96 118.4 109.41 119.09 110.64C122.98 110.18 126.86 110.08 130.75 109.6C131.22 108.21 131.42 106.63 131.25 104.98Z" fill="black"/>
<path d="M95.2999 106.51C94.7099 100.98 91.2199 96.81 87.4899 97.18C83.7599 97.56 81.2099 102.34 81.7999 107.87C82.0199 109.98 82.6699 111.89 83.5999 113.43C87.2799 113.02 90.9599 112.92 94.6399 112.49C95.2699 110.76 95.5299 108.7 95.2999 106.51Z" stroke="black" stroke-linecap="round" stroke-linejoin="round"/>
<path d="M95.4499 108.22C94.9499 103.36 91.5199 99.74 87.7899 100.12C84.0599 100.51 81.4399 104.75 81.9499 109.61C82.1099 111.2 82.5999 112.65 83.2899 113.88C87.1799 113.42 91.0599 113.32 94.9499 112.84C95.4199 111.45 95.6199 109.87 95.4499 108.22Z" fill="black"/>
<path d="M18.67 88.83L20.87 81.92L28.92 87.42L26.71 94.37L18.67 88.83Z" fill="black"/>
<path d="M22.89 75.25L25.86 69.24L27.61 71.05C27.05 69.26 27.41 67.02 28.65 64.51C29.59 62.61 31.16 60.69 32.53 59.85L35.87 63.21C34 65.08 33.14 66.22 32.37 67.78C30.68 71.2 30.8 73.63 32.74 74.64C34.35 75.48 36.8 73.53 38.55 69.99C39.13 68.81 39.81 66.78 40.24 64.91L44.18 68.99C43.83 70.19 43.29 71.72 42.82 72.67C41.2 75.94 38.83 78.32 36.5 79.11L38.66 81.17L35.65 87.26L22.89 75.27V75.25Z" fill="black"/>
<path d="M46.52 53.57C46.22 53.17 46.01 52.9 45.72 52.67C44.21 51.47 42.26 52.19 40.33 54.62C39.38 55.81 38.45 57.4 37.73 58.95L34.99 55.14C35.86 53.34 37.42 50.84 38.58 49.38C42.17 44.87 45.98 43.83 49.29 46.46C50.07 47.08 50.87 47.93 51.67 49.06L55.56 54.65L51.15 60.19L46.52 53.58V53.57Z" fill="black"/>
<path d="M53.28 45.64C49.95 41.24 51.73 35.29 57.75 30.74C62.15 27.41 66.74 27.01 68.84 29.79C70.74 32.3 69.58 35.83 65.99 38.54C64.47 39.69 63 40.43 61.66 40.7L60.86 37.68C61.37 37.44 61.85 37.16 62.28 36.88C63.79 35.78 64.23 34.89 63.72 34.07C63.3 33.37 61.88 33.6 60.49 34.65C57.72 36.75 56.85 39.68 58.37 41.69C59.85 43.64 62.8 43.12 66.42 40.38C67.74 39.38 69.36 37.87 70.69 36.46L72.15 40.42C71.47 41.49 69.79 43.13 67.96 44.52C61.74 49.23 56.32 49.66 53.28 45.64Z" fill="black"/>
<path d="M72.9701 21.66L79.3301 19.55L79.2701 22.07C80.1501 20.41 81.9901 19.1 84.6501 18.21C86.6601 17.54 89.1301 17.31 90.6901 17.69L90.6501 22.43C88.0101 22.41 86.5901 22.6 84.9401 23.15C81.3201 24.35 79.6801 26.15 80.3201 28.24C80.8501 29.98 83.9701 30.35 87.7101 29.1C88.9601 28.69 90.8801 27.74 92.5101 26.73L92.3801 32.4C91.2801 33 89.8101 33.68 88.8001 34.02C85.3401 35.17 81.9801 35.15 79.7801 34.05L79.8301 37.04L73.3901 39.18L72.9501 21.68L72.9701 21.66Z" fill="black"/>
<path d="M109.84 16.88L117.03 17.82L113.05 26.72L105.81 25.78L109.84 16.89V16.88Z" fill="black"/>
<path d="M117.2 26.84C119.48 21.49 125.55 19.69 131.99 22.44C137.28 24.74 139.58 28.98 137.82 33.1C135.54 38.45 129.41 40.27 122.86 37.47C117.79 35.31 115.46 30.93 117.2 26.84ZM131.39 30.76C132.09 29.12 131.47 27.45 129.93 26.72C127.37 25.47 124.21 26.5 123.18 28.92C122.44 30.66 123.24 32.45 125.15 33.27C127.57 34.3 130.35 33.19 131.38 30.77L131.39 30.76Z" fill="black"/>
<path d="M146.68 31.63L152.46 36.02L144.58 41.76L138.77 37.35L146.68 31.63Z" fill="black"/>
<path d="M148.43 44.02C150.84 41.93 154.22 41.24 158.76 41.79C161.88 42.11 165.18 43.24 166.4 43.69L171.32 49.36C168.14 48.69 163.57 47.33 158.54 47.42C155.92 47.45 154.35 47.85 153.34 48.73C152.02 49.87 152.1 51.83 153.47 53.4C155 55.16 156.93 55.51 158.38 54.25C159.33 53.42 159.48 51.89 158.84 50.03L163.22 50.05C165.19 53.62 164.87 57.38 162.41 59.52C158.86 62.6 153.44 61.35 149.16 56.42C145.43 52.13 145.11 46.9 148.42 44.03L148.43 44.02Z" fill="black"/>
<path d="M168.21 69.69C168.69 69.57 169.03 69.48 169.35 69.3C171.03 68.36 171.11 66.28 169.6 63.58C168.86 62.25 167.75 60.78 166.58 59.53L171.15 58.45C172.49 59.94 174.2 62.34 175.11 63.97C177.91 69.01 177.42 72.93 173.73 74.98C172.86 75.47 171.77 75.88 170.42 76.19L163.77 77.65L160.33 71.46L168.21 69.7V69.69Z" fill="black"/>
<path d="M166.05 79.61H170.48C170.6 81.54 170.99 84.05 171.42 85.3C172.48 88.39 174.55 89.61 177.32 88.78C179.39 88.2 179.96 86.08 178.86 82.91C178.53 81.95 177.77 80.32 177.02 79.06L181.56 78.93C182.37 80.26 183.26 82.16 183.72 83.48C185.75 89.37 184.39 93.84 180.15 95.3C174.33 97.3 169.63 94.8 167.44 88.46C166.5 85.73 165.98 82.41 166.04 79.61H166.05Z" fill="black"/>
</g>
<defs>
<clipPath id="clip0_1294_688">
<rect width="203.78" height="247.16" fill="white"/>
</clipPath>
</defs>
</svg>
