<svg width="183" height="183" viewBox="0 0 183 183" fill="none" xmlns="http://www.w3.org/2000/svg">
<path d="M112.939 178.442L92.3843 155.202C89.2687 151.684 84.0138 151.057 80.1541 153.739L54.6706 171.465C47.3465 176.562 37.4995 170.281 39.0457 161.505L44.4168 130.963C45.2306 126.343 42.4404 121.838 37.9413 120.492L8.17955 111.646C-0.376947 109.104 -1.60927 97.5068 6.23807 93.2348L33.5003 78.3874C37.6274 76.1353 39.4178 71.1552 37.6506 66.802L26.0133 38.059C22.6651 29.7937 30.9891 21.598 39.2201 25.0574L67.8425 37.0839C72.1789 38.9065 77.1896 37.1884 79.5031 33.1021L94.756 6.10049C99.1389 -1.66568 110.741 -0.272646 113.171 8.30613L121.6 38.1519C122.878 42.6677 127.343 45.5234 131.981 44.7688L162.638 39.8352C171.451 38.4189 177.601 48.3443 172.392 55.5881L154.279 80.7672C151.536 84.5864 152.094 89.8451 155.57 93.0027L178.542 113.863C185.146 119.865 181.216 130.847 172.288 131.299L141.282 132.867C136.585 133.099 132.807 136.814 132.505 141.503L130.493 172.44C129.912 181.344 118.856 185.117 112.95 178.431L112.939 178.442Z" fill="white" stroke="#D2D2D2" stroke-linecap="round" stroke-linejoin="round"/>
</svg>
