<svg width="393" height="852" viewBox="0 0 393 852" fill="none" xmlns="http://www.w3.org/2000/svg">
<path d="M0 47.8003C38.8783 -6.11713 43.0863 16.4606 81.9646 -37.4568C120.843 -91.3743 116.635 -113.977 155.513 -167.895C194.391 -221.812 198.599 -199.235 237.478 -253.152C276.356 -307.069 272.148 -329.673 311.026 -383.59C349.904 -437.507 354.112 -414.93 393 -468.847" stroke="#92D44C" stroke-width="0.01" stroke-miterlimit="10"/>
<path d="M0 69.335C38.8783 15.4176 43.0863 37.9954 81.9646 -15.9221C120.843 -69.8395 116.635 -92.4427 155.513 -146.36C194.391 -200.278 198.599 -177.7 237.478 -231.617C276.356 -285.535 272.148 -308.138 311.026 -362.055C349.904 -415.973 354.112 -393.395 393 -447.312" stroke="#92D44C" stroke-width="0.01" stroke-miterlimit="10"/>
<path d="M0 90.8977C38.8783 36.9803 43.0863 59.558 81.9646 5.64059C120.843 -48.2768 116.635 -70.88 155.513 -124.797C194.391 -178.715 198.599 -156.137 237.478 -210.055C276.356 -263.972 272.148 -286.575 311.026 -340.493C349.904 -394.41 354.112 -371.832 393 -425.75" stroke="#92D44C" stroke-width="0.02" stroke-miterlimit="10"/>
<path d="M0 112.435C38.8783 58.5179 43.0863 81.0956 81.9646 27.1782C120.843 -26.7392 116.635 -49.3424 155.513 -103.26C194.391 -157.177 198.599 -134.6 237.478 -188.517C276.356 -242.434 272.148 -265.038 311.026 -318.955C349.904 -372.872 354.112 -350.295 393 -404.212" stroke="#92D44C" stroke-width="0.02" stroke-miterlimit="10"/>
<path d="M0 133.996C38.8783 80.0783 43.0863 102.656 81.9646 48.7386C120.843 -5.17881 116.635 -27.782 155.513 -81.6994C194.391 -135.617 198.599 -113.039 237.478 -166.957C276.356 -220.874 272.148 -243.477 311.026 -297.395C349.904 -351.312 354.112 -328.734 393 -382.652" stroke="#92D44C" stroke-width="0.02" stroke-miterlimit="10"/>
<path d="M0 155.533C38.8783 101.616 43.0863 124.194 81.9646 70.2762C120.843 16.3587 116.635 -6.24439 155.513 -60.1618C194.391 -114.079 198.599 -91.5015 237.478 -145.419C276.356 -199.336 272.148 -221.94 311.026 -275.857C349.904 -329.774 354.112 -307.197 393 -361.114" stroke="#92D44C" stroke-width="0.02" stroke-miterlimit="10"/>
<path d="M0 177.095C38.8783 123.178 43.0863 145.756 81.9646 91.8383C120.843 37.9209 116.635 15.3177 155.513 -38.5997C194.391 -92.5172 198.599 -69.9394 237.478 -123.857C276.356 -177.774 272.148 -200.377 311.026 -254.295C349.904 -308.212 354.112 -285.635 393 -339.552" stroke="#92D44C" stroke-width="0.02" stroke-miterlimit="10"/>
<path d="M0 198.631C38.8783 144.713 43.0863 167.291 81.9646 113.374C120.843 59.4562 116.635 36.8531 155.513 -17.0644C194.391 -70.9818 198.599 -48.4041 237.478 -102.321C276.356 -156.239 272.148 -178.842 311.026 -232.76C349.904 -286.677 354.112 -264.099 393 -318.017" stroke="#92D44C" stroke-width="0.02" stroke-miterlimit="10"/>
<path d="M0 220.193C38.8783 166.276 43.0863 188.854 81.9646 134.936C120.843 81.0189 116.635 58.4157 155.513 4.49822C194.391 -49.4192 198.599 -26.8414 237.478 -80.7589C276.356 -134.676 272.148 -157.279 311.026 -211.197C349.904 -265.114 354.112 -242.537 393 -296.454" stroke="#92D44C" stroke-width="0.03" stroke-miterlimit="10"/>
<path d="M0 241.728C38.8783 187.811 43.0863 210.388 81.9646 156.471C120.843 102.554 116.635 79.9505 155.513 26.033C194.391 -27.8844 198.599 -5.30665 237.478 -59.2241C276.356 -113.142 272.148 -135.745 311.026 -189.662C349.904 -243.58 354.112 -221.002 393 -274.919" stroke="#92D44C" stroke-width="0.03" stroke-miterlimit="10"/>
<path d="M0 263.291C38.8783 209.373 43.0863 231.951 81.9646 178.034C120.843 124.116 116.635 101.513 155.513 47.5957C194.391 -6.32175 198.599 16.256 237.478 -37.6614C276.356 -91.5788 272.148 -114.182 311.026 -168.099C349.904 -222.017 354.112 -199.439 393 -253.357" stroke="#92D44C" stroke-width="0.03" stroke-miterlimit="10"/>
<path d="M0 284.828C38.8783 230.911 43.0863 253.489 81.9646 199.571C120.843 145.654 116.635 123.051 155.513 69.1333C194.391 15.2159 198.599 37.7936 237.478 -16.1238C276.356 -70.0412 272.148 -92.6444 311.026 -146.562C349.904 -200.479 354.112 -177.901 393 -231.819" stroke="#92D44C" stroke-width="0.03" stroke-miterlimit="10"/>
<path d="M0 306.391C38.8783 252.474 43.0863 275.051 81.9646 221.134C120.843 167.217 116.635 144.613 155.513 90.696C194.391 36.7785 198.599 59.3563 237.478 5.43889C276.356 -48.4785 272.148 -71.0817 311.026 -124.999C349.904 -178.917 354.112 -156.339 393 -210.256" stroke="#92D44C" stroke-width="0.03" stroke-miterlimit="10"/>
<path d="M0 327.926C38.8783 274.009 43.0863 296.587 81.9646 242.669C120.843 188.752 116.635 166.149 155.513 112.231C194.391 58.3139 198.599 80.8916 237.478 26.9742C276.356 -26.9432 272.148 -49.5464 311.026 -103.464C349.904 -157.381 354.112 -134.803 393 -188.721" stroke="#92D44C" stroke-width="0.04" stroke-miterlimit="10"/>
<path d="M0 349.464C38.8783 295.547 43.0863 318.124 81.9646 264.207C120.843 210.29 116.635 187.686 155.513 133.769C194.391 79.8515 198.599 102.429 237.478 48.5119C276.356 -5.40553 272.148 -28.0087 311.026 -81.9262C349.904 -135.844 354.112 -113.266 393 -167.183" stroke="#92D44C" stroke-width="0.04" stroke-miterlimit="10"/>
<path d="M0 371.024C38.8783 317.106 43.0863 339.684 81.9646 285.767C120.843 231.849 116.635 209.246 155.513 155.329C194.391 101.411 198.599 123.989 237.478 70.0716C276.356 16.1542 272.148 -6.44897 311.026 -60.3664C349.904 -114.284 354.112 -91.706 393 -145.623" stroke="#92D44C" stroke-width="0.04" stroke-miterlimit="10"/>
<path d="M0 392.562C38.8783 338.644 43.0863 361.222 81.9646 307.304C120.843 253.387 116.635 230.784 155.513 176.866C194.391 122.949 198.599 145.527 237.478 91.6093C276.356 37.6919 272.148 15.0887 311.026 -38.8287C349.904 -92.7462 354.112 -70.1684 393 -124.086" stroke="#92D44C" stroke-width="0.04" stroke-miterlimit="10"/>
<path d="M0 414.124C38.8783 360.207 43.0863 382.785 81.9646 328.867C120.843 274.95 116.635 252.347 155.513 198.429C194.391 144.512 198.599 167.089 237.478 113.172C276.356 59.2545 272.148 36.6514 311.026 -17.2661C349.904 -71.1835 354.112 -48.6058 393 -102.523" stroke="#92D44C" stroke-width="0.04" stroke-miterlimit="10"/>
<path d="M0 435.66C38.8783 381.742 43.0863 404.32 81.9646 350.402C120.843 296.485 116.635 273.882 155.513 219.964C194.391 166.047 198.599 188.625 237.478 134.707C276.356 80.7899 272.148 58.1867 311.026 4.26929C349.904 -49.6481 354.112 -27.0704 393 -80.9878" stroke="#92D44C" stroke-width="0.05" stroke-miterlimit="10"/>
<path d="M0 457.222C38.8783 403.304 43.0863 425.882 81.9646 371.965C120.843 318.047 116.635 295.444 155.513 241.527C194.391 187.609 198.599 210.187 237.478 156.269C276.356 102.352 272.148 79.7488 311.026 25.8314C349.904 -28.086 354.112 -5.50828 393 -59.4257" stroke="#92D44C" stroke-width="0.05" stroke-miterlimit="10"/>
<path d="M0 478.757C38.8783 424.84 43.0863 447.417 81.9646 393.5C120.843 339.582 116.635 316.979 155.513 263.062C194.391 209.144 198.599 231.722 237.478 177.805C276.356 123.887 272.148 101.284 311.026 47.3667C349.904 -6.55073 354.112 16.0271 393 -37.8904" stroke="#92D44C" stroke-width="0.05" stroke-miterlimit="10"/>
<path d="M0 500.32C38.8783 446.402 43.0863 468.98 81.9646 415.063C120.843 361.145 116.635 338.542 155.513 284.625C194.391 230.707 198.599 253.285 237.478 199.367C276.356 145.45 272.148 122.847 311.026 68.9293C349.904 15.0119 354.112 37.5897 393 -16.3278" stroke="#92D44C" stroke-width="0.05" stroke-miterlimit="10"/>
<path d="M0 521.857C38.8783 467.94 43.0863 490.518 81.9646 436.6C120.843 382.683 116.635 360.08 155.513 306.162C194.391 252.245 198.599 274.822 237.478 220.905C276.356 166.988 272.148 144.384 311.026 90.467C349.904 36.5495 354.112 59.1273 393 5.2099" stroke="#92D44C" stroke-width="0.05" stroke-miterlimit="10"/>
<path d="M0 543.417C38.8783 489.5 43.0863 512.077 81.9646 458.16C120.843 404.243 116.635 381.639 155.513 327.722C194.391 273.805 198.599 296.382 237.478 242.465C276.356 188.547 272.148 165.944 311.026 112.027C349.904 58.1094 354.112 80.6872 393 26.7697" stroke="#92D44C" stroke-width="0.06" stroke-miterlimit="10"/>
<path d="M0 564.955C38.8783 511.038 43.0863 533.616 81.9646 479.698C120.843 425.781 116.635 403.178 155.513 349.26C194.391 295.343 198.599 317.92 237.478 264.003C276.356 210.086 272.148 187.482 311.026 133.565C349.904 79.6476 354.112 102.225 393 48.3079" stroke="#92D44C" stroke-width="0.06" stroke-miterlimit="10"/>
<path d="M0 586.517C38.8783 532.6 43.0863 555.178 81.9646 501.26C120.843 447.343 116.635 424.74 155.513 370.822C194.391 316.905 198.599 339.483 237.478 285.565C276.356 231.648 272.148 209.044 311.026 155.127C349.904 101.21 354.112 123.787 393 69.87" stroke="#92D44C" stroke-width="0.06" stroke-miterlimit="10"/>
<path d="M0 608.053C38.8783 554.135 43.0863 576.713 81.9646 522.796C120.843 468.878 116.635 446.275 155.513 392.358C194.391 338.44 198.599 361.018 237.478 307.1C276.356 253.183 272.148 230.58 311.026 176.662C349.904 122.745 354.112 145.323 393 91.4053" stroke="#92D44C" stroke-width="0.06" stroke-miterlimit="10"/>
<path d="M0 629.647C38.8783 575.73 43.0863 598.308 81.9646 544.39C120.843 490.473 116.635 467.87 155.513 413.952C194.391 360.035 198.599 382.613 237.478 328.695C276.356 274.778 272.148 252.174 311.026 198.257C349.904 144.34 354.112 166.917 393 113" stroke="#92D44C" stroke-width="0.06" stroke-miterlimit="10"/>
<path d="M0 651.153C38.8783 597.236 43.0863 619.813 81.9646 565.896C120.843 511.978 116.635 489.375 155.513 435.458C194.391 381.54 198.599 404.118 237.478 350.201C276.356 296.283 272.148 273.68 311.026 219.763C349.904 165.845 354.112 188.423 393 134.506" stroke="#92D44C" stroke-width="0.06" stroke-miterlimit="10"/>
<path d="M0 672.688C38.8783 618.771 43.0863 641.349 81.9646 587.431C120.843 533.514 116.635 510.911 155.513 456.993C194.391 403.076 198.599 425.653 237.478 371.736C276.356 317.819 272.148 295.216 311.026 241.298C349.904 187.381 354.112 209.958 393 156.041" stroke="#92D44C" stroke-width="0.07" stroke-miterlimit="10"/>
<path d="M0 694.25C38.8783 640.333 43.0863 662.911 81.9646 608.993C120.843 555.076 116.635 532.473 155.513 478.555C194.391 424.638 198.599 447.216 237.478 393.298C276.356 339.381 272.148 316.778 311.026 262.86C349.904 208.943 354.112 231.52 393 177.603" stroke="#92D44C" stroke-width="0.07" stroke-miterlimit="10"/>
<path d="M0 715.786C38.8783 661.868 43.0863 684.446 81.9646 630.529C120.843 576.611 116.635 554.008 155.513 500.091C194.391 446.173 198.599 468.751 237.478 414.834C276.356 360.916 272.148 338.313 311.026 284.396C349.904 230.478 354.112 253.056 393 199.138" stroke="#92D44C" stroke-width="0.07" stroke-miterlimit="10"/>
<path d="M0 737.348C38.8783 683.43 43.0863 706.008 81.9646 652.091C120.843 598.173 116.635 575.57 155.513 521.653C194.391 467.735 198.599 490.313 237.478 436.396C276.356 382.478 272.148 359.875 311.026 305.958C349.904 252.04 354.112 274.618 393 220.701" stroke="#92D44C" stroke-width="0.07" stroke-miterlimit="10"/>
<path d="M0 758.886C38.8783 704.968 43.0863 727.546 81.9646 673.629C120.843 619.711 116.635 597.108 155.513 543.191C194.391 489.273 198.599 511.851 237.478 457.934C276.356 404.016 272.148 381.413 311.026 327.496C349.904 273.578 354.112 296.156 393 242.239" stroke="#92D44C" stroke-width="0.07" stroke-miterlimit="10"/>
<path d="M0 780.446C38.8783 726.528 43.0863 749.106 81.9646 695.189C120.843 641.271 116.635 618.668 155.513 564.751C194.391 510.833 198.599 533.411 237.478 479.494C276.356 425.576 272.148 402.973 311.026 349.056C349.904 295.138 354.112 317.716 393 263.798" stroke="#92D44C" stroke-width="0.08" stroke-miterlimit="10"/>
<path d="M0 801.983C38.8783 748.066 43.0863 770.644 81.9646 716.726C120.843 662.809 116.635 640.206 155.513 586.288C194.391 532.371 198.599 554.949 237.478 501.031C276.356 447.114 272.148 424.511 311.026 370.593C349.904 316.676 354.112 339.254 393 285.336" stroke="#92D44C" stroke-width="0.08" stroke-miterlimit="10"/>
<path d="M0 823.546C38.8783 769.629 43.0863 792.206 81.9646 738.289C120.843 684.372 116.635 661.768 155.513 607.851C194.391 553.934 198.599 576.511 237.478 522.594C276.356 468.676 272.148 446.073 311.026 392.156C349.904 338.238 354.112 360.816 393 306.899" stroke="#92D44C" stroke-width="0.08" stroke-miterlimit="10"/>
<path d="M0 845.081C38.8783 791.164 43.0863 813.742 81.9646 759.824C120.843 705.907 116.635 683.304 155.513 629.386C194.391 575.469 198.599 598.047 237.478 544.129C276.356 490.212 272.148 467.609 311.026 413.691C349.904 359.774 354.112 382.352 393 328.434" stroke="#92D44C" stroke-width="0.08" stroke-miterlimit="10"/>
<path d="M0 866.644C38.8783 812.726 43.0863 835.304 81.9646 781.387C120.843 727.469 116.635 704.866 155.513 650.948C194.391 597.031 198.599 619.609 237.478 565.691C276.356 511.774 272.148 489.171 311.026 435.253C349.904 381.336 354.112 403.914 393 349.996" stroke="#92D44C" stroke-width="0.08" stroke-miterlimit="10"/>
<path d="M0 888.179C38.8783 834.261 43.0863 856.839 81.9646 802.922C120.843 749.004 116.635 726.401 155.513 672.484C194.391 618.566 198.599 641.144 237.478 587.227C276.356 533.309 272.148 510.706 311.026 456.789C349.904 402.871 354.112 425.449 393 371.532" stroke="#92D44C" stroke-width="0.09" stroke-miterlimit="10"/>
<path d="M0 909.742C38.8783 855.824 43.0863 878.402 81.9646 824.484C120.843 770.567 116.635 747.964 155.513 694.046C194.391 640.129 198.599 662.707 237.478 608.789C276.356 554.872 272.148 532.269 311.026 478.351C349.904 424.434 354.112 447.012 393 393.094" stroke="#92D44C" stroke-width="0.09" stroke-miterlimit="10"/>
<path d="M0 931.279C38.8783 877.362 43.0863 899.94 81.9646 846.022C120.843 792.105 116.635 769.501 155.513 715.584C194.391 661.667 198.599 684.244 237.478 630.327C276.356 576.409 272.148 553.806 311.026 499.889C349.904 445.971 354.112 468.549 393 414.632" stroke="#92D44C" stroke-width="0.09" stroke-miterlimit="10"/>
<path d="M0 952.839C38.8783 898.922 43.0863 921.499 81.9646 867.582C120.843 813.665 116.635 791.061 155.513 737.144C194.391 683.226 198.599 705.804 237.478 651.887C276.356 597.969 272.148 575.366 311.026 521.449C349.904 467.531 354.112 490.109 393 436.192" stroke="#92D44C" stroke-width="0.09" stroke-miterlimit="10"/>
<path d="M0 974.377C38.8783 920.46 43.0863 943.037 81.9646 889.12C120.843 835.203 116.635 812.6 155.513 758.682C194.391 704.765 198.599 727.342 237.478 673.425C276.356 619.508 272.148 596.904 311.026 542.987C349.904 489.069 354.112 511.647 393 457.73" stroke="#92D44C" stroke-width="0.09" stroke-miterlimit="10"/>
<path d="M0 995.914C38.8783 941.997 43.0863 964.575 81.9646 910.657C120.843 856.74 116.635 834.137 155.513 780.219C194.391 726.302 198.599 748.88 237.478 694.962C276.356 641.045 272.148 618.442 311.026 564.524C349.904 510.607 354.112 533.184 393 479.267" stroke="#92D44C" stroke-width="0.1" stroke-miterlimit="10"/>
<path d="M0 1017.47C38.8783 963.557 43.0863 986.135 81.9646 932.217C120.843 878.3 116.635 855.697 155.513 801.779C194.391 747.862 198.599 770.44 237.478 716.522C276.356 662.605 272.148 640.002 311.026 586.084C349.904 532.167 354.112 554.745 393 500.827" stroke="#92D44C" stroke-width="0.1" stroke-miterlimit="10"/>
<path d="M0 1039.01C38.8783 985.095 43.0863 1007.67 81.9646 953.755C120.843 899.838 116.635 877.235 155.513 823.317C194.391 769.4 198.599 791.977 237.478 738.06C276.356 684.143 272.148 661.539 311.026 607.622C349.904 553.705 354.112 576.282 393 522.365" stroke="#92D44C" stroke-width="0.1" stroke-miterlimit="10"/>
<path d="M0 1060.58C38.8783 1006.66 43.0863 1029.24 81.9646 975.318C120.843 921.4 116.635 898.797 155.513 844.88C194.391 790.962 198.599 813.54 237.478 759.623C276.356 705.705 272.148 683.102 311.026 629.185C349.904 575.267 354.112 597.845 393 543.928" stroke="#92D44C" stroke-width="0.1" stroke-miterlimit="10"/>
<path d="M0 1082.11C38.8783 1028.19 43.0863 1050.77 81.9646 996.853C120.843 942.936 116.635 920.333 155.513 866.415C194.391 812.498 198.599 835.075 237.478 781.158C276.356 727.241 272.148 704.637 311.026 650.72C349.904 596.803 354.112 619.38 393 565.463" stroke="#92D44C" stroke-width="0.1" stroke-miterlimit="10"/>
<path d="M0 1103.67C38.8783 1049.75 43.0863 1072.33 81.9646 1018.42C120.843 964.498 116.635 941.895 155.513 887.977C194.391 834.06 198.599 856.638 237.478 802.72C276.356 748.803 272.148 726.2 311.026 672.282C349.904 618.365 354.112 640.942 393 587.025" stroke="#92D44C" stroke-width="0.1" stroke-miterlimit="10"/>
<path d="M0 1125.21C38.8783 1071.29 43.0863 1093.87 81.9646 1039.95C120.843 986.033 116.635 963.43 155.513 909.512C194.391 855.595 198.599 878.172 237.478 824.255C276.356 770.338 272.148 747.734 311.026 693.817C349.904 639.899 354.112 662.477 393 608.56" stroke="#92D44C" stroke-width="0.11" stroke-miterlimit="10"/>
<path d="M0 1146.77C38.8783 1092.85 43.0863 1115.43 81.9646 1061.51C120.843 1007.6 116.635 984.992 155.513 931.075C194.391 877.157 198.599 899.735 237.478 845.818C276.356 791.9 272.148 769.297 311.026 715.38C349.904 661.462 354.112 684.04 393 630.122" stroke="#92D44C" stroke-width="0.11" stroke-miterlimit="10"/>
<path d="M0 1168.31C38.8783 1114.39 43.0863 1136.97 81.9646 1083.05C120.843 1029.13 116.635 1006.53 155.513 952.612C194.391 898.695 198.599 921.273 237.478 867.355C276.356 813.438 272.148 790.835 311.026 736.917C349.904 683 354.112 705.577 393 651.66" stroke="#92D44C" stroke-width="0.11" stroke-miterlimit="10"/>
<path d="M0 1189.87C38.8783 1135.95 43.0863 1158.53 81.9646 1104.61C120.843 1050.69 116.635 1028.09 155.513 974.173C194.391 920.255 198.599 942.833 237.478 888.916C276.356 834.998 272.148 812.395 311.026 758.478C349.904 704.56 354.112 727.138 393 673.22" stroke="#92D44C" stroke-width="0.11" stroke-miterlimit="10"/>
<path d="M0 1211.41C38.8783 1157.49 43.0863 1180.07 81.9646 1126.15C120.843 1072.23 116.635 1049.63 155.513 995.71C194.391 941.793 198.599 964.371 237.478 910.453C276.356 856.536 272.148 833.933 311.026 780.015C349.904 726.098 354.112 748.675 393 694.758" stroke="#92D44C" stroke-width="0.11" stroke-miterlimit="10"/>
<path d="M0 1232.97C38.8783 1179.05 43.0863 1201.63 81.9646 1147.71C120.843 1093.79 116.635 1071.19 155.513 1017.27C194.391 963.355 198.599 985.933 237.478 932.016C276.356 878.098 272.148 855.495 311.026 801.578C349.904 747.66 354.112 770.238 393 716.321" stroke="#92D44C" stroke-width="0.12" stroke-miterlimit="10"/>
<path d="M0 1254.5C38.8783 1200.59 43.0863 1223.16 81.9646 1169.25C120.843 1115.33 116.635 1092.73 155.513 1038.81C194.391 984.891 198.599 1007.47 237.478 953.551C276.356 899.634 272.148 877.031 311.026 823.113C349.904 769.196 354.112 791.774 393 737.856" stroke="#92D44C" stroke-width="0.12" stroke-miterlimit="10"/>
<path d="M0 1276.07C38.8783 1222.15 43.0863 1244.73 81.9646 1190.81C120.843 1136.89 116.635 1114.29 155.513 1060.37C194.391 1006.45 198.599 1029.03 237.478 975.113C276.356 921.196 272.148 898.593 311.026 844.675C349.904 790.758 354.112 813.336 393 759.418" stroke="#92D44C" stroke-width="0.12" stroke-miterlimit="10"/>
<path d="M0 1297.6C38.8783 1243.68 43.0863 1266.26 81.9646 1212.34C120.843 1158.43 116.635 1135.82 155.513 1081.91C194.391 1027.99 198.599 1050.57 237.478 996.649C276.356 942.731 272.148 920.128 311.026 866.211C349.904 812.293 354.112 834.871 393 780.953" stroke="#92D44C" stroke-width="0.12" stroke-miterlimit="10"/>
<path d="M0 1319.14C38.8783 1265.22 43.0863 1287.8 81.9646 1233.88C120.843 1179.96 116.635 1157.36 155.513 1103.44C194.391 1049.53 198.599 1072.1 237.478 1018.19C276.356 964.269 272.148 941.666 311.026 887.748C349.904 833.831 354.112 856.409 393 802.491" stroke="#92D44C" stroke-width="0.12" stroke-miterlimit="10"/>
<path d="M389.239 70.0986C350.36 16.1811 354.568 -6.42203 315.69 -60.3395C276.812 -114.257 272.604 -91.6791 233.726 -145.597C194.847 -199.514 199.055 -222.117 160.177 -276.035C121.299 -329.952 117.091 -307.374 78.2032 -361.292C39.3156 -415.209 43.533 -437.787 4.65479 -491.704" stroke="#92D44C" stroke-width="0.01" stroke-miterlimit="10"/>
<path d="M389.239 91.6586C350.36 37.7412 354.568 15.1381 315.69 -38.7793C276.812 -92.6967 272.604 -70.119 233.726 -124.036C194.847 -177.954 199.055 -200.557 160.177 -254.474C121.299 -308.392 117.091 -285.814 78.2032 -339.731C39.3156 -393.649 43.533 -416.227 4.65479 -470.169" stroke="#92D44C" stroke-width="0.01" stroke-miterlimit="10"/>
<path d="M389.239 113.197C350.36 59.2795 354.568 36.6763 315.69 -17.2411C276.812 -71.1585 272.604 -48.5807 233.726 -102.498C194.847 -156.416 199.055 -179.019 160.177 -232.936C121.299 -286.854 117.091 -264.276 78.2032 -318.193C39.325 -372.111 43.533 -394.714 4.65479 -448.631" stroke="#92D44C" stroke-width="0.02" stroke-miterlimit="10"/>
<path d="M389.239 134.759C350.36 80.8415 354.568 58.2384 315.69 4.32095C276.812 -49.5965 272.604 -27.0187 233.726 -80.9361C194.847 -134.854 199.055 -157.457 160.177 -211.374C121.299 -265.292 117.091 -242.714 78.2032 -296.631C39.3156 -350.549 43.533 -373.152 4.65479 -427.069" stroke="#92D44C" stroke-width="0.02" stroke-miterlimit="10"/>
<path d="M389.239 156.294C350.36 102.377 354.568 79.7734 315.69 25.856C276.812 -28.0614 272.604 -5.48367 233.726 -59.4011C194.847 -113.319 199.055 -135.922 160.177 -189.839C121.299 -243.757 117.091 -221.179 78.2032 -275.096C39.3156 -329.014 43.533 -351.591 4.65479 -405.509" stroke="#92D44C" stroke-width="0.02" stroke-miterlimit="10"/>
<path d="M389.239 177.857C350.36 123.94 354.568 101.336 315.69 47.419C276.812 -6.49844 272.604 16.0793 233.726 -37.8381C194.847 -91.7555 199.055 -114.359 160.177 -168.276C121.299 -222.194 117.091 -199.616 78.2032 -253.533C39.3156 -307.451 43.533 -330.054 4.65479 -383.971" stroke="#92D44C" stroke-width="0.02" stroke-miterlimit="10"/>
<path d="M389.239 199.394C350.36 145.476 354.568 122.873 315.69 68.9557C276.812 15.0383 272.604 37.6161 233.726 -16.3014C194.847 -70.2188 199.055 -92.8219 160.177 -146.739C121.299 -200.657 117.091 -178.079 78.2032 -231.996C39.3156 -285.914 43.533 -308.492 4.65479 -362.409" stroke="#92D44C" stroke-width="0.02" stroke-miterlimit="10"/>
<path d="M389.239 220.954C350.36 167.037 354.568 144.434 315.69 90.5164C276.812 36.599 272.604 59.1767 233.726 5.25929C194.847 -48.6581 199.055 -71.2613 160.177 -125.179C121.299 -179.096 117.091 -156.518 78.2032 -210.436C39.3156 -264.353 43.533 -286.956 4.65479 -340.874" stroke="#92D44C" stroke-width="0.02" stroke-miterlimit="10"/>
<path d="M389.239 242.492C350.36 188.574 354.568 165.971 315.69 112.054C276.812 58.1363 272.604 80.7141 233.726 26.7966C194.847 -27.1208 199.055 -49.724 160.177 -103.641C121.299 -157.559 117.091 -134.981 78.2032 -188.899C39.3156 -242.816 43.533 -265.394 4.65479 -319.311" stroke="#92D44C" stroke-width="0.03" stroke-miterlimit="10"/>
<path d="M389.239 264.052C350.36 210.134 354.568 187.531 315.69 133.614C276.812 79.6965 272.604 102.274 233.726 48.3568C194.847 -5.56062 199.055 -28.1638 160.177 -82.0812C121.299 -135.999 117.091 -113.421 78.2032 -167.338C39.325 -221.256 43.533 -243.859 4.65479 -297.776" stroke="#92D44C" stroke-width="0.03" stroke-miterlimit="10"/>
<path d="M389.239 285.59C350.36 231.673 354.568 209.069 315.69 155.152C276.812 101.235 272.604 123.812 233.726 69.895C194.847 15.9776 199.055 -6.62562 160.177 -60.543C121.299 -114.46 117.091 -91.8827 78.2032 -145.8C39.3156 -199.718 43.533 -222.321 4.65479 -276.238" stroke="#92D44C" stroke-width="0.03" stroke-miterlimit="10"/>
<path d="M389.239 307.152C350.36 253.235 354.568 230.632 315.69 176.714C276.812 122.797 272.604 145.374 233.726 91.457C194.847 37.5396 199.055 14.9364 160.177 -38.981C121.299 -92.8984 117.091 -70.3206 78.2032 -124.238C39.3156 -178.155 43.533 -200.759 4.65479 -254.676" stroke="#92D44C" stroke-width="0.03" stroke-miterlimit="10"/>
<path d="M389.239 328.688C350.36 274.77 354.568 252.167 315.69 198.249C276.812 144.332 272.604 166.91 233.726 112.992C194.847 59.075 199.055 36.4718 160.177 -17.4456C121.299 -71.363 117.091 -48.7852 78.2032 -102.703C39.325 -156.62 43.533 -179.223 4.65479 -233.141" stroke="#92D44C" stroke-width="0.03" stroke-miterlimit="10"/>
<path d="M389.239 350.225C350.36 296.308 354.568 273.705 315.69 219.787C276.812 165.87 272.604 188.447 233.726 134.53C194.847 80.6126 199.055 58.0095 160.177 4.09207C121.299 -49.8254 117.091 -27.2476 78.2032 -81.165C39.325 -135.082 43.533 -157.686 4.65479 -211.603" stroke="#92D44C" stroke-width="0.04" stroke-miterlimit="10"/>
<path d="M389.239 371.788C350.36 317.87 354.568 295.267 315.69 241.35C276.812 187.432 272.604 210.01 233.726 156.093C194.847 102.175 199.055 79.5721 160.177 25.6547C121.299 -28.2627 117.091 -5.68496 78.2032 -59.6024C39.3156 -113.52 43.533 -136.123 4.65479 -190.04" stroke="#92D44C" stroke-width="0.04" stroke-miterlimit="10"/>
<path d="M389.239 393.323C350.36 339.406 354.568 316.803 315.69 262.885C276.812 208.968 272.604 231.545 233.726 177.628C194.847 123.711 199.055 101.107 160.177 47.1901C121.299 -6.72737 117.091 15.8504 78.2032 -38.0671C39.325 -91.9845 43.533 -114.588 4.65479 -168.505" stroke="#92D44C" stroke-width="0.04" stroke-miterlimit="10"/>
<path d="M389.239 414.885C350.36 360.968 354.568 338.365 315.69 284.447C276.812 230.53 272.604 253.108 233.726 199.19C194.847 145.273 199.055 122.67 160.177 68.7521C121.299 14.8347 117.091 37.4124 78.2032 -16.505C39.3156 -70.4224 43.533 -93.0256 4.65479 -146.943" stroke="#92D44C" stroke-width="0.04" stroke-miterlimit="10"/>
<path d="M389.239 436.421C350.36 382.503 354.568 359.9 315.69 305.983C276.812 252.065 272.604 274.643 233.726 220.725C194.847 166.808 199.055 144.205 160.177 90.2875C121.299 36.3701 117.091 58.9478 78.2032 5.03038C39.325 -48.887 43.533 -71.4902 4.65479 -125.408" stroke="#92D44C" stroke-width="0.04" stroke-miterlimit="10"/>
<path d="M389.239 457.983C350.36 404.066 354.568 381.463 315.69 327.545C276.812 273.628 272.604 296.206 233.726 242.288C194.847 188.371 199.055 165.768 160.177 111.85C121.299 57.9327 117.091 80.5105 78.2032 26.593C39.3156 -27.3244 43.533 -49.9275 4.65479 -103.845" stroke="#92D44C" stroke-width="0.05" stroke-miterlimit="10"/>
<path d="M389.239 479.521C350.36 425.603 354.568 403 315.69 349.083C276.812 295.165 272.604 317.743 233.726 263.826C194.847 209.908 199.055 187.305 160.177 133.388C121.299 79.4703 117.091 102.048 78.2032 48.1306C39.325 -5.78679 43.533 -28.39 4.65479 -82.3074" stroke="#92D44C" stroke-width="0.05" stroke-miterlimit="10"/>
<path d="M389.239 501.081C350.36 447.163 354.568 424.56 315.69 370.643C276.812 316.725 272.604 339.303 233.726 285.386C194.847 231.468 199.055 208.865 160.177 154.948C121.299 101.03 117.091 123.608 78.2032 69.6904C39.325 15.773 43.533 -6.83013 4.65479 -60.7476" stroke="#92D44C" stroke-width="0.05" stroke-miterlimit="10"/>
<path d="M389.239 522.618C350.36 468.701 354.568 446.098 315.69 392.18C276.812 338.263 272.604 360.841 233.726 306.923C194.847 253.006 199.055 230.403 160.177 176.485C121.299 122.568 117.091 145.146 78.2032 91.2281C39.3156 37.3107 43.533 14.7075 4.65479 -39.2099" stroke="#92D44C" stroke-width="0.05" stroke-miterlimit="10"/>
<path d="M389.239 544.181C350.36 490.264 354.568 467.66 315.69 413.743C276.812 359.825 272.604 382.403 233.726 328.486C194.847 274.568 199.055 251.965 160.177 198.048C121.299 144.13 117.091 166.708 78.2032 112.791C39.325 58.8733 43.533 36.2701 4.65479 -17.6473" stroke="#92D44C" stroke-width="0.05" stroke-miterlimit="10"/>
<path d="M389.239 565.716C350.36 511.799 354.568 489.196 315.69 435.278C276.812 381.361 272.604 403.939 233.726 350.021C194.847 296.104 199.055 273.501 160.177 219.583C121.299 165.666 117.091 188.244 78.2032 134.326C39.325 80.4087 43.533 57.8055 4.65479 3.88812" stroke="#92D44C" stroke-width="0.06" stroke-miterlimit="10"/>
<path d="M389.239 587.278C350.36 533.361 354.568 510.758 315.69 456.84C276.812 402.923 272.604 425.501 233.726 371.583C194.847 317.666 199.055 295.063 160.177 241.145C121.299 187.228 117.091 209.806 78.2032 155.888C39.3156 101.971 43.533 79.3676 4.65479 25.4502" stroke="#92D44C" stroke-width="0.06" stroke-miterlimit="10"/>
<path d="M389.239 608.814C350.36 554.896 354.568 532.293 315.69 478.376C276.812 424.458 272.604 447.036 233.726 393.119C194.847 339.201 199.055 316.598 160.177 262.681C121.299 208.763 117.091 231.341 78.2032 177.424C39.3156 123.506 43.533 100.903 4.65479 46.9855" stroke="#92D44C" stroke-width="0.06" stroke-miterlimit="10"/>
<path d="M389.239 630.376C350.36 576.459 354.568 553.856 315.69 499.938C276.812 446.021 272.604 468.599 233.726 414.681C194.847 360.764 199.055 338.161 160.177 284.243C121.299 230.326 117.091 252.904 78.2032 198.986C39.325 145.069 43.533 122.466 4.65479 68.5482" stroke="#92D44C" stroke-width="0.06" stroke-miterlimit="10"/>
<path d="M389.239 651.914C350.36 597.997 354.568 575.393 315.69 521.476C276.812 467.559 272.604 490.136 233.726 436.219C194.847 382.302 199.055 359.698 160.177 305.781C121.299 251.864 117.091 274.441 78.2032 220.524C39.325 166.606 43.533 144.003 4.65479 90.0858" stroke="#92D44C" stroke-width="0.06" stroke-miterlimit="10"/>
<path d="M389.239 673.449C350.36 619.531 354.568 596.928 315.69 543.011C276.812 489.093 272.604 511.671 233.726 457.754C194.847 403.836 199.055 381.233 160.177 327.316C121.299 273.398 117.091 295.976 78.2032 242.059C39.325 188.141 43.533 165.538 4.65479 111.621" stroke="#92D44C" stroke-width="0.06" stroke-miterlimit="10"/>
<path d="M389.239 695.012C350.36 641.095 354.568 618.492 315.69 564.574C276.812 510.657 272.604 533.234 233.726 479.317C194.847 425.4 199.055 402.796 160.177 348.879C121.299 294.962 117.091 317.539 78.2032 263.622C39.325 209.704 43.533 187.101 4.65479 133.184" stroke="#92D44C" stroke-width="0.07" stroke-miterlimit="10"/>
<path d="M389.239 716.55C350.36 662.632 354.568 640.029 315.69 586.112C276.812 532.194 272.604 554.772 233.726 500.855C194.847 446.937 199.055 424.334 160.177 370.417C121.299 316.499 117.091 339.077 78.2032 285.159C39.325 231.242 43.533 208.639 4.65479 154.721" stroke="#92D44C" stroke-width="0.07" stroke-miterlimit="10"/>
<path d="M389.239 738.11C350.36 684.192 354.568 661.589 315.69 607.672C276.812 553.754 272.604 576.332 233.726 522.414C194.847 468.497 199.055 445.894 160.177 391.976C121.299 338.059 117.091 360.637 78.2032 306.719C39.3156 252.802 43.533 230.199 4.65479 176.281" stroke="#92D44C" stroke-width="0.07" stroke-miterlimit="10"/>
<path d="M389.239 759.647C350.36 705.73 354.568 683.127 315.69 629.209C276.812 575.292 272.604 597.869 233.726 543.952C194.847 490.035 199.055 467.431 160.177 413.514C121.299 359.597 117.091 382.174 78.2032 328.257C39.3156 274.339 43.533 251.736 4.65479 197.819" stroke="#92D44C" stroke-width="0.07" stroke-miterlimit="10"/>
<path d="M389.239 781.21C350.36 727.292 354.568 704.689 315.69 650.772C276.812 596.854 272.604 619.432 233.726 565.515C194.847 511.597 199.055 488.994 160.177 435.077C121.299 381.159 117.091 403.737 78.2032 349.82C39.325 295.902 43.533 273.299 4.65479 219.382" stroke="#92D44C" stroke-width="0.07" stroke-miterlimit="10"/>
<path d="M389.239 802.745C350.36 748.828 354.568 726.224 315.69 672.307C276.812 618.39 272.604 640.967 233.726 587.05C194.847 533.133 199.055 510.529 160.177 456.612C121.299 402.695 117.091 425.272 78.2032 371.355C39.3156 317.437 43.533 294.834 4.65479 240.917" stroke="#92D44C" stroke-width="0.08" stroke-miterlimit="10"/>
<path d="M389.239 824.307C350.36 770.39 354.568 747.787 315.69 693.869C276.812 639.952 272.604 662.53 233.726 608.612C194.847 554.695 199.055 532.091 160.177 478.174C121.299 424.257 117.091 446.834 78.2032 392.917C39.3156 339 43.533 316.396 4.65479 262.479" stroke="#92D44C" stroke-width="0.08" stroke-miterlimit="10"/>
<path d="M389.239 845.843C350.36 791.925 354.568 769.322 315.69 715.405C276.812 661.487 272.604 684.065 233.726 630.147C194.847 576.23 199.055 553.627 160.177 499.709C121.299 445.792 117.091 468.37 78.2032 414.452C39.3156 360.535 43.533 337.932 4.65479 284.014" stroke="#92D44C" stroke-width="0.08" stroke-miterlimit="10"/>
<path d="M389.239 867.405C350.36 813.488 354.568 790.885 315.69 736.967C276.812 683.05 272.604 705.628 233.726 651.71C194.847 597.793 199.055 575.189 160.177 521.272C121.299 467.355 117.091 489.932 78.2032 436.015C39.3156 382.098 43.533 359.494 4.65479 305.577" stroke="#92D44C" stroke-width="0.08" stroke-miterlimit="10"/>
<path d="M389.239 888.943C350.36 835.025 354.568 812.422 315.69 758.505C276.812 704.587 272.604 727.165 233.726 673.248C194.847 619.33 199.055 596.727 160.177 542.81C121.299 488.892 117.091 511.47 78.2032 457.553C39.3156 403.635 43.533 381.032 4.65479 327.115" stroke="#92D44C" stroke-width="0.08" stroke-miterlimit="10"/>
<path d="M389.239 910.503C350.36 856.585 354.568 833.982 315.69 780.065C276.812 726.147 272.604 748.725 233.726 694.807C194.847 640.89 199.055 618.287 160.177 564.369C121.299 510.452 117.091 533.03 78.2032 479.112C39.325 425.195 43.533 402.592 4.65479 348.674" stroke="#92D44C" stroke-width="0.09" stroke-miterlimit="10"/>
<path d="M389.239 932.04C350.36 878.123 354.568 855.52 315.69 801.602C276.812 747.685 272.604 770.263 233.726 716.345C194.847 662.428 199.055 639.825 160.177 585.907C121.299 531.99 117.091 554.567 78.2032 500.65C39.3156 446.733 43.533 424.129 4.65479 370.212" stroke="#92D44C" stroke-width="0.09" stroke-miterlimit="10"/>
<path d="M389.239 953.576C350.36 899.658 354.568 877.055 315.69 823.138C276.812 769.22 272.604 791.798 233.726 737.881C194.847 683.963 199.055 661.36 160.177 607.443C121.299 553.525 117.091 576.103 78.2032 522.185C39.325 468.268 43.533 445.665 4.65479 391.747" stroke="#92D44C" stroke-width="0.09" stroke-miterlimit="10"/>
<path d="M389.239 975.138C350.36 921.221 354.568 898.618 315.69 844.7C276.812 790.783 272.604 813.361 233.726 759.443C194.847 705.526 199.055 682.923 160.177 629.005C121.299 575.088 117.091 597.665 78.2032 543.748C39.3156 489.831 43.533 467.227 4.65479 413.31" stroke="#92D44C" stroke-width="0.09" stroke-miterlimit="10"/>
<path d="M389.239 996.676C350.36 942.759 354.568 920.155 315.69 866.238C276.812 812.32 272.604 834.898 233.726 780.981C194.847 727.063 199.055 704.46 160.177 650.543C121.299 596.625 117.091 619.203 78.2032 565.286C39.3156 511.368 43.533 488.765 4.65479 434.848" stroke="#92D44C" stroke-width="0.09" stroke-miterlimit="10"/>
<path d="M389.239 1018.24C350.36 964.321 354.568 941.717 315.69 887.8C276.812 833.883 272.604 856.46 233.726 802.543C194.847 748.626 199.055 726.022 160.177 672.105C121.299 618.187 117.091 640.765 78.2032 586.848C39.3156 532.93 43.533 510.327 4.65479 456.41" stroke="#92D44C" stroke-width="0.1" stroke-miterlimit="10"/>
<path d="M389.239 1039.77C350.36 985.856 354.568 963.253 315.69 909.335C276.812 855.418 272.604 877.996 233.726 824.078C194.847 770.161 199.055 747.558 160.177 693.64C121.299 639.723 117.091 662.301 78.2032 608.383C39.325 554.466 43.533 531.862 4.65479 477.945" stroke="#92D44C" stroke-width="0.1" stroke-miterlimit="10"/>
<path d="M389.239 1061.34C350.36 1007.42 354.568 984.815 315.69 930.898C276.812 876.981 272.604 899.558 233.726 845.641C194.847 791.723 199.055 769.12 160.177 715.203C121.299 661.285 117.091 683.863 78.2032 629.946C39.3156 576.028 43.533 553.425 4.65479 499.508" stroke="#92D44C" stroke-width="0.1" stroke-miterlimit="10"/>
<path d="M389.239 1082.87C350.36 1028.95 354.568 1006.35 315.69 952.433C276.812 898.515 272.604 921.093 233.726 867.176C194.847 813.258 199.055 790.655 160.177 736.738C121.299 682.82 117.091 705.398 78.2032 651.481C39.3156 597.563 43.533 574.96 4.65479 521.043" stroke="#92D44C" stroke-width="0.1" stroke-miterlimit="10"/>
<path d="M389.239 1104.43C350.36 1050.52 354.568 1027.91 315.69 973.995C276.812 920.078 272.604 942.656 233.726 888.738C194.847 834.821 199.055 812.218 160.177 758.3C121.299 704.383 117.091 726.961 78.2032 673.043C39.3156 619.126 43.533 596.523 4.65479 542.605" stroke="#92D44C" stroke-width="0.1" stroke-miterlimit="10"/>
<path d="M389.239 1125.97C350.36 1072.05 354.568 1049.45 315.69 995.534C276.812 941.616 272.604 964.194 233.726 910.277C194.847 856.359 199.055 833.756 160.177 779.839C121.299 725.921 117.091 748.499 78.2032 694.581C39.3156 640.664 43.533 618.061 4.65479 564.143" stroke="#92D44C" stroke-width="0.1" stroke-miterlimit="10"/>
<path d="M389.239 1147.53C350.36 1093.61 354.568 1071.01 315.69 1017.09C276.812 963.176 272.604 985.754 233.726 931.836C194.847 877.919 199.055 855.316 160.177 801.398C121.299 747.481 117.091 770.059 78.2032 716.141C39.325 662.224 43.533 639.621 4.65479 585.703" stroke="#92D44C" stroke-width="0.11" stroke-miterlimit="10"/>
<path d="M389.239 1169.07C350.36 1115.15 354.568 1092.55 315.69 1038.63C276.812 984.714 272.604 1007.29 233.726 953.374C194.847 899.457 199.055 876.853 160.177 822.936C121.299 769.019 117.091 791.596 78.2032 737.679C39.325 683.761 43.533 661.158 4.65479 607.241" stroke="#92D44C" stroke-width="0.11" stroke-miterlimit="10"/>
<path d="M389.239 1190.63C350.36 1136.71 354.568 1114.11 315.69 1060.19C276.812 1006.28 272.604 1028.85 233.726 974.937C194.847 921.019 199.055 898.416 160.177 844.499C121.299 790.581 117.091 813.159 78.2032 759.241C39.3156 705.324 43.533 682.721 4.65479 628.803" stroke="#92D44C" stroke-width="0.11" stroke-miterlimit="10"/>
<path d="M389.239 1212.17C350.36 1158.25 354.568 1135.65 315.69 1081.73C276.812 1027.81 272.604 1050.39 233.726 996.472C194.847 942.555 199.055 919.951 160.177 866.034C121.299 812.117 117.091 834.694 78.2032 780.777C39.325 726.859 43.533 704.256 4.65479 650.339" stroke="#92D44C" stroke-width="0.11" stroke-miterlimit="10"/>
<path d="M389.239 1233.73C350.36 1179.81 354.568 1157.21 315.69 1103.29C276.812 1049.37 272.604 1071.95 233.726 1018.03C194.847 964.117 199.055 941.513 160.177 887.596C121.299 833.679 117.091 856.256 78.2032 802.339C39.3156 748.422 43.533 725.818 4.65479 671.901" stroke="#92D44C" stroke-width="0.11" stroke-miterlimit="10"/>
<path d="M389.239 1255.26C350.36 1201.35 354.568 1178.74 315.69 1124.83C276.812 1070.91 272.604 1093.49 233.726 1039.57C194.847 985.652 199.055 963.049 160.177 909.131C121.299 855.214 117.091 877.792 78.2032 823.874C39.325 769.957 43.533 747.354 4.65479 693.436" stroke="#92D44C" stroke-width="0.12" stroke-miterlimit="10"/>
<path d="M389.239 1276.8C350.36 1222.88 354.568 1200.28 315.69 1146.36C276.812 1092.45 272.604 1115.02 233.726 1061.11C194.847 1007.19 199.055 984.586 160.177 930.669C121.299 876.752 117.091 899.329 78.2032 845.412C39.325 791.495 43.533 768.891 4.65479 714.974" stroke="#92D44C" stroke-width="0.12" stroke-miterlimit="10"/>
<path d="M389.239 1298.36C350.36 1244.45 354.568 1221.84 315.69 1167.93C276.812 1114.01 272.604 1136.59 233.726 1082.67C194.847 1028.75 199.055 1006.15 160.177 952.231C121.299 898.314 117.091 920.891 78.2032 866.974C39.3156 813.057 43.533 790.453 4.65479 736.536" stroke="#92D44C" stroke-width="0.12" stroke-miterlimit="10"/>
<path d="M389.239 1319.9C350.36 1265.98 354.568 1243.38 315.69 1189.46C276.812 1135.54 272.604 1158.12 233.726 1104.2C194.847 1050.29 199.055 1027.68 160.177 973.766C121.299 919.849 117.091 942.427 78.2032 888.509C39.325 834.592 43.533 811.989 4.65479 758.071" stroke="#92D44C" stroke-width="0.12" stroke-miterlimit="10"/>
<path d="M389.239 1341.46C350.36 1287.54 354.568 1264.94 315.69 1211.02C276.812 1157.11 272.604 1179.68 233.726 1125.77C194.847 1071.85 199.055 1049.25 160.177 995.329C121.299 941.412 117.091 963.989 78.2032 910.072C39.325 856.155 43.533 833.551 4.65479 779.634" stroke="#92D44C" stroke-width="0.12" stroke-miterlimit="10"/>
<path d="M389.239 1363C350.36 1309.08 354.568 1286.48 315.69 1232.56C276.812 1178.64 272.604 1201.22 233.726 1147.3C194.847 1093.39 199.055 1070.78 160.177 1016.87C121.299 962.949 117.091 985.527 78.2032 931.61C39.3156 877.692 43.533 855.089 4.65479 801.172" stroke="#92D44C" stroke-width="0.13" stroke-miterlimit="10"/>
</svg>