<svg width="255" height="262" viewBox="0 0 255 262" fill="none" xmlns="http://www.w3.org/2000/svg">
<path d="M250.124 139.836L248.488 141.108C242.053 146.088 240.539 155.195 245.016 161.989L246.255 163.881C250.279 170.001 247.415 178.278 240.483 180.602L238.946 181.122C231.174 183.733 226.751 191.922 228.83 199.856L229.361 201.881C231.24 209.029 225.779 216 218.393 215.879L217.31 215.857C209.017 215.724 202.074 222.131 201.532 230.419L201.422 232.068C200.935 239.515 193.417 244.395 186.419 241.805L185.777 241.562C177.905 238.652 169.149 242.502 165.965 250.27L165.544 251.289C162.692 258.249 153.924 260.462 148.12 255.671L147.655 255.283C141.143 249.905 131.536 250.702 125.996 257.076L125.543 257.607C120.601 263.295 111.568 262.553 107.621 256.135L107.168 255.394C102.756 248.212 93.4359 245.844 86.1388 250.06L85.6192 250.359C79.1292 254.099 70.8702 250.503 69.1786 243.2L68.8691 241.861C66.9895 233.716 59.0291 228.516 50.8254 230.054L49.9851 230.209C42.688 231.581 36.1206 225.561 36.8172 218.169L36.9941 216.277C37.779 208.066 32.0298 200.663 23.8814 199.391L22.5547 199.181C15.2908 198.052 11.0894 190.328 14.0746 183.611L14.9812 181.586C18.298 174.128 15.3018 165.364 8.10423 161.513L6.45686 160.628C0.0221535 157.176 -1.42621 148.567 3.52697 143.2L5.03061 141.573C10.5476 135.598 10.5476 126.391 5.03061 120.416L3.52697 118.789C-1.42621 113.422 0.0110976 104.813 6.45686 101.361L8.10423 100.476C15.2908 96.6248 18.298 87.8608 14.9812 80.4026L14.0746 78.3776C11.0894 71.6608 15.2908 63.937 22.5547 62.8083L23.8814 62.5981C32.0298 61.3255 37.779 53.9337 36.9941 45.712L36.8172 43.8198C36.1096 36.428 42.688 30.4083 49.9851 31.7804L50.8254 31.9353C59.0291 33.4734 66.9895 28.2615 68.8691 20.1283L69.1786 18.7894C70.8702 11.4861 79.1292 7.87873 85.6192 11.63L86.1388 11.9287C93.4359 16.1337 102.756 13.7767 107.168 6.59512L107.621 5.85372C111.568 -0.564319 120.601 -1.30571 125.543 4.382L125.996 4.91315C131.536 11.2869 141.143 12.0837 147.655 6.70577L148.12 6.31848C153.924 1.52708 162.692 3.7402 165.544 10.7005L165.965 11.7185C169.149 19.4865 177.905 23.3374 185.777 20.4271L186.419 20.1837C193.417 17.5943 200.935 22.4742 201.422 29.9214L201.532 31.5702C202.074 39.8583 209.017 46.2542 217.31 46.1325L218.393 46.1103C225.779 45.9997 231.229 52.9599 229.361 60.1083L228.83 62.1333C226.751 70.0673 231.174 78.2559 238.946 80.8674L240.483 81.3874C247.427 83.7112 250.279 91.9883 246.255 98.1076L245.016 99.9998C240.55 106.805 242.064 115.901 248.488 120.881L250.124 122.153C255.896 126.624 255.896 135.343 250.124 139.814V139.836Z" fill="white" stroke="black" stroke-miterlimit="10"/>
<path d="M243.855 138.01L241.335 139.969C234.712 145.114 233.153 154.487 237.752 161.502L239.61 164.335C242.628 168.949 240.483 175.168 235.254 176.928L232.667 177.802C224.651 180.502 220.096 188.945 222.23 197.133L223.048 200.276C224.452 205.665 220.339 210.91 214.778 210.822L212.577 210.788C204.009 210.656 196.845 217.262 196.281 225.827L196.093 228.637C195.728 234.259 190.056 237.932 184.782 235.974L183.08 235.343C174.942 232.322 165.887 236.306 162.604 244.339L161.741 246.453C159.596 251.709 152.974 253.369 148.595 249.761L147.235 248.644C140.502 243.078 130.574 243.908 124.847 250.503L123.63 251.908C119.904 256.202 113.083 255.648 110.109 250.802L109.036 249.064C104.481 241.639 94.8401 239.194 87.2998 243.543L85.7851 244.417C80.8872 247.25 74.6515 244.527 73.3911 239.017L72.8162 236.527C70.8813 228.117 62.6555 222.728 54.1754 224.322L52.2295 224.687C46.7346 225.716 41.7704 221.19 42.3011 215.613L42.5885 212.559C43.3956 204.083 37.4695 196.447 29.0558 195.131L26.6345 194.754C21.1616 193.902 17.9996 188.082 20.244 183.025L21.6039 179.949C25.0203 172.258 21.9245 163.229 14.5169 159.245L11.8965 157.84C7.05394 155.239 5.97043 148.766 9.69637 144.716L11.9518 142.27C17.6237 136.107 17.6237 126.613 11.9518 120.449L9.69637 118.003C5.97043 113.965 7.05394 107.48 11.8965 104.88L14.5169 103.474C21.9245 99.4907 25.0203 90.4612 21.6039 82.7706L20.244 79.6944C17.9996 74.6264 21.1727 68.8169 26.6345 67.9649L29.0558 67.5886C37.4585 66.2829 43.3956 58.6366 42.5885 50.1603L42.3011 47.1062C41.7704 41.5292 46.7236 37.0033 52.2295 38.0324L54.1754 38.3976C62.6555 39.9911 70.8703 34.6021 72.8162 26.1923L73.3911 23.7025C74.6625 18.1918 80.8982 15.4697 85.7851 18.3025L87.2998 19.1767C94.8401 23.5365 104.481 21.091 109.036 13.655L110.109 11.9177C113.083 7.07093 119.904 6.50658 123.63 10.8111L124.847 12.2164C130.563 18.8115 140.502 19.6414 147.235 14.0754L148.595 12.9578C152.962 9.33937 159.585 11.0103 161.741 16.2664L162.604 18.38C165.887 26.4136 174.942 30.3972 183.08 27.3763L184.782 26.7455C190.056 24.7869 195.728 28.4607 196.093 34.082L196.281 36.8927C196.845 45.4464 204.009 52.0636 212.577 51.9308L214.778 51.8976C220.339 51.8091 224.452 57.0542 223.048 62.4431L222.23 65.5858C220.085 73.7743 224.651 82.2173 232.667 84.9174L235.254 85.7915C240.472 87.551 242.628 93.7698 239.61 98.3842L237.752 101.217C233.153 108.233 234.712 117.605 241.335 122.751L243.855 124.709C248.189 128.084 248.189 134.635 243.855 138.01Z" fill="#C195F4" stroke="black" stroke-width="2" stroke-miterlimit="10"/>
</svg>
