<svg width="187" height="185" viewBox="0 0 187 185" fill="none" xmlns="http://www.w3.org/2000/svg">
<path d="M173.332 22.0889C172 23.0638 169.036 23.9638 168.473 24.17C167.498 24.5262 165.078 24.8168 163.999 24.8356H163.718L163.455 24.8449C163.437 24.8449 161.983 24.9199 159.253 24.9199C156.233 24.9199 151.243 24.8262 144.611 24.3856C143.326 24.3012 142.032 24.2544 140.756 24.2544C140.484 24.2544 140.222 24.2637 139.95 24.2731L138.346 24.3106C135.1 24.4512 132.211 24.8637 129.726 25.398C129.116 25.5293 128.478 25.4168 127.972 25.0606C126.171 23.795 123.995 23.0826 121.669 23.0826C119.924 23.0826 118.48 23.4763 117.57 23.8044C113.246 25.3043 109.391 29.9633 110.329 36.2067C110.713 38.7565 111.914 40.8001 113.508 42.3094C113.771 42.5531 113.977 42.8531 114.099 43.1906L125.167 73.5823C125.439 74.3228 125.299 75.1384 124.811 75.7477C123.413 77.5195 122.597 79.7787 122.597 82.3098C122.597 86.7157 125.27 89.3874 127.625 91.7404C129.341 93.4559 131.47 95.5839 133.468 98.6868C136.582 103.533 136.31 104.208 135.776 105.568C134.631 108.436 133.065 109.486 130.392 110.517C127.493 111.642 123.807 112.233 119.736 112.233C119.736 112.233 119.727 112.233 119.718 112.233C118.63 112.233 117.692 111.436 117.513 110.358C116.388 103.393 116.05 95.9964 115.675 87.9438C115.375 81.3067 115.056 74.4541 114.249 67.2452C113.302 58.8176 111.679 44.2686 101.54 36.0567C101.005 35.6255 100.677 34.988 100.677 34.3037L100.639 29.5509C100.639 29.4946 100.639 29.4384 100.639 29.3821L98.6226 4.8588C98.3412 1.46528 94.3549 -0.203357 91.7473 1.99024L84.6093 7.98984C84.4874 8.06483 84.3186 8.15857 84.131 8.25232C83.5588 8.52417 82.7803 8.81478 82.4145 8.8804C82.4145 8.8804 82.3394 8.8804 82.1706 8.88978C82.1143 8.88978 82.0487 8.88978 81.9642 8.88978C81.5515 8.88978 81.1201 8.87103 80.6886 8.85228C80.032 8.82415 79.3848 8.80541 78.747 8.80541C77.9591 8.80541 77.2556 8.83353 76.5803 8.89915L68.2136 9.69597C66.7878 9.82721 65.8405 11.2521 66.272 12.6208L68.7764 20.6546C69.4048 22.6607 70.1083 24.5918 70.7836 26.4667C71.9279 29.6165 73.0254 32.635 73.5413 35.4661C73.6913 36.2817 73.4006 37.116 72.7627 37.6409C72.4251 37.9222 72.078 38.2034 71.7122 38.494C69.8832 39.9658 67.8102 41.6344 65.9531 43.8186C55.3258 56.3428 55.7761 72.8323 56.17 87.3719C56.3295 93.034 56.4701 98.3868 55.9543 102.98C54.2096 118.57 46.265 133.916 34.6998 144.012C26.3612 151.296 18.6323 158.355 11.8789 160.82L7.09527 161.926C5.10677 162.311 3.92492 162.217 2.12401 162.554L1.31735 165.732C1.31735 165.732 1.12976 167.045 1.12976 167.082C0.163648 175.172 4.83475 177.375 7.11403 178.378C14.1301 181.472 22.7219 183.112 31.9797 183.112C41.2375 183.112 49.5948 181.575 56.7515 178.781C58.7213 178.013 60.6441 177.131 62.5107 176.147C69.7425 172.332 76.1488 166.923 81.4671 160.201C82.3957 159.03 84.131 159.067 85.0314 160.258C96.259 175.153 115.834 184.031 139.743 184.059C139.781 184.059 139.818 184.059 139.856 184.059C139.856 184.059 139.94 184.059 139.987 184.059C146.347 184.059 152.631 183.375 158.69 182.062C165.716 180.534 167.564 179.297 168.455 178.706C173.679 175.219 173.173 169.013 172.985 166.67L172.835 164.673C172.807 164.279 172.676 163.904 172.46 163.576L169.28 158.823C168.886 158.233 168.239 157.867 167.536 157.83L164.121 157.642C163.727 157.623 163.352 157.614 162.968 157.614C161.504 157.614 160.238 157.755 159.225 157.877C158.597 157.952 158.006 158.017 157.631 158.017C157.462 158.017 157.405 158.008 157.387 157.998C153.822 157.117 149.283 154.745 144.855 151.793C143.458 150.865 143.542 148.774 144.996 147.94C150.286 144.902 155.511 141.068 158.625 136.625L158.7 136.522C162.883 130.541 169.205 121.513 166.419 105.961C164.271 93.9996 156.824 86.0127 149.526 80.2568C149.198 80.0037 148.954 79.6662 148.814 79.2725L145.981 71.5855C145.709 70.8356 145.84 70.0013 146.337 69.3825C146.788 68.8388 147.257 68.2951 147.716 67.7983C147.754 67.7608 147.791 67.7233 147.829 67.6764C148.936 66.6265 150.455 65.2953 152.134 63.9454L154.835 61.883C157.011 60.3082 159.244 58.902 161.101 58.1427C170.19 54.4211 177.018 47.409 177.759 46.631C177.797 46.5935 177.825 46.556 177.863 46.5185C184.935 39.0752 187.674 28.4259 185.094 18.4235L184.625 16.5955C184.269 15.2175 182.646 14.6644 181.539 15.5362L173.323 22.0701L173.332 22.0889Z" fill="white" stroke="#D2D2D2" stroke-linecap="round" stroke-linejoin="round"/>
</svg>
