<svg width="294" height="302" viewBox="0 0 294 302" fill="none" xmlns="http://www.w3.org/2000/svg">
<path d="M288.022 161.166L286.14 162.629C278.739 168.355 276.997 178.826 282.147 186.639L283.571 188.814C288.2 195.85 284.906 205.368 276.934 208.04L275.166 208.638C266.227 211.64 261.141 221.056 263.531 230.179L264.142 232.507C266.303 240.726 260.022 248.742 251.528 248.602L250.282 248.577C240.745 248.424 232.759 255.791 232.136 265.321L232.009 267.217C231.45 275.78 222.803 281.391 214.754 278.414L214.016 278.134C204.963 274.787 194.892 279.215 191.23 288.147L190.747 289.318C187.466 297.321 177.382 299.865 170.707 294.356L170.173 293.911C162.683 287.727 151.633 288.643 145.262 295.972L144.741 296.583C139.057 303.123 128.668 302.27 124.129 294.891L123.608 294.038C118.534 285.78 107.815 283.058 99.4223 287.905L98.8246 288.249C91.3605 292.549 81.8619 288.414 79.9164 280.017L79.5603 278.477C77.3986 269.113 68.2433 263.133 58.8083 264.901L57.8419 265.079C49.4495 266.657 41.8964 259.735 42.6974 251.236L42.9009 249.06C43.8037 239.619 37.1915 231.107 27.8201 229.644L26.2942 229.402C17.9399 228.105 13.108 219.224 16.5412 211.5L17.5839 209.172C21.3986 200.596 17.9527 190.519 9.67472 186.092L7.78008 185.074C0.379531 181.104 -1.28623 171.205 4.41041 165.034L6.13975 163.164C12.4849 156.293 12.4849 145.707 6.13975 138.836L4.41041 136.966C-1.28623 130.795 0.366815 120.896 7.78008 116.926L9.67472 115.908C17.9399 111.481 21.3986 101.404 17.5839 92.828L16.5412 90.4996C13.108 82.7764 17.9399 73.8953 26.2942 72.5975L27.8201 72.3558C37.1915 70.8926 43.8037 62.3933 42.9009 52.9397L42.6974 50.7639C41.8836 42.2646 49.4495 35.343 57.8419 36.9207L58.8083 37.0989C68.2433 38.8674 77.3986 32.8746 79.5603 23.5228L79.9164 21.9833C81.8619 13.5858 91.3605 9.43789 98.8246 13.7512L99.4223 14.0947C107.815 18.9296 118.534 16.2195 123.608 7.96196L124.129 7.10948C128.668 -0.270175 139.057 -1.12265 144.741 5.41725L145.262 6.02798C151.633 13.3567 162.683 14.2728 170.173 8.08919L170.707 7.64387C177.382 2.13457 187.466 4.67928 190.747 12.6824L191.23 13.853C194.892 22.7849 204.963 27.2127 214.016 23.8664L214.754 23.5865C222.803 20.6092 231.45 26.2202 232.009 34.7832L232.136 36.679C232.759 46.2089 240.745 53.5631 250.282 53.4232L251.528 53.3977C260.022 53.2705 266.291 61.2736 264.142 69.493L263.531 71.8214C261.141 80.9442 266.227 90.3596 275.166 93.3624L276.934 93.9604C284.919 96.6323 288.2 106.15 283.571 113.186L282.147 115.361C277.01 123.186 278.752 133.645 286.14 139.371L288.022 140.834C294.659 145.974 294.659 156 288.022 161.141V161.166Z" fill="white" stroke="#D2D2D2" stroke-width="2" stroke-miterlimit="10"/>
</svg>
