<svg width="190" height="191" viewBox="0 0 190 191" fill="none" xmlns="http://www.w3.org/2000/svg">
<path d="M167.862 121.189L173.111 140.081C175.865 149.978 168.571 159.82 158.319 160.052L138.742 160.502C136.969 160.543 135.36 161.594 134.624 163.219L126.512 181.073C122.272 190.424 110.37 193.263 102.354 186.847L87.0572 174.589C85.6666 173.47 83.7716 173.252 82.1628 174.03L64.4939 182.493C55.2369 186.916 44.3029 181.442 42.2851 171.368L38.4405 152.134C38.086 150.387 36.7772 148.995 35.0458 148.544L16.0817 143.644C6.15658 141.078 1.28945 129.843 6.21111 120.834L15.6182 103.634C16.4771 102.078 16.3544 100.154 15.3182 98.7067L3.93433 82.7494C-2.02347 74.3953 1.46668 62.656 11.0101 58.9158L29.2516 51.7903C30.9149 51.1487 32.0464 49.6062 32.1828 47.8316L33.7097 28.2843C34.5004 18.0464 44.7119 11.3032 54.4325 14.5929L72.9876 20.8721C74.6781 21.4454 76.5322 20.9949 77.7865 19.7255L91.5017 5.72014C98.6865 -1.61013 110.834 -0.204141 116.165 8.55942L126.349 25.3085C127.276 26.8237 128.98 27.6836 130.752 27.5198L150.248 25.6224C160.46 24.6259 168.871 33.526 167.317 43.6819L164.359 63.0655C164.086 64.8264 164.849 66.5873 166.322 67.5974L182.477 78.6952C190.93 84.5103 191.666 96.7274 183.964 103.512L169.253 116.466C167.917 117.64 167.372 119.483 167.849 121.203L167.862 121.189Z" fill="white" stroke="#D2D2D2" stroke-width="0.5" stroke-miterlimit="10"/>
</svg>
