<svg width="121" height="158" viewBox="0 0 121 158" fill="none" xmlns="http://www.w3.org/2000/svg">
<path d="M118.618 69.6897C112.312 31.8184 85.511 -4.48477 47.6181 1.68973C9.09231 7.96735 -4.74127 52.9553 3.11808 91.1897C10.7777 128.453 38.8657 163.401 76.1181 155.69C112.803 148.096 124.771 106.643 118.618 69.6897Z" fill="white" stroke="black" stroke-linecap="round" stroke-dasharray="3 3"/>
<path d="M27.3211 76.6228L26.6889 69.4721L31.0095 68.4493L31.6417 75.6L27.3211 76.6228ZM39.3006 79.0156L36.8478 79.177L32.2671 66.5979L36.1206 65.6857L36.6667 67.1595C37.2451 66.9979 38.6408 66.6429 40.5559 66.1896C43.1016 65.587 44.4548 66.3025 44.98 68.5212C45.9032 72.4214 43.5495 76.752 39.3006 79.0156ZM39.5931 74.729C40.8918 73.7557 41.56 71.9944 41.2062 70.4997C41.0459 69.8224 40.5481 69.5949 39.6606 69.805L37.7456 70.2583L39.3485 74.7376L39.5931 74.729ZM47.5164 71.8422L46.8843 64.6915L51.2049 63.6688L51.837 70.8195L47.5164 71.8422ZM59.515 74.1073L57.0309 74.4487L52.4157 61.8284L56.2925 60.9107L59.5506 69.8814L59.824 69.8907C60.9869 69.0728 61.6195 67.3693 61.2823 65.9447C61.0667 65.0338 60.6279 64.7431 59.8339 64.9311L59.2033 65.0803L58.2873 62.4609C58.9228 61.9158 59.7661 61.5189 60.6769 61.3033C62.8489 60.7892 64.5351 61.8698 65.0769 64.1586C66.0057 68.0821 63.8081 72.0305 59.515 74.1073ZM72.8512 70.7531L72.3122 65.4548C72.2005 64.1494 72.0439 63.1753 71.8989 62.667L71.43 62.4574L66.8525 63.5409L66.0675 60.2246C67.4768 59.7183 69.253 59.1992 71.2381 58.7293C74.6012 57.9332 75.7264 58.7274 76.2231 62.2846C76.5879 64.7633 76.7339 67.0471 76.9149 69.7912L72.8512 70.7531ZM82.6415 68.7809C81.2169 69.1181 79.7259 69.1751 78.4833 68.9266L78.5722 65.5514C80.6033 65.5885 83.4273 65.5366 83.632 65.4635L83.8791 65.257C83.9769 64.42 83.6576 62.0293 83.2571 60.5456C83.0568 59.8038 83.1232 60.0841 83.0169 59.7393L82.7323 59.6833L78.2482 60.7447L77.4687 57.4518L86.2034 55.3841C86.4541 55.8181 86.6912 56.4032 86.9148 57.1395C87.1771 58.0392 87.3903 59.148 87.6125 60.9204C87.8323 62.8908 87.77 64.6073 87.4221 65.4295C86.8676 66.942 85.0704 68.2059 82.6415 68.7809ZM33.7531 99.7634L33.1209 92.6128L37.4415 91.59L38.0737 98.7407L33.7531 99.7634ZM51.2824 92.4324C51.1784 93.7642 50.6571 94.4795 49.112 95.1412L52.7069 98.1377L50.0343 101.434L44.8166 96.4787L45.2953 101.939L41.2082 102.907L40.1766 90.9426L44.2403 89.9807L44.5195 93.2441C45.5889 93.3856 46.7117 93.4404 47.0208 93.3919L47.2378 93.2666C47.2655 92.4461 47.233 91.7879 47.1367 90.6515L47.0195 89.3228L50.9197 88.3995C50.986 88.6798 51.0235 88.9422 51.0665 89.228C51.2814 90.6569 51.3501 91.6765 51.2824 92.4324ZM59.544 98.5664L59.005 93.268C58.8933 91.9626 58.7367 90.9885 58.5917 90.4803L58.1228 90.2706L53.5453 91.3542L52.7603 88.0378C54.1696 87.5316 55.9458 87.0125 57.9309 86.5426C61.294 85.7465 62.4192 86.5407 62.9159 90.0979C63.2807 92.5765 63.4267 94.8603 63.6077 97.6044L59.544 98.5664ZM78.2911 81.9203C80.1297 88.9581 77.2424 94.0563 70.0405 96.4516L67.6148 96.3106L63.6244 85.3922L67.4779 84.48L68.6931 87.8425C68.9955 87.8695 69.3157 87.8677 69.6181 87.8948L69.8006 87.7283C69.8166 87.3792 69.7319 86.7087 69.5011 84.6916L69.4163 84.0211L72.7794 83.225L72.9041 83.9601C73.0717 84.9809 73.1718 85.8204 73.192 86.5309C73.2495 88.441 72.6447 89.3241 71.1131 89.8346C70.6571 89.9919 70.1488 90.1369 69.5594 90.2517L70.3249 92.3395L70.674 92.3555C74.4385 90.6505 75.5451 87.8236 74.3442 82.8546L78.2911 81.9203ZM91.7816 82.8457C91.6776 84.1775 91.1564 84.8928 89.6112 85.5545L93.2062 88.551L90.5336 91.8472L85.3158 86.8919L85.7945 92.3525L81.7075 93.3199L80.6758 81.3558L84.7395 80.3939L85.0187 83.6573C86.0881 83.7988 87.2109 83.8536 87.5201 83.8051L87.737 83.6798C87.7648 82.8593 87.7323 82.2011 87.6359 81.0648L87.5187 79.736L91.4189 78.8128C91.4853 79.093 91.5227 79.3555 91.5657 79.6412C91.7806 81.0702 91.8493 82.0898 91.7816 82.8457Z" fill="black"/>
</svg>
