<svg width="144" height="148" viewBox="0 0 144 148" fill="none" xmlns="http://www.w3.org/2000/svg">
<path d="M141.004 78.9071L139.514 80.0635C136.088 82.7254 135.278 87.5856 137.658 91.2207L138.749 92.8866C140.896 96.1554 139.371 100.575 135.672 101.817L134.124 102.338C129.979 103.729 127.621 108.108 128.735 112.345L129.22 114.194C130.219 118.012 127.307 121.733 123.374 121.67L122.026 121.647C117.602 121.578 113.902 124.996 113.611 129.421L113.502 131.093C113.24 135.071 109.232 137.682 105.504 136.296L104.436 135.901C100.24 134.344 95.5693 136.399 93.8736 140.555L93.3541 141.832C91.8354 145.553 87.1595 146.732 84.065 144.173L83.2143 143.469C79.743 140.601 74.6218 141.025 71.67 144.431L70.9107 145.301C68.2787 148.341 63.46 147.94 61.3533 144.511L60.6967 143.446C58.3445 139.611 53.3716 138.346 49.4836 140.596L48.5358 141.145C45.076 143.143 40.6684 141.22 39.772 137.321L39.4295 135.833C38.4303 131.482 34.1826 128.7 29.8092 129.524L28.6046 129.753C24.7165 130.486 21.211 127.274 21.5878 123.324L21.7591 121.527C22.1759 117.142 19.11 113.186 14.7709 112.511L13.2979 112.282C9.42693 111.681 7.18317 107.553 8.77607 103.964L9.57538 102.16C11.3453 98.1762 9.74666 93.4991 5.90999 91.4383L4.35134 90.6025C0.920034 88.7592 0.149275 84.1623 2.79269 81.2943L4.12297 79.8517C7.06327 76.663 7.06327 71.7399 4.12297 68.5513L2.79269 67.1087C0.149275 64.2406 0.920034 59.6438 4.35134 57.8004L5.90999 56.9646C9.74666 54.9038 11.3453 50.2268 9.57538 46.2424L8.77607 44.4392C7.18317 40.8499 9.42693 36.7224 13.2979 36.1213L14.7709 35.8923C19.1157 35.2168 22.1816 31.2611 21.7591 26.8761L21.5878 25.0785C21.211 21.1285 24.7165 17.917 28.6046 18.6498L29.8092 18.8788C34.1826 19.7031 38.4246 16.9152 39.4295 12.5702L39.772 11.0818C40.6684 7.17765 45.076 5.25418 48.5358 7.2578L49.4836 7.80736C53.3774 10.0571 58.3445 8.792 60.6967 4.9565L61.3533 3.89172C63.46 0.462678 68.273 0.0676794 70.9107 3.10173L71.67 3.97187C74.6218 7.37801 79.743 7.80164 83.2143 4.9336L84.065 4.22948C87.1595 1.67057 91.8354 2.84984 93.3541 6.57084L93.8736 7.84743C95.5693 11.9978 100.24 14.0529 104.436 12.5015L105.504 12.1065C109.232 10.7212 113.245 13.3316 113.502 17.3102L113.611 18.9818C113.902 23.4069 117.602 26.8303 122.026 26.7558L123.374 26.7329C127.313 26.67 130.219 30.391 129.22 34.2093L128.735 36.0583C127.627 40.2946 129.985 44.6739 134.124 46.065L135.672 46.5859C139.371 47.8282 140.896 52.2476 138.749 55.5163L137.658 57.1822C135.278 60.8173 136.083 65.6775 139.514 68.3395L141.004 69.4958C144.081 71.883 144.081 76.5371 141.004 78.93V78.9071Z" fill="white" stroke="black" stroke-miterlimit="10" stroke-dasharray="2 2"/>
<path d="M43.5169 80.6845L43.7295 63.2705L48.1302 62.6817L47.9177 80.0957L43.5169 80.6845ZM50.6689 75.8534L50.83 63.846L55.2308 63.2572L55.0697 75.2646L50.6689 75.8534ZM66.9025 70.1704L68.4487 69.9636L68.4107 73.4797L57.6823 74.915L57.7203 71.3989L63.0013 70.6924C62.9939 68.4657 62.9587 67.8408 62.8219 66.818C62.7423 66.2233 62.7391 66.1995 62.6994 66.0837L62.2537 65.8286L57.6388 66.446L57.1868 63.0681C59.1834 62.6073 60.7438 62.3259 62.2663 62.1222C65.3111 61.7148 66.4454 62.4105 66.7796 64.9083C66.8974 65.7884 66.9521 67.6456 66.9025 70.1704ZM83.6788 59.451C84.8097 66.6365 81.4306 71.4229 74.0265 73.0915L71.6267 72.7104L68.74 61.4497L72.665 60.9246L73.5404 64.3911C73.8386 64.4481 74.1574 64.4781 74.4556 64.535L74.6538 64.3875C74.7044 64.0417 74.6866 63.3661 74.6571 61.3361L74.6394 60.6604L78.0649 60.2021L78.116 60.9459C78.1814 61.9784 78.1977 62.8237 78.1473 63.5326C78.0149 65.439 77.3254 66.2577 75.7507 66.6137C75.2813 66.7249 74.7611 66.8187 74.1632 66.8745L74.7177 69.028L75.0635 69.0786C78.9786 67.7557 80.3604 65.0526 79.6587 59.9889L83.6788 59.451ZM98.4098 58.6908C98.5956 59.1745 98.7196 59.739 98.8087 60.4051C99.0633 62.3081 98.9747 62.7316 98.9222 69.3974L94.7593 69.9544C94.7633 68.3558 94.8308 66.8697 94.7886 64.7445C94.7593 63.0777 94.7257 62.2831 94.6382 61.8105L94.1687 61.5586L91.7661 61.88L91.643 70.3713L87.4088 70.9379L87.508 62.4497L85.9142 62.663L85.4655 59.3089C87.5873 58.8797 90.4561 58.4232 93.8578 57.9681C96.2842 57.6435 97.4086 57.5415 97.9002 57.5967C98.0875 57.9107 98.2574 58.2754 98.4098 58.6908ZM69.2738 85.5922L69.6376 87.0448L68.5893 97.6696L64.474 98.2202L65.0397 89.9602L64.9222 89.8065L57.9523 90.739L57.4749 87.1708L69.2738 85.5922ZM58.3541 102.429L58.4607 92.7291L62.695 92.1626L62.5884 101.862L58.3541 102.429ZM74.5732 97.0627C73.36 97.225 72.1387 97.1463 70.9333 96.8233L71.4694 93.4101C72.2862 93.5429 73.1633 93.7646 73.8993 93.8356L74.1656 93.6547C74.2289 93.4041 74.2683 92.7934 74.2837 91.8228C74.2816 90.5398 74.2843 89.474 74.2347 88.5605L72.1413 88.8406L71.6639 85.2724L77.8488 84.4449L78.2857 86.0814C78.4338 87.3692 78.4631 89.036 78.3597 91.8828C78.2518 95.2388 77.1661 96.7158 74.5732 97.0627ZM89.8599 91.3128L91.4061 91.1059L91.3681 94.622L80.6397 96.0574L80.6777 92.5413L85.9587 91.8347C85.9513 89.608 85.9161 88.9832 85.7793 87.9603C85.6997 87.3656 85.6965 87.3418 85.6568 87.226L85.2111 86.9709L80.5962 87.5883L80.1442 84.2104C82.1408 83.7496 83.7012 83.4682 85.2237 83.2645C88.2685 82.8571 89.4028 83.5528 89.737 86.0506C89.8548 86.9307 89.9095 88.7879 89.8599 91.3128Z" fill="black"/>
</svg>
