<svg width="149" height="149" viewBox="0 0 149 149" fill="none" xmlns="http://www.w3.org/2000/svg">
<g clip-path="url(#clip0_1135_195)">
<path d="M48.7012 144.373L41.3368 126.678C41.0894 126.078 40.4874 125.698 39.8386 125.718L20.6283 126.391C19.7521 126.425 19.043 125.678 19.1233 124.811L20.849 105.729C20.9092 105.083 20.5547 104.469 19.9728 104.189L2.64876 95.8886C1.85948 95.5086 1.57855 94.5285 2.05345 93.7884L12.4813 77.6936C12.8358 77.1469 12.8091 76.4402 12.4211 75.9201L0.956488 60.5454C0.434761 59.8454 0.642114 58.8453 1.41133 58.4119L18.1467 48.9911C18.7153 48.671 19.023 48.0376 18.9226 47.3976L15.9327 28.4692C15.799 27.6025 16.4478 26.8157 17.3307 26.7891L36.541 26.1957C37.1898 26.1757 37.765 25.7556 37.9724 25.1422L44.1528 7.00063C44.4338 6.17389 45.3836 5.78052 46.1729 6.16055L63.4568 14.5346C64.0454 14.8213 64.741 14.708 65.2159 14.2613L79.142 1.06676C79.7775 0.466708 80.8008 0.553383 81.3226 1.26011L92.727 16.6815C93.115 17.2015 93.7838 17.4349 94.4126 17.2549L112.9 12.0144C113.743 11.7744 114.606 12.3278 114.74 13.1945L117.643 32.1362C117.743 32.7763 118.231 33.2896 118.867 33.423L137.683 37.35C138.539 37.53 139.047 38.4168 138.759 39.2435L132.499 57.3585C132.285 57.9719 132.479 58.6519 132.98 59.0653L147.809 71.2597C148.485 71.8131 148.518 72.8399 147.883 73.4399L133.897 86.5811C133.422 87.0278 133.275 87.7145 133.529 88.3146L140.973 105.976C141.315 106.783 140.866 107.703 140.024 107.936L121.509 113.09C120.88 113.263 120.432 113.81 120.372 114.457L118.726 133.545C118.653 134.419 117.823 135.025 116.967 134.845L98.1717 130.838C97.5363 130.705 96.8808 130.972 96.5329 131.518L86.1786 147.66C85.7038 148.4 84.6937 148.553 84.0182 147.993L69.2426 135.739C68.7409 135.325 68.0386 135.259 67.47 135.585L50.7748 145.08C50.0122 145.513 49.0424 145.18 48.7079 144.373H48.7012Z" fill="white" stroke="black" stroke-miterlimit="10" stroke-dasharray="2 2"/>
<path d="M51.3944 73.5147C51.5079 73.9963 51.5491 74.5009 51.539 75.2448C51.5215 76.5407 51.4148 77.3313 50.3379 84.2054L38.699 84.0482L39.9403 75.6642L38.4524 75.6441L38.4981 72.2604C40.6359 72.1453 43.5646 72.1128 46.9963 72.1592C49.4201 72.1919 50.5713 72.2554 51.0496 72.3819C51.1894 72.6958 51.2815 72.9851 51.3944 73.5147ZM43.4505 80.56L46.7142 80.6041C46.769 80.1008 46.8481 79.5738 46.9279 78.9989C47.1422 77.3456 47.2249 76.5546 47.2074 76.0744L46.7797 75.7566L44.1879 75.7216L43.4505 80.56ZM53.5529 79.4724L54.6807 72.383L59.1203 72.4429L57.9925 79.5323L53.5529 79.4724ZM73.9769 73.8437C74.0901 74.3493 74.1303 74.9259 74.1213 75.5978C74.0953 77.5176 73.9458 77.9237 72.9208 84.5104L68.7212 84.4537C68.9585 82.8728 69.2423 81.4125 69.5108 79.3039C69.7251 77.6506 69.8078 76.8597 69.7903 76.3794L69.3626 76.0616L66.9388 76.0289L65.5774 84.4112L61.3058 84.3535L62.6432 75.9708L61.0353 75.9491L61.081 72.5654C63.2428 72.4506 66.1475 72.4178 69.5792 72.4642C72.0269 72.4972 73.1542 72.5605 73.6325 72.687C73.772 73.0249 73.8868 73.4105 73.9769 73.8437ZM75.6582 84.5474L77.5705 72.6921L82.0101 72.7521L80.0978 84.6074L75.6582 84.5474ZM87.4294 84.8984L84.9368 84.6247L83.5332 71.2605L87.5168 71.3143L88.4927 80.8084L88.7557 80.884C90.0827 80.3738 91.111 78.8756 91.1308 77.4117C91.1434 76.4758 90.7887 76.087 89.9727 76.076L89.3248 76.0672L89.0741 73.3036C89.8232 72.9296 90.7377 72.75 91.6736 72.7626C93.9054 72.7928 95.2779 74.2514 95.2461 76.6032C95.1916 80.6349 92.0989 83.9294 87.4294 84.8984ZM96.9073 80.058L98.0352 72.9686L102.475 73.0285L101.347 80.1179L96.9073 80.058ZM113.088 81.5726L114.648 81.5937L114.097 85.0666L103.274 84.9204L103.825 81.4475L109.153 81.5195C109.47 79.3156 109.527 78.6923 109.541 77.6604C109.549 77.0604 109.549 77.0364 109.527 76.9161L109.123 76.5986L104.467 76.5358L104.513 73.1281C106.556 72.9636 108.141 72.913 109.677 72.9338C112.748 72.9753 113.769 73.8291 113.735 76.3489C113.723 77.2368 113.506 79.0821 113.088 81.5726Z" fill="black"/>
</g>
<defs>
<clipPath id="clip0_1135_195">
<rect width="149" height="149" fill="white"/>
</clipPath>
</defs>
</svg>
