<svg width="157" height="201" viewBox="0 0 157 201" fill="none" xmlns="http://www.w3.org/2000/svg">
<g clip-path="url(#clip0_1135_193)">
<path d="M93.463 188.674C127.741 182.747 148.67 138.278 140.209 89.3502C131.749 40.4225 97.1029 5.56368 62.8252 11.4908C28.5475 17.418 7.61848 61.8867 16.0789 110.814C24.5392 159.742 59.1853 194.601 93.463 188.674Z" fill="white" stroke="black" stroke-miterlimit="10" stroke-dasharray="2 2"/>
<path d="M43.3211 99.6228L42.6889 92.4721L47.0095 91.4493L47.6417 98.6L43.3211 99.6228ZM55.3006 102.016L52.8478 102.177L48.2671 89.5979L52.1206 88.6857L52.6667 90.1595C53.2451 89.9979 54.6408 89.6429 56.5559 89.1896C59.1016 88.587 60.4548 89.3025 60.98 91.5212C61.9032 95.4214 59.5495 99.752 55.3006 102.016ZM55.5931 97.729C56.8918 96.7557 57.56 94.9944 57.2062 93.4997C57.0459 92.8224 56.5481 92.5949 55.6606 92.805L53.7456 93.2583L55.3485 97.7376L55.5931 97.729ZM63.5164 94.8422L62.8843 87.6915L67.2049 86.6688L67.837 93.8195L63.5164 94.8422ZM75.515 97.1073L73.0309 97.4487L68.4157 84.8284L72.2925 83.9107L75.5506 92.8814L75.824 92.8907C76.9869 92.0728 77.6195 90.3693 77.2823 88.9447C77.0667 88.0338 76.6279 87.7431 75.8339 87.9311L75.2033 88.0803L74.2873 85.4609C74.9228 84.9158 75.7661 84.5189 76.6769 84.3033C78.8489 83.7892 80.5351 84.8698 81.0769 87.1586C82.0057 91.0821 79.8081 95.0305 75.515 97.1073ZM88.8512 93.7531L88.3122 88.4548C88.2005 87.1494 88.0439 86.1753 87.8989 85.667L87.43 85.4574L82.8525 86.5409L82.0675 83.2246C83.4768 82.7183 85.253 82.1992 87.2381 81.7293C90.6012 80.9332 91.7264 81.7274 92.2231 85.2846C92.5879 87.7633 92.7339 90.0471 92.9149 92.7912L88.8512 93.7531ZM98.6415 91.7809C97.2169 92.1181 95.7259 92.1751 94.4833 91.9266L94.5722 88.5514C96.6033 88.5885 99.4273 88.5366 99.632 88.4635L99.8791 88.257C99.9769 87.42 99.6576 85.0293 99.2571 83.5456C99.0568 82.8038 99.1232 83.0841 99.0169 82.7393L98.7323 82.6833L94.2482 83.7447L93.4687 80.4518L102.203 78.3841C102.454 78.8181 102.691 79.4032 102.915 80.1395C103.177 81.0392 103.39 82.148 103.613 83.9204C103.832 85.8908 103.77 87.6073 103.422 88.4295C102.868 89.942 101.07 91.2059 98.6415 91.7809ZM49.7531 122.763L49.1209 115.613L53.4415 114.59L54.0737 121.741L49.7531 122.763ZM67.2824 115.432C67.1784 116.764 66.6571 117.48 65.112 118.141L68.7069 121.138L66.0343 124.434L60.8166 119.479L61.2953 124.939L57.2082 125.907L56.1766 113.943L60.2403 112.981L60.5195 116.244C61.5889 116.386 62.7117 116.44 63.0208 116.392L63.2378 116.267C63.2655 115.446 63.233 114.788 63.1367 113.652L63.0195 112.323L66.9197 111.4C66.986 111.68 67.0235 111.942 67.0665 112.228C67.2814 113.657 67.3501 114.677 67.2824 115.432ZM75.544 121.566L75.005 116.268C74.8933 114.963 74.7367 113.989 74.5917 113.48L74.1228 113.271L69.5453 114.354L68.7603 111.038C70.1696 110.532 71.9458 110.012 73.9309 109.543C77.294 108.746 78.4192 109.541 78.9159 113.098C79.2807 115.577 79.4267 117.86 79.6077 120.604L75.544 121.566ZM94.2911 104.92C96.1297 111.958 93.2424 117.056 86.0405 119.452L83.6148 119.311L79.6244 108.392L83.4779 107.48L84.6931 110.842C84.9955 110.87 85.3157 110.868 85.6181 110.895L85.8006 110.728C85.8166 110.379 85.7319 109.709 85.5011 107.692L85.4163 107.021L88.7794 106.225L88.9041 106.96C89.0717 107.981 89.1718 108.82 89.192 109.531C89.2495 111.441 88.6447 112.324 87.1131 112.835C86.6571 112.992 86.1488 113.137 85.5594 113.252L86.3249 115.34L86.674 115.356C90.4385 113.651 91.5451 110.824 90.3442 105.855L94.2911 104.92ZM107.782 105.846C107.678 107.177 107.156 107.893 105.611 108.554L109.206 111.551L106.534 114.847L101.316 109.892L101.795 115.352L97.7075 116.32L96.6758 104.356L100.74 103.394L101.019 106.657C102.088 106.799 103.211 106.854 103.52 106.805L103.737 106.68C103.765 105.859 103.732 105.201 103.636 104.065L103.519 102.736L107.419 101.813C107.485 102.093 107.523 102.355 107.566 102.641C107.781 104.07 107.849 105.09 107.782 105.846Z" fill="black"/>
</g>
<defs>
<clipPath id="clip0_1135_193">
<rect width="127.281" height="181.121" fill="white" transform="translate(0 21.687) rotate(-9.81035)"/>
</clipPath>
</defs>
</svg>
