<svg width="144" height="148" viewBox="0 0 144 148" fill="none" xmlns="http://www.w3.org/2000/svg">
<path d="M140.793 78.8544L139.303 80.0107C135.877 82.6727 135.067 87.5329 137.448 91.168L138.538 92.8339C140.685 96.1026 139.16 100.522 135.461 101.764L133.913 102.285C129.769 103.676 127.411 108.056 128.524 112.292L129.009 114.141C130.008 117.959 127.097 121.68 123.163 121.617L121.815 121.594C117.391 121.526 113.691 124.943 113.4 129.368L113.291 131.04C113.029 135.019 109.021 137.629 105.293 136.244L104.225 135.849C100.029 134.292 95.3584 136.347 93.6627 140.503L93.1432 141.779C91.6245 145.5 86.9485 146.68 83.8541 144.121L83.0034 143.417C79.5321 140.549 74.4109 140.972 71.4591 144.378L70.6998 145.248C68.0678 148.288 63.2491 147.888 61.1424 144.458L60.4858 143.394C58.1336 139.558 53.1607 138.293 49.2727 140.543L48.3249 141.092C44.8651 143.09 40.4575 141.167 39.5611 137.268L39.2186 135.78C38.2194 131.429 33.9717 128.647 29.5983 129.471L28.3937 129.7C24.5056 130.433 21.0001 127.222 21.3769 123.272L21.5482 121.474C21.965 117.089 18.899 113.133 14.56 112.458L13.087 112.229C9.21603 111.628 6.97226 107.5 8.56516 103.911L9.36447 102.108C11.1344 98.1234 9.53575 93.4464 5.69908 91.3855L4.14043 90.5498C0.709127 88.7064 -0.0616324 84.1096 2.58179 81.2415L3.91206 79.7989C6.85237 76.6103 6.85237 71.6871 3.91206 68.4985L2.58179 67.0559C-0.0616324 64.1879 0.709127 59.591 4.14043 57.7477L5.69908 56.9119C9.53575 54.851 11.1344 50.174 9.36447 46.1897L8.56516 44.3865C6.97226 40.7971 9.21603 36.6697 13.087 36.0686L14.56 35.8396C18.9048 35.1641 21.9707 31.2084 21.5482 26.8233L21.3769 25.0258C21.0001 21.0758 24.5056 17.8643 28.3937 18.5971L29.5983 18.826C33.9717 19.6504 38.2137 16.8625 39.2186 12.5175L39.5611 11.0291C40.4575 7.12492 44.8651 5.20145 48.3249 7.20506L49.2727 7.75463C53.1664 10.0044 58.1336 8.73926 60.4858 4.90377L61.1424 3.83899C63.2491 0.409944 68.0621 0.014945 70.6998 3.04899L71.4591 3.91913C74.4109 7.32528 79.5321 7.7489 83.0034 4.88087L83.8541 4.17674C86.9485 1.61784 91.6245 2.79711 93.1432 6.51811L93.6627 7.7947C95.3584 11.945 100.029 14.0002 104.225 12.4488L105.293 12.0538C109.021 10.6685 113.034 13.2789 113.291 17.2575L113.4 18.9291C113.691 23.3542 117.391 26.7775 121.815 26.7031L123.163 26.6802C127.102 26.6172 130.008 30.3382 129.009 34.1566L128.524 36.0056C127.416 40.2418 129.774 44.6212 133.913 46.0122L135.461 46.5332C139.16 47.7754 140.685 52.1948 138.538 55.4636L137.448 57.1294C135.067 60.7646 135.872 65.6248 139.303 68.2867L140.793 69.4431C143.871 71.8303 143.871 76.4844 140.793 78.8773V78.8544Z" fill="white" stroke="black" stroke-miterlimit="10" stroke-linecap="round" stroke-dasharray="3 3"/>
<path d="M63.1533 54.8738C63.1473 55.3919 63.0541 55.9623 62.8909 56.6142C62.4248 58.4767 62.1861 58.8376 59.6758 65.0129L55.6014 63.9933C56.1955 62.5091 56.807 61.153 57.5526 59.1624C58.1409 57.6026 58.403 56.8517 58.4962 56.3803L58.1529 55.9727L55.8014 55.3843L52.5515 63.23L48.4073 62.1929L51.6339 54.3413L50.074 53.951L50.8956 50.6682C53.0259 51.0529 55.8605 51.688 59.1898 52.5212C61.5646 53.1155 62.6472 53.4359 63.0837 53.6689C63.1418 54.0298 63.165 54.4314 63.1533 54.8738ZM62.3316 65.6775L66.9153 54.5782L71.2224 55.6561L66.6388 66.7554L62.3316 65.6775ZM73.7075 68.7223L71.3445 67.8836L73.0473 54.5542L76.9122 55.5214L75.6817 64.9858L75.9203 65.1198C77.329 64.928 78.6739 63.7059 79.0293 62.2857C79.2566 61.3777 79.0006 60.9178 78.209 60.7197L77.5804 60.5624L77.971 57.8151C78.786 57.6232 79.7173 57.6583 80.6253 57.8856C82.7905 58.4274 83.7913 60.1623 83.2203 62.4439C82.2415 66.3553 78.4748 68.8515 73.7075 68.7223ZM84.0438 66.1878L86.7695 59.5469L91.0767 60.6248L88.351 67.2657L84.0438 66.1878ZM99.4444 71.3779L100.958 71.7566L99.6239 75.0101L89.1237 72.3824L90.4575 69.1289L95.6261 70.4223C96.4415 68.3503 96.6396 67.7566 96.8901 66.7555C97.0358 66.1734 97.0416 66.1502 97.0474 66.0279L96.7274 65.6262L92.2107 64.4959L93.038 61.1898C95.0636 61.4988 96.6177 61.8135 98.1078 62.1864C101.088 62.9322 101.885 63.9976 101.273 66.4422C101.058 67.3037 100.423 69.0498 99.4444 71.3779ZM44.8013 81.1073L47.527 74.4664L51.8342 75.5443L49.1085 82.1852L44.8013 81.1073ZM64.0759 79.7211C64.0118 80.1751 63.9127 80.6699 63.7845 81.1821C63.1494 83.7198 61.7633 86.7871 60.791 87.9044C59.4344 89.4699 57.4785 89.6732 55.2201 89.108C53.4507 88.6652 51.0062 87.5587 49.6327 86.6212L51.2574 83.6879C52.8987 84.5439 56.7633 86.3027 57.1184 86.3669L57.4793 86.3087C57.7297 85.9013 58.2539 84.5976 58.6558 83.387C58.8714 82.7234 59.2151 81.5477 59.2268 81.3032L58.8717 81.1402L56.9914 81.9313L56.8165 83.2235L52.812 82.2214L53.6051 75.9874L57.6096 76.9896L57.283 79.5798L60.7294 77.7703L64.1984 78.6385L64.0759 79.7211ZM62.854 90.5484L67.4377 79.4491L71.7449 80.527L67.1612 91.6263L62.854 90.5484ZM83.6212 87.6307C82.9166 88.7656 82.1248 89.1612 80.4485 89.0386L82.2635 93.3523L78.3748 95.051L76.019 88.2517L73.9339 93.3212L69.8596 92.3016L74.4432 81.2023L78.4943 82.2161L77.2421 85.2426C78.1267 85.8599 79.0987 86.4247 79.3955 86.5237L79.6458 86.5122C80.0476 85.7963 80.3213 85.1968 80.7582 84.1433L81.2649 82.9094L85.153 83.8824C85.083 84.1618 84.9957 84.4121 84.9025 84.6857C84.4365 86.0535 84.0288 86.9905 83.6212 87.6307ZM86.4636 96.4568L90.3596 88.8965L85.936 87.7894L86.437 85.9851L88.726 80.3976L92.8469 81.4289L91.2103 85.3983L95.89 86.5694L95.6917 88.0537L90.6544 97.5056L86.4636 96.4568Z" fill="black"/>
</svg>
