<svg width="135" height="150" viewBox="0 0 135 150" fill="none" xmlns="http://www.w3.org/2000/svg">
<g clip-path="url(#clip0_1135_192)">
<path d="M4.23353 131.447C2.26613 131.126 0.935188 129.26 1.25876 127.276L12.764 56.7267C12.764 56.7267 19.0684 0.195422 77.7048 9.75796C136.341 19.3205 123.694 79.95 123.694 79.95L113.005 145.493C112.681 147.478 110.826 148.824 108.859 148.503L4.23445 131.441L4.23353 131.447Z" fill="white" stroke="black" stroke-miterlimit="10" stroke-dasharray="2 2"/>
<path d="M46.3302 83.1919L47.8087 78.0756C48.2105 76.7043 48.4182 75.8133 48.4663 75.3352L48.1096 74.9656L41.4178 73.9526L41.9279 70.583C43.8514 70.7043 46.3812 70.9901 49.1813 71.414C52.717 71.9492 53.4808 73.1572 52.5953 76.7612C52.0333 79.0307 51.316 81.2038 50.4592 83.817L46.3302 83.1919ZM39.1876 82.1107L40.9673 76.2875L45.2623 76.9376L43.4827 82.7609L39.1876 82.1107ZM54.2194 79.5558L56.3031 72.6863L60.6931 73.3509L58.6094 80.2204L54.2194 79.5558ZM64.4389 86.2488L62.1033 85.4826L62.551 72.1029L66.4664 72.6956L66.4227 74.2668C67.0196 74.3329 68.4469 74.5247 70.3928 74.8192C72.9793 75.2108 73.9674 76.3799 73.6262 78.6342C73.0263 82.597 69.2257 85.7355 64.4389 86.2488ZM66.3109 82.3815C67.8791 81.9635 69.1567 80.5791 69.3866 79.0604C69.4908 78.3723 69.114 77.9754 68.2122 77.8389L66.2664 77.5443L66.0808 82.2981L66.3109 82.3815ZM75.6914 87.8309C74.4812 87.6477 73.3306 87.2308 72.2635 86.5838L73.7321 83.4564C74.4793 83.8122 75.2595 84.2702 75.9462 84.544L76.2526 84.4448C76.3834 84.2218 76.5918 83.6465 76.8779 82.7189C77.2344 81.4864 77.5349 80.4638 77.7425 79.5729L75.6543 79.2568L76.1932 75.6973L82.3629 76.6313L82.325 78.3247C82.1073 79.6025 81.6696 81.2111 80.7747 83.9157C79.7332 87.1077 78.2779 88.2225 75.6914 87.8309ZM86.5877 89.6261C84.2622 89.274 82.4343 88.6817 81.5476 87.965L82.894 84.8433C84.4537 85.4435 88.6173 86.802 89.0005 86.8358L89.3543 86.7437C89.6268 86.2266 90.3138 83.612 90.4935 82.4256C90.5976 81.7374 90.5976 81.7374 90.5969 81.4217L90.4725 81.2815L88.1944 80.9367L88.1085 83.9093L84.2643 83.3273L84.414 78.8109L84.9516 77.0232L95.0842 78.5571C95.1914 79.1316 95.2238 79.7191 95.1837 80.4655C94.7972 83.6596 93.6378 87.1494 92.5587 88.3454C91.4486 89.5852 89.3166 90.0392 86.5877 89.6261Z" fill="black"/>
</g>
<defs>
<clipPath id="clip0_1135_192">
<rect width="114.394" height="133.07" fill="white" transform="translate(21.4184) rotate(9.26237)"/>
</clipPath>
</defs>
</svg>
