<svg width="144" height="144" viewBox="0 0 144 144" fill="none" xmlns="http://www.w3.org/2000/svg">
<g clip-path="url(#clip0_1135_190)">
<path d="M71.9969 143.365C111.413 143.365 143.365 111.413 143.365 71.9968C143.365 32.5811 111.413 0.628403 71.9969 0.628403C32.5812 0.628403 0.628418 32.5811 0.628418 71.9968C0.628418 111.413 32.5812 143.365 71.9969 143.365Z" fill="white" stroke="black" stroke-miterlimit="10" stroke-dasharray="2 2"/>
<path d="M33.9371 80.6865L34.5348 75.3945C34.7004 73.9751 34.7554 73.062 34.7225 72.5825L34.3087 72.2781L27.5419 72.404L27.4785 68.9966C29.3951 68.7929 31.9368 68.6496 34.7684 68.5969C38.3437 68.5304 39.2997 69.5928 39.0325 73.2944C38.8598 75.6261 38.5178 77.8888 38.1124 80.6088L33.9371 80.6865ZM26.7143 80.8209L27.4901 74.7814L31.8334 74.7006L31.0576 80.7401L26.7143 80.8209ZM44.8211 80.7961L42.3899 80.4332L40.5828 67.1685L44.5422 67.0949L44.7631 68.651C45.3626 68.6159 46.8019 68.5651 48.7696 68.5285C51.3851 68.4798 52.5557 69.4662 52.5981 71.7458C52.6726 75.7531 49.4535 79.4857 44.8211 80.7961ZM46.0165 76.6691C47.4922 75.9935 48.519 74.4142 48.4904 72.8784C48.4775 72.1825 48.0393 71.8546 47.1275 71.8716L45.1598 71.9082L45.7757 76.6256L46.0165 76.6691ZM56.1794 80.4647C54.9556 80.4875 53.7513 80.2698 52.5906 79.8114L53.5128 76.4816C54.3092 76.7069 55.1553 77.0272 55.8783 77.1817L56.1635 77.0324C56.2551 76.7907 56.3639 76.1885 56.49 75.226C56.6343 73.9511 56.7586 72.8926 56.8136 71.9794L54.702 72.0187L54.635 68.4194L60.874 68.3033L61.1212 69.979C61.1213 71.2752 60.9601 72.9345 60.5325 75.7509C60.0422 79.0726 58.7949 80.416 56.1794 80.4647ZM65.8786 80.4283C64.4149 80.4555 62.9458 80.1948 61.7842 79.6883L62.5873 76.4088C64.5643 76.8761 67.335 77.4247 67.5505 77.3967L67.8358 77.2473C68.109 76.4501 68.3043 74.0461 68.2278 72.5112C68.1895 71.7438 68.1948 72.0317 68.1642 71.6722L67.898 71.5572L63.2908 71.6429L63.2278 68.2595L72.2023 68.0925C72.3552 68.5697 72.4628 69.1919 72.525 69.9588C72.5904 70.8938 72.5634 72.0225 72.4045 73.8017C72.2011 75.7739 71.776 77.4381 71.2615 78.1678C70.3987 79.528 68.3742 80.3818 65.8786 80.4283ZM81.2717 79.8058L81.8694 74.5138C82.035 73.0945 82.09 72.1813 82.0571 71.7018L81.6434 71.3975L74.8765 71.5234L74.8131 68.1159C76.7297 67.9123 79.2715 67.769 82.103 67.7163C85.6784 67.6498 86.6343 68.7122 86.3671 72.4138C86.1944 74.7454 85.8525 77.0081 85.447 79.7281L81.2717 79.8058ZM74.049 79.9402L74.8248 73.9007L79.168 73.8199L78.3922 79.8594L74.049 79.9402ZM97.1995 79.8215L94.7683 79.4587L92.9613 66.194L96.9206 66.1204L97.1416 67.6765C97.741 67.6414 99.1803 67.5906 101.148 67.554C103.764 67.5053 104.934 68.4917 104.977 70.7713C105.051 74.7786 101.832 78.5111 97.1995 79.8215ZM98.395 75.6946C99.8706 75.019 100.897 73.4396 100.869 71.9039C100.856 71.208 100.418 70.8801 99.5059 70.8971L97.5382 70.9337L98.1541 75.6511L98.395 75.6946ZM117.727 68.3257C117.783 68.7807 117.817 69.2842 117.826 69.8121C117.875 72.4277 117.337 75.7502 116.689 77.0825C115.788 78.9476 113.953 79.6539 111.625 79.6972C109.802 79.7311 107.153 79.3003 105.583 78.7534L106.386 75.4979C108.194 75.8963 112.383 76.5865 112.743 76.5558L113.076 76.4056C113.212 75.947 113.378 74.5517 113.45 73.2781C113.485 72.5813 113.51 71.3567 113.458 71.1176L113.073 71.0528L111.464 72.3069L111.632 73.6L107.504 73.6768L106.645 67.4517L110.772 67.3749L111.132 69.9607L113.987 67.3151L117.563 67.2486L117.727 68.3257Z" fill="black"/>
</g>
<defs>
<clipPath id="clip0_1135_190">
<rect width="144" height="144" fill="white"/>
</clipPath>
</defs>
</svg>
