<svg width="255" height="262" viewBox="0 0 255 262" fill="none" xmlns="http://www.w3.org/2000/svg">
<g clip-path="url(#clip0_1293_546)">
<path d="M250.124 139.836L248.488 141.108C242.053 146.088 240.539 155.195 245.016 161.989L246.255 163.881C250.279 170.001 247.415 178.278 240.483 180.602L238.946 181.122C231.174 183.733 226.751 191.922 228.83 199.856L229.361 201.881C231.24 209.029 225.779 216 218.393 215.879L217.31 215.857C209.017 215.724 202.074 222.131 201.532 230.419L201.422 232.068C200.935 239.515 193.417 244.395 186.419 241.805L185.777 241.562C177.905 238.652 169.149 242.502 165.965 250.27L165.544 251.289C162.692 258.249 153.924 260.462 148.12 255.671L147.655 255.283C141.143 249.905 131.536 250.702 125.996 257.076L125.543 257.607C120.601 263.295 111.568 262.553 107.621 256.135L107.168 255.394C102.756 248.212 93.4359 245.844 86.1388 250.06L85.6192 250.359C79.1292 254.099 70.8702 250.503 69.1786 243.2L68.8691 241.861C66.9895 233.716 59.0291 228.516 50.8254 230.054L49.9851 230.209C42.688 231.581 36.1206 225.561 36.8172 218.169L36.9941 216.277C37.779 208.066 32.0298 200.663 23.8814 199.391L22.5547 199.181C15.2908 198.052 11.0894 190.328 14.0746 183.611L14.9812 181.586C18.298 174.128 15.3018 165.364 8.10423 161.513L6.45686 160.628C0.0221535 157.176 -1.42621 148.567 3.52697 143.2L5.03061 141.573C10.5476 135.598 10.5476 126.391 5.03061 120.416L3.52697 118.789C-1.42621 113.422 0.0110976 104.813 6.45686 101.361L8.10423 100.476C15.2908 96.6248 18.298 87.8608 14.9812 80.4026L14.0746 78.3776C11.0894 71.6608 15.2908 63.937 22.5547 62.8083L23.8814 62.5981C32.0298 61.3255 37.779 53.9337 36.9941 45.712L36.8172 43.8198C36.1096 36.428 42.688 30.4083 49.9851 31.7804L50.8254 31.9353C59.0291 33.4734 66.9895 28.2615 68.8691 20.1283L69.1786 18.7894C70.8702 11.4861 79.1292 7.87873 85.6192 11.63L86.1388 11.9287C93.4359 16.1337 102.756 13.7767 107.168 6.59512L107.621 5.85372C111.568 -0.564319 120.601 -1.30571 125.543 4.382L125.996 4.91315C131.536 11.2869 141.143 12.0837 147.655 6.70577L148.12 6.31848C153.924 1.52708 162.692 3.7402 165.544 10.7005L165.965 11.7185C169.149 19.4865 177.905 23.3374 185.777 20.4271L186.419 20.1837C193.417 17.5943 200.935 22.4742 201.422 29.9214L201.532 31.5702C202.074 39.8583 209.017 46.2542 217.31 46.1325L218.393 46.1103C225.779 45.9997 231.229 52.9599 229.361 60.1083L228.83 62.1333C226.751 70.0673 231.174 78.2559 238.946 80.8674L240.483 81.3874C247.427 83.7112 250.279 91.9883 246.255 98.1076L245.016 99.9998C240.55 106.805 242.064 115.901 248.488 120.881L250.124 122.153C255.896 126.624 255.896 135.343 250.124 139.814V139.836Z" fill="white" stroke="black" stroke-miterlimit="10"/>
<path d="M243.855 138.01L241.335 139.969C234.712 145.114 233.153 154.487 237.752 161.502L239.61 164.335C242.628 168.949 240.483 175.168 235.254 176.928L232.667 177.802C224.651 180.502 220.096 188.945 222.23 197.133L223.048 200.276C224.452 205.665 220.339 210.91 214.778 210.822L212.577 210.788C204.009 210.656 196.845 217.262 196.281 225.827L196.093 228.637C195.728 234.259 190.056 237.932 184.782 235.974L183.08 235.343C174.942 232.322 165.887 236.306 162.604 244.339L161.741 246.453C159.596 251.709 152.974 253.369 148.595 249.761L147.235 248.644C140.502 243.078 130.574 243.908 124.847 250.503L123.63 251.908C119.904 256.202 113.083 255.648 110.109 250.802L109.036 249.064C104.481 241.639 94.8401 239.194 87.2998 243.543L85.7851 244.417C80.8872 247.25 74.6515 244.527 73.3911 239.017L72.8162 236.527C70.8813 228.117 62.6555 222.728 54.1754 224.322L52.2295 224.687C46.7346 225.716 41.7704 221.19 42.3011 215.613L42.5885 212.559C43.3956 204.083 37.4695 196.447 29.0558 195.131L26.6345 194.754C21.1616 193.902 17.9996 188.082 20.244 183.025L21.6039 179.949C25.0203 172.258 21.9245 163.229 14.5169 159.245L11.8965 157.84C7.05394 155.239 5.97043 148.766 9.69637 144.716L11.9518 142.27C17.6237 136.107 17.6237 126.613 11.9518 120.449L9.69637 118.003C5.97043 113.965 7.05394 107.48 11.8965 104.88L14.5169 103.474C21.9245 99.4907 25.0203 90.4612 21.6039 82.7706L20.244 79.6944C17.9996 74.6264 21.1727 68.8169 26.6345 67.9649L29.0558 67.5886C37.4585 66.2829 43.3956 58.6366 42.5885 50.1603L42.3011 47.1062C41.7704 41.5292 46.7236 37.0033 52.2295 38.0324L54.1754 38.3976C62.6555 39.9911 70.8703 34.6021 72.8162 26.1923L73.3911 23.7025C74.6625 18.1918 80.8982 15.4697 85.7851 18.3025L87.2998 19.1767C94.8401 23.5365 104.481 21.091 109.036 13.655L110.109 11.9177C113.083 7.07093 119.904 6.50658 123.63 10.8111L124.847 12.2164C130.563 18.8115 140.502 19.6414 147.235 14.0754L148.595 12.9578C152.962 9.33937 159.585 11.0103 161.741 16.2664L162.604 18.38C165.887 26.4136 174.942 30.3972 183.08 27.3763L184.782 26.7455C190.056 24.7869 195.728 28.4607 196.093 34.082L196.281 36.8927C196.845 45.4464 204.009 52.0636 212.577 51.9308L214.778 51.8976C220.339 51.8091 224.452 57.0542 223.048 62.4431L222.23 65.5858C220.085 73.7743 224.651 82.2173 232.667 84.9174L235.254 85.7915C240.472 87.551 242.628 93.7698 239.61 98.3842L237.752 101.217C233.153 108.233 234.712 117.605 241.335 122.751L243.855 124.709C248.189 128.084 248.189 134.635 243.855 138.01Z" fill="#C195F4" stroke="black" stroke-width="2" stroke-miterlimit="10"/>
<path d="M33.2349 86.3448L37.2704 79.9821L45.0871 88.3919L41.0295 94.7989L33.2349 86.3558V86.3448Z" fill="black"/>
<path d="M42.5884 72.9554L48.227 67.1239L57.6248 71.8599L52.1852 63.0296L57.271 57.7734L67.5864 74.8144L61.9478 80.646L52.4505 75.6886L57.9344 84.7956L52.8485 90.0518L42.5994 72.9444L42.5884 72.9554Z" fill="black"/>
<path d="M64.9661 52.982L71.2018 48.7439L77.8576 67.5111L71.5556 71.7935L64.9771 52.982H64.9661Z" fill="black"/>
<path d="M78.9521 43.7976L85.3758 41.1197L85.6411 44.0631C86.3487 42.0935 88.1177 40.5 90.8044 39.3824C92.8387 38.5414 95.4148 38.1763 97.0954 38.5746L97.6813 44.1074C94.8952 44.1738 93.4358 44.4504 91.7663 45.1365C88.1067 46.6636 86.6141 48.8103 87.576 51.2336C88.361 53.2476 91.6999 53.5796 95.4812 51.9972C96.7416 51.4771 98.6432 50.3041 100.224 49.0648L100.832 55.6931C99.7488 56.4234 98.2894 57.2755 97.2723 57.696C93.7785 59.1566 90.2295 59.2451 87.775 58.0279L88.2283 61.5136L81.7272 64.2247L78.9521 43.7976Z" fill="black"/>
<path d="M105.985 33.1746C106.438 25.6279 110.772 20.1947 117.384 18.9C119.728 18.4906 122.447 18.6344 123.874 19.2541L123.321 23.5365C122.005 23.4812 120.513 23.6361 119.484 23.8795C115.581 24.8201 113.58 27.9074 113.226 33.6836L111.977 53.9669L104.625 55.4054L105.985 33.1636V33.1746Z" fill="black"/>
<path d="M136.069 32.7542L143.366 33.739L142.47 35.7529C143.83 34.8677 145.654 34.5357 147.622 34.8013C151.768 35.3546 154.013 38.5083 153.416 42.9677C153.283 43.9747 152.94 45.1697 152.454 46.4865C151.392 49.0538 150.198 52.0525 149.192 54.5423L141.818 53.5464C143.133 50.3816 144.482 47.2722 145.676 44.0079C145.864 43.5874 145.975 43.0673 146.03 42.7242C146.251 41.1087 145.378 40.0132 143.753 39.7919C142.747 39.6591 141.696 39.9136 140.635 40.5333L135.527 52.7054L128.23 51.7206L136.069 32.7542Z" fill="black"/>
<path d="M164.527 39.3271L171.636 41.8279L160.514 58.3378L153.327 55.8148L164.527 39.3271Z" fill="black"/>
<path d="M170.929 52.8824C172.875 49.6291 176.214 47.4713 181.122 46.1435C184.473 45.1697 188.221 45.0037 189.625 44.9705L196.314 48.9763C192.809 49.5959 187.657 50.0607 182.427 52.2738C179.696 53.4136 178.17 54.498 177.352 55.8591C176.291 57.6406 176.899 59.6988 178.756 60.8054C180.835 62.0447 182.947 61.6132 184.119 59.6546C184.893 58.371 184.627 56.6669 183.444 54.9406L188.033 53.1148C191.062 56.1136 191.759 60.2742 189.768 63.605C186.894 68.4074 180.901 69.3369 175.075 65.8513C170.011 62.8193 168.253 57.3419 170.918 52.8824H170.929Z" fill="black"/>
<path d="M202.074 61.1816L207.657 66.2497L198.049 72.5239L192.433 67.4337L202.074 61.1927V61.1816Z" fill="black"/>
<path d="M199.774 77.3374L201.599 79.7718C204.13 83.1579 208.962 84.6075 211.428 82.7596C212.876 81.6751 212.765 79.8382 211.074 77.5698C210.2 76.4079 208.586 74.7591 207.525 74.0067L212.577 72.1476C214.114 73.2542 215.872 75.08 217.298 76.9833C220.494 81.2546 220.427 85.4374 217.044 87.9714C214.402 89.9522 211.14 90.085 208.022 88.3477L211.372 92.8292L206.132 94.8764L194.534 79.3845L199.763 77.3374H199.774Z" fill="black"/>
<path d="M165.765 101.195L177.706 168.684L179.74 168.308L167.523 100.708C167.523 100.708 168.563 100.409 168.264 98.7715C167.91 96.7907 165.765 97.2776 165.765 97.2776C165.765 97.2776 164.229 97.3993 164.173 99.3579C164.14 100.63 165.765 101.195 165.765 101.195Z" fill="black" stroke="black" stroke-width="0.75" stroke-linejoin="round"/>
<path d="M218.216 102.08C218.216 102.08 219.255 106.949 211.195 112.902C211.195 112.902 204.672 117.727 197.187 119.353C189.702 120.98 180.205 127.409 180.205 127.409C180.205 127.409 174.809 131.415 173.615 134.049L167.778 102.069C167.778 102.069 175.495 99.192 187.225 102.069C198.956 104.946 205.546 105.743 205.546 105.743C205.546 105.743 214.512 107.381 218.216 102.069V102.08Z" fill="#F4EDD0" stroke="black" stroke-width="0.75" stroke-linecap="round" stroke-linejoin="round"/>
<path d="M180.183 109.793L194.102 108.055L188.862 118.557L180.183 109.793Z" stroke="black" stroke-width="0.75" stroke-linejoin="round"/>
<path d="M180.89 117.572L195.705 114.573L186.496 106.008L180.89 117.572Z" stroke="black" stroke-width="0.75" stroke-linejoin="round"/>
<path d="M121.419 69.1268C119.639 69.3591 117.505 69.0161 115.681 69.1821C117.505 75.0247 120.358 80.801 120.778 87.0198C120.977 89.9633 120.888 90.2952 118.876 92.287C116.554 94.5887 113.525 96.4366 111.402 98.9375C100.103 112.249 105.797 133.772 104.006 149.828C102.137 166.493 93.8007 182.77 81.2188 193.759C73.1478 200.807 63.0203 206.55 52.2073 207.701C52.3068 209.295 51.356 210.954 53.1913 211.762C64.6787 216.83 81.6168 216.509 93.2037 211.995C106.969 206.628 116.455 195.009 121.673 181.443L122.403 181.011C128.141 211.563 163.223 220.526 190.045 214.684C191.493 214.374 195.197 213.5 196.292 212.769C197.088 212.238 196.822 209.914 196.756 209.018L196.491 208.631C193.693 208.476 191.46 209.427 188.608 208.719C179.376 206.451 166.749 197.156 160.37 190.151C139.982 167.776 144.836 143.919 141.751 116.333C140.701 106.905 138.877 94.4559 129.015 90.4833L128.937 80.3473L127.799 66.4268C126.328 67.6661 123.332 68.8723 121.43 69.1157L121.419 69.1268Z" fill="black"/>
<path d="M121.419 69.1267C123.31 68.8833 126.317 67.6661 127.787 66.4378L128.926 80.3583L129.004 90.4944C138.866 94.4669 140.69 106.927 141.74 116.344C144.825 143.93 139.982 167.788 160.359 190.162C166.738 197.167 179.365 206.462 188.596 208.73C191.449 209.427 193.682 208.487 196.48 208.642L196.745 209.029C196.811 209.925 197.077 212.249 196.281 212.78C195.186 213.511 191.482 214.374 190.034 214.695C163.211 220.537 128.141 211.574 122.392 181.022L121.662 181.454C116.444 195.02 106.969 206.639 93.1926 212.006C81.6168 216.52 64.6676 216.841 53.1802 211.773C51.3449 210.965 52.2957 209.306 52.1962 207.712C63.0092 206.55 73.1367 200.818 81.2077 193.77C93.7896 182.781 102.126 166.504 103.994 149.839C105.797 133.772 100.092 112.26 111.391 98.9485C113.503 96.4587 116.543 94.5997 118.865 92.2981C120.877 90.3063 120.966 89.9743 120.767 87.0309C120.347 80.812 117.494 75.0358 115.67 69.1931C117.494 69.0161 119.628 69.3702 121.408 69.1378L121.419 69.1267ZM164.925 202.589C160.79 199.745 156.611 196.912 153.183 193.194C137.285 175.987 137.904 151.665 136.323 129.844C135.792 122.518 135.04 115.215 133.691 108L132.442 103.806C137.097 128.803 131.801 155.748 142.57 179.506C147.036 189.354 155.008 198.118 164.925 202.589ZM110.849 133.163C108.87 134.015 108.55 139.482 109.246 141.64C109.611 142.768 110.385 144.76 111.966 144.992C115.703 145.114 115.603 135.044 112.497 133.197C111.944 132.865 111.446 132.909 110.838 133.163H110.849ZM125.875 132.964C123.829 132.82 123.089 137.036 123.332 139.482C123.453 140.699 124.139 145.856 126.814 144.86C130.341 143.532 129.877 135.454 126.693 133.285C126.372 133.064 126.306 132.997 125.875 132.964Z" fill="#F7DE63" stroke="black" stroke-width="0.75" stroke-miterlimit="10"/>
<path d="M164.925 202.589C155.008 198.129 147.025 189.354 142.57 179.506C131.801 155.748 137.097 128.815 132.442 103.806L133.691 108C135.051 115.215 135.792 122.529 136.323 129.844C137.904 151.665 137.285 175.987 153.184 193.194C156.611 196.901 160.79 199.745 164.925 202.589Z" fill="black"/>
<path d="M148.374 169.757C148.374 169.757 159.895 171.893 169.458 168.54C173.107 167.256 176.722 165.265 178.867 160.396C180.249 157.264 180.691 151.455 176.07 144.948C172.068 139.316 167.645 136.848 167.645 135.653C167.645 134.458 168.706 134.425 169.624 134.558C170.365 134.668 171.061 134.945 171.681 135.321C180.415 140.644 188.762 146.254 190.708 156.113C192.621 165.763 188.563 174.128 185.114 178.588C179.663 185.636 161.785 191.224 161.785 191.224C161.785 191.224 152.432 181.741 148.363 169.746L148.374 169.757Z" fill="#F7DE63" stroke="black" stroke-miterlimit="10"/>
<path d="M114.443 156.921C114.443 156.921 114.763 162.166 118.688 162.399C120.944 162.531 123.265 161.613 123.586 156.921" stroke="black" stroke-linecap="round" stroke-linejoin="round"/>
</g>
<defs>
<clipPath id="clip0_1293_546">
<rect width="255" height="262" fill="white"/>
</clipPath>
</defs>
</svg>
