<svg width="157" height="201" viewBox="0 0 157 201" fill="none" xmlns="http://www.w3.org/2000/svg">
<g clip-path="url(#clip0_875_3549)">
<path d="M93.463 188.737C127.741 182.81 148.67 138.341 140.209 89.4132C131.749 40.4855 97.1029 5.62666 62.8252 11.5538C28.5476 17.481 7.61851 61.9496 16.0789 110.877C24.5393 159.805 59.1853 194.664 93.463 188.737Z" fill="white" stroke="#231F20" stroke-miterlimit="10"/>
<path d="M93.7609 184.018C125.579 178.178 144.521 136.114 136.069 90.0658C127.618 44.0175 94.9725 11.422 63.1544 17.262C31.3363 23.1019 12.3941 65.1657 20.8458 111.214C29.2976 157.262 61.9428 189.858 93.7609 184.018Z" fill="#FAAF40" stroke="black" stroke-width="2" stroke-linecap="round" stroke-linejoin="round"/>
<path d="M22.9535 80.5143L23.2541 77.5061L30.2692 79.1758L29.9717 82.1634L22.9535 80.5143Z" fill="black"/>
<path d="M31.3215 67.316C31.3281 67.5084 31.311 67.7182 31.2626 67.9401L36.3483 65.8996L37.7514 68.5731L30.1141 71.255L36.2919 73.5233L35.65 76.4102L24.0021 72.145L24.6439 69.2581L27.722 70.3874C28.1181 69.745 28.9519 68.1995 29.2025 67.6424L29.1644 67.4221C28.5507 67.1145 27.8702 66.8451 26.5367 66.3883L25.3764 65.9684L26.0098 63.1096C26.2804 63.1696 26.5414 63.2512 26.8024 63.3329C28.5617 63.9362 29.5012 64.3142 30.0935 64.6523C31.1122 65.2568 31.4169 65.9382 31.3204 67.3095L31.3215 67.316Z" fill="black"/>
<path d="M35.4195 56.0907C33.9497 55.2705 33.1007 54.8368 32.6088 54.6549L32.1238 54.8989L30.2173 59.4259L27.7279 58.3817C28.0129 57.2513 28.5304 55.7672 29.2209 54.1263C30.3143 51.535 31.5206 50.9861 33.918 51.9996C35.2564 52.5622 38.9326 54.6425 41.767 56.4078L40.6352 59.0859C38.9983 58.1478 37.5911 57.3034 35.4184 56.0843L35.4195 56.0907Z" fill="black"/>
<path d="M45.2711 50.6237L43.9817 51.7341L33.5146 45.383L35.2134 43.1674L38.3189 45.0727C38.7946 44.7369 39.1723 44.4513 39.571 44.0554L39.5687 43.849C38.9516 43.1749 38.2296 42.4723 37.1917 41.5641L36.7417 41.1614L38.3698 39.0382L38.9197 39.5169C39.8349 40.333 40.3132 40.7841 40.6908 41.1926C42.0199 42.7044 42.1992 43.7411 41.3427 45.117C41.044 45.5891 40.7394 45.9888 40.4456 46.3732L43.2189 48.0557L43.4548 47.9149C45.2443 44.2555 44.1425 41.0095 39.5421 37.5209L41.2678 35.2673C47.1907 39.5348 48.5817 44.8396 45.2852 50.6279L45.2711 50.6237Z" fill="black"/>
<path d="M55.6942 32.4457C55.5642 32.5816 55.3996 32.7102 55.2003 32.8314L60.19 35.0983L59.2237 37.9613L52.0105 34.2972L54.6351 40.3295L52.1105 41.8605L47.1423 30.4945L49.6669 28.9636L50.9737 31.9674C51.7143 31.8126 53.4011 31.3408 53.9804 31.1405L54.1177 30.97C53.904 30.3129 53.6318 29.626 53.0435 28.3464L52.548 27.2176L55.0543 25.6965C55.1952 25.9324 55.3177 26.1781 55.4403 26.4238C56.2192 28.1109 56.6022 29.0523 56.7564 29.7129C57.0229 30.868 56.7428 31.5637 55.6801 32.4415L55.6942 32.4457Z" fill="black"/>
<path d="M69.9011 22.6822L72.9245 22.6465L72.0469 29.8049L69.0506 29.8426L69.9087 22.6875L69.9011 22.6822Z" fill="black"/>
<path d="M76.9157 34.9621L79.5162 21.7136L82.161 22.5374L81.8519 24.1457C83.0644 24.4432 84.3541 24.8007 85.5455 25.1686C87.8589 25.8897 88.5544 27.2108 87.8515 29.4744C86.5928 33.5023 83.0372 35.9789 78.6152 35.876L76.9211 34.9545L76.9157 34.9621ZM84.8925 29.2653C85.1768 28.362 84.9024 27.8556 83.9709 27.5629L81.3261 26.739L80.0961 32.824L80.4099 33.0567C82.5213 32.7249 84.2614 31.2496 84.8807 29.274L84.8925 29.2653Z" fill="black"/>
<path d="M94.5357 29.4996L97.1009 31.098L92.496 36.6521L89.9524 35.0634L94.5357 29.4996Z" fill="black"/>
<path d="M94.0521 43.8769L102.304 32.9409L104.369 34.8861L97.9554 43.2954L98.0397 43.4743C99.8649 44.2664 102.142 43.7326 103.563 42.2257C104.505 41.2287 104.545 40.6144 103.675 39.7906L103.086 39.2385L104.475 37.3902C105.204 37.6311 105.91 38.0895 106.429 38.5804C107.943 40.0068 107.955 41.7731 106.325 43.4964C103.292 46.7168 99.0998 47.3282 95.1693 45.2052L94.0445 43.8715L94.0521 43.8769Z" fill="black"/>
<path d="M109.826 52.8206C111.291 51.9933 112.105 51.4922 112.516 51.1676L112.556 50.6268L109.678 46.6402L111.867 45.0605C112.685 45.8933 113.683 47.1088 114.726 48.55C116.375 50.8339 116.215 52.1429 114.103 53.6691C112.929 54.5194 109.241 56.5785 106.258 58.0819L104.556 55.727C106.214 54.8197 107.664 54.0552 109.828 52.8335L109.826 52.8206Z" fill="black"/>
<path d="M108.479 60.4337L111.129 59.7819C111.673 62.0769 112.347 64.5094 112.517 64.8337L112.809 65.0168C114.009 64.7825 116.91 63.6871 118.434 62.8963C119.01 62.5966 119.325 62.4242 119.379 62.3792L119.35 62.0573L117.072 57.68L119.618 56.3522L123.217 63.2705C122.38 63.989 121.881 64.3823 121.361 64.7325C120.1 65.3909 118.887 65.9409 117.818 66.3193C116.196 66.9334 114.803 67.2878 113.948 67.3222C111.944 67.4284 110.737 66.6228 109.588 64.4126C109.109 63.4945 108.662 61.8768 108.474 60.4413L108.479 60.4337Z" fill="black"/>
<path d="M96.6314 112.397L108.942 99.1907C103.884 98.9976 100.216 101.213 100.216 101.213L90.5876 112.06L99.9638 101.297C97.8648 99.925 93.8912 102.107 93.8912 102.107L88.0493 107.067L68.2737 121.404C68.2737 121.404 59.8054 118.084 53.8747 118.402C47.944 118.72 51.0777 124.377 51.0777 124.377L61.0158 130.486C65.7683 134.816 66.9613 144.339 66.9613 144.339L71.3824 182.025L73.0277 182.394C91.3922 187.76 101.294 182.778 112.999 174.829C112.999 174.829 102.994 134.565 101.238 129.697L110.247 116.542C110.247 116.542 116.781 109.68 113.693 105.483C110.599 101.286 100.563 113.639 100.563 113.639" fill="#EAB7E6"/>
<path d="M96.6314 112.397L108.942 99.1907C103.884 98.9976 100.216 101.213 100.216 101.213L90.5876 112.06L99.9638 101.297C97.8648 99.925 93.8912 102.107 93.8912 102.107L88.0493 107.067L68.2737 121.404C68.2737 121.404 59.8054 118.084 53.8747 118.402C47.944 118.72 51.0777 124.377 51.0777 124.377L61.0158 130.486C65.7683 134.816 66.9613 144.339 66.9613 144.339L71.3824 182.025L73.0277 182.394C91.3922 187.76 101.294 182.778 112.999 174.829C112.999 174.829 102.994 134.565 101.238 129.697L110.247 116.542C110.247 116.542 116.781 109.68 113.693 105.483C110.599 101.286 100.563 113.639 100.563 113.639" stroke="black" stroke-miterlimit="10"/>
<path d="M86.4952 112.474C86.4952 112.474 95.2355 110.383 102.075 114.432L86.4952 112.474Z" fill="#EAB7E6"/>
<path d="M86.4952 112.474C86.4952 112.474 95.2355 110.383 102.075 114.432" stroke="black" stroke-miterlimit="10"/>
<path d="M77.2704 121.296C77.2704 121.296 83.541 118.39 87.5308 125.641L77.2704 121.296Z" fill="#EAB7E6"/>
<path d="M77.2704 121.296C77.2704 121.296 83.541 118.39 87.5308 125.641" stroke="black" stroke-miterlimit="10"/>
<path d="M80.8387 136.761C80.8387 136.761 82.2223 135.848 84.2015 136.18L80.8387 136.761Z" fill="#EAB7E6"/>
<path d="M80.8387 136.761C80.8387 136.761 82.2223 135.848 84.2015 136.18" stroke="black" stroke-miterlimit="10"/>
<path d="M108.935 99.1918C108.935 99.1918 115.126 99.0288 113.681 105.491C113.681 105.491 111.62 100.749 100.551 113.647L96.625 112.398L108.935 99.1918Z" fill="#EAB7E6" stroke="black" stroke-miterlimit="10"/>
<path d="M94.0057 63.8345L51.2035 75.874C49.2004 76.4374 48.0333 78.518 48.5967 80.5211L55.1613 103.859C55.7248 105.862 57.8054 107.029 59.8085 106.466L102.611 94.4264C104.614 93.863 105.781 91.7824 105.217 89.7793L98.6529 66.4412C98.0895 64.4381 96.0088 63.271 94.0057 63.8345Z" fill="#7DC1EF" stroke="black" stroke-miterlimit="10"/>
<path d="M99.4855 69.4045L49.4293 83.4844L51.2436 89.9345L101.3 75.8545L99.4855 69.4045Z" fill="black"/>
<path d="M52.7909 80.3729L65.7266 76.6881" stroke="black" stroke-miterlimit="10"/>
<path d="M52.159 78.3401L71.4618 72.847" stroke="black" stroke-miterlimit="10"/>
<path d="M76.9938 97.1211C76.9938 97.1211 81.2863 101.53 83.7854 95.2594" stroke="black" stroke-linecap="round" stroke-linejoin="round"/>
<path d="M96.4571 92.0541C95.4552 88.5371 92.7268 86.2263 90.3514 86.8839C87.9761 87.5415 86.8605 90.9308 87.8624 94.4478C88.2413 95.7903 88.8765 96.955 89.6516 97.8486C91.99 97.1707 94.3632 96.6936 96.6994 96.0027C96.9138 94.8112 96.8515 93.4473 96.4571 92.0541Z" stroke="black" stroke-linecap="round" stroke-linejoin="round"/>
<path d="M96.7523 93.1441C95.8839 90.0511 93.2559 88.0899 90.8817 88.754C88.5086 89.4246 87.2861 92.4654 88.161 95.5572C88.4428 96.5695 88.9228 97.4541 89.5076 98.1737C91.9766 97.4398 94.4793 96.9403 96.946 96.1935C97.0948 95.2402 97.0473 94.1941 96.7523 93.1441Z" fill="black"/>
<path d="M73.6318 98.1696C72.6299 94.6526 69.9014 92.3418 67.5261 92.9994C65.1519 93.6635 64.0352 97.0463 65.0371 100.563C65.416 101.906 66.0512 103.07 66.8263 103.964C69.1647 103.286 71.5379 102.809 73.8741 102.118C74.0885 100.927 74.0261 99.5628 73.6318 98.1696Z" stroke="black" stroke-linecap="round" stroke-linejoin="round"/>
<path d="M73.9205 99.2608C73.0521 96.1678 70.4241 94.2066 68.0499 94.8707C65.6768 95.5413 64.4543 98.5821 65.3292 101.674C65.611 102.686 66.091 103.571 66.6758 104.29C69.1448 103.557 71.6475 103.057 74.1142 102.31C74.263 101.357 74.2156 100.311 73.9205 99.2608Z" fill="black"/>
</g>
<defs>
<clipPath id="clip0_875_3549">
<rect width="127.281" height="181.121" fill="white" transform="translate(0 21.75) rotate(-9.81035)"/>
</clipPath>
</defs>
</svg>
