<svg width="145" height="155" viewBox="0 0 145 155" fill="none" xmlns="http://www.w3.org/2000/svg">
<g clip-path="url(#clip0_1881_441)">
<path d="M86.8503 153.238C121.064 146.36 142.068 107.296 133.764 65.9869C125.46 24.6775 90.9923 -3.23475 56.7783 3.64306C22.5643 10.5209 1.56021 49.5843 9.86436 90.8937C18.1685 132.203 52.6363 160.115 86.8503 153.238Z" fill="white" stroke="#231F20" stroke-width="2" stroke-miterlimit="10"/>
<path d="M87.1406 148.982C118.873 142.184 137.807 104.999 129.43 65.9265C121.053 26.8545 88.5377 0.691318 56.8049 7.48946C25.0721 14.2876 6.1384 51.4727 14.5154 90.5447C22.8923 129.617 55.4077 155.78 87.1406 148.982Z" fill="#FAAF40" stroke="black" stroke-width="3" stroke-linecap="round" stroke-linejoin="round"/>
<path d="M87.9199 81.6844L99.3126 68.8557C94.4927 68.8089 91.0562 71.0043 91.0562 71.0043L82.1581 81.5285L90.818 71.0902C88.7859 69.8481 85.0571 72.0198 85.0571 72.0198L79.6184 76.8714L61.1471 90.9707C61.1471 90.9707 53.0036 88.0558 47.3657 88.5163C41.7278 88.9767 44.8507 94.2467 44.8507 94.2467L54.4623 99.7613C59.0935 103.731 60.4643 112.712 60.4643 112.712L65.6041 148.259L67.1796 148.564C84.7944 153.149 94.0977 148.168 105.043 140.33C105.043 140.33 94.5243 102.494 92.7325 97.9341L100.984 85.2417C100.984 85.2417 107.035 78.572 103.991 74.6827C100.942 70.7946 91.6933 82.7542 91.6933 82.7542" fill="#EAB7E6"/>
<path d="M87.9199 81.6844L99.3126 68.8557C94.4927 68.8089 91.0562 71.0043 91.0562 71.0043L82.1581 81.5285L90.818 71.0902C88.7859 69.8481 85.0571 72.0198 85.0571 72.0198L79.6184 76.8714L61.1471 90.9707C61.1471 90.9707 53.0036 88.0558 47.3657 88.5163C41.7278 88.9767 44.8507 94.2467 44.8507 94.2467L54.4623 99.7613C59.0935 103.731 60.4643 112.712 60.4643 112.712L65.6041 148.259L67.1796 148.564C84.7944 153.149 94.0977 148.168 105.043 140.33C105.043 140.33 94.5243 102.494 92.7325 97.9341L100.984 85.2417C100.984 85.2417 107.035 78.572 103.991 74.6827C100.942 70.7946 91.6933 82.7542 91.6933 82.7542" stroke="black" stroke-miterlimit="10"/>
<path d="M78.2726 82.0302C78.2726 82.0302 86.5413 79.8156 93.1522 83.4647L78.2726 82.0302Z" fill="#EAB7E6"/>
<path d="M78.2726 82.0302C78.2726 82.0302 86.5413 79.8156 93.1522 83.4647" stroke="black" stroke-miterlimit="10"/>
<path d="M69.709 90.6272C69.709 90.6272 75.6065 87.7085 79.5838 94.4637L69.709 90.6272Z" fill="#EAB7E6"/>
<path d="M69.709 90.6272C69.709 90.6272 75.6065 87.7085 79.5838 94.4637" stroke="black" stroke-miterlimit="10"/>
<path d="M73.4881 105.168C73.4881 105.168 74.7824 104.266 76.6749 104.527L73.4881 105.168Z" fill="#EAB7E6"/>
<path d="M73.4881 105.168C73.4881 105.168 74.7824 104.266 76.6749 104.527" stroke="black" stroke-miterlimit="10"/>
<path d="M99.3066 68.857C99.3066 68.857 105.196 68.5364 103.98 74.6913C103.98 74.6913 101.901 70.259 91.6824 82.7628L87.9138 81.6857L99.3066 68.857Z" fill="#EAB7E6" stroke="black" stroke-miterlimit="10"/>
<path d="M84.2213 35.7983L43.7729 48.3421C41.8799 48.9291 40.8203 50.9296 41.4061 52.8102L48.2319 74.721C48.8178 76.6016 50.8273 77.6502 52.7202 77.0632L93.1687 64.5194C95.0617 63.9323 96.1213 61.9319 95.5354 60.0513L88.7096 38.1405C88.1238 36.2599 86.1143 35.2112 84.2213 35.7983Z" fill="#7DC1EF" stroke="black" stroke-miterlimit="10"/>
<path d="M89.5742 40.9165L42.2707 55.5862L44.1572 61.6418L91.4607 46.9721L89.5742 40.9165Z" fill="black"/>
<path d="M45.3945 52.5549L57.6177 48.7199" stroke="black" stroke-miterlimit="10"/>
<path d="M44.7429 50.6483L62.9826 44.9307" stroke="black" stroke-miterlimit="10"/>
<path d="M68.8498 67.7614C68.8498 67.7614 73.0452 71.82 75.2691 65.817" stroke="black" stroke-linecap="round" stroke-linejoin="round"/>
<path d="M87.2514 62.4368C86.2108 59.1353 83.5563 57.0215 81.3113 57.7077C79.0664 58.3939 78.0881 61.6315 79.1287 64.933C79.5226 66.1934 80.1561 67.2786 80.916 68.1035C83.1254 67.3991 85.3727 66.8838 87.5796 66.1672C87.7543 65.0338 87.6612 63.7447 87.2514 62.4368Z" stroke="black" stroke-linecap="round" stroke-linejoin="round"/>
<path d="M87.5606 63.4667C86.6575 60.5629 84.1073 58.7774 81.8636 59.4697C79.6211 60.168 78.5324 63.0787 79.4417 65.9812C79.735 66.9317 80.2137 67.756 80.7883 68.4213C83.1204 67.6605 85.4906 67.1205 87.8203 66.3475C87.9384 65.4413 87.8674 64.4525 87.5606 63.4667Z" fill="black"/>
<path d="M65.6737 68.8377C64.6331 65.5361 61.9787 63.4224 59.7337 64.1086C57.49 64.8009 56.5105 68.0324 57.5511 71.3339C57.945 72.5943 58.5784 73.6795 59.3384 74.5044C61.5477 73.8 63.7951 73.2847 66.002 72.5681C66.1766 71.4347 66.0836 70.1456 65.6737 68.8377Z" stroke="black" stroke-linecap="round" stroke-linejoin="round"/>
<path d="M65.9757 69.8627C65.0726 66.9589 62.5224 65.1734 60.2787 65.8656C58.0362 66.564 56.9475 69.4746 57.8568 72.3772C58.1501 73.3277 58.6288 74.152 59.2034 74.8173C61.5355 74.0565 63.9057 73.5165 66.2354 72.7435C66.3535 71.8373 66.2825 70.8485 65.9757 69.8627Z" fill="black"/>
<path d="M16.432 67.41L16.9297 62.8942L22.5517 65.2787L22.0529 69.8203L16.432 67.41Z" fill="black"/>
<path d="M17.3465 58.548L18.4281 54.49L19.7261 55.3857C19.1613 54.3554 19.1057 52.9351 19.5572 51.2404C19.8998 49.9573 20.6268 48.5842 21.3643 47.8992L23.83 49.5507C22.9127 50.9301 22.5254 51.7365 22.2452 52.7897C21.6297 55.0989 22.0035 56.5766 23.3194 56.9575C24.4117 57.2747 25.6753 55.7746 26.3128 53.3843C26.5232 52.5879 26.6901 51.2571 26.7233 50.0554L29.6463 52.0751C29.5796 52.8554 29.4369 53.8618 29.2656 54.5033C28.6746 56.7117 27.5132 58.4661 26.1801 59.239L27.7607 60.2376L26.6644 64.3497L17.3489 58.5603L17.3465 58.548Z" fill="black"/>
<path d="M29.1792 42.315C28.9456 42.1064 28.7833 41.9664 28.5769 41.861C27.5015 41.3103 26.393 41.9932 25.508 43.724C25.0716 44.5722 24.6969 45.6636 24.4461 46.7045L22.2933 44.7025C22.6052 43.4896 23.2544 41.7615 23.7864 40.7215C25.434 37.5083 27.645 36.3992 30.0022 37.606C30.5577 37.8906 31.1539 38.3139 31.7846 38.9092L34.8634 41.8625L32.8396 45.8096L29.1805 42.3212L29.1792 42.315Z" fill="black"/>
<path d="M32.351 36.6099C29.763 34.3184 30.1213 30.4441 33.256 26.9063C35.5466 24.3179 38.3156 23.5056 39.9483 24.9539C41.4249 26.2611 41.1485 28.5725 39.2787 30.6801C38.4873 31.5741 37.6761 32.2101 36.8866 32.5413L36.0225 30.7851C36.306 30.5748 36.5662 30.3435 36.7957 30.1185C37.587 29.2564 37.7473 28.6555 37.3329 28.2148C36.9886 27.8367 36.1451 28.1532 35.4212 28.9697C33.9796 30.6015 33.8072 32.5085 34.9887 33.5555C36.1382 34.5705 37.8854 33.887 39.7699 31.7572C40.457 30.9801 41.2653 29.8526 41.9078 28.8224L43.2933 31.0745C43.0078 31.8156 42.1788 33.0303 41.2267 34.11C37.989 37.7707 34.714 38.7038 32.351 36.6099Z" fill="black"/>
<path d="M41.4805 19.4506L45.1252 17.3696L45.3995 18.9248C45.7349 17.7966 46.703 16.7648 48.2264 15.8898C49.3779 15.2302 50.8661 14.7841 51.871 14.8249L52.4316 17.7412C50.8081 18.0548 49.9597 18.3468 49.0144 18.8883C46.9398 20.0722 46.155 21.3802 46.806 22.5849C47.3463 23.5882 49.3078 23.4304 51.4499 22.2009C52.1669 21.7948 53.2285 20.9743 54.1047 20.1528L54.7249 23.6514C54.1236 24.1557 53.3049 24.7548 52.7267 25.0883C50.7442 26.2218 48.6785 26.6242 47.1918 26.2202L47.5917 28.0505L43.9016 30.1598L41.4706 19.4654L41.4805 19.4506Z" fill="black"/>
<path d="M63.5297 11.9636L68.0607 11.6535L66.7157 17.6113L62.1541 17.9276L63.531 11.9698L63.5297 11.9636Z" fill="black"/>
<path d="M69.2788 17.1727C70.0182 13.6052 73.5231 11.7504 77.8171 12.6446C81.3493 13.4043 83.2851 15.7246 82.7131 18.4725C81.9737 22.0399 78.4344 23.9145 74.0667 23.0032C70.6869 22.3023 68.7154 19.8996 69.2788 17.1727ZM78.4759 17.8289C78.7033 16.7352 78.1164 15.786 77.0806 15.5277C75.3543 15.0759 73.5412 16.0986 73.2075 17.7121C72.968 18.8722 73.6802 19.8729 74.9543 20.1408C76.5674 20.4747 78.1374 19.4498 78.471 17.8363L78.4759 17.8289Z" fill="black"/>
<path d="M87.9719 16.4759L92.0631 18.4588L87.9332 22.9571L83.8212 20.9656L87.9719 16.4759Z" fill="black"/>
<path d="M90.5763 23.87C91.798 22.2888 93.7883 21.4478 96.6439 21.2252C98.5992 21.0366 100.765 21.3234 101.57 21.4492L105.291 24.3245C103.256 24.3055 100.281 24.0342 97.204 24.7104C95.5989 25.0522 94.6843 25.4917 94.1727 26.1569C93.503 27.02 93.7941 28.214 94.8292 29.0092C95.986 29.9014 97.2143 29.8781 97.949 28.9252C98.4299 28.2982 98.3331 27.3399 97.7104 26.2765L100.402 25.7481C102.053 27.6977 102.321 30.0466 101.074 31.6647C99.2748 33.9947 95.7924 33.8959 92.5556 31.3962C89.7355 29.2216 88.8933 26.0487 90.5714 23.8774L90.5763 23.87Z" fill="black"/>
<path d="M105.891 37.1954C106.171 37.0624 106.369 36.9652 106.543 36.8151C107.459 36.0304 107.251 34.743 105.99 33.271C105.372 32.5454 104.509 31.7795 103.636 31.1562L106.309 29.9287C107.316 30.6785 108.662 31.9415 109.422 32.8304C111.764 35.5804 111.947 38.0486 109.934 39.7632C109.46 40.1716 108.842 40.558 108.051 40.915L104.148 42.6326L101.271 39.2552L105.893 37.2015L105.891 37.1954Z" fill="black"/>
<path d="M105.79 43.555L108.51 43.0082C108.822 44.1788 109.371 45.6724 109.79 46.3871C110.822 48.1541 112.244 48.648 113.842 47.7963C115.042 47.1845 115.13 45.812 114.063 44.0007C113.742 43.4518 113.074 42.5444 112.458 41.8631L115.23 41.2229C115.891 41.9398 116.672 42.9969 117.118 43.7509C119.091 47.1181 118.808 50.0315 116.385 51.4516C113.058 53.3984 109.864 52.4431 107.736 48.8192C106.822 47.2585 106.093 45.2835 105.784 43.5562L105.79 43.555Z" fill="black"/>
</g>
<defs>
<clipPath id="clip0_1881_441">
<rect width="127.631" height="154.846" fill="white" transform="translate(-6 15.1537) rotate(-11.3663)"/>
</clipPath>
</defs>
</svg>
