<svg width="115" height="194" viewBox="0 0 115 194" fill="none" xmlns="http://www.w3.org/2000/svg">
<g clip-path="url(#clip0_625_427)">
<path d="M112.15 63.5C110 59.66 106.71 57.59 104.06 56.49C104.92 54.29 105.3 51.87 105.04 49.36L101.46 14.08C100.67 6.34001 94.32 0.51001 86.68 0.51001C86.17 0.51001 85.66 0.54001 85.15 0.59001L21.58 7.26001C13.43 8.12001 7.47999 15.57 8.31999 23.86L11.9 59.14C12.32 63.26 14.32 66.83 17.25 69.27C17.17 69.27 17.1 69.25 17.02 69.25C16.21 69.15 15.41 69.1 14.65 69.1C8.02999 69.1 4.54999 72.67 3.06999 74.8C-1.07001 80.73 0.879987 87.84 1.57999 89.87L2.39999 92.26L16.01 104.48C18.08 107.87 18.82 114.96 18.67 118.99L15.34 181.15L23.48 184.6C34.81 190.21 45.21 192.94 55.27 192.94C68.49 192.94 79.98 188.14 89.72 183.64L95.72 180.87L95.24 174.18C94.85 168.73 91.8 126.18 90.14 110.28L102.46 97.38C109.08 92.15 115.15 83.75 113.64 75.11C114.79 69.93 113.55 66.01 112.13 63.47L112.15 63.5Z" fill="white" stroke="black" stroke-miterlimit="10"/>
<path d="M78.78 78.53L100.65 61.93C93.12 60.33 87.05 62.7 87.05 62.7L69.81 76.46L86.65 62.76C83.86 60.16 77.34 62.4 77.34 62.4L67.3 68.32L33.95 84.68C33.95 84.68 22.12 77.51 13.15 76.45C4.18003 75.39 7.41003 84.68 7.41003 84.68L20.72 96.41C26.72 104.13 26.04 118.71 26.04 118.71L22.9 176.33L25.27 177.31C51.4 190.11 67.53 185.21 87.13 176.33C87.13 176.33 82.57 113.4 81.2 105.65L98.11 88.27C98.11 88.27 109.68 79.68 106.14 72.59C102.59 65.5 84.35 81.41 84.35 81.41" fill="#EAB7E6"/>
<path d="M78.78 78.53L100.65 61.93C93.12 60.33 87.05 62.7 87.05 62.7L69.81 76.46L86.65 62.76C83.86 60.16 77.34 62.4 77.34 62.4L67.3 68.32L33.95 84.68C33.95 84.68 22.12 77.51 13.15 76.45C4.18003 75.39 7.41003 84.68 7.41003 84.68L20.72 96.41C26.72 104.13 26.04 118.71 26.04 118.71L22.9 176.33L25.27 177.31C51.4 190.11 67.53 185.21 87.13 176.33C87.13 176.33 82.57 113.4 81.2 105.65L98.11 88.27C98.11 88.27 109.68 79.68 106.14 72.59C102.59 65.5 84.35 81.41 84.35 81.41" stroke="black" stroke-miterlimit="10"/>
<path d="M63.5701 76.0299C63.5701 76.0299 77.2101 75.1599 86.4101 82.9999L63.5701 76.0299Z" fill="#EAB7E6"/>
<path d="M63.5701 76.0299C63.5701 76.0299 77.2101 75.1599 86.4101 82.9999" stroke="black" stroke-miterlimit="10"/>
<path d="M47.4601 86.85C47.4601 86.85 57.6101 84.12 61.7101 96.02L47.4601 86.85Z" fill="#EAB7E6"/>
<path d="M47.4601 86.85C47.4601 86.85 57.6101 84.12 61.7101 96.02" stroke="black" stroke-miterlimit="10"/>
<path d="M48.8 110.96C48.8 110.96 51.1101 109.95 53.9901 110.96H48.8Z" fill="#EAB7E6"/>
<path d="M48.8 110.96C48.8 110.96 51.1101 109.95 53.9901 110.96" stroke="black" stroke-miterlimit="10"/>
<path d="M100.64 61.9399C100.64 61.9399 109.96 63.2999 106.12 72.6099C106.12 72.6099 104.26 64.9699 84.33 81.4299L78.77 78.5399L100.64 61.9399Z" fill="#EAB7E6" stroke="black" stroke-miterlimit="10"/>
<path d="M87.4403 5.09359L20.1785 12.0444C17.0307 12.3697 14.7426 15.1852 15.0679 18.3331L18.8578 55.0078C19.1831 58.1556 21.9987 60.4437 25.1465 60.1184L92.4083 53.1676C95.5561 52.8423 97.8442 50.0268 97.5189 46.8789L93.729 10.2042C93.4037 7.05641 90.5882 4.76829 87.4403 5.09359Z" fill="#7DC1EF" stroke="black" stroke-miterlimit="10"/>
<path d="M94.2088 14.8508L15.5477 22.9796L16.5952 33.1156L95.2563 24.9868L94.2088 14.8508Z" fill="black"/>
<path d="M21.38 19.1899L41.72 17.0199" stroke="black" stroke-miterlimit="10"/>
<path d="M20.9701 15.98L51.3101 12.74" stroke="black" stroke-miterlimit="10"/>
<path d="M53.3101 50.5599C53.3101 50.5599 58.6001 58.2799 63.9701 49.5299" stroke="black" stroke-linecap="round" stroke-linejoin="round"/>
<path d="M83.8001 47.9999C83.2101 42.4699 79.7201 38.2999 75.9901 38.6699C72.2601 39.0399 69.7101 43.8299 70.3001 49.3599C70.5201 51.4699 71.1701 53.3799 72.1001 54.9199C75.7801 54.5099 79.4601 54.4099 83.1401 53.9799C83.7701 52.2499 84.0301 50.1899 83.8001 47.9999Z" stroke="black" stroke-linecap="round" stroke-linejoin="round"/>
<path d="M83.9501 49.7199C83.4501 44.8599 80.0201 41.2399 76.2901 41.6199C72.5601 42.0099 69.9401 46.2499 70.4501 51.1099C70.6101 52.6999 71.1001 54.1499 71.7901 55.3799C75.6801 54.9199 79.5601 54.8199 83.4501 54.3399C83.9201 52.9499 84.1201 51.3699 83.9501 49.7199Z" fill="black"/>
<path d="M48 51.2499C47.41 45.7199 43.92 41.5499 40.19 41.9199C36.46 42.2999 33.91 47.0799 34.5 52.6099C34.72 54.7199 35.37 56.6299 36.3 58.1699C39.98 57.7599 43.66 57.6599 47.34 57.2299C47.97 55.4999 48.23 53.4399 48 51.2499Z" stroke="black" stroke-linecap="round" stroke-linejoin="round"/>
<path d="M48.15 52.9699C47.65 48.1099 44.22 44.4899 40.49 44.8699C36.76 45.2599 34.14 49.4999 34.65 54.3599C34.81 55.9499 35.3 57.3999 35.99 58.6299C39.88 58.1699 43.76 58.0699 47.65 57.5899C48.12 56.1999 48.32 54.6199 48.15 52.9699Z" fill="black"/>
</g>
<defs>
<clipPath id="clip0_625_427">
<rect width="114.61" height="193.46" fill="white"/>
</clipPath>
</defs>
</svg>
