<svg width="116" height="194" viewBox="0 0 116 194" fill="none" xmlns="http://www.w3.org/2000/svg">
<path d="M112.644 63.99C110.494 60.15 107.204 58.08 104.554 56.98C105.414 54.78 105.794 52.36 105.534 49.85L101.954 14.57C101.164 6.83 94.814 1 87.174 1C86.664 1 86.154 1.03 85.644 1.08L22.074 7.75C13.924 8.61 7.974 16.06 8.814 24.35L12.394 59.63C12.814 63.75 14.814 67.32 17.744 69.76C17.664 69.76 17.594 69.74 17.514 69.74C16.704 69.64 15.904 69.59 15.144 69.59C8.524 69.59 5.04401 73.16 3.56401 75.29C-0.575995 81.22 1.37401 88.33 2.07401 90.36L2.89401 92.75L16.504 104.97C18.574 108.36 19.314 115.45 19.164 119.48L15.834 181.64L23.974 185.09C35.304 190.7 45.704 193.43 55.764 193.43C68.984 193.43 80.474 188.63 90.214 184.13L96.214 181.36L95.734 174.67C95.344 169.22 92.294 126.67 90.634 110.77L102.954 97.87C109.574 92.64 115.644 84.24 114.134 75.6C115.284 70.42 114.044 66.5 112.624 63.96L112.644 63.99Z" fill="white" stroke="#D2D2D2" stroke-miterlimit="10"/>
</svg>
