<svg width="144" height="144" viewBox="0 0 144 144" fill="none" xmlns="http://www.w3.org/2000/svg">
<g clip-path="url(#clip0_1677_1173)">
<path d="M71.9969 143.365C111.413 143.365 143.365 111.413 143.365 71.9969C143.365 32.5812 111.413 0.628418 71.9969 0.628418C32.5812 0.628418 0.62841 32.5812 0.62841 71.9969C0.62841 111.413 32.5812 143.365 71.9969 143.365Z" fill="white" stroke="black" stroke-miterlimit="10" stroke-linecap="round" stroke-dasharray="3 3"/>
<path d="M34.3199 82.1678L34.7077 76.8563C34.817 75.4315 34.8358 74.5169 34.784 74.0391L34.3585 73.7513L27.602 74.145L27.4038 70.7427C29.3107 70.4634 31.8448 70.2196 34.672 70.0548C38.242 69.8469 39.2392 70.8706 39.1188 74.5799C39.0385 76.9165 38.7864 79.191 38.4889 81.9249L34.3199 82.1678ZM27.1082 82.588L27.6443 76.5225L31.981 76.2699L31.4448 82.3353L27.1082 82.588ZM45.1997 81.8465L42.7561 81.5802L40.4255 68.3974L44.3788 68.1671L44.6612 69.7133C45.2587 69.6544 46.6949 69.5467 48.6596 69.4323C51.2712 69.2801 52.4798 70.2194 52.6124 72.4956C52.8455 76.4968 49.7767 80.3538 45.1997 81.8465ZM46.2309 77.6755C47.6787 76.942 48.6422 75.3233 48.5528 73.7899C48.5124 73.095 48.0615 72.7847 47.1511 72.8378L45.1864 72.9522L45.9885 77.6415L46.2309 77.6755ZM56.536 81.0659C55.3141 81.1371 54.1022 80.9673 52.9242 80.5551L53.7139 77.1914C54.5185 77.385 55.3766 77.6716 56.1052 77.7974L56.3843 77.6369C56.4662 77.3917 56.5511 76.7857 56.639 75.819C56.7328 74.5394 56.8151 73.4768 56.834 72.5621L54.7255 72.685L54.5161 69.0911L60.7456 68.7282L61.0589 70.3927C61.1103 71.6879 61.015 73.3523 60.6991 76.1835C60.3407 79.522 59.1476 80.9137 56.536 81.0659ZM66.2262 80.6456C64.7647 80.7307 63.2864 80.5284 62.1057 80.0682L62.7784 76.7595C64.7724 77.1482 67.5626 77.5867 67.7768 77.5501L68.056 77.3896C68.2974 76.5822 68.3974 74.1723 68.2602 72.6417C68.1915 71.8764 68.2083 72.1639 68.1634 71.8059L67.8929 71.7015L63.2927 71.9695L63.0959 68.5912L72.0567 68.0692C72.2283 68.54 72.3605 69.1574 72.453 69.9213C72.5554 70.8529 72.5731 71.9818 72.4847 73.7659C72.3596 75.7446 72.0007 77.4243 71.5154 78.1738C70.7071 79.5671 68.718 80.5004 66.2262 80.6456ZM81.5826 79.4144L81.9704 74.1028C82.0797 72.678 82.0985 71.7634 82.0466 71.2856L81.6212 70.9979L74.8646 71.3915L74.6664 67.9893C76.5734 67.7099 79.1075 67.4661 81.9347 67.3014C85.5047 67.0934 86.5019 68.1171 86.3814 71.8264C86.3012 74.163 86.049 76.4375 85.7516 79.1715L81.5826 79.4144ZM74.3708 79.8345L74.907 73.7691L79.2436 73.5164L78.7075 79.5819L74.3708 79.8345ZM97.4986 78.7996L95.0549 78.5333L92.7243 65.3505L96.6776 65.1202L96.96 66.6664C97.5576 66.6076 98.9937 66.4999 100.958 66.3854C103.57 66.2333 104.779 67.1725 104.911 69.4487C105.144 73.4499 102.075 77.3069 97.4986 78.7996ZM98.5297 74.6286C99.9775 73.8952 100.941 72.2764 100.852 70.743C100.811 70.0482 100.36 69.7379 99.4499 69.7909L97.4852 69.9054L98.2873 74.5946L98.5297 74.6286ZM117.555 66.5004C117.629 66.9528 117.682 67.4545 117.713 67.9816C117.865 70.5932 117.459 73.9345 116.865 75.2914C116.038 77.1907 114.232 77.969 111.908 78.1044C110.087 78.2105 107.424 77.8848 105.833 77.4006L106.507 74.1158C108.329 74.4424 112.543 74.9662 112.901 74.9213L113.228 74.758C113.345 74.2944 113.456 72.8936 113.477 71.6182C113.485 70.9205 113.462 69.6958 113.4 69.459L113.012 69.4095L111.454 70.7263L111.673 72.0117L107.552 72.2518L106.447 66.0657L110.568 65.8256L111.03 68.395L113.778 65.6385L117.348 65.4306L117.555 66.5004Z" fill="black"/>
</g>
<defs>
<clipPath id="clip0_1677_1173">
<rect width="144" height="144" fill="white"/>
</clipPath>
</defs>
</svg>
