<svg width="202" height="199" viewBox="0 0 202 199" fill="none" xmlns="http://www.w3.org/2000/svg">
<g clip-path="url(#clip0_2088_4534)">
<path d="M163.347 170.617C159.59 191.287 137.104 202.608 118.254 193.34L118.106 193.259C108.191 188.377 96.5322 188.578 86.7918 193.796L86.604 193.903C68.1293 203.789 45.3077 193.313 40.7864 172.844L40.7193 172.536C38.3311 161.765 30.9118 152.791 20.7688 148.445L20.5005 148.324C1.22087 140.048 -4.80318 115.65 8.41215 99.3524L8.46582 99.2988C15.4424 90.7009 17.8306 79.2593 14.8789 68.5957V68.5555C9.27082 48.3013 24.6328 28.3289 45.6566 28.5167H45.6968C56.7655 28.624 67.217 23.366 73.7241 14.4193L73.7643 14.3522C86.121 -2.6022 111.25 -3.05825 124.211 13.4401L124.385 13.6682C131.201 22.3466 141.773 27.2156 152.801 26.7461H153.11C174.053 25.8475 190.046 45.1895 185.243 65.5911L185.189 65.8057C182.653 76.5632 185.457 87.8706 192.729 96.2003L192.836 96.3344C206.642 112.162 201.477 136.802 182.465 145.749C172.443 150.471 165.306 159.739 163.32 170.644L163.347 170.617Z" fill="white" stroke="black" stroke-miterlimit="10"/>
<path d="M159 166.231C155.096 184.929 134.823 195.137 117.476 187.143C107.936 182.756 96.9214 182.944 87.5566 187.679C70.5041 196.277 49.8828 186.807 45.3212 168.257C42.8123 158.063 35.7954 149.572 26.2562 145.199C8.89519 137.232 3.44806 115.207 15.1071 100.077C21.5068 91.7605 23.7742 80.9762 21.2384 70.7955C16.6366 52.2583 30.4825 34.271 49.5743 33.9491C60.066 33.7747 69.9138 28.8118 76.3001 20.4955C87.9323 5.3519 110.62 4.9495 122.789 19.6639C129.47 27.7521 139.479 32.3529 149.971 32.1651C169.062 31.803 183.539 49.2939 179.594 67.9787C177.434 78.2533 180.077 88.9437 186.772 97.0185C198.954 111.72 194.299 133.932 177.233 142.517C167.855 147.225 161.133 155.957 159 166.231Z" fill="#9BE0CE" stroke="black" stroke-width="2" stroke-miterlimit="10"/>
<path d="M43.5502 137.165L45.4285 139.686L39.5789 142.865L37.7274 140.384L43.5368 137.165H43.5502ZM47.1324 143.107C48.5814 142.275 49.3864 141.779 49.7755 141.443V140.88L45.6969 135.381L47.8435 133.784C48.89 134.898 50.2853 136.601 51.949 138.841C53.9749 141.564 53.5724 142.879 50.4195 144.824C48.3936 146.084 46.3006 147.171 43.7783 148.499L41.9134 145.991C43.5502 145.078 44.9858 144.314 47.1324 143.093V143.107Z" fill="black"/>
<path d="M57.6243 145.32L59.9856 147.546L54.3774 152L52.0295 149.8L57.6243 145.333V145.32Z" fill="black"/>
<path d="M57.3827 160.611L63.3262 148.606L65.8217 150.229L65.1106 151.691C66.2645 152.362 67.4988 153.1 68.6258 153.837C70.7993 155.259 71.1883 156.748 69.9004 158.72C67.6061 162.221 63.3665 163.508 58.8853 162.033L57.3827 160.611ZM66.9353 157.593C67.4451 156.802 67.2975 156.225 66.4255 155.662L63.93 154.039L61.1662 159.538L61.4345 159.86C63.6751 160.195 65.8083 159.31 66.9353 157.593Z" fill="black"/>
<path d="M68.3708 167.17L70.2089 164.957C70.8798 165.534 71.5237 166.124 72.1946 166.701L72.5434 166.634C72.6507 166.567 73.2277 165.762 73.8046 164.85C74.462 163.857 75.1194 162.744 76.1659 160.839L73.9924 159.927L75.106 157.285L80.1774 159.417L79.7481 160.879C78.5943 162.999 78.004 164.018 76.7965 165.869C74.5291 169.397 73.3752 170.041 71.0944 169.088C70.3699 168.78 69.3771 168.069 68.3843 167.17H68.3708Z" fill="black"/>
<path d="M79.8823 171.556L81.1837 169.088C84.3903 170.564 86.9663 171.691 87.3285 171.758L87.6774 171.65C88.2677 170.658 89.341 167.573 89.7033 165.829C89.8374 165.194 89.9 164.845 89.8911 164.783L89.7167 164.675L86.4967 164.005L86.1613 167.653L83.1828 167.036L83.6256 162.113L84.1354 160.759L93.1513 162.637C93.2184 163.562 93.2318 164.219 93.1647 164.863C92.5073 168.015 91.3133 171.208 90.3875 172.281C89.1398 173.863 87.6908 174.279 85.0745 173.729C83.2767 173.354 81.1837 172.495 79.8823 171.556Z" fill="black"/>
<path d="M112.028 168.418C112.028 166.741 111.975 165.802 111.881 165.292L111.398 165.011L104.596 165.869L104.26 163.213C105.736 162.851 107.91 162.475 110.687 162.127C114.054 161.698 115.007 162.703 115.141 166.406C115.235 168.793 115.168 171.14 115.074 173.998L111.975 174.386C111.975 172.509 112.028 170.886 112.015 168.418H112.028ZM105.092 168.619L108.218 168.23L108.111 174.883L105.038 175.272L105.105 168.632L105.092 168.619Z" fill="black"/>
<path d="M125.351 161.376L122.44 162.341L126.424 170.819L123.486 171.798L117.637 159.337L120.575 158.358L121.205 159.712L124.841 158.505L125.351 161.362V161.376Z" fill="black"/>
<path d="M143.249 155.045C142.444 153.583 141.947 152.778 141.625 152.362L141.062 152.335L135.494 156.332L133.938 154.159C135.065 153.14 136.795 151.772 139.076 150.135C141.827 148.15 143.142 148.579 145.033 151.772C146.254 153.824 147.314 155.93 148.602 158.478L146.066 160.303C145.181 158.653 144.443 157.204 143.262 155.031L143.249 155.045ZM137.238 158.532L139.787 156.694L142.873 162.596L140.364 164.407L137.238 158.532Z" fill="black"/>
<path d="M153.821 139.539C155.834 141.309 157.994 143.911 158.517 145.293C159.282 147.157 158.919 148.62 157.148 150.618C156.035 151.879 154.237 153.274 152.694 154.052L151.191 151.705C153.405 150.122 156.29 147.976 156.598 147.627L156.679 147.265C155.834 145.991 153.995 143.911 152.734 142.798C152.412 142.512 152.207 142.342 152.117 142.288L151.768 142.543L151.661 146.071L152.6 146.728L150.547 149.049L145.141 145.306L147.193 142.986L149.836 144.824L149.662 140.183L151.661 137.916L152.6 138.546C152.989 138.814 153.392 139.15 153.821 139.525V139.539Z" fill="black"/>
<path d="M100.41 148.164C124.877 148.164 144.711 128.334 144.711 103.873C144.711 79.4116 124.877 59.582 100.41 59.582C75.9426 59.582 56.1082 79.4116 56.1082 103.873C56.1082 128.334 75.9426 148.164 100.41 148.164Z" fill="#EAB7E6" stroke="black" stroke-linecap="round" stroke-linejoin="round"/>
<path d="M47.1459 64.5315C48.2863 65.1485 48.568 65.3631 54.5518 69.8297L49.6414 78.8435L42.1818 73.3843L41.3768 74.8731L39.0825 73.6257C39.8204 71.9088 41.0682 69.4273 42.5037 66.7983C43.2282 65.457 44.1272 63.9145 44.4089 63.606L45.5091 63.8206C46.0189 63.9949 46.5556 64.223 47.1459 64.5449V64.5315ZM50.9696 70.9565C50.2049 70.4065 49.3999 69.8029 48.3802 69.0786C47.052 68.1397 46.2738 67.63 45.8176 67.4153L45.3078 67.63L43.6576 70.6614L48.9974 74.5512L50.9562 70.943L50.9696 70.9565Z" fill="black"/>
<path d="M52.8748 57.4492L49.4133 61.4866L47.9912 60.2123L44.4224 56.1347L46.408 53.8276L49.3865 57.2078L52.8882 53.1167L53.8676 53.7605L60.5625 62.4255L58.5769 64.7326L52.8614 57.4492H52.8748Z" fill="black"/>
<path d="M56.5375 49.8573L58.9256 47.7916L65.3924 57.9053L63.0177 59.9575L56.5375 49.8573Z" fill="black"/>
<path d="M66.7475 55.8128L65.9693 53.2777C68.2904 52.4863 70.759 51.5474 71.081 51.3462L71.2554 51.0377C70.9603 49.8841 69.7125 47.1612 68.8404 45.7394C68.5095 45.2029 68.3172 44.9123 68.2635 44.8675L67.9281 44.9346L63.5409 47.6709L62.0651 45.3102L68.988 40.9911C69.7662 41.7288 70.1821 42.1849 70.5712 42.6543C71.2957 43.8213 71.9128 44.948 72.3422 45.954C73.0398 47.4831 73.4692 48.8111 73.5362 49.6427C73.7375 51.601 72.9593 52.8753 70.7456 54.2569C69.8198 54.8336 68.183 55.4506 66.7206 55.7994L66.7475 55.8128Z" fill="black"/>
<path d="M79.1176 39.6632L74.1535 41.5679L73.5095 39.7705L72.302 34.4856L75.1463 33.3992L76.166 37.7987L81.1972 35.8672L81.7473 36.9L83.5183 47.6978L80.6739 48.7842L79.1042 39.6632H79.1176Z" fill="black"/>
<path d="M96.8141 39.2205C96.8543 37.5975 96.8543 36.672 96.7738 36.1757L96.3177 35.8806L91.1925 36.3501L90.951 33.7479C92.1317 33.4662 93.7685 33.2248 95.62 33.0638C98.5582 32.7955 99.645 33.5735 99.8731 36.0684C99.9938 37.4634 99.8731 41.541 99.5913 44.7736L96.5592 45.0419C96.6397 43.2177 96.7336 41.6349 96.8141 39.2339V39.2205Z" fill="black"/>
<path d="M101.496 43.7542L102.53 41.2459C105.776 42.3861 108.379 43.2311 108.741 43.2713L109.077 43.1372C109.56 42.1178 110.311 39.0193 110.499 37.289C110.571 36.663 110.602 36.3188 110.593 36.2562L110.405 36.1623L107.212 35.8001V39.3681L104.274 39.0462L104.247 34.2308L104.623 32.8626L113.545 33.8552C113.692 34.7405 113.759 35.3843 113.773 36.0147C113.424 39.14 112.565 42.3458 111.76 43.4725C110.7 45.1224 109.332 45.6589 106.742 45.3638C104.971 45.1626 102.852 44.5188 101.51 43.7408L101.496 43.7542Z" fill="black"/>
<path d="M115.852 46.2223L118.535 33.4528L121.286 34.3783L120.964 35.9343C122.225 36.283 123.567 36.6854 124.801 37.1012C127.203 37.906 127.927 39.2205 127.203 41.4069C125.901 45.27 122.212 47.51 117.623 47.2149L115.866 46.2357L115.852 46.2223ZM124.117 41.0448C124.412 40.1729 124.117 39.6766 123.164 39.3413L120.414 38.4157L119.139 44.2774L119.461 44.5188C121.648 44.2908 123.459 42.936 124.103 41.0448H124.117Z" fill="black"/>
<path d="M140.847 49.0391C140.297 49.8841 138.835 51.6145 135.065 55.9604L132.489 54.2971C133.669 52.9021 134.729 51.7218 136.259 49.8707C137.292 48.6233 137.855 47.8855 138.11 47.4429L137.922 46.9198L135.387 45.2834L131.268 50.0183C129.846 51.6547 128.356 51.99 126.894 51.0511C126.062 50.5146 125.324 49.6561 124.949 48.8111L127.028 47.1344L128.169 48.6769H128.33L132.77 43.5933L130.999 42.4532L132.408 40.2668C133.991 41.0582 136.259 42.3995 139.036 44.1969C140.861 45.3773 141.706 45.9809 142.001 46.3162C141.88 46.7857 141.786 47.1344 141.666 47.51C141.37 48.1538 141.129 48.5696 140.82 49.0391H140.847Z" fill="black"/>
<path d="M149.058 61.6342C150.413 60.7355 151.165 60.1989 151.54 59.8502L151.513 59.3002L148.186 55.3701L150.172 53.6801C151.044 54.458 152.184 55.6518 153.419 57.1004C155.606 59.6758 155.337 61.0842 152.265 63.1767C150.467 64.4509 148.495 65.6313 143.396 68.7432L141.438 66.4227C145.691 63.7803 147.046 62.9487 149.058 61.6207V61.6342Z" fill="black"/>
<path d="M158.436 69.6822L155.82 65.0546L157.511 64.1559L162.555 62.1841L164.058 64.8266L159.859 66.4764L162.515 71.1711L161.576 71.8686L151.151 75.2085L149.649 72.566L158.45 69.6688L158.436 69.6822Z" fill="black"/>
</g>
<defs>
<clipPath id="clip0_2088_4534">
<rect width="202" height="199" fill="white"/>
</clipPath>
</defs>
</svg>
