<svg width="187" height="124" viewBox="0 0 187 124" fill="none" xmlns="http://www.w3.org/2000/svg">
<g clip-path="url(#clip0_2088_4350)">
<path d="M93.2943 122.947C144.57 122.947 186.138 95.7267 186.138 62.1488C186.138 28.5709 144.57 1.35059 93.2943 1.35059C42.0184 1.35059 0.45105 28.5709 0.45105 62.1488C0.45105 95.7267 42.0184 122.947 93.2943 122.947Z" fill="white" stroke="#231F20" stroke-width="0.901917" stroke-miterlimit="10"/>
<path d="M93.1861 117.418C141.513 117.418 180.69 92.5805 180.69 61.9414C180.69 31.3024 141.513 6.46454 93.1861 6.46454C44.859 6.46454 5.68213 31.3024 5.68213 61.9414C5.68213 92.5805 44.859 117.418 93.1861 117.418Z" fill="#FFF471" stroke="black" stroke-width="1.80383" stroke-miterlimit="10"/>
<path d="M26.5802 53.3913H29.1687L28.393 58.8118H25.8496L26.5802 53.3913ZM32.2713 53.9414C32.4336 52.5795 32.4967 51.8039 32.4787 51.371L32.1089 51.0823H26.4629V48.8817C27.7076 48.7374 29.5204 48.6562 31.8203 48.6562C34.6162 48.6562 35.2837 49.5761 35.0221 52.6066C34.8598 54.5637 34.5531 56.4758 34.1833 58.8027H31.6129C31.8203 57.2785 32.0187 55.9527 32.2622 53.9324L32.2713 53.9414Z" fill="black"/>
<path d="M39.5043 58.5051L38.1965 47.5558H40.6407L40.8031 48.8816C41.9034 48.8185 43.0849 48.7824 44.1853 48.7824C46.3228 48.7824 47.2608 49.6392 47.2608 51.5783C47.2608 55.0237 44.9158 57.8196 41.1638 58.8117L39.4953 58.5051H39.5043ZM44.7174 52.1285C44.7174 51.3529 44.3476 51.0282 43.4908 51.0282H41.0466L41.6148 56.0609L41.9395 56.1601C43.6351 55.3844 44.7084 53.8151 44.7084 52.1285H44.7174Z" fill="black"/>
<path d="M48.5504 58.4238L49.2449 56.16C49.9394 56.3855 50.6068 56.629 51.3013 56.8545L51.5448 56.6921C51.6079 56.6109 51.7883 55.8173 51.9326 54.9424C52.113 53.9864 52.2573 52.9221 52.4377 51.1543H50.4986V48.7913H55.0262L55.1705 50.036C54.963 52.0112 54.8458 52.9672 54.5211 54.762C53.9258 58.1622 53.2584 59.0191 51.2201 59.0191C50.5707 59.0191 49.5876 58.7936 48.5504 58.4238Z" fill="black"/>
<path d="M57.2001 58.3878L57.7683 56.2232C59.7886 56.6922 61.9712 57.1161 62.2959 57.1161L62.5574 56.9718C62.8641 56.0158 63.1888 53.5085 63.1888 52.1015C63.1888 51.5723 63.1828 51.2807 63.1707 51.2266L62.9092 51.1274H58.5439V48.7824H65.4346C65.66 49.6573 65.7592 50.1714 65.8224 50.6764C65.8224 51.8399 65.7592 52.9222 65.6149 53.8331C65.4346 55.2401 65.1459 56.3856 64.8213 57.0169C64.0907 58.5051 62.9633 59.0733 60.7626 59.0733C59.8427 59.0733 58.3996 58.7847 57.191 58.3788L57.2001 58.3878Z" fill="black"/>
<path d="M69.6466 53.3913H72.2351L71.4594 58.8118H68.916L69.6466 53.3913ZM75.3377 53.9414C75.5 52.5795 75.5631 51.8039 75.5451 51.371L75.1753 51.0823H69.5293V48.8817C70.774 48.7374 72.5868 48.6562 74.8867 48.6562C77.6826 48.6562 78.3501 49.5761 78.0885 52.6066C77.9262 54.5637 77.6195 56.4758 77.2497 58.8027H74.6793C74.8867 57.2785 75.0851 55.9527 75.3286 53.9324L75.3377 53.9414Z" fill="black"/>
<path d="M88.1808 58.5051L86.873 47.5558H89.3172L89.4796 48.8816C90.5799 48.8185 91.7614 48.7824 92.8618 48.7824C94.9993 48.7824 95.9373 49.6392 95.9373 51.5783C95.9373 55.0237 93.5923 57.8196 89.8404 58.8117L88.1718 58.5051H88.1808ZM93.3939 52.1285C93.3939 51.3529 93.0241 51.0282 92.1673 51.0282H89.7231L90.2913 56.0609L90.616 56.1601C92.3116 55.3844 93.3849 53.8151 93.3849 52.1285H93.3939Z" fill="black"/>
<path d="M107.275 50.9831C107.275 53.1838 106.851 55.9346 106.274 57.0169C105.543 58.5051 104.443 59.0733 102.242 59.0733C100.853 59.0733 99.0225 58.7305 97.6967 58.1984L98.328 55.9977C100.511 56.5028 103.406 57.1161 103.794 57.1161L104.055 56.9718C104.38 55.7452 104.668 53.4904 104.668 52.1015C104.668 51.7467 104.662 51.5302 104.65 51.4521L104.308 51.3709L102.062 53.2289L102.161 54.1669H99.6177L98.9864 48.7824H101.53L101.836 51.416L104.605 48.7824H107.095L107.221 49.7024C107.257 50.0902 107.284 50.5141 107.284 50.9831H107.275Z" fill="black"/>
<path d="M117.205 48.7824H119.875L118.405 58.8117H115.753L117.196 48.7824H117.205Z" fill="black"/>
<path d="M127.513 51.1453H123.031L123.067 49.5309L123.716 45.0033H126.287L125.755 48.7733H130.3L130.427 49.7474L128.551 58.7936H125.98L127.504 51.1273L127.513 51.1453Z" fill="black"/>
<path d="M134.224 48.7824H136.893L136.036 54.6088H133.385L134.224 48.7824Z" fill="black"/>
<path d="M138.725 58.1984L139.356 55.9977C142.188 56.6471 144.452 57.1161 144.758 57.1161L145.02 56.9718C145.327 56.0789 145.669 53.4002 145.669 51.9391C145.669 51.41 145.663 51.1184 145.651 51.0643L145.489 51.0011H142.774L143.117 53.9955H140.61L140.141 49.9639L140.321 48.7824H147.906C148.114 49.513 148.231 50.0451 148.294 50.5772C148.294 53.2289 147.87 55.9977 147.293 57.0169C146.562 58.5051 145.462 59.0733 143.261 59.0733C141.755 59.0733 139.915 58.7305 138.716 58.1984H138.725Z" fill="black"/>
<path d="M158.115 53.7609C157.953 53.806 157.772 53.824 157.565 53.824L160.298 57.5129L158.26 59.1002L154.489 53.4993L153.714 58.8206H151.107L152.55 48.7913H155.157L154.769 51.443C155.4 51.6504 156.889 52.0382 157.421 52.1374L157.601 52.0743C157.745 51.5241 157.845 50.9289 157.989 49.7924L158.133 48.7913H160.722C160.722 49.0168 160.704 49.2423 160.677 49.4678C160.496 50.974 160.352 51.7947 160.172 52.3178C159.847 53.2378 159.315 53.5985 158.115 53.7609Z" fill="black"/>
<path d="M31.8203 74.514C32.0007 73.1071 32.0458 72.7192 32.0278 72.4306L31.685 72.2051H28.1405V68.372C29.6287 68.1645 31.0537 68.0834 32.8485 68.0834C36.393 68.0834 37.295 69.2017 36.844 73.1341C36.6366 74.947 36.0683 78.6538 35.5813 81.3506H30.8282C31.2972 78.3923 31.5047 76.868 31.8293 74.505L31.8203 74.514Z" fill="black"/>
<path d="M49.8404 70.4734C49.8404 73.0168 49.2902 75.7947 48.5597 76.9311C47.784 78.1127 45.8449 78.8071 43.3015 78.8071C41.5247 78.8071 39.7569 78.5185 38.4943 78.0315L39.4503 74.2795C40.7761 74.6042 44.1763 75.2987 44.501 75.2987L44.7085 75.2175C44.8708 74.9289 45.1143 72.8094 45.0332 72.4216L44.7896 72.3855L44.1403 72.9807L44.2395 73.9007H40.0636L39.4142 68.2998H43.7975L44.0411 70.3201L45.9802 68.2998H49.669L49.7953 69.2378C49.8584 70.1307 49.8584 70.1758 49.8584 70.4824L49.8404 70.4734Z" fill="black"/>
<path d="M62.7018 70.4734C62.7018 73.0168 62.1517 75.7947 61.4211 76.9311C60.6455 78.1127 58.7063 78.8071 56.1629 78.8071C54.3862 78.8071 52.6184 78.5185 51.3557 78.0315L52.3117 74.2795C53.6376 74.6042 57.0378 75.2987 57.3625 75.2987L57.5699 75.2175C57.7323 74.9289 57.9758 72.8094 57.8946 72.4216L57.6511 72.3855L57.0017 72.9807L57.1009 73.9007H52.925L52.2757 68.2998H56.659L56.9025 70.3201L58.8416 68.2998H62.5305L62.6567 69.2378C62.7199 70.1307 62.7199 70.1758 62.7199 70.4824L62.7018 70.4734Z" fill="black"/>
<path d="M82.6335 70.9876C82.6335 72.62 82.426 74.4148 81.7767 78.4284H77.1498C77.6549 74.9019 77.8623 72.9628 77.8263 72.2773L77.6639 72.151H77.0145L76.6087 74.947C76.2389 77.4904 75.0213 78.717 72.8747 78.717C71.8105 78.717 70.3494 78.3292 69.4114 77.779L70.3494 74.496L71.594 74.965L71.8195 74.8838L72.2254 72.151H70.7552V68.3359C72.6312 68.1916 75.4181 68.0924 77.6639 68.0924C79.3956 68.0924 80.983 68.1555 82.1645 68.2548L82.5072 69.337C82.5884 69.8421 82.6335 70.3923 82.6335 70.9876Z" fill="black"/>
<path d="M91.9326 73.5129C92.6271 73.9819 93.2945 74.4328 93.971 74.9018L93.4388 78.3832C91.7252 78.6448 90.6249 78.753 89.4884 78.753C88.0003 78.753 86.2866 78.4915 84.104 77.9413L85.06 74.4599C85.9169 74.6403 86.8729 74.9108 88.0724 75.1093L89.2539 75.2536L89.272 75.1724C86.6835 74.0901 85.4569 72.5027 85.4569 70.1758C85.4569 69.5625 85.502 69.0755 85.6373 68.2998H90.0386C89.9394 69.1115 89.7951 70.1938 89.732 70.8883L90.4264 71.195L90.6339 71.1318C90.8594 70.3381 90.9225 69.9864 91.1209 68.2998H95.0713V68.8319C94.6835 72.4757 94.1784 73.2513 91.9146 73.5219L91.9326 73.5129Z" fill="black"/>
<path d="M97.6597 73.2243H102.187L101.006 81.3596H96.4781L97.6597 73.2243ZM108.762 69.9864L106.688 78.4283H102.268L102.512 76.6335L103.351 72.5388L103.224 72.3314H97.5154V68.2998H108.564L108.771 69.9954L108.762 69.9864Z" fill="black"/>
<path d="M116.365 73.4498H121.236L120.505 78.4193H115.635L116.365 73.4498ZM122.381 72.4126L122.156 72.2051H116.609V68.3089C118.602 68.1645 120.992 68.0834 123.418 68.0834C126.737 68.0834 127.621 69.0033 127.288 72.1781C127.125 73.8466 126.882 75.416 126.313 78.4193H121.669C122.156 74.9379 122.444 73.1972 122.381 72.4036V72.4126Z" fill="black"/>
<path d="M136.55 73.5129C137.245 73.9819 137.912 74.4328 138.589 74.9018L138.057 78.3832C136.343 78.6448 135.243 78.753 134.106 78.753C132.618 78.753 130.904 78.4915 128.722 77.9413L129.678 74.4599C130.535 74.6403 131.491 74.9108 132.69 75.1093L133.872 75.2536L133.89 75.1724C131.301 74.0901 130.075 72.5027 130.075 70.1758C130.075 69.5625 130.12 69.0755 130.255 68.2998H134.656C134.557 69.1115 134.413 70.1938 134.35 70.8883L135.044 71.195L135.252 71.1318C135.477 70.3381 135.54 69.9864 135.739 68.2998H139.689V68.8319C139.301 72.4757 138.796 73.2513 136.532 73.5219L136.55 73.5129Z" fill="black"/>
<path d="M142.557 68.2998H147.554L146.066 78.4283H141.069L142.557 68.2998Z" fill="black"/>
<path d="M153.849 72.4126L153.624 72.2051H149.953V68.3089C151.459 68.1645 153.254 68.0834 155.004 68.0834C158.223 68.0834 159.08 68.9582 158.774 72.0338C158.566 74.1533 158.205 76.0924 157.772 78.4103H153.128C153.615 74.9289 153.903 73.1882 153.84 72.3945L153.849 72.4126Z" fill="black"/>
</g>
<defs>
<clipPath id="clip0_2088_4350">
<rect width="186.588" height="122.507" fill="white" transform="translate(0 0.899658)"/>
</clipPath>
</defs>
</svg>
