<svg width="145" height="117" viewBox="0 0 145 117" fill="none" xmlns="http://www.w3.org/2000/svg">
<g clip-path="url(#clip0_2088_4298)">
<path d="M132.555 0.874329H33.3011C27.0198 0.874329 21.9279 6.87147 21.9279 14.2693V102.479C21.9279 109.877 27.0198 115.874 33.3011 115.874H132.555C138.836 115.874 143.928 109.877 143.928 102.479V14.2693C143.928 6.87147 138.836 0.874329 132.555 0.874329Z" fill="white" stroke="black" stroke-width="0.901917" stroke-miterlimit="10"/>
<path d="M130.768 4.87433H34.0876C29.0288 4.87433 24.9279 9.71449 24.9279 15.6851V101.064C24.9279 107.034 29.0288 111.874 34.0876 111.874H130.768C135.827 111.874 139.928 107.034 139.928 101.064V15.6851C139.928 9.71449 135.827 4.87433 130.768 4.87433Z" fill="#B7E862" stroke="#231F20" stroke-width="1.80383" stroke-miterlimit="10"/>
<path d="M64.7036 29.4768C64.7036 31.8037 64.4059 34.4193 63.4499 40.3448H56.6855C57.4341 35.1047 57.7317 32.3629 57.6686 31.3527L57.4341 31.1724H55.9459L54.6021 40.3448H47.6303L48.9741 31.1724H47.3326V25.6075C49.9572 25.4001 54.0339 25.2468 57.4251 25.2468C60.0767 25.2468 62.3946 25.337 64.0091 25.4813L64.5142 27.0596C64.6314 27.8082 64.6945 28.6109 64.6945 29.4677L64.7036 29.4768Z" fill="black"/>
<path d="M69.7992 40.2547L67.8601 23.8759H74.3269L75.4903 33.824L75.815 33.8871C76.5636 33.355 77.1228 32.426 77.1228 31.6504C77.1228 31.0551 76.8252 30.7304 76.2299 30.7304H76.0495L75.4813 25.9683C76.4644 25.5173 77.7181 25.2558 78.8184 25.2558C81.7045 25.2558 83.4903 27.0686 83.4903 30.054C83.4903 34.9424 79.5039 39.0731 73.2175 40.6876L69.7902 40.2727L69.7992 40.2547Z" fill="black"/>
<path d="M87.9008 25.5444H95.1973L93.0237 40.3448H85.7272L87.9008 25.5444Z" fill="black"/>
<path d="M112.054 34.6539L111.224 40.345H97.4069L98.2366 34.6539H104.135C104.288 33.283 104.343 32.2728 104.288 31.5242L104.018 31.2536H98.6244V25.5625C101.096 25.328 103.296 25.2379 105.623 25.2379C109.763 25.2379 111.161 26.2841 111.161 29.4408C111.161 30.4509 110.954 32.2999 110.593 34.6539H112.054Z" fill="black"/>
<path d="M130.94 28.7282C130.94 32.4531 130.138 36.5027 129.065 38.1712C127.937 39.9029 125.105 40.913 121.38 40.913C118.792 40.913 116.194 40.4982 114.354 39.7856L115.752 34.302C117.691 34.78 122.661 35.7902 123.139 35.7902L123.437 35.6729C123.671 35.258 124.032 32.1554 123.915 31.5962L123.554 31.5331L122.598 32.399L122.751 33.7428H116.645L115.689 25.5534H122.093L122.453 28.5027L125.285 25.5534H130.679L130.859 26.9243C130.95 28.2321 130.95 28.2952 130.95 28.7372L130.94 28.7282Z" fill="black"/>
<path d="M64.7036 55.7226C64.7036 58.0496 64.4059 60.6651 63.4499 66.5907H56.6855C57.4341 61.3506 57.7317 58.6087 57.6686 57.5986L57.4341 57.4182H55.9459L54.6021 66.5907H47.6303L48.9741 57.4182H47.3326V51.8534C49.9572 51.6459 54.0339 51.4926 57.4251 51.4926C60.0767 51.4926 62.3946 51.5828 64.0091 51.7271L64.5142 53.3055C64.6314 54.0541 64.6945 54.8568 64.6945 55.7136L64.7036 55.7226Z" fill="black"/>
<path d="M69.7992 66.5005L67.8601 50.1217H74.3269L75.4903 60.0698L75.815 60.133C76.5636 59.6008 77.1228 58.6719 77.1228 57.8962C77.1228 57.301 76.8252 56.9763 76.2299 56.9763H76.0495L75.4813 52.2142C76.4644 51.7632 77.7181 51.5016 78.8184 51.5016C81.7045 51.5016 83.4903 53.3145 83.4903 56.2998C83.4903 61.1882 79.5039 65.319 73.2175 66.9334L69.7902 66.5185L69.7992 66.5005Z" fill="black"/>
<path d="M87.9008 51.7902H95.1973L93.0237 66.5907H85.7272L87.9008 51.7902Z" fill="black"/>
<path d="M112.054 60.8996L111.224 66.5907H97.4069L98.2366 60.8996H104.135C104.288 59.5287 104.343 58.5185 104.288 57.7699L104.018 57.4994H98.6244V51.8083C101.096 51.5738 103.296 51.4836 105.623 51.4836C109.763 51.4836 111.161 52.5298 111.161 55.6865C111.161 56.6967 110.954 58.5456 110.593 60.8996H112.054Z" fill="black"/>
<path d="M130.94 54.9739C130.94 58.6988 130.138 62.7484 129.065 64.4169C127.937 66.1486 125.105 67.1588 121.38 67.1588C118.792 67.1588 116.194 66.7439 114.354 66.0314L115.752 60.5477C117.691 61.0257 122.661 62.0359 123.139 62.0359L123.437 61.9186C123.671 61.5038 124.032 58.4012 123.915 57.842L123.554 57.7788L122.598 58.6447L122.751 59.9885H116.645L115.689 51.7991H122.093L122.453 54.7484L125.285 51.7991H130.679L130.859 53.17C130.95 54.4778 130.95 54.541 130.95 54.9829L130.94 54.9739Z" fill="black"/>
<path d="M35.398 87.5963L40.4307 88.2817V93.4317H34L35.398 87.5963ZM36.4983 72.6786H44.1826L40.9628 85.9277H35.7497L36.4983 72.6786Z" fill="black"/>
<path d="M64.7126 81.9683C64.7126 84.2953 64.415 86.9108 63.4589 92.8364H56.6945C57.4431 87.5963 57.7408 84.8545 57.6776 83.8443L57.4431 83.6639H55.955L54.6111 92.8364H47.6393L48.9832 83.6639H47.3417V78.0991C49.9663 77.8917 54.0429 77.7383 57.4341 77.7383C60.0858 77.7383 62.4037 77.8285 64.0181 77.9728L64.5232 79.5512C64.6404 80.2998 64.7036 81.1025 64.7036 81.9593L64.7126 81.9683Z" fill="black"/>
<path d="M69.7992 92.7462L67.8601 76.3674H74.3269L75.4903 86.3156L75.815 86.3787C76.5636 85.8466 77.1228 84.9176 77.1228 84.142C77.1228 83.5467 76.8252 83.222 76.2299 83.222H76.0495L75.4813 78.4599C76.4644 78.0089 77.7181 77.7474 78.8184 77.7474C81.7045 77.7474 83.4903 79.5602 83.4903 82.5456C83.4903 87.4339 79.5039 91.5647 73.2175 93.1792L69.7902 92.7643L69.7992 92.7462Z" fill="black"/>
<path d="M87.9008 78.0361H95.1973L93.0237 92.8365H85.7272L87.9008 78.0361Z" fill="black"/>
<path d="M112.054 87.1453L111.224 92.8364H97.4069L98.2366 87.1453H104.135C104.288 85.7744 104.343 84.7643 104.288 84.0157L104.018 83.7451H98.6244V78.054C101.096 77.8195 103.296 77.7293 105.623 77.7293C109.763 77.7293 111.161 78.7755 111.161 81.9322C111.161 82.9424 110.954 84.7913 110.593 87.1453H112.054Z" fill="black"/>
<path d="M130.94 81.2198C130.94 84.9447 130.138 88.9943 129.065 90.6629C127.937 92.3945 125.105 93.4047 121.38 93.4047C118.792 93.4047 116.194 92.9898 114.354 92.2773L115.752 86.7936C117.691 87.2716 122.661 88.2818 123.139 88.2818L123.437 88.1645C123.671 87.7497 124.032 84.6471 123.915 84.0879L123.554 84.0247L122.598 84.8906L122.751 86.2344H116.645L115.689 78.045H122.093L122.453 80.9943L125.285 78.045H130.679L130.859 79.416C130.95 80.7237 130.95 80.7869 130.95 81.2288L130.94 81.2198Z" fill="black"/>
</g>
<defs>
<clipPath id="clip0_2088_4298">
<rect width="144.379" height="115.734" fill="white" transform="translate(0 0.507202)"/>
</clipPath>
</defs>
</svg>
