<svg width="167" height="168" viewBox="0 0 167 168" fill="none" xmlns="http://www.w3.org/2000/svg">
<g clip-path="url(#clip0_2088_4493)">
<path d="M147.738 106.577L152.376 123.281C154.809 132.032 148.364 140.734 139.305 140.939L122.006 141.338C120.44 141.374 119.019 142.303 118.368 143.74L111.201 159.527C107.454 167.795 96.9378 170.305 89.8545 164.633L76.3383 153.794C75.1096 152.804 73.4352 152.611 72.0137 153.299L56.4015 160.782C48.2219 164.693 38.5607 159.853 36.7778 150.945L33.3807 133.939C33.0675 132.394 31.911 131.163 30.3811 130.765L13.6245 126.431C4.85468 124.162 0.554098 114.229 4.90287 106.263L13.2149 91.0548C13.9738 89.6789 13.8654 87.977 12.9499 86.6976L2.89111 72.588C-2.37319 65.2012 0.710701 54.8212 9.14322 51.514L25.2614 45.2136C26.731 44.6463 27.7309 43.2824 27.8514 41.7133L29.2006 24.4293C29.8993 15.377 38.9221 9.41448 47.5112 12.3233L63.9064 17.8754C65.4002 18.3824 67.0385 17.9841 68.1468 16.8616L80.2655 4.47791C86.614 -2.00359 97.3474 -0.760393 102.058 6.98844L111.056 21.7981C111.875 23.1379 113.381 23.8983 114.947 23.7534L132.174 22.0757C141.196 21.1946 148.629 29.0642 147.256 38.0441L144.642 55.1833C144.401 56.7403 145.075 58.2973 146.376 59.1905L160.651 69.0032C168.12 74.145 168.771 84.9475 161.965 90.9462L148.966 102.4C147.786 103.438 147.304 105.068 147.726 106.589L147.738 106.577Z" fill="white" stroke="black" stroke-width="0.5" stroke-miterlimit="10"/>
<path d="M144.244 106.263L148.942 123.173C150.918 130.306 145.678 137.391 138.293 137.56L120.778 137.958C118.585 138.006 116.61 139.31 115.706 141.314L108.454 157.294C105.395 164.029 96.8295 166.081 91.0592 161.458L77.3865 150.487C75.6759 149.111 73.3268 148.845 71.3392 149.787L55.5342 157.354C48.8725 160.541 40.9942 156.594 39.5365 149.34L36.1033 132.128C35.6696 129.968 34.0434 128.254 31.9232 127.699L14.9497 123.317C7.79414 121.471 4.28862 113.372 7.84232 106.878L16.2507 91.4773C17.3108 89.5461 17.1663 87.1804 15.8894 85.3941L5.69806 71.1154C1.40952 65.0926 3.91518 56.6316 10.7937 53.9401L27.1166 47.5551C29.1645 46.7585 30.574 44.8515 30.7426 42.6548L32.1039 25.1535C32.6821 17.7789 40.0304 12.9147 47.0294 15.2804L63.6294 20.9049C65.7135 21.605 68.0144 21.0619 69.5443 19.4928L81.8196 6.96429C86.9875 1.6777 95.7453 2.69156 99.5881 9.01616L108.695 24.019C109.84 25.9019 111.948 26.964 114.14 26.7467L131.584 25.0449C138.932 24.3328 144.991 30.7419 143.883 38.0562L141.233 55.4126C140.895 57.5852 141.847 59.7577 143.654 61.0009L158.098 70.9344C164.193 75.1226 164.711 83.9336 159.17 88.8219L146.003 100.409C144.353 101.857 143.678 104.126 144.268 106.251L144.244 106.263Z" fill="#C195F4" stroke="black" stroke-miterlimit="10"/>
<path d="M56.8474 81.3628C57.0522 79.7213 57.1485 78.6953 57.1244 78.1643L56.739 77.8625H52.0649V74.9899C53.2937 74.8088 54.8477 74.7123 56.6426 74.7123C59.6783 74.7123 60.6541 75.6296 60.5818 78.3212C60.5336 79.9144 60.0758 83.2939 59.5819 86.1303H56.1848C56.3173 84.9716 56.5221 83.8009 56.8474 81.3628Z" fill="black"/>
<path d="M72.0981 83.2577L71.6645 86.1304H61.8225L62.2321 83.2577H67.388C67.6409 81.1093 67.7976 79.4437 67.7976 78.6471C67.7976 78.4419 67.7735 78.285 67.7735 78.1884L67.3639 77.8746H62.8706V75.002C64.3282 74.8209 65.7858 74.7244 67.2434 74.7244C70.2309 74.7244 71.2067 75.521 71.2067 77.9229C71.2067 78.8402 71.0019 80.711 70.6405 83.2698H72.0981V83.2577Z" fill="black"/>
<path d="M85.0482 77.8263C85.0482 78.9005 84.8193 80.6386 84.0242 86.1424H80.603C80.7114 85.201 80.9403 83.9095 81.2415 81.4593C81.4704 79.673 81.5426 78.7195 81.5186 78.1763L81.0849 77.8746H78.3985L77.1939 86.1424H73.7727L74.9773 77.8746H73.4233V75.002C75.1821 74.8209 77.748 74.7244 80.9644 74.7244C83.1087 74.7244 84.1085 74.7726 84.5663 74.8813L84.9277 76.0641C85 76.6555 85.0361 77.1866 85.0361 77.8263H85.0482Z" fill="black"/>
<path d="M99.2268 80.6145C99.2268 80.6145 99.1786 80.6145 99.1545 80.6386L101.961 84.4285L99.2509 86.5287L95.3358 80.6145L94.5407 86.1424H91.0955L92.7097 74.8813H96.155L95.7454 77.8022C96.5405 78.0557 97.8897 78.4419 98.251 78.5384L98.4558 78.466C98.6124 77.8746 98.7088 77.3073 98.8654 76.0883L99.022 74.8813H102.419C102.419 75.1589 102.395 75.4124 102.371 75.6538C102.19 77.2953 102.034 78.2367 101.829 78.804C101.443 79.9265 100.781 80.3851 99.2268 80.6145Z" fill="black"/>
<path d="M108.659 77.9591H103.961L104.009 75.9917L104.78 70.7172H108.177L107.611 74.8692H112.466L112.598 76.052L110.406 86.1183H106.985L108.647 77.947L108.659 77.9591Z" fill="black"/>
<path d="M56.5221 100.662C56.5221 101.761 56.2691 103.583 55.4981 108.979H52.0528C52.1854 108.025 52.4142 106.746 52.7154 104.295C52.9443 102.509 53.0166 101.556 52.9925 101.012L52.5588 100.711H50.3061L49.5713 105.913C49.234 108.122 48.0896 109.268 46.2465 109.268C45.2707 109.268 44.1022 108.93 43.3794 108.423L44.2467 105.683L45.861 106.299L46.0176 106.227L46.8126 100.699H44.9454V97.826C46.6801 97.645 49.234 97.5484 52.4504 97.5484C54.5946 97.5484 55.5704 97.5967 56.0282 97.7053C56.1848 98.1398 56.3052 98.4778 56.3896 98.8882C56.498 99.5761 56.5221 100.119 56.5221 100.65V100.662Z" fill="black"/>
<path d="M59.6058 97.7174H63.1596L61.5212 108.979H57.9675L59.6058 97.7174Z" fill="black"/>
<path d="M74.2183 106.094L73.7846 108.966H63.9426L64.3522 106.094H69.5081C69.7611 103.945 69.9177 102.28 69.9177 101.483C69.9177 101.278 69.8936 101.121 69.8936 101.025L69.484 100.699H64.9907V97.826C66.4483 97.645 67.9059 97.5484 69.3635 97.5484C72.3511 97.5484 73.3268 98.345 73.3268 100.747C73.3268 101.664 73.122 103.535 72.7606 106.094H74.2183Z" fill="black"/>
<path d="M77.1334 97.7174H80.6871L79.0488 108.979H75.4951L77.1334 97.7174Z" fill="black"/>
<path d="M93.9505 100.662C93.9505 101.737 93.7216 103.475 92.9266 108.979H89.5054C89.6138 108.037 89.8427 106.746 90.1438 104.295C90.3727 102.509 90.445 101.556 90.4209 101.012L89.9872 100.711H87.3009L86.0962 108.979H82.675L83.8797 100.711H82.3257V97.8381C84.0845 97.657 86.6504 97.5605 89.8668 97.5605C92.011 97.5605 93.0109 97.6088 93.4687 97.7174L93.8301 98.9002C93.9023 99.4917 93.9385 100.023 93.9385 100.662H93.9505Z" fill="black"/>
<path d="M104.973 100.795H100.275L100.323 98.8278L101.094 93.5533H104.491L103.925 97.7053H108.78L108.912 98.8881L106.72 108.954H103.299L104.961 100.783L104.973 100.795Z" fill="black"/>
<path d="M113.634 109.244L111.719 108.834L110.418 97.7174H113.658L114.02 100.892C114.405 101 114.767 101.097 115.14 101.169L115.321 101.061C115.453 100.397 115.55 99.6003 115.658 98.2485L115.73 97.7174H118.766L118.718 98.4054C118.622 99.383 118.585 99.9383 118.489 100.433C118.08 102.352 117.333 103.101 115.658 103.27C115.152 103.318 114.719 103.342 114.285 103.342L114.586 105.852L114.863 105.949C118.561 105.213 120.284 102.726 120.26 97.7295H123.561C123.79 104.392 120.284 108.46 113.622 109.268L113.634 109.244Z" fill="black"/>
<path d="M66.1713 123.643H61.4731L61.5213 121.676L62.2923 116.401H65.6894L65.1232 120.554H69.9779L70.1105 121.736L67.918 131.803H64.4968L66.1592 123.631L66.1713 123.643Z" fill="black"/>
<path d="M76.3627 123.643H71.6646L71.7127 121.676L72.4837 116.401H75.8808L75.3146 120.554H80.1693L80.3019 121.736L78.1094 131.803H74.6882L76.3506 123.631L76.3627 123.643Z" fill="black"/>
<path d="M80.6873 131.356L81.4221 128.568C83.5423 129.051 85.9997 129.57 86.2286 129.618L86.5298 129.509C86.8069 128.556 87.096 125.876 87.096 124.488C87.096 123.667 87.096 123.776 87.0719 123.692L86.7707 123.583H82.1449V120.566H90.1678C90.4208 121.519 90.5292 122.147 90.5774 122.798C90.6015 124.126 90.5051 125.43 90.3244 126.685C90.0714 128.145 89.7582 129.22 89.4089 129.835C88.5656 131.428 87.0839 132.141 84.6024 132.141C83.5061 132.141 81.9642 131.839 80.6873 131.368V131.356Z" fill="black"/>
<path d="M101.865 128.942L101.431 131.815H91.5894L91.9989 128.942H97.1548C97.4078 126.794 97.5644 125.128 97.5644 124.331C97.5644 124.126 97.5403 123.969 97.5403 123.873L97.1307 123.547H92.6374V120.674C94.095 120.493 95.5526 120.397 97.0103 120.397C99.9978 120.397 100.974 121.193 100.974 123.595C100.974 124.512 100.769 126.383 100.407 128.942H101.865Z" fill="black"/>
<path d="M26.6346 76.1485L27.1044 73.988L31.658 75.714L31.1882 77.8625L26.6226 76.1485H26.6346Z" fill="black"/>
<path d="M30.6341 69.1601L29.4295 72.6724L28.1766 72.2138L24.8157 70.4878L25.5023 68.4721L28.3091 69.9084L29.5258 66.3478L30.3209 66.5168L36.8983 70.4274L36.2116 72.4431L30.6221 69.1842L30.6341 69.1601Z" fill="black"/>
<path d="M38.8498 66.2875L38.0548 67.241L30.4053 64.0908L31.3931 62.3044L33.6578 63.258C33.959 62.9562 34.1879 62.7027 34.4408 62.3769V62.232C33.9469 61.8337 33.4048 61.4354 32.6218 60.9164L32.2845 60.6871L33.2362 58.9732L33.6458 59.2387C34.3324 59.6974 34.6938 59.9508 34.9829 60.1922C36.0069 61.0974 36.2117 61.7975 35.7298 62.8838C35.5612 63.2579 35.3805 63.5838 35.2118 63.8856L37.2356 64.7184L37.3802 64.5856C38.3198 61.7734 37.3199 59.6129 33.9108 57.73L34.9106 55.9195C39.2835 58.1766 40.6448 61.7492 38.8378 66.2754L38.8498 66.2875Z" fill="black"/>
<path d="M45.3188 50.3312C44.596 49.4501 44.1744 48.9673 43.8973 48.738L43.5118 48.7983L40.2713 52.1779L38.9583 50.9105C39.5847 50.0898 40.5725 48.9552 41.8976 47.5792C43.4998 45.9136 44.4273 46.0343 46.0898 47.9413C47.1619 49.1604 48.1377 50.4519 49.3062 51.9968L47.8365 53.5297C47.0414 52.5279 46.3668 51.6468 45.3067 50.3432L45.3188 50.3312ZM41.7289 53.409L43.2106 51.864L46.0054 55.4367L44.5478 56.9575L41.741 53.409H41.7289Z" fill="black"/>
<path d="M49.6194 50.8985L48.9568 49.1121C51.1613 48.1586 52.9081 47.362 53.1128 47.2051L53.2213 46.9758C52.9803 46.2274 51.9082 44.2721 51.1854 43.2945C50.9284 42.9404 50.7798 42.7473 50.7397 42.7151L50.5951 42.7513L48.7882 44.079L50.4867 45.9136L48.8123 47.1448L46.5234 44.6825L46.0657 43.8014L51.1252 40.0718C51.6191 40.4581 51.9684 40.7598 52.2576 41.0857C53.5586 42.86 54.6307 44.9239 54.7512 45.8774C54.9921 47.2292 54.5343 48.1586 53.0647 49.2328C52.0648 49.9691 50.6674 50.645 49.6073 50.8743L49.6194 50.8985Z" fill="black"/>
<path d="M53.7754 38.5873L55.7028 37.501L57.4496 42.0634L55.5342 43.1376L53.7754 38.5873Z" fill="black"/>
<path d="M69.5322 34.3145C69.749 34.9904 70.0382 36.5474 70.7007 40.5305L68.6649 41.1823C68.436 39.927 68.2673 38.8286 67.9541 37.163C67.7373 36.0405 67.5927 35.4129 67.4723 35.087L67.1109 34.9542L65.0991 35.5939L65.834 39.927C66.0869 41.4237 65.6051 42.3772 64.4486 42.7513C63.7861 42.9686 63.003 42.9927 62.3766 42.8117L62.4007 40.9409L63.7379 41.0133L63.8222 40.9288L63.0392 36.2578L61.6418 36.7043L61.0876 34.9663C62.22 34.4594 63.9547 33.8317 66.1472 33.1317C67.5927 32.673 68.2914 32.4799 68.6046 32.4678C68.7974 32.7454 68.954 32.9386 69.0985 33.18C69.3154 33.6265 69.4358 33.9404 69.5443 34.3145H69.5322Z" fill="black"/>
<path d="M72.1221 31.8643L74.3025 31.4902L74.5073 39.8908L72.351 40.2649L72.1221 31.8643Z" fill="black"/>
<path d="M83.3495 37.3561L83.1567 39.1907L76.0493 39.5166L76.2421 37.682L80.2174 37.501C80.3499 35.6905 80.4342 34.0731 80.4101 33.4817C80.4101 33.361 80.386 33.2403 80.374 33.1558L80.0487 32.9144L76.5914 33.0713L76.5071 31.2488C77.4347 31.0919 78.5429 30.9712 79.6512 30.9229C81.7352 30.8263 82.4339 31.3574 82.5183 33.0593C82.5544 33.7472 82.446 35.3284 82.2412 37.4044L83.3495 37.3561Z" fill="black"/>
<path d="M86.0719 31.116L88.2764 31.285L86.4092 39.4804L84.2288 39.3114L86.0719 31.116Z" fill="black"/>
<path d="M98.0581 35.256C97.9015 35.9319 97.3955 37.3561 95.9258 41.2064L93.8418 40.7357C94.2875 39.5408 94.685 38.5028 95.2512 36.9096C95.6367 35.8353 95.8174 35.2198 95.8776 34.8698L95.6367 34.568L93.2877 34.0369L90.9868 40.0839L88.9148 39.6132L91.2157 33.5662L90.0351 33.3007L90.4327 31.5143C91.6975 31.6592 93.5045 31.9971 95.721 32.492C97.2028 32.83 97.9015 33.011 98.1785 33.1679C98.2026 33.3852 98.2267 33.6507 98.2388 34.0369C98.1906 34.4715 98.1424 34.8335 98.0581 35.2439V35.256Z" fill="black"/>
<path d="M104.768 42.7513L103.816 44.3325L97.251 41.5805L98.2026 39.9994L101.877 41.5323C102.78 39.9511 103.539 38.5269 103.756 37.9837C103.804 37.8751 103.828 37.7544 103.864 37.682L103.672 37.3199L100.479 35.9801L101.178 34.3024C102.082 34.5559 103.13 34.918 104.154 35.3525C106.081 36.1612 106.491 36.9337 105.828 38.5148C105.563 39.1545 104.804 40.5425 103.732 42.3289L104.756 42.7634L104.768 42.7513Z" fill="black"/>
<path d="M118.103 44.9118C117.212 45.8895 116.128 46.9154 115.056 47.8207C112.791 49.7277 111.863 49.8001 109.707 48.231C108.563 47.3982 107.466 46.2637 107.069 45.4912L108.514 44.248C109.008 44.8877 109.43 45.3705 109.779 45.7809L112.863 39.9753L114.622 41.2547L111.333 47.2534L111.755 47.5551L112.008 47.6155C112.683 47.3137 114.791 45.3584 116.995 42.9807L118.549 44.1152L118.091 44.9118H118.103Z" fill="black"/>
<path d="M115.67 52.8538L116.212 52.1055L113.225 50.9347L114.959 49.5587L117.236 50.5485L120.549 46.0223L122.115 47.5189L117.092 54.2056L115.682 52.8538H115.67Z" fill="black"/>
<path d="M124.789 50.4036L126.235 52.0813L119.152 56.5713L117.718 54.9057L124.789 50.3915V50.4036Z" fill="black"/>
<path d="M120.188 57.211L122.055 56.6075C122.235 57.1869 122.392 57.7541 122.561 58.3335L122.79 58.418C122.874 58.418 123.5 58.1645 124.163 57.8507C124.898 57.5248 125.681 57.1144 126.97 56.3903L126.054 55.0746L127.656 53.9521L129.813 57.0179L129.042 57.7059C127.608 58.5145 126.897 58.8766 125.524 59.5163C122.934 60.7354 122.043 60.6871 121.067 59.2991C120.754 58.8525 120.44 58.08 120.2 57.1989L120.188 57.211Z" fill="black"/>
<path d="M131.198 68.8946C131.114 68.786 131.041 68.6532 130.969 68.4963L129.042 71.7793L127.174 70.7413L130.222 66.0461L125.922 67.1807L125.078 65.1891L133.186 63.0407L134.029 65.0322L131.885 65.5995C131.933 66.1427 132.126 67.41 132.21 67.8445L132.318 67.9652C132.788 67.8928 133.27 67.7842 134.185 67.5186L134.993 67.3014L135.836 69.2808C135.667 69.3532 135.487 69.4136 135.306 69.4739C134.101 69.824 133.427 69.9809 132.969 70.0171C132.162 70.0654 131.716 69.7757 131.198 68.9187V68.8946Z" fill="black"/>
<path d="M135.426 75.4606L134.535 71.8517L135.836 71.562L139.594 71.1879L140.1 73.2518L136.968 73.5777L137.872 77.2349L137.113 77.5245L129.475 77.8142L128.969 75.7503L135.426 75.4606Z" fill="black"/>
</g>
<defs>
<clipPath id="clip0_2088_4493">
<rect width="167" height="168" fill="white"/>
</clipPath>
</defs>
</svg>
