<svg width="165" height="165" viewBox="0 0 165 165" fill="none" xmlns="http://www.w3.org/2000/svg">
<g clip-path="url(#clip0_2088_4419)">
<path d="M101.488 161.007L82.9501 140.047C80.14 136.874 75.4006 136.309 71.9195 138.727L48.9355 154.715C42.3297 159.311 33.4486 153.647 34.8431 145.732L39.6874 118.185C40.4213 114.018 37.9049 109.956 33.847 108.741L7.00441 100.763C-0.712838 98.4701 -1.82429 88.0106 5.25335 84.1576L29.8416 70.7665C33.5639 68.7353 35.1787 64.2436 33.5849 60.3174L23.089 34.3936C20.0692 26.939 27.5767 19.5472 35.0004 22.6672L60.8154 33.5142C64.7265 35.1579 69.2457 33.6084 71.3323 29.9229L85.0891 5.5697C89.0421 -1.43474 99.5065 -0.178338 101.698 7.559L109.3 34.4774C110.453 38.5502 114.48 41.1259 118.663 40.4453L146.313 35.9955C154.261 34.7182 159.808 43.6701 155.111 50.2034L138.774 72.9128C136.3 76.3574 136.803 81.1003 139.938 83.9482L160.657 102.763C166.613 108.176 163.069 118.08 155.016 118.489L127.052 119.902C122.816 120.112 119.408 123.462 119.135 127.692L117.321 155.594C116.797 163.625 106.825 167.028 101.499 160.997L101.488 161.007Z" fill="white" stroke="black" stroke-width="0.901917" stroke-linecap="round" stroke-linejoin="round"/>
<path d="M103.963 158.61L83.8414 135.858C80.8845 132.519 75.883 131.911 72.2131 134.466L47.2683 151.815C43.0952 154.715 37.4855 151.145 38.3662 146.14L43.6299 116.248C44.4058 111.851 41.753 107.579 37.475 106.302L8.33608 97.643C3.46038 96.1981 2.75785 89.5915 7.22463 87.152L33.91 72.6196C37.8315 70.4837 39.5301 65.7513 37.8525 61.6157L26.4653 33.4723C24.557 28.7608 29.2964 24.1016 33.9833 26.07L62.0003 37.8487C66.1211 39.5763 70.8814 37.9534 73.0834 34.0691L88.0146 7.63228C90.5101 3.20347 97.1159 3.99919 98.5 8.88869L106.752 38.1C107.968 42.3927 112.204 45.1045 116.619 44.3925L146.628 39.5658C151.65 38.7596 155.153 44.4134 152.185 48.5386L134.454 73.1955C131.844 76.8181 132.378 81.8228 135.681 84.8172L158.172 105.234C161.937 108.647 159.693 114.908 154.607 115.159L124.252 116.688C119.785 116.908 116.199 120.447 115.916 124.896L113.945 155.186C113.62 160.254 107.318 162.4 103.952 158.599L103.963 158.61Z" fill="#FAAF40" stroke="black" stroke-width="1.80383" stroke-linecap="round" stroke-linejoin="round"/>
<path d="M50.6655 84.2517L46.7964 85.55L46.0834 83.0267L44.8566 76.2107L50.5606 74.3052L51.347 78.6712L55.6356 77.2368L56.3905 78.8492L57.1559 90.1777L51.3575 92.1147L50.6655 84.2517Z" fill="black"/>
<path d="M59.1376 76.0537L64.9884 74.0958L66.3305 81.4981L60.4797 83.456L59.1376 76.0537Z" fill="black"/>
<path d="M83.1702 71.5829C83.8098 73.478 84.2816 75.6977 85.1309 80.807L79.6051 82.6602C78.7768 78.179 78.2735 75.8547 77.938 75.0485L77.6968 74.9648L76.4805 75.3731L77.896 83.2361L72.192 85.1416L70.7764 77.2786L69.4343 77.7288L67.9034 73.1849C69.99 72.2949 73.2824 71.0594 76.0611 70.1276C78.2316 69.4052 80.1504 68.8398 81.5135 68.5257L82.3628 69.6774C82.6669 70.2533 82.929 70.8919 83.1702 71.6039V71.5829Z" fill="black"/>
<path d="M100.712 65.7198C101.362 67.6672 101.845 69.8868 102.673 74.9438L97.1473 76.797C96.3399 72.3891 95.8156 69.9915 95.4801 69.1853L95.2389 69.1016L94.463 69.3633L95.0921 72.8603C95.6793 76.0537 94.7042 78.0011 92.1457 78.8491C90.877 79.2679 88.9687 79.3936 87.6265 79.1109L87.4378 74.8182L89.1155 74.881L89.3461 74.6926L88.738 71.2689L86.9869 71.8552L85.4561 67.3112C87.637 66.3898 90.9399 65.1544 93.6137 64.2539C95.6898 63.5629 97.6086 62.9975 99.0661 62.652L99.9154 63.8037C100.219 64.3796 100.482 65.0183 100.723 65.7302L100.712 65.7198Z" fill="black"/>
<path d="M118.307 59.8252C118.957 61.7726 119.439 63.9922 120.268 69.0492L114.742 70.9024C113.934 66.4946 113.41 64.0969 113.075 63.2907L112.833 63.207L112.057 63.4687L112.687 66.9657C113.274 70.1591 112.299 72.1065 109.74 72.9546C108.471 73.3734 106.563 73.499 105.221 73.2163L105.032 68.9236L106.71 68.9864L106.941 68.798L106.332 65.3743L104.581 65.9606L103.051 61.4166C105.231 60.4952 108.534 59.2598 111.208 58.3594C113.274 57.6683 115.203 57.103 116.661 56.7574L117.51 57.9091C117.814 58.485 118.076 59.1237 118.317 59.8356L118.307 59.8252Z" fill="black"/>
<path d="M63.9817 96.6272L70.2624 94.5228L71.269 106.228L67.0015 107.652L63.9817 96.6272ZM67.1797 109.118L71.4892 108.301L72.9048 112.51L67.6411 114.269L67.1902 109.118H67.1797Z" fill="black"/>
<path d="M86.3579 94.0098L86.5991 95.0673C87.8888 100.595 87.5742 102.019 82.8558 103.841L86.3999 111.338L80.6958 113.243L73.6287 98.2606L79.3013 96.3656L81.0733 100.103C81.3145 100.103 81.4927 100.124 81.5976 100.124L81.7863 99.9568C81.6919 99.203 81.4927 98.1874 81.1467 96.8367L80.895 95.8421L86.3579 94.0203V94.0098Z" fill="black"/>
<path d="M97.7028 95.6744L97.3568 95.5174L90.73 97.737L89.1677 93.0883C91.4955 92.1146 94.3161 91.0676 97.21 90.0939C101.184 88.7642 102.6 89.5076 103.48 93.4338C103.952 95.4964 104.288 97.4648 104.812 101.265L99.2547 103.129C98.4473 98.7735 98.0908 96.5958 97.6923 95.664L97.7028 95.6744ZM90.9398 99.3285L96.7591 97.381L97.8706 103.611L92.0512 105.558L90.9398 99.3285Z" fill="black"/>
<path d="M112.403 98.7421L111.785 97.4648L107.958 100.857L106.972 95.3394L109.132 93.6956L106.123 87.3926L111.848 85.4766L117.321 97.0983L112.403 98.7421Z" fill="black"/>
<path d="M120.771 87.8535L116.901 89.1518L116.188 86.6285L114.962 79.8125L120.666 77.907L121.452 82.273L125.741 80.8386L126.496 82.451L127.261 93.7795L121.463 95.7165L120.771 87.8535Z" fill="black"/>
</g>
<defs>
<clipPath id="clip0_2088_4419">
<rect width="164.149" height="164.149" fill="white" transform="translate(0 0.449707)"/>
</clipPath>
</defs>
</svg>
