<svg width="202" height="167" viewBox="0 0 202 167" fill="none" xmlns="http://www.w3.org/2000/svg">
<path d="M67.36 166.46C61.02 166.46 54.49 163.44 50.73 158.77C48.9 156.5 47.77 153.95 47.39 151.3C46.2 151.55 44.94 151.69 43.61 151.69C40.67 151.69 37.68 150.97 34.72 149.55C30.86 147.7 25.1 141.94 24.33 135.94C23.25 127.58 28.68 120.17 33.81 115.18C33.66 114.67 33.52 114.15 33.38 113.63C24.54 111.67 14.91 108.65 9.45 104.18C-0.759998 95.82 -2.44 82.27 5.47 71.96C10.73 65.1 24.71 55.17 36.22 55.17C41.32 55.17 45.63 56.99 48.71 60.24C49.66 60.02 50.62 59.83 51.58 59.67C51.44 59.15 51.34 58.62 51.27 58.07C51.2 57.56 51.17 57.06 51.16 56.57C46.16 53.61 41.96 50.73 39.64 47.21C36.39 42.28 36.5 37.66 37.37 34.25C32.99 29.18 30.94 22.15 31.86 16.58C32.99 9.77 38.32 5.2 45.13 5.2C47.23 5.2 49.45 5.64 51.74 6.52C57.79 8.83 67.76 15.55 79.22 23.44C80.85 24.56 82.29 25.55 83.45 26.33C84.1 26.77 84.83 27.26 85.62 27.78C88.62 29.79 92.43 32.33 96.41 35.21C96.73 31.27 97.92 27.26 100.35 24.2C101.26 23.06 102.29 22.1 103.43 21.33C103.43 15.21 104.95 8.36 111.34 3.09L114.48 0.5L118.53 0.94C123.54 1.48 127.23 4.66 129.51 10.38C132.51 17.92 136.58 38.75 136.98 46.64C137.07 48.37 137.04 50.02 136.89 51.6C144.23 53.36 150.38 57.21 155.41 61.09C156.14 61 156.71 60.98 157.19 60.98C157.41 60.98 157.62 60.98 157.82 61C167.17 61.49 174.72 67.72 176.61 76.5C177.48 80.56 177.03 84.64 175.46 88.29C176.06 88.4 176.62 88.54 177.16 88.71C183.52 90.65 186.36 94.94 187.72 98.39C194.56 101.02 199.17 108.49 200.32 115.61C201.93 125.6 197 134.29 188.05 137.24C181.35 139.45 171.8 140.23 163.37 140.92C161.52 141.07 159.75 141.22 158.12 141.37C156.93 141.48 155.57 141.54 154.07 141.54C152.64 144.87 150.2 147.73 146.81 149.96C143.48 152.14 139.06 153.39 134.68 153.39C130.88 153.39 127.32 152.46 124.39 150.69C119.7 147.86 117.17 142.01 115.8 136.71C108.04 138.78 96.41 141.67 86.56 143.3L82.64 156.2L82.53 156.49C80.23 162.64 74.41 166.46 67.35 166.46H67.36Z" fill="white" stroke="black" stroke-miterlimit="10"/>
</svg>
