<svg width="167" height="163" viewBox="0 0 167 163" fill="none" xmlns="http://www.w3.org/2000/svg">
<path d="M135.126 139.817C132.016 156.768 113.4 166.052 97.7933 158.451L97.6711 158.385C89.4626 154.381 79.8101 154.546 71.7459 158.825L71.5904 158.913C56.2952 167.02 37.4012 158.429 33.6579 141.643L33.6023 141.39C31.6252 132.557 25.4827 125.198 17.0853 121.634L16.8632 121.535C0.901499 114.748 -4.08582 94.7389 6.85519 81.3738L6.89962 81.3298C12.6756 74.2787 14.6527 64.8956 12.2091 56.1505V56.1175C7.56607 39.5074 20.2843 23.1282 37.6899 23.2822H37.7233C46.8871 23.3702 55.5399 19.0582 60.9271 11.7211L60.9604 11.6661C71.1905 -2.23798 91.9951 -2.61198 102.725 10.9181L102.869 11.1051C108.512 18.2222 117.265 22.2152 126.395 21.8302H126.651C143.99 21.0932 157.23 36.9554 153.254 53.6865L153.209 53.8625C151.11 62.6846 153.431 71.9577 159.452 78.7887L159.541 78.8987C170.97 91.8788 166.694 112.086 150.954 119.423C142.657 123.295 136.748 130.896 135.104 139.839L135.126 139.817Z" fill="white" stroke="#CDCDCD" stroke-miterlimit="10"/>
</svg>
