<svg width="134" height="135" viewBox="0 0 134 135" fill="none" xmlns="http://www.w3.org/2000/svg">
<g clip-path="url(#clip0_2088_3468)">
<path d="M12.5275 127.078C9.32574 123.335 8.4599 119.448 8.2254 117.734C7.6121 114.289 1.6865 80.7824 0.514013 69.2018C-0.180463 62.3743 1.14535 55.5829 4.34716 49.5581C5.19496 47.9707 6.05178 46.6539 6.79135 45.6348C7.08898 39.8445 8.86576 33.8467 12.0946 27.7768L14.2322 23.7543L31.7744 21.4544L48.1352 5.98651C51.4092 2.89293 55.7023 1.17929 60.2028 1.17929C63.4317 1.17929 66.5884 2.07219 69.3483 3.74975L86.5749 14.2571L116.176 10.3788L111.143 24.097C111.143 24.097 110.476 25.9369 109.781 28.4262L110.909 29.1116C114.796 31.4837 118.178 34.5141 120.965 38.1308C122.3 39.4656 123.166 41.0079 123.752 42.2886C125.998 46.1849 127.495 50.4059 128.216 54.8523C130.092 66.469 131.968 83.9933 132.771 97.4769C132.942 100.336 132.825 103.024 132.428 105.45C132.257 107.524 131.806 111.285 129.254 114.063C125.619 119.754 119.955 122.027 115.671 122.271C109.935 123.091 53.8443 131.118 37.7181 133.806C35.2198 134.221 32.8297 134.428 30.611 134.428C20.8612 134.428 15.3956 130.433 12.5275 127.078Z" fill="white" stroke="black" stroke-width="0.676437" stroke-linecap="round" stroke-linejoin="round"/>
<path d="M64.6318 11.407C61.1955 9.31454 56.7761 9.77452 53.8538 12.5434L13.9982 50.1623C13.9982 50.1623 6.79184 57.54 8.00943 69.5355C9.22702 81.531 15.8381 118.591 15.8381 118.591C15.8381 118.591 16.8572 130.523 35.5449 127.42C53.1233 124.498 115.825 115.56 115.825 115.56C115.825 115.56 126.025 115.786 125.069 99.8128C124.285 86.6088 122.436 69.0936 120.524 57.2604C119.18 48.9538 114.255 41.6573 107.067 37.2739L64.6318 11.416V11.407Z" fill="#C195F4" stroke="black" stroke-width="0.901917" stroke-miterlimit="10"/>
<path d="M115.391 44.9402L76.9786 76.2187C75.0304 77.8962 75.2108 80.9537 77.3303 82.3968L121.1 111.015C121.741 111.439 123.021 110.627 123.671 110.23C127.811 107.659 120.496 48.0879 115.391 44.9492V44.9402Z" stroke="black" stroke-width="0.901917" stroke-miterlimit="10"/>
<path d="M16.5683 57.4768C16.5683 57.4768 10.4623 48.151 18.8231 32.4396L103.531 21.3461C103.531 21.3461 98.7509 34.3517 100.194 41.08C101.556 47.4295 105.741 52.8049 105.741 52.8049L76.9787 76.2187C76.9787 76.2187 75.2921 78.3382 75.238 79.8173L58.2188 81.8827C56.4871 77.0394 10.8953 54.6448 10.8953 54.6448" fill="#F4EDD0"/>
<path d="M16.5683 57.4768C16.5683 57.4768 10.4623 48.151 18.8231 32.4396L103.531 21.3461C103.531 21.3461 98.7509 34.3517 100.194 41.08C101.556 47.4295 105.741 52.8049 105.741 52.8049L76.9787 76.2187C76.9787 76.2187 75.2921 78.3382 75.238 79.8173L58.2188 81.8827C56.4871 77.0394 10.8953 54.6448 10.8953 54.6448" stroke="black" stroke-width="0.676437" stroke-linecap="round" stroke-linejoin="round"/>
<path d="M18.1467 123.587C18.1467 123.587 61.105 91.3889 58.2279 81.8827" stroke="black" stroke-width="0.901917" stroke-miterlimit="10"/>
<path d="M88.6856 57.6572C87.892 51.6865 84.3294 47.2941 80.7307 47.8353C77.1321 48.3764 74.8683 53.6617 75.671 59.6323C75.9776 61.9142 76.6811 63.9615 77.6462 65.594C81.1907 65.0078 84.7533 64.7643 88.2978 64.169C88.8299 62.275 89.0013 60.0202 88.6856 57.6662V57.6572Z" fill="black"/>
<path d="M54.1603 62.2479C53.3575 56.2141 49.795 51.7677 46.2053 52.3178C42.6157 52.868 40.3519 58.2074 41.1456 64.2412C41.4522 66.5411 42.1648 68.6155 43.1208 70.266C46.6653 69.6797 50.2279 69.4272 53.7724 68.8229C54.3046 66.9109 54.4759 64.638 54.1603 62.2479Z" fill="black"/>
<path d="M61.0059 67.1093C61.0059 67.1093 61.9439 71.3122 66.3813 70.5456C70.8187 69.779 70.4309 65.4227 70.4309 65.4227" stroke="black" stroke-width="1.80383" stroke-linecap="round" stroke-linejoin="round"/>
<path d="M44.4557 70.6719C42.8142 72.5028 42.7782 74.6403 42.7782 74.6403C42.7782 74.6403 42.9586 79.5738 46.5301 77.7971C50.1017 76.0203 49.9935 69.6257 49.9935 69.6257C49.9935 69.6257 49.9033 64.6561 45.6643 63.9526C41.4253 63.2491 38.918 68.7779 38.918 68.7779C38.918 68.7779 42.8233 70.5547 43.2742 71.1229L44.4648 70.6809L44.4557 70.6719Z" fill="#F4EDD0" stroke="black" stroke-width="0.676437" stroke-linecap="round" stroke-linejoin="round"/>
<path d="M47.9192 77.4814C47.9192 77.4814 47.7118 81.2424 51.8606 79.1499C54.909 77.6167 55.6847 73.1431 55.8831 70.8613C55.9913 69.5986 55.5494 68.2999 54.5573 67.5152C53.5652 66.7305 52.0319 66.3878 49.7591 68.0834C49.7591 68.0834 50.2912 70.5637 49.687 72.6381C49.0827 74.7125 49.3352 74.2796 47.9192 77.4814Z" fill="#F4EDD0" stroke="black" stroke-width="0.676437" stroke-linecap="round" stroke-linejoin="round"/>
<path d="M55.8828 70.8703C55.8828 70.8703 57.0643 69.6888 58.5885 70.4374C60.1128 71.186 61.0868 73.9729 59.6528 76.868C58.2187 79.7632 56.8208 81.7294 54.4307 80.9718C54.4307 80.9718 52.6449 80.8275 52.681 79.0507C52.681 79.0507 56.8478 75.5783 55.8828 70.8703Z" fill="#F4EDD0" stroke="black" stroke-width="0.676437" stroke-linecap="round" stroke-linejoin="round"/>
<path d="M79.8919 75.7947C79.8919 75.7947 80.1174 78.3111 77.2583 78.266C74.3992 78.2209 72.1624 74.0811 72.1624 74.0811C72.1624 74.0811 71.2245 72.5478 71.3868 70.8162C71.5221 69.4001 72.5773 68.1555 73.9933 67.9571C74.3361 67.912 74.7059 67.921 75.0937 68.0292C75.0937 68.0292 75.2921 73.3235 79.8919 75.7947Z" fill="#F4EDD0" stroke="black" stroke-width="0.676437" stroke-linecap="round" stroke-linejoin="round"/>
<path d="M84.609 73.3596C84.609 73.3596 84.0678 77.6166 79.901 75.7947C77.2313 74.6222 75.9325 71.682 75.3463 69.7248C74.9044 68.2367 75.0397 66.6042 75.8965 65.3145C76.6451 64.1961 77.8987 63.3483 79.9551 64.4576C79.9551 64.4576 79.8649 69.2198 84.609 73.3596Z" fill="#F4EDD0" stroke="black" stroke-width="0.676437" stroke-linecap="round" stroke-linejoin="round"/>
<path d="M86.6833 65.7925C88.0542 66.9379 90.8411 71.673 87.7656 73.3055C84.6901 74.9289 82.1647 70.6538 82.1647 70.6538C82.1647 70.6538 77.2042 63.3483 82.9223 60.1555C88.6405 56.9627 91.8513 64.0067 91.8513 64.0067C91.8513 64.0067 89.9933 65.6211 88.3519 66.965L86.6833 65.8015V65.7925Z" fill="#F4EDD0" stroke="black" stroke-width="0.676437" stroke-linecap="round" stroke-linejoin="round"/>
</g>
<defs>
<clipPath id="clip0_2088_3468">
<rect width="133.186" height="133.926" fill="white" transform="translate(0 0.845581)"/>
</clipPath>
</defs>
</svg>
