<svg width="153" height="129" viewBox="0 0 153 129" fill="none" xmlns="http://www.w3.org/2000/svg">
<g clip-path="url(#clip0_2088_3562)">
<path d="M113.939 128.424C109.078 128.424 104.388 127.883 100.005 126.819C91.6437 124.78 84.3021 120.613 78.8275 115.049C70.6561 123.256 59.4092 127.955 47.3055 127.955C44.257 127.955 41.1635 127.657 38.115 127.071C36.8884 126.837 34.5705 126.187 32.929 125.682C29.3484 124.582 26.6516 123.617 24.5863 121.136C22.4307 118.539 21.4746 114.886 21.9707 111.206L10.2728 113.831L23.0169 93.7633L1.18152 84.3473L23.2875 75.5987L11.1657 55.1523L34.1917 61.0688L36.4014 37.4025L51.5536 55.7205L56.965 49.5694C57.6415 43.9414 59.3281 38.2503 63.2875 33.2357C64.0902 32.2165 65.1905 31.1703 67.0034 29.4837C66.7418 28.7351 66.4532 27.9595 66.2277 27.3642C65.5964 25.6957 64.956 23.973 64.5141 22.1782L64.487 22.07C64.0992 20.4736 62.8997 15.6213 66.5795 10.8772C70.8906 5.31235 78.9357 5.02373 80.5051 5.02373C88.6674 5.02373 91.8782 9.91212 92.8884 12.0136C93.0507 12.3563 93.2041 12.7171 93.3484 13.0959L96.2165 1.82193L108.014 21.7182L125.799 6.92678L123.644 29.9617L146.733 28.4555L131.454 45.8264L151.017 58.1737L128.442 63.2424L137.01 84.7351L135.991 84.2932C136.09 84.5908 136.18 84.8884 136.253 85.1771C137.091 88.5592 136.658 94.575 130.598 97.8129C130.309 98.336 129.984 98.8862 129.623 99.4093C129.172 100.059 128.685 100.681 128.171 101.276C128.289 101.276 128.406 101.276 128.532 101.276C133.222 101.276 137.281 103.847 139.139 107.987C140.888 111.883 140.852 115.941 139.03 119.423C135.928 125.375 129.362 126.629 126.205 127.233L125.926 127.288C122.038 128.036 118.007 128.415 113.948 128.415L113.939 128.424Z" fill="white" stroke="black" stroke-width="0.901917" stroke-miterlimit="10"/>
<path d="M39.1703 110.981L38.3676 98.2728L25.9392 101.06L32.7667 90.3089L21.0688 85.2581L32.92 80.5682L26.4262 69.6099L38.7644 72.7846L39.946 60.1037L48.0632 69.9165L56.4781 60.3562L57.2808 73.0642L69.7092 70.2773L62.8817 81.0281L74.5796 86.0789L62.7284 90.7598L69.2222 101.727L56.884 98.5524L55.7024 111.233L47.5852 101.42L39.1703 110.981Z" fill="#F4EDD0" stroke="black" stroke-width="0.676437" stroke-linecap="round" stroke-linejoin="round"/>
<path d="M93.4023 69.2221L94.5207 57.2356L82.5072 58.0203L90.4621 48.9831L80.2794 42.5614L92.0224 39.9188L87.5669 28.7351L98.6154 33.5062L101.583 21.8444L107.725 32.1984L116.978 24.5051L115.86 36.4825L127.865 35.6979L119.919 44.7351L130.092 51.1657L118.349 53.7993L122.814 64.9831L111.756 60.212L108.789 71.8828L102.656 61.5288L93.4023 69.2221Z" fill="#F4EDD0" stroke="black" stroke-width="0.676437" stroke-linecap="round" stroke-linejoin="round"/>
<path d="M108.537 101.637C110.864 104.235 113.614 106.507 116.473 108.492C119.531 110.611 126.584 114.76 130.21 114.661C131.779 114.616 134.223 113.542 135.017 115.319C137.136 120.045 131.536 120.938 128.271 121.569C120.586 123.048 111.928 123.012 104.307 121.154C93.0417 118.413 82.3811 110.746 78.9267 99.301C77.6911 100.997 76.8703 103.044 75.7159 104.848C67.0485 118.431 51.3461 124.374 35.5626 121.326C34.2458 121.073 27.5085 119.197 26.9132 118.485C26.0744 117.484 26.2187 114.48 27.5085 113.813C28.5366 113.272 31.6753 113.109 33.1725 112.694C49.6595 108.149 62.1871 89.9211 64.4419 73.5513C66.1015 61.4566 61.5829 45.5288 69.7542 35.1838C70.8095 33.8489 76.6358 28.8704 76.7531 28.23C77.5378 23.8647 74.1466 17.9121 73.1184 13.7182C72.8117 12.4555 72.5592 11.5987 73.4431 10.4622C75.1026 8.3247 82.841 7.0079 84.1488 9.75875C84.9605 11.4634 85.2131 16.2435 85.3303 18.2819C85.5197 21.5558 85.195 24.8568 85.7001 28.1128C85.8174 28.4645 87.6031 29.4115 88.0902 29.8084C96.0812 36.4916 95.2243 56.7666 95.9098 66.5524C96.3066 72.2345 96.0361 75.0214 100.014 79.3777C105.56 85.4476 113.308 88.2435 121.506 87.5671C123.644 87.3867 130.408 85.1409 131.22 88.3788C131.77 90.6065 128.83 90.3811 127.919 91.2289C127.224 91.8783 126.223 94.2864 125.52 95.3055C123.22 98.6246 118.557 101.556 114.444 101.601L108.555 101.664L108.537 101.637ZM78.6381 13.4115C77.3303 13.5829 75.77 13.3303 74.4261 13.4566C75.761 17.7407 77.8534 21.9797 78.1691 26.5344C78.3134 28.699 78.2503 28.9335 76.7711 30.3946C75.0665 32.0812 72.8388 33.4431 71.2875 35.2649C62.9989 45.0237 67.1747 60.7982 65.8579 72.5682C64.5411 84.3382 58.372 96.7125 49.1454 104.767C43.2289 109.935 35.7971 114.138 27.8602 114.985C27.9324 116.149 27.2379 117.366 28.5817 117.962C37.0056 121.678 49.434 121.443 57.9301 118.133C68.0316 114.201 74.9853 105.678 78.8185 95.7384L79.3596 95.4228C83.5716 117.817 109.303 124.383 128.983 120.108C130.047 119.874 132.762 119.242 133.565 118.71C134.151 118.322 133.953 116.618 133.908 115.959L133.718 115.671C131.671 115.563 130.029 116.248 127.937 115.743C121.163 114.074 111.901 107.265 107.22 102.133C92.2661 85.7362 95.8196 68.248 93.5558 48.018C92.7802 41.1094 91.4453 31.982 84.2119 29.0688L84.1578 21.646L83.319 11.4363C82.2458 12.3382 80.0361 13.2311 78.6471 13.4115H78.6381ZM126.782 90.4622C127.684 89.4431 129.118 89.6325 130.047 88.7937C128.099 86.9989 124.645 88.478 122.228 88.7486C112.911 89.8129 104.749 86.5118 98.5614 79.6122C98.0924 79.0981 97.7587 78.3405 97.2266 77.9436C98.2909 86.2052 101.727 93.9436 107.319 100.086C113.236 100.943 119.892 100.257 123.86 95.3416C125.006 93.9166 125.826 91.5355 126.782 90.4622Z" fill="black"/>
<path d="M78.6382 13.4115C80.0272 13.2311 82.2278 12.3472 83.3101 11.4363L84.1489 21.646L84.203 29.0687C91.4364 31.9819 92.7712 41.1093 93.5469 48.018C95.8107 68.239 92.2571 85.7271 107.211 102.133C111.892 107.265 121.155 114.074 127.928 115.743C130.02 116.257 131.662 115.563 133.709 115.671L133.899 115.959C133.944 116.618 134.142 118.322 133.556 118.71C132.753 119.242 130.029 119.883 128.974 120.108C109.294 124.392 83.5627 117.817 79.3507 95.4227L78.8096 95.7384C74.9854 105.687 68.0226 114.201 57.9212 118.133C49.4251 121.443 36.9967 121.678 28.5728 117.962C27.229 117.366 27.9234 116.149 27.8513 114.985C35.7881 114.138 43.2199 109.926 49.1365 104.767C58.3631 96.7125 64.4781 84.7801 65.849 72.5682C67.2199 60.3562 62.9899 45.0237 71.2786 35.2649C72.8299 33.434 75.0576 32.0811 76.7622 30.3946C78.2414 28.9335 78.3045 28.6899 78.1602 26.5344C77.8535 21.9797 75.7611 17.7407 74.4172 13.4566C75.7611 13.3303 77.3214 13.5828 78.6292 13.4115H78.6382ZM110.557 111.233C107.527 109.15 104.46 107.066 101.944 104.352C90.2819 91.7339 90.7329 73.903 89.5694 57.912C89.1816 52.5456 88.6314 47.1883 87.6393 41.903L86.7284 38.8275C90.1376 57.1544 86.2594 76.9064 94.1602 94.3134C97.4341 101.529 103.288 107.959 110.566 111.233H110.557ZM70.6111 57.3438C68.663 58.1826 68.3383 63.5761 69.0328 65.7136C69.3936 66.832 70.1512 68.7892 71.7205 69.0236C75.4093 69.1499 75.3101 59.2018 72.2526 57.3799C71.7025 57.0552 71.2064 57.0913 70.6202 57.3528L70.6111 57.3438ZM81.7949 57.6775C79.7927 57.5332 79.0711 61.664 79.3056 64.0541C79.4229 65.2536 80.0903 70.2953 82.7149 69.3123C86.1692 68.0135 85.7092 60.1127 82.5976 57.9842C82.2819 57.7677 82.2188 57.7046 81.7949 57.6775Z" fill="#F7DE63"/>
<path d="M126.782 90.4622C125.826 91.5355 125.015 93.9166 123.86 95.3416C119.892 100.257 113.236 100.943 107.319 100.086C101.727 93.9346 98.2908 86.1962 97.2266 77.9436C97.7587 78.3405 98.0924 79.0981 98.5614 79.6122C104.758 86.5118 112.911 89.8129 122.228 88.7486C124.636 88.469 128.099 86.9989 130.047 88.7937C129.109 89.6325 127.684 89.4431 126.782 90.4622Z" fill="#F7DE63"/>
<path d="M110.557 111.233C103.278 107.959 97.4249 101.529 94.1509 94.3134C86.2501 76.8974 90.1284 57.1545 86.7191 38.8275L87.6301 41.903C88.6222 47.1883 89.1723 52.5457 89.5602 57.9121C90.7236 73.903 90.2636 91.7339 101.934 104.352C104.451 107.067 107.517 109.15 110.548 111.233H110.557Z" fill="black"/>
<path d="M82.1023 69.4379C83.9353 69.419 85.3941 66.7711 85.3607 63.5235C85.3272 60.276 83.8142 57.6586 81.9812 57.6775C80.1483 57.6964 78.6895 60.3443 78.7229 63.5919C78.7563 66.8394 80.2694 69.4568 82.1023 69.4379Z" fill="white" stroke="black" stroke-width="0.901917" stroke-miterlimit="10"/>
<path d="M71.6717 68.9591C73.5046 68.9403 74.9634 66.2923 74.93 63.0448C74.8966 59.7972 73.3835 57.1799 71.5506 57.1988C69.7176 57.2176 68.2588 59.8656 68.2922 63.1131C68.3257 66.3607 69.8387 68.978 71.6717 68.9591Z" fill="white" stroke="black" stroke-width="0.901917" stroke-miterlimit="10"/>
<path d="M71.6928 68.3904C72.9779 68.3772 74.0049 66.9411 73.9868 65.1829C73.9687 63.4246 72.9123 62.01 71.6272 62.0232C70.3422 62.0365 69.3151 63.4725 69.3332 65.2308C69.3513 66.989 70.4077 68.4036 71.6928 68.3904Z" fill="black" stroke="black" stroke-width="0.901917" stroke-miterlimit="10"/>
<path d="M82.0953 68.7613C83.3803 68.7481 84.4074 67.312 84.3893 65.5538C84.3712 63.7955 83.3148 62.3809 82.0297 62.3941C80.7446 62.4074 79.7176 63.8434 79.7357 65.6017C79.7538 67.3599 80.8102 68.7746 82.0953 68.7613Z" fill="black" stroke="black" stroke-width="0.901917" stroke-miterlimit="10"/>
<path d="M76.5983 84.1138C78.4661 84.0946 79.9574 81.8582 79.9292 79.1187C79.901 76.3792 78.364 74.174 76.4961 74.1932C74.6283 74.2125 73.137 76.4489 73.1652 79.1883C73.1934 81.9278 74.7305 84.133 76.5983 84.1138Z" fill="black"/>
</g>
<defs>
<clipPath id="clip0_2088_3562">
<rect width="152.171" height="128.225" fill="white" transform="translate(0 0.649353)"/>
</clipPath>
</defs>
</svg>
