<svg width="136" height="156" viewBox="0 0 136 156" fill="none" xmlns="http://www.w3.org/2000/svg">
<path d="M126.502 121.101L121.037 131.753C119.603 134.558 114.967 138.779 112.424 140.637C105.163 145.949 91.6614 153.597 73.6952 149.16C51.3367 143.64 41.9207 124.835 41.9207 124.835C41.9207 124.835 29.1225 103.135 47.9726 79.7936" fill="#FAAF40"/>
<path d="M126.502 121.101L121.037 131.753C119.603 134.558 114.967 138.779 112.424 140.637C105.163 145.949 91.6614 153.597 73.6952 149.16C51.3367 143.64 41.9207 124.835 41.9207 124.835C41.9207 124.835 29.1225 103.135 47.9726 79.7936" stroke="black" stroke-width="0.901917" stroke-linecap="round" stroke-linejoin="round"/>
<path d="M126.514 121.113C135.163 102.266 124.073 78.6813 101.745 68.435C79.4165 58.1888 54.3047 65.1609 45.656 84.0078C37.0073 102.855 48.0969 126.439 70.4252 136.686C92.7534 146.932 117.865 139.96 126.514 121.113Z" fill="#FAAF40" stroke="black" stroke-width="0.901917" stroke-linecap="round" stroke-linejoin="round"/>
<path d="M84.0404 122.626C84.0404 122.626 93.6909 113.038 84.1486 102.477C74.6154 91.9244 63.639 100.303 63.639 100.303" stroke="black" stroke-width="1.80383" stroke-linecap="round" stroke-linejoin="round"/>
<path d="M47.7474 116.141L41.921 124.835" stroke="black" stroke-width="0.901917" stroke-linecap="round" stroke-linejoin="round"/>
<path d="M57.4883 128.254L51.5537 137.029" stroke="black" stroke-width="0.901917" stroke-linecap="round" stroke-linejoin="round"/>
<path d="M70.4211 136.677L65.4696 145.985" stroke="black" stroke-width="0.901917" stroke-linecap="round" stroke-linejoin="round"/>
<path d="M83.364 140.7L79.6121 150.215" stroke="black" stroke-width="0.901917" stroke-linecap="round" stroke-linejoin="round"/>
<path d="M93.3483 141.367L89.6775 150.152" stroke="black" stroke-width="0.901917" stroke-linecap="round" stroke-linejoin="round"/>
<path d="M47.9817 79.7936C47.9817 79.7936 39.2151 93.5118 43.4812 104.822L38.0607 112.542C38.0607 112.542 34.5612 95.0811 47.9817 79.7936Z" fill="black"/>
<path d="M124.96 124.466L121.037 131.762C121.037 131.762 111.738 144.263 100.708 147.212L104.189 139.627C104.189 139.627 115.977 137.715 124.96 124.466Z" fill="black"/>
<path d="M89.4156 80.7407C85.5735 79.8027 80.6941 84.6279 80.6941 88.4701C80.6761 96.5332 94.1236 90.3371 92.5092 83.4103C92.0492 81.7689 90.994 81.1285 89.4156 80.7407ZM102.52 106.13C103.413 105.733 106.245 103.451 107.265 101.232C108.419 98.7069 107.048 95.2976 104.279 95.0992C94.4123 94.3776 91.5171 111.036 102.53 106.139L102.52 106.13Z" fill="black"/>
<path d="M86.827 82.9594C88.1618 83.3292 89.686 84.2221 90.0739 85.8906C91.8146 91.0676 80.9735 94.8377 80.5226 88.9301C80.3061 86.1161 83.562 82.0575 86.8179 82.9684L86.827 82.9594Z" fill="black"/>
<path d="M88.1079 23.0451L93.9343 33.5073C95.4676 36.2582 96.4055 42.4543 96.5408 45.602C96.9286 54.5941 95.7832 70.062 82.1192 82.5355C65.109 98.0575 44.2387 95.451 44.2387 95.451C44.2387 95.451 19.0842 94.044 10.1462 65.3991" fill="#FAAF40"/>
<path d="M88.1079 23.0451L93.9343 33.5073C95.4675 36.2582 96.4055 42.4544 96.5408 45.602C96.9287 54.5941 95.7832 70.062 82.1192 82.5355C65.109 98.0575 44.2387 95.451 44.2387 95.451C44.2387 95.451 19.0842 94.044 10.1462 65.3991" stroke="black" stroke-width="0.901917" stroke-linecap="round" stroke-linejoin="round"/>
<path d="M69.9132 78.3323C90.8353 65.4559 98.9852 40.7013 88.1165 23.0413C77.2478 5.38138 51.4762 1.50357 30.554 14.38C9.63189 27.2564 1.48198 52.011 12.3507 69.671C23.2194 87.3309 48.991 91.2088 69.9132 78.3323Z" fill="#FAAF40" stroke="black" stroke-width="0.901917" stroke-linecap="round" stroke-linejoin="round"/>
<path d="M34.931 55.0541C34.931 55.0541 38.8363 68.0868 52.6447 64.6595C66.453 61.2322 64.2433 47.6042 64.2433 47.6042" stroke="black" stroke-width="1.80383" stroke-linecap="round" stroke-linejoin="round"/>
<path d="M40.2255 85.7734L44.23 95.4509" stroke="black" stroke-width="0.901917" stroke-linecap="round" stroke-linejoin="round"/>
<path d="M55.7113 84.4024L59.7158 94.2153" stroke="black" stroke-width="0.901917" stroke-linecap="round" stroke-linejoin="round"/>
<path d="M69.9075 78.3326L74.886 87.6133" stroke="black" stroke-width="0.901917" stroke-linecap="round" stroke-linejoin="round"/>
<path d="M80.4325 69.8004L86.2679 78.2063" stroke="black" stroke-width="0.901917" stroke-linecap="round" stroke-linejoin="round"/>
<path d="M86.5383 61.8636L91.8055 69.8004" stroke="black" stroke-width="0.901917" stroke-linecap="round" stroke-linejoin="round"/>
<path d="M10.1372 65.39C10.1372 65.39 16.6671 80.2987 28.4461 83.0315L31.8554 91.8252C31.8554 91.8252 15.3954 85.0338 10.1372 65.39Z" fill="black"/>
<path d="M90.0385 26.1928L93.9257 33.5073C93.9257 33.5073 99.1568 48.1815 95.477 58.9955L91.1027 51.8884C91.1027 51.8884 96.0542 41.0203 90.0385 26.1928Z" fill="black"/>
<path d="M33.9392 31.46C31.0169 34.1387 32.3337 40.867 35.5175 43.0045C42.2097 47.4961 44.5367 32.876 37.8715 30.3687C36.2481 29.8365 35.1297 30.3597 33.9392 31.46ZM62.3315 34.6708C62.4938 33.7058 62.1691 30.0801 60.8884 28.0057C59.4273 25.6426 55.8377 24.885 54.124 27.0767C48.0451 34.8783 60.2932 46.54 62.3225 34.6618L62.3315 34.6708Z" fill="black"/>
<path d="M34.3449 34.8422C35.4002 33.9402 36.9875 33.1646 38.5839 33.7689C43.8601 35.1939 40.974 46.3055 35.806 43.3923C33.3438 42.0034 31.7745 37.0428 34.3449 34.8422Z" fill="black"/>
</svg>
