<svg width="188" height="147" viewBox="0 0 188 147" fill="none" xmlns="http://www.w3.org/2000/svg">
<g clip-path="url(#clip0_2088_3975)">
<path d="M84.78 122.59C83.08 124.33 81.98 126.56 81.53 128.95C80.38 135.07 75.17 143.16 65.25 145C52.72 147.33 35.11 142.05 25.5 126.35C15.89 110.65 10.6 105.25 3.98004 101.31C-5.19996 95.85 3.89004 46.02 30.24 23.18C50.9 5.27001 77.36 -1.44999 100.25 0.980006C134.78 4.65001 157.54 29.44 164.3 36.56C171.06 43.68 177.51 54.99 178.11 55.98C180.88 60.6 183.22 63.93 185.75 71.74C187.83 78.15 186.5 85.1 180.65 88.44L177.55 90.21C175.12 91.6 173.22 93.74 172.14 96.32C168.08 105.98 156.92 130.66 146.15 138.06C136.27 144.84 123.12 144.92 119.8 144.43C117.48 144.09 112.82 142.8 110.94 141.6C107.94 139.68 103.95 137.16 101.3 132.4C99.84 129.77 98.1 123.54 95.71 121.72C92.9 119.58 88.96 118.34 84.78 122.61V122.59Z" fill="white" stroke="black" stroke-linecap="round" stroke-linejoin="round"/>
<path d="M11.48 93.04C11.48 93.04 18.3 57.78 18.69 52.93L105.69 74.06L99.67 111.72L11.48 93.04Z" fill="#C0E54C" stroke="black" stroke-miterlimit="10"/>
<path d="M11.37 83.25C11.37 83.25 22.49 49.1 23.47 44.33L107.2 76.02L96.59 112.65L11.37 83.25Z" fill="#C0E54C" stroke="black" stroke-miterlimit="10"/>
<path d="M13.59 69.86C13.59 69.86 30.3 38.07 32.07 33.53L109.27 78.86L92.64 113.18L13.59 69.86Z" fill="#C0E54C" stroke="black" stroke-miterlimit="10"/>
<path d="M20.0599 53.14C20.0599 53.14 43.3999 25.84 46.1299 21.81L111.36 83.13L87.5399 112.91L20.0599 53.14Z" fill="#C0E54C" stroke="black" stroke-miterlimit="10"/>
<path d="M27.0599 40.33C27.0599 40.33 55.6199 18.55 59.1399 15.19L110.01 88.87L80.4599 112.97L27.0599 40.33Z" fill="#C0E54C" stroke="black" stroke-miterlimit="10"/>
<path d="M39.13 27.68C39.13 27.68 70.74 10.63 74.74 7.86002L113.48 88.57L80.53 107.76L39.13 27.68Z" fill="#C0E54C" stroke="black" stroke-miterlimit="10"/>
<path d="M52.53 19.04C52.53 19.04 86.31 6.85001 90.68 4.70001L117.07 90.25L81.64 104.36L52.53 19.04Z" fill="#C0E54C" stroke="black" stroke-miterlimit="10"/>
<path d="M64.83 15.41C64.83 15.41 100.06 8.41 104.7 6.94L118 95.48L80.86 104.13L64.83 15.41Z" fill="#C0E54C" stroke="black" stroke-miterlimit="10"/>
<path d="M79.96 11.72C79.96 11.72 115.88 11.8 120.71 11.27L116.29 100.69L78.17 101.85L79.96 11.72Z" fill="#C0E54C" stroke="black" stroke-miterlimit="10"/>
<path d="M92.1 12.7C92.1 12.7 127.75 17.1 132.61 17.16L117.46 105.4L79.48 101.97L92.1 12.71V12.7Z" fill="#C0E54C" stroke="black" stroke-miterlimit="10"/>
<path d="M108.12 15.79C108.12 15.79 142.15 27.29 146.9 28.32L114.28 111.69L77.77 100.67L108.12 15.79Z" fill="#C0E54C" stroke="black" stroke-miterlimit="10"/>
<path d="M123.06 19.89C123.06 19.89 153.94 38.23 158.37 40.24L109.08 114.98L75.67 96.59L123.06 19.89Z" fill="#C0E54C" stroke="black" stroke-miterlimit="10"/>
<path d="M139.3 26.6C139.3 26.6 165.77 50.87 169.7 53.75L106.15 116.81L77.22 91.97L139.31 26.61L139.3 26.6Z" fill="#C0E54C" stroke="black" stroke-miterlimit="10"/>
<path d="M159.7 43.17C159.7 43.17 177.92 74.12 180.84 78.02L101.63 119.75L81.22 87.54L159.7 43.18V43.17Z" fill="#C0E54C" stroke="black" stroke-miterlimit="10"/>
<path d="M65.83 101.1C65.83 100.03 67.17 96.49 68.36 92.69C69.55 88.89 72.13 85.29 72.13 85.29C72.13 85.29 76.53 80.14 76.24 75.31C75.95 70.48 70.36 70.35 70.36 70.35C73.33 61.92 67.74 60.23 67.74 60.23C63.66 58.84 60.04 61.57 60.04 61.57C62.31 54.96 57.86 52.72 57.86 52.72C57.86 52.72 54.44 50.65 50.78 52.69C47.12 54.73 41.66 63.71 41.66 63.71C41.66 63.71 41.98 60.32 41.48 58.33C40.98 56.34 39.46 55.57 39.46 55.57C39.46 55.57 37.62 53.81 34.33 54.92C31.04 56.03 27.09 63.5 27.09 63.5L23.97 70.51H22.83L19.46 76.17L19.31 80.26L16.25 88.49C14.75 95.37 17.92 100.44 17.92 100.44C17.92 100.44 31.63 121.13 32.27 122.58C32.91 124.03 39.95 131.25 39.95 131.25C39.95 131.25 59.52 146.58 68.76 130.12C78 113.66 65.81 101.09 65.81 101.09L65.83 101.1Z" fill="#EAB7E6" stroke="black" stroke-linecap="round" stroke-linejoin="round"/>
<path d="M27.1 63.51C27.1 63.51 28.47 67.03 32.31 63.46C36.15 59.89 36.14 58.2 36.14 58.2C36.14 58.2 36.85 55.15 33.65 55.25C33.65 55.25 30.48 57.19 27.11 63.5L27.1 63.51Z" stroke="black" stroke-linecap="round" stroke-linejoin="round"/>
<path d="M41.6699 63.71C41.6699 63.71 32.1499 78.49 30.5899 82.09C29.0299 85.69 27.4799 91.02 27.1899 94.19" stroke="black" stroke-linecap="round" stroke-linejoin="round"/>
<path d="M45.1299 58.59C45.1299 58.59 44.7799 62.4 48.9899 60.49C53.1999 58.59 54.4399 56.21 54.4399 56.21C54.4399 56.21 56.7699 53.08 52.7299 51.94C51.0499 51.46 46.6199 56.49 45.1299 58.59Z" stroke="black" stroke-linecap="round" stroke-linejoin="round"/>
<path d="M38.0399 95.44C39.3599 88.66 42.5199 84.12 46.0099 77.83C49.4999 71.54 60.0499 61.57 60.0499 61.57C60.0499 61.57 57.4599 64.11 56.5299 65.05C56.1599 65.43 56.1099 65.85 56.1799 66.23C56.3099 66.86 56.7899 67.35 57.4099 67.54C58.0299 67.73 59.2499 67.77 60.3999 67.61C61.9299 67.4 64.5699 66.01 65.9299 64.05C67.2899 62.09 65.8899 59.97 65.8899 59.97" stroke="black" stroke-linecap="round" stroke-linejoin="round"/>
<path d="M70.37 70.35C70.37 70.35 65.46 72.19 61.64 77.28C61.64 77.28 51.94 89.54 50.35 98.03" stroke="black" stroke-linecap="round" stroke-linejoin="round"/>
<path d="M71.0499 70.64C71.0499 70.64 73.1199 72.63 71.0899 74.84C69.0499 77.05 65.6999 78.25 65.6999 78.25C65.6999 78.25 62.6399 79.54 62.1899 76.57C62.1899 76.57 66.5199 70.9 71.0499 70.63V70.64Z" stroke="black" stroke-linecap="round" stroke-linejoin="round"/>
<path d="M117.81 100.64C117.81 99.57 116.39 96.05 115.13 92.28C113.87 88.51 111.23 84.95 111.23 84.95C111.23 84.95 106.74 79.88 106.94 75.04C107.14 70.2 112.73 69.97 112.73 69.97C109.61 61.59 115.17 59.8 115.17 59.8C119.22 58.34 122.89 61 122.89 61C120.5 54.44 124.92 52.11 124.92 52.11C124.92 52.11 128.31 49.97 132 51.96C135.69 53.95 141.31 62.82 141.31 62.82C141.31 62.82 140.93 59.44 141.39 57.44C141.85 55.44 143.36 54.65 143.36 54.65C143.36 54.65 145.17 52.85 148.47 53.91C151.78 54.97 155.86 62.36 155.86 62.36L159.1 69.31L162.62 76.17L163.92 78.98L167.12 87.16C168.74 94.01 165.67 99.14 165.67 99.14C165.67 99.14 152.33 120.07 151.72 121.53C151.11 122.99 144.19 130.34 144.19 130.34C144.19 130.34 124.9 146.01 115.36 129.72C105.83 113.43 117.79 100.64 117.79 100.64H117.81Z" fill="#EAB7E6" stroke="black" stroke-linecap="round" stroke-linejoin="round"/>
<path d="M155.86 62.36C155.86 62.36 154.56 65.91 150.65 62.41C146.75 58.91 146.73 57.22 146.73 57.22C146.73 57.22 145.97 54.18 149.17 54.23C149.17 54.23 152.38 56.12 155.86 62.36Z" stroke="black" stroke-linecap="round" stroke-linejoin="round"/>
<path d="M141.3 62.83C141.3 62.83 151.08 77.44 152.71 81.01C154.34 84.58 155.98 89.89 156.32 93.04" stroke="black" stroke-linecap="round" stroke-linejoin="round"/>
<path d="M137.74 57.76C137.74 57.76 138.16 61.56 133.91 59.73C129.67 57.9 128.38 55.55 128.38 55.55C128.38 55.55 126 52.46 130.01 51.25C131.68 50.74 136.2 55.69 137.73 57.76H137.74Z" stroke="black" stroke-linecap="round" stroke-linejoin="round"/>
<path d="M145.49 94.48C144.05 87.73 140.81 83.24 137.21 77.02C133.61 70.8 122.88 61.01 122.88 61.01C122.88 61.01 125.51 63.5 126.46 64.43C126.84 64.8 126.89 65.22 126.83 65.6C126.72 66.23 126.24 66.73 125.63 66.93C125.02 67.13 123.79 67.19 122.64 67.06C121.1 66.88 118.44 65.54 117.05 63.6C115.66 61.66 117.01 59.52 117.01 59.52" stroke="black" stroke-linecap="round" stroke-linejoin="round"/>
<path d="M112.72 69.97C112.72 69.97 117.66 71.72 121.57 76.75C121.57 76.75 131.49 88.84 133.23 97.3" stroke="black" stroke-linecap="round" stroke-linejoin="round"/>
<path d="M112.04 70.28C112.04 70.28 110 72.31 112.08 74.48C114.15 76.66 117.53 77.8 117.53 77.8C117.53 77.8 120.61 79.03 121.01 76.06C121.01 76.06 116.58 70.47 112.04 70.28Z" stroke="black" stroke-linecap="round" stroke-linejoin="round"/>
<path d="M19.3299 80.27C19.3299 80.27 20.7299 77.42 26.9899 79.44C26.9899 79.44 29.8199 80.85 30.5799 82.1L34.7399 74.55C34.7399 74.55 32.8399 72.57 32.5499 72.46V71.34C32.5499 71.34 29.4599 70.66 22.8399 70.53L19.4699 76.18L19.3199 80.27H19.3299Z" fill="#FFF471" stroke="black" stroke-miterlimit="10"/>
<path d="M23.5199 71.9C23.5199 71.9 29.1499 71.86 30.3499 72.49L28.2799 76.41C28.2799 76.41 22.6299 75.88 21.5199 75.92L23.5099 71.9H23.5199Z" fill="#9BE0CE" stroke="black" stroke-miterlimit="10"/>
<path d="M137.62 77.69C137.62 77.69 140.77 72.16 149.25 73.28L153.63 80.6L153.65 83.13C153.65 83.13 152.66 80.46 151.84 80.47C151.02 80.48 145.96 79.93 141.69 84.28C141.69 84.28 138.74 78.66 137.62 77.7V77.69Z" fill="#FFF471" stroke="black" stroke-linecap="round" stroke-linejoin="round"/>
</g>
<defs>
<clipPath id="clip0_2088_3975">
<rect width="187.18" height="146.03" fill="white"/>
</clipPath>
</defs>
</svg>
