<svg width="73" height="73" viewBox="0 0 73 73" fill="none" xmlns="http://www.w3.org/2000/svg">
<path d="M7.53312 68.0833C5.81761 66.0889 5.35369 64.0177 5.22805 63.1046C4.89944 61.2688 1.72454 43.4155 1.09633 37.2449C0.724231 33.6069 1.4346 29.9882 3.15011 26.778C3.60436 25.9322 4.06344 25.2305 4.45969 24.6875C4.61916 21.6022 5.57115 18.4064 7.30116 15.1721L8.44644 13.0288L17.8455 11.8033L26.6115 3.56146C28.3657 1.91309 30.6659 1 33.0773 1C34.8073 1 36.4987 1.47577 37.9774 2.36964L47.2073 7.96832L63.0673 5.90185L60.3708 13.2114C60.3708 13.2114 60.0132 14.1918 59.6411 15.5181L60.2452 15.8834C62.328 17.1473 64.1401 18.762 65.6333 20.6891C66.3485 21.4004 66.8125 22.2221 67.1266 22.9046C68.3298 24.9806 69.132 27.2297 69.5186 29.599C70.5238 35.7887 71.5289 45.1263 71.959 52.3109C72.0508 53.8343 71.988 55.2664 71.7754 56.5592C71.6835 57.6645 71.4419 59.6685 70.0743 61.1486C68.1269 64.1811 65.0921 65.3921 62.7967 65.5219C59.7233 65.9592 29.6704 70.2363 21.0301 71.6684C19.6915 71.8895 18.4109 72 17.2221 72C11.9983 72 9.06983 69.8711 7.53312 68.0833Z" fill="white" stroke="#CDCDCD" stroke-linecap="round" stroke-linejoin="round"/>
</svg>
