<svg width="75" height="57" viewBox="0 0 75 57" fill="none" xmlns="http://www.w3.org/2000/svg">
<path d="M34.0461 47.3019C33.3795 47.9617 32.9482 48.8075 32.7717 49.7139C32.3208 52.0348 30.2778 55.1029 26.388 55.8008C21.4748 56.6844 14.5695 54.682 10.8013 48.7278C7.03301 42.7737 4.9587 40.7257 2.36287 39.2315C-1.23679 37.1608 2.32758 18.263 12.6599 9.60104C20.7611 2.80875 31.1366 0.260219 40.1122 1.18179C53.6521 2.57362 62.5767 11.9751 65.2274 14.6754C67.8782 17.3756 70.4073 21.6648 70.6426 22.0403C71.7288 23.7924 72.6463 25.0553 73.6384 28.0172C74.454 30.4482 73.9325 33.0839 71.6386 34.3506L70.423 35.0219C69.4702 35.549 68.7251 36.3606 68.3016 37.3391C66.7096 41.0026 62.3336 50.3624 58.1105 53.1688C54.2363 55.7401 49.08 55.7704 47.7781 55.5846C46.8684 55.4556 45.0411 54.9664 44.3039 54.5113C43.1276 53.7832 41.563 52.8275 40.5239 51.0223C39.9514 50.0248 39.2691 47.6621 38.332 46.9719C37.2301 46.1603 35.6852 45.6901 34.0461 47.3094V47.3019Z" fill="white" stroke="#CDCDCD" stroke-linecap="round" stroke-linejoin="round"/>
</svg>
