<svg width="74" height="73" viewBox="0 0 74 73" fill="none" xmlns="http://www.w3.org/2000/svg">
<path d="M67.8395 9.17938C67.3229 9.55751 66.1733 9.90656 65.9551 9.98654C65.5767 10.1247 64.6381 10.2374 64.2198 10.2447H64.1106L64.0088 10.2483C64.0015 10.2483 63.4376 10.2774 62.379 10.2774C61.2075 10.2774 59.2721 10.2411 56.7001 10.0702C56.2017 10.0374 55.6997 10.0193 55.2049 10.0193C55.0994 10.0193 54.9975 10.0229 54.892 10.0265L54.27 10.0411C53.0112 10.0956 51.8907 10.2556 50.9267 10.4628C50.6902 10.5137 50.4428 10.4701 50.2464 10.332C49.5479 9.84111 48.7039 9.56478 47.8017 9.56478C47.125 9.56478 46.5648 9.71749 46.2119 9.84475C44.5348 10.4265 43.0396 12.2335 43.4034 14.655C43.5525 15.644 44.0182 16.4366 44.6367 17.022C44.7385 17.1165 44.8185 17.2328 44.8658 17.3637L49.1586 29.1512C49.2641 29.4385 49.2096 29.7548 49.0204 29.9911C48.4783 30.6783 48.1618 31.5545 48.1618 32.5362C48.1618 34.2451 49.1986 35.2813 50.1118 36.1939C50.7775 36.8593 51.6033 37.6846 52.3782 38.8881C53.586 40.7678 53.4805 41.0296 53.2732 41.5568C52.8293 42.6694 52.2218 43.0766 51.185 43.4766C50.0608 43.9129 48.6311 44.1419 47.0523 44.1419C47.0523 44.1419 47.0486 44.1419 47.045 44.1419C46.623 44.1419 46.2592 43.8329 46.1901 43.4148C45.7535 40.7133 45.6225 37.8446 45.477 34.7214C45.3606 32.1472 45.2369 29.4894 44.924 26.6934C44.5566 23.4247 43.9272 17.7819 39.9946 14.5968C39.7873 14.4296 39.6599 14.1823 39.6599 13.9169L39.6454 12.0735C39.6454 12.0517 39.6454 12.0299 39.6454 12.0081L38.8632 2.49665C38.7541 1.18046 37.208 0.533275 36.1966 1.38407L33.4281 3.71103C33.3808 3.74011 33.3153 3.77647 33.2426 3.81283C33.0207 3.91827 32.7187 4.03098 32.5768 4.05644C32.5768 4.05644 32.5477 4.05644 32.4823 4.06007C32.4604 4.06007 32.435 4.06007 32.4022 4.06007C32.2421 4.06007 32.0748 4.0528 31.9075 4.04553C31.6528 4.03462 31.4018 4.02735 31.1544 4.02735C30.8488 4.02735 30.576 4.03826 30.314 4.06371L27.069 4.37276C26.516 4.42366 26.1486 4.97631 26.3159 5.50715L27.2872 8.62309C27.531 9.40117 27.8038 10.1502 28.0658 10.8773C28.5096 12.099 28.9352 13.2697 29.1353 14.3678C29.1935 14.6841 29.0808 15.0077 28.8334 15.2113C28.7024 15.3204 28.5678 15.4294 28.4259 15.5422C27.7165 16.113 26.9125 16.7602 26.1922 17.6073C22.0704 22.4649 22.245 28.8604 22.3978 34.4996C22.4597 36.6957 22.5143 38.7718 22.3142 40.5533C21.6375 46.5998 18.5562 52.5517 14.0706 56.4675C10.8364 59.2926 7.83875 62.0304 5.21942 62.9867L3.36407 63.4157C2.59282 63.5648 2.13444 63.5284 1.43595 63.6593L1.12309 64.8919C1.12309 64.8919 1.05033 65.4009 1.05033 65.4154C0.675619 68.5532 2.48732 69.4076 3.37134 69.7967C6.09253 70.9965 9.4249 71.6328 13.0156 71.6328C16.6062 71.6328 19.8476 71.0365 22.6234 69.953C23.3874 69.6549 24.1331 69.3131 24.8571 68.9313C27.662 67.4515 30.1467 65.3536 32.2094 62.7467C32.5696 62.2922 33.2426 62.3068 33.5918 62.7685C37.9465 68.5459 45.5389 71.9891 54.812 72C54.8266 72 54.8411 72 54.8557 72C54.8557 72 54.8884 72 54.9066 72C57.3731 72 59.8106 71.7346 62.1607 71.2256C64.8855 70.6329 65.6022 70.153 65.9478 69.9239C67.9741 68.5714 67.7777 66.1644 67.7049 65.2555L67.6467 64.481C67.6358 64.3283 67.5849 64.1829 67.5012 64.0556L66.2679 62.2122C66.1151 61.9832 65.8641 61.8414 65.5913 61.8268L64.267 61.7541C64.1143 61.7468 63.9687 61.7432 63.8196 61.7432C63.2521 61.7432 62.7609 61.7977 62.368 61.845C62.1243 61.8741 61.8951 61.8995 61.7496 61.8995C61.6841 61.8995 61.6623 61.8959 61.655 61.8923C60.2726 61.5505 58.5118 60.6306 56.7947 59.4853C56.2526 59.1254 56.2854 58.3146 56.8493 57.991C58.9011 56.813 60.9274 55.3259 62.1352 53.6025L62.1643 53.5625C63.7868 51.2428 66.2388 47.7415 65.1583 41.7095C64.3253 37.0702 61.4367 33.9724 58.6064 31.74C58.4791 31.6418 58.3845 31.5109 58.3299 31.3582L57.2312 28.3768C57.1257 28.0859 57.1767 27.7623 57.3695 27.5224C57.5441 27.3115 57.726 27.1006 57.9043 26.9079C57.9188 26.8934 57.9334 26.8788 57.9479 26.8606C58.3772 26.4534 58.9666 25.9371 59.6177 25.4136L60.6655 24.6137C61.5095 24.0028 62.3753 23.4575 63.0956 23.163C66.6208 21.7195 69.2692 18.9999 69.5566 18.6981C69.5712 18.6836 69.5821 18.669 69.5967 18.6545C72.3397 15.7676 73.402 11.6372 72.4015 7.75775L72.2196 7.04876C72.0814 6.51429 71.452 6.29977 71.0227 6.63791L67.8359 9.17211L67.8395 9.17938Z" fill="white" stroke="#CDCDCD" stroke-width="0.901917" stroke-linecap="round" stroke-linejoin="round"/>
</svg>