<svg width="63" height="73" viewBox="0 0 63 73" fill="none" xmlns="http://www.w3.org/2000/svg">
<path d="M38.4296 71.9959C36.5755 71.9959 34.6887 71.7591 32.8224 71.2977C21.9919 68.6029 17.079 59.853 16.4582 58.673C16.1234 58.0687 14.841 55.578 14.3387 51.9645C14.2121 51.3031 14.1223 50.3885 14.1182 49.0941C14.1182 48.0897 14.1794 47.0853 14.3101 46.0931C14.1631 46.0278 14.0202 45.9584 13.8731 45.889C12.6684 45.3459 4.96617 41.5528 2.31164 31.925C-1.43329 22.5585 3.07124 11.0075 12.8889 4.9238C17.03 2.35557 21.6693 1 26.3086 1C33.5493 1 39.9365 4.37259 43.3915 10.0235C43.6079 10.3787 43.8162 10.7503 44.0408 11.1913L44.294 11.6527L44.3594 11.6241L46.0379 14.8088C47.2589 17.0586 47.5734 20.7701 47.6224 21.4928C47.8919 23.9998 47.7653 26.2699 47.2467 28.2502C47.3733 28.3074 47.4999 28.3645 47.6224 28.4217C53.1724 30.9859 57.5667 35.269 60.0007 40.4789C62.5409 45.9175 62.6634 51.7114 60.3519 56.7907C60.1804 57.1704 59.9884 57.5501 59.7475 57.987L59.5106 58.4566L59.5719 58.4933L57.8771 61.6699C56.6968 63.9401 53.8054 66.2633 53.2378 66.7084C51.1836 68.4355 49.1049 69.6359 47.0507 70.277C44.2532 71.4202 41.3536 72 38.4296 72V71.9959Z" fill="white" stroke="#CDCDCD" stroke-miterlimit="10"/>
</svg>
