<svg width="87" height="73" viewBox="0 0 87 73" fill="none" xmlns="http://www.w3.org/2000/svg">
<path d="M64.4611 72C61.7682 72 59.1702 71.7008 56.7421 71.1124C52.1108 69.9853 48.0439 67.6814 45.0113 64.6045C40.4849 69.1426 34.2547 71.7407 27.55 71.7407C25.8613 71.7407 24.1477 71.5761 22.459 71.252C21.7795 71.1223 20.4955 70.7633 19.5862 70.484C17.6028 69.8756 16.109 69.342 14.9648 67.9706C13.7708 66.5344 13.2412 64.5148 13.516 62.4802L7.03606 63.9313L14.0955 52.8356L2 47.6294L14.2454 42.7922L7.53067 31.4871L20.2857 34.7584L21.5097 21.673L29.9031 31.8012L32.9008 28.4002C33.2755 25.2885 34.2098 22.1418 36.4031 19.3691C36.8477 18.8056 37.4572 18.2271 38.4614 17.2946C38.3166 16.8807 38.1567 16.4518 38.0318 16.1227C37.6821 15.2001 37.3273 14.2476 37.0825 13.2553L37.0675 13.1954C36.8527 12.3127 36.1882 9.62984 38.2266 7.00677C40.6148 3.9299 45.0713 3.77032 45.9406 3.77032C50.462 3.77032 52.2407 6.47318 52.8002 7.63511C52.8901 7.82461 52.9751 8.02408 53.055 8.23353L54.6438 2L61.1787 13.0009L71.0309 4.82254L69.8369 17.5589L82.6269 16.7261L74.1635 26.3307L85 33.1577L72.4948 35.9603L77.2411 47.8438L76.6765 47.5995C76.7315 47.7641 76.7814 47.9286 76.8214 48.0882C77.286 49.9583 77.0462 53.2845 73.6889 55.0747C73.529 55.364 73.3491 55.6682 73.1493 55.9574C72.8995 56.3165 72.6297 56.6605 72.3449 56.9897C72.4099 56.9897 72.4748 56.9897 72.5448 56.9897C75.1427 56.9897 77.391 58.4109 78.4202 60.6999C79.3894 62.8542 79.3694 65.0982 78.3602 67.0232C76.6415 70.3145 73.0044 71.0076 71.2558 71.3417L71.1009 71.3717C68.9476 71.7856 66.7143 71.995 64.4661 71.995L64.4611 72Z" fill="white" stroke="#CDCDCD" stroke-miterlimit="10"/>
</svg>
