<svg width="44" height="73" viewBox="0 0 44 73" fill="none" xmlns="http://www.w3.org/2000/svg">
<path d="M42.2817 24.2411C41.4868 22.8243 40.2702 22.0605 39.2904 21.6547C39.6084 20.843 39.7489 19.9501 39.6527 19.024L38.329 6.00686C38.0369 3.15107 35.6889 1 32.8639 1C32.6753 1 32.4867 1.01107 32.2982 1.02952L8.79237 3.49052C5.77881 3.80783 3.57872 6.55662 3.88932 9.61534L5.21307 22.6324C5.36837 24.1526 6.1079 25.4698 7.1913 26.3701C7.16172 26.3701 7.13584 26.3627 7.10626 26.3627C6.80675 26.3258 6.51094 26.3073 6.22992 26.3073C3.78209 26.3073 2.49532 27.6245 1.94807 28.4104C0.417257 30.5984 1.13829 33.2217 1.39713 33.9707L1.70033 34.8526L6.7328 39.3613C7.4982 40.6121 7.77183 43.2281 7.71636 44.715L6.48506 67.6499L9.49492 68.9228C13.6843 70.9927 17.5299 72 21.2497 72C26.1379 72 30.3865 70.229 33.988 68.5686L36.2066 67.5466L36.0291 65.0782C35.8849 63.0673 34.7571 47.3679 34.1433 41.5013L38.6987 36.7417C41.1466 34.812 43.391 31.7127 42.8327 28.5248C43.2579 26.6136 42.7994 25.1672 42.2743 24.2301L42.2817 24.2411Z" fill="white" stroke="#CDCDCD" stroke-miterlimit="10"/>
</svg>
