<svg width="208" height="205" viewBox="0 0 208 205" fill="none" xmlns="http://www.w3.org/2000/svg">
<g clip-path="url(#clip0_625_500)">
<path d="M168.199 175.762C164.33 197.055 141.176 208.717 121.766 199.169L121.614 199.086C111.405 194.056 99.3995 194.264 89.3698 199.639L89.1764 199.749C70.153 209.933 46.6535 199.141 41.9978 178.055L41.9288 177.738C39.4697 166.642 31.8299 157.398 21.3857 152.921L21.1094 152.797C1.25713 144.271 -4.94585 119.137 8.66202 102.348L8.71728 102.293C15.9011 93.4356 18.3602 81.649 15.3209 70.6639V70.6225C9.54618 49.7577 25.3645 29.1831 47.0127 29.3765H47.0542C58.4516 29.487 69.2136 24.0705 75.9139 14.8541L75.9553 14.785C88.679 -2.68066 114.555 -3.15046 127.9 13.8454L128.08 14.0803C135.098 23.0203 145.984 28.0362 157.34 27.5526H157.658C179.223 26.6268 195.691 46.552 190.745 67.5687L190.69 67.7898C188.079 78.8717 190.966 90.52 198.454 99.1008L198.564 99.239C212.78 115.544 207.461 140.927 187.885 150.144C177.565 155.007 170.216 164.555 168.171 175.789L168.199 175.762Z" fill="white" stroke="black" stroke-width="2" stroke-miterlimit="10"/>
<path d="M163.723 171.243C159.702 190.505 138.828 201.02 120.965 192.785C111.142 188.267 99.8002 188.46 90.1572 193.338C72.5983 202.195 51.3645 192.44 46.6673 173.33C44.0839 162.828 36.8586 154.082 27.0361 149.577C9.15936 141.369 3.55043 118.681 15.5557 103.094C22.1455 94.5272 24.4803 83.4177 21.8692 72.93C17.1307 53.8339 31.3878 35.3043 51.0467 34.9727C61.8501 34.7931 71.9904 29.6805 78.5664 21.1135C90.5441 5.51328 113.905 5.09875 126.436 20.2568C133.316 28.5889 143.622 33.3284 154.425 33.1349C174.084 32.7619 188.99 50.7802 184.929 70.0283C182.705 80.6127 185.426 91.6254 192.32 99.9437C204.864 115.088 200.07 137.97 182.497 146.813C172.841 151.664 165.919 160.659 163.723 171.243Z" fill="#9BE0CE" stroke="black" stroke-width="2" stroke-miterlimit="10"/>
<path d="M41.3624 81.1379C42.7025 81.4695 43.034 81.6077 50.3422 84.5785L47.7312 95.1076L38.6547 91.515L38.2264 93.2422L35.5463 92.5789C35.8502 90.6306 36.4581 87.7566 37.2179 84.689C37.6047 83.1276 38.1159 81.3037 38.3093 80.9168L39.4836 80.8339C40.05 80.8753 40.6578 80.972 41.3486 81.1379H41.3624ZM46.9852 86.6926C46.0457 86.3333 45.0649 85.9326 43.8491 85.4628C42.2328 84.8548 41.321 84.5508 40.796 84.4403L40.3401 84.7996L39.4559 88.3369L45.949 90.8932L46.999 86.6788L46.9852 86.6926Z" fill="black"/>
<path d="M45.9353 71.4377L43.338 76.4121L41.5835 75.4311L36.9417 72.0872L38.4337 69.2407L42.3019 72.0181L44.9406 66.9746L46.1011 67.403L55.0532 74.7264L53.5612 77.5728L45.9491 71.4377H45.9353Z" fill="black"/>
<path d="M48.6429 61.7791L50.6738 59.1261L59.543 68.1905L57.5399 70.8297L48.6568 61.7791H48.6429Z" fill="black"/>
<path d="M61.0904 65.0125L59.7918 62.5391C62.0436 61.2541 64.4198 59.8032 64.7238 59.5269L64.8481 59.1676C64.3231 58.0207 62.4995 55.4368 61.2976 54.1379C60.8463 53.6497 60.593 53.3872 60.5378 53.3503L60.2062 53.4747L56.186 57.164L54.1967 55.0085L60.5378 49.1774C61.491 49.7992 62.016 50.1722 62.4995 50.6006C63.4804 51.6646 64.3369 52.7147 64.9862 53.6819C66.0086 55.1328 66.7131 56.4317 66.948 57.2884C67.5282 59.2781 66.9894 60.7566 64.9586 62.622C64.1159 63.3958 62.541 64.3631 61.0904 65.0125Z" fill="black"/>
<path d="M71.7418 45.3084L66.9066 48.1549L65.9257 46.3862L63.7567 41.094L66.5197 39.4635L68.3433 43.8714L73.2477 40.9973L73.9937 41.9783L77.71 52.9358L74.9469 54.5663L71.7418 45.336V45.3084Z" fill="black"/>
<path d="M86.22 36.2163L89.4527 35.3872L90.2126 42.7244L86.9936 43.5397L86.2062 36.2163H86.22Z" fill="black"/>
<path d="M100.698 40.4031C100.781 38.6897 100.781 37.7086 100.726 37.1836L100.242 36.8658L94.8268 37.2527L94.6334 34.5029C95.8906 34.2266 97.6175 34.0055 99.5654 33.8673C102.674 33.6462 103.807 34.4753 104 37.1283C104.111 38.6068 103.876 42.9179 103.544 46.3171L100.339 46.552C100.45 44.6313 100.588 42.9594 100.712 40.4169L100.698 40.4031Z" fill="black"/>
<path d="M106.432 45.3222L107.62 42.7106C111.004 44.0371 113.712 45.0458 114.099 45.1011L114.458 44.9767C114.997 43.9266 115.922 40.6794 116.199 38.8693C116.3 38.2152 116.346 37.8514 116.337 37.7777L116.144 37.6671L112.786 37.1697L112.662 40.9419L109.568 40.4721L109.733 35.3872L110.175 33.964L119.556 35.3734C119.666 36.313 119.722 36.9901 119.708 37.6671C119.21 40.9419 118.174 44.2997 117.276 45.4465C116.088 47.1461 114.624 47.6574 111.902 47.2428C110.037 46.9665 107.827 46.1927 106.445 45.3084L106.432 45.3222Z" fill="black"/>
<path d="M122.291 48.7905L125.952 35.4978L128.784 36.6585L128.342 38.2752C129.641 38.7173 131.036 39.2286 132.307 39.7537C134.78 40.7624 135.471 42.1994 134.545 44.4379C132.915 48.4312 128.881 50.5591 124.073 49.9373L122.277 48.7905H122.291ZM131.354 43.8575C131.727 42.9594 131.451 42.4067 130.456 42.006L127.624 40.8453L125.911 46.9527L126.242 47.2291C128.563 47.1323 130.566 45.8197 131.354 43.8714V43.8575Z" fill="black"/>
<path d="M149.106 53.9998C148.457 54.8565 146.799 56.5699 142.489 60.8672L139.892 58.9189C141.246 57.5371 142.434 56.3626 144.202 54.5249C145.39 53.2813 146.026 52.5489 146.329 52.1068L146.178 51.5402L143.622 49.6334L138.938 54.3176C137.308 55.9343 135.719 56.183 134.255 55.0776C133.412 54.4558 132.694 53.5024 132.362 52.5766L134.683 50.9737L135.761 52.6733L135.927 52.7009L140.983 47.6575L139.215 46.331L140.859 44.1201C142.475 45.0735 144.755 46.6626 147.545 48.7491C149.383 50.1308 150.225 50.8217 150.515 51.1948C150.35 51.6784 150.239 52.0377 150.073 52.4246C149.714 53.074 149.424 53.5024 149.079 53.9722L149.106 53.9998Z" fill="black"/>
<path d="M160.393 62.4562L162.327 65.1783L155.765 68.5222L153.845 65.8139L160.407 62.4424L160.393 62.4562Z" fill="black"/>
<path d="M153.61 73.386L156.359 72.8748C156.912 75.4034 157.589 78.1117 157.768 78.4709L158.072 78.692C159.316 78.5262 162.327 77.5452 163.916 76.799C164.515 76.5134 164.842 76.3476 164.897 76.3016L164.869 75.9423L162.535 71.0094L165.187 69.752L168.876 77.5452C168.005 78.2637 167.48 78.6506 166.942 78.996C165.629 79.6178 164.372 80.1291 163.253 80.4607C161.567 81.0134 160.117 81.2898 159.233 81.2621C157.16 81.2345 155.917 80.2673 154.729 77.7801C154.232 76.7437 153.79 74.9474 153.596 73.3722L153.61 73.386Z" fill="black"/>
<path d="M169.249 89.4284L167.978 83.9704L169.953 83.5697L175.645 83.0861L176.364 86.2227L171.625 86.6372L172.91 92.1781L171.749 92.6065L160.186 92.8828L159.468 89.7462L169.235 89.4422L169.249 89.4284Z" fill="black"/>
<path d="M44.8438 141.3L46.7779 143.898L40.7545 147.173L38.848 144.616L44.83 141.3H44.8438ZM48.5324 147.421C50.0244 146.565 50.8533 146.053 51.254 145.708V145.128L47.0542 139.462L49.2646 137.818C50.3422 138.965 51.7789 140.72 53.492 143.027C55.5781 145.832 55.1636 147.187 51.9171 149.19C49.831 150.489 47.6759 151.608 45.0786 152.976L43.1583 150.392C44.8438 149.453 46.322 148.665 48.5324 147.408V147.421Z" fill="black"/>
<path d="M59.3358 149.701L61.7673 151.995L55.9926 156.583L53.575 154.317L59.3358 149.715V149.701Z" fill="black"/>
<path d="M59.0872 165.454L65.2072 153.087L67.7769 154.759L67.0446 156.265C68.2327 156.956 69.5037 157.716 70.6642 158.476C72.9023 159.94 73.3029 161.474 71.9766 163.505C69.6143 167.112 65.2487 168.438 60.6344 166.918L59.0872 165.454ZM68.9235 162.345C69.4485 161.529 69.2965 160.935 68.3985 160.355L65.8289 158.683L62.983 164.348L63.2593 164.68C65.5664 165.025 67.763 164.113 68.9235 162.345Z" fill="black"/>
<path d="M70.4017 172.211L72.2944 169.931C72.9852 170.525 73.6483 171.133 74.339 171.727L74.6982 171.658C74.8087 171.589 75.4028 170.76 75.9968 169.82C76.6738 168.798 77.3507 167.651 78.4283 165.689L76.1903 164.749L77.3369 162.027L82.559 164.224L82.1169 165.73C80.9288 167.913 80.321 168.963 79.0776 170.87C76.7429 174.504 75.5548 175.168 73.2062 174.186C72.4602 173.869 71.4379 173.136 70.4156 172.211H70.4017Z" fill="black"/>
<path d="M82.255 176.729L83.5951 174.186C86.8969 175.706 89.5494 176.867 89.9224 176.936L90.2816 176.826C90.8894 175.803 91.9946 172.625 92.3677 170.829C92.5058 170.175 92.5703 169.815 92.5611 169.751L92.3815 169.64L89.0658 168.949L88.7205 172.708L85.6535 172.072L86.1094 167.001L86.6344 165.606L95.9181 167.54C95.9872 168.494 96.001 169.171 95.9319 169.834C95.255 173.081 94.0255 176.37 93.0722 177.475C91.7874 179.106 90.2954 179.534 87.6014 178.967C85.7502 178.58 83.5951 177.696 82.255 176.729Z" fill="black"/>
<path d="M115.356 173.496C115.356 171.768 115.301 170.801 115.204 170.276L114.707 169.986L107.702 170.87L107.357 168.134C108.877 167.761 111.115 167.374 113.974 167.015C117.442 166.573 118.423 167.609 118.561 171.423C118.658 173.882 118.589 176.301 118.492 179.244L115.301 179.644C115.301 177.71 115.356 176.038 115.342 173.496H115.356ZM108.214 173.703L111.433 173.302L111.322 180.156L108.158 180.556L108.227 173.717L108.214 173.703Z" fill="black"/>
<path d="M129.074 166.241L126.077 167.236L130.18 175.969L127.154 176.978L121.131 164.141L124.156 163.132L124.806 164.528L128.549 163.284L129.074 166.227V166.241Z" fill="black"/>
<path d="M147.504 159.719C146.675 158.213 146.164 157.384 145.832 156.956L145.252 156.928L139.519 161.046L137.916 158.807C139.076 157.757 140.859 156.348 143.207 154.662C146.039 152.617 147.393 153.059 149.341 156.348C150.598 158.462 151.69 160.631 153.016 163.257L150.405 165.136C149.493 163.436 148.733 161.944 147.517 159.705L147.504 159.719ZM141.315 163.312L143.939 161.419L147.117 167.499L144.533 169.364L141.315 163.312Z" fill="black"/>
<path d="M158.39 143.746C160.462 145.57 162.687 148.251 163.225 149.674C164.013 151.594 163.64 153.101 161.816 155.159C160.67 156.458 158.818 157.895 157.23 158.697L155.682 156.279C157.962 154.648 160.932 152.437 161.25 152.078L161.333 151.705C160.462 150.392 158.57 148.251 157.271 147.104C156.939 146.809 156.728 146.634 156.636 146.579L156.276 146.841L156.166 150.475L157.133 151.152L155.019 153.543L149.452 149.688L151.565 147.297L154.287 149.19L154.107 144.409L156.166 142.074L157.133 142.723C157.533 143 157.948 143.345 158.39 143.732V143.746Z" fill="black"/>
<path d="M103.392 152.631C128.586 152.631 149.01 132.203 149.01 107.005C149.01 81.806 128.586 61.3784 103.392 61.3784C78.1983 61.3784 57.7747 81.806 57.7747 107.005C57.7747 132.203 78.1983 152.631 103.392 152.631Z" fill="#EAB7E6" stroke="black" stroke-miterlimit="10"/>
</g>
<defs>
<clipPath id="clip0_625_500">
<rect width="208" height="205" fill="white"/>
</clipPath>
</defs>
</svg>
