<svg width="202" height="167" viewBox="0 0 202 167" fill="none" xmlns="http://www.w3.org/2000/svg">
<g clip-path="url(#clip0_625_392)">
<path d="M67.36 166.46C61.02 166.46 54.49 163.44 50.73 158.77C48.9 156.5 47.77 153.95 47.39 151.3C46.2 151.55 44.94 151.69 43.61 151.69C40.67 151.69 37.68 150.97 34.72 149.55C30.86 147.7 25.1 141.94 24.33 135.94C23.25 127.58 28.68 120.17 33.81 115.18C33.66 114.67 33.52 114.15 33.38 113.63C24.54 111.67 14.91 108.65 9.45 104.18C-0.759998 95.82 -2.44 82.27 5.47 71.96C10.73 65.1 24.71 55.17 36.22 55.17C41.32 55.17 45.63 56.99 48.71 60.24C49.66 60.02 50.62 59.83 51.58 59.67C51.44 59.15 51.34 58.62 51.27 58.07C51.2 57.56 51.17 57.06 51.16 56.57C46.16 53.61 41.96 50.73 39.64 47.21C36.39 42.28 36.5 37.66 37.37 34.25C32.99 29.18 30.94 22.15 31.86 16.58C32.99 9.77 38.32 5.2 45.13 5.2C47.23 5.2 49.45 5.64 51.74 6.52C57.79 8.83 67.76 15.55 79.22 23.44C80.85 24.56 82.29 25.55 83.45 26.33C84.1 26.77 84.83 27.26 85.62 27.78C88.62 29.79 92.43 32.33 96.41 35.21C96.73 31.27 97.92 27.26 100.35 24.2C101.26 23.06 102.29 22.1 103.43 21.33C103.43 15.21 104.95 8.36 111.34 3.09L114.48 0.5L118.53 0.94C123.54 1.48 127.23 4.66 129.51 10.38C132.51 17.92 136.58 38.75 136.98 46.64C137.07 48.37 137.04 50.02 136.89 51.6C144.23 53.36 150.38 57.21 155.41 61.09C156.14 61 156.71 60.98 157.19 60.98C157.41 60.98 157.62 60.98 157.82 61C167.17 61.49 174.72 67.72 176.61 76.5C177.48 80.56 177.03 84.64 175.46 88.29C176.06 88.4 176.62 88.54 177.16 88.71C183.52 90.65 186.36 94.94 187.72 98.39C194.56 101.02 199.17 108.49 200.32 115.61C201.93 125.6 197 134.29 188.05 137.24C181.35 139.45 171.8 140.23 163.37 140.92C161.52 141.07 159.75 141.22 158.12 141.37C156.93 141.48 155.57 141.54 154.07 141.54C152.64 144.87 150.2 147.73 146.81 149.96C143.48 152.14 139.06 153.39 134.68 153.39C130.88 153.39 127.32 152.46 124.39 150.69C119.7 147.86 117.17 142.01 115.8 136.71C108.04 138.78 96.41 141.67 86.56 143.3L82.64 156.2L82.53 156.49C80.23 162.64 74.41 166.46 67.35 166.46H67.36Z" fill="white" stroke="black" stroke-miterlimit="10"/>
<path d="M72.54 73.07C67.49 73.63 63.88 74.83 63.36 74.56C62.79 74.26 62.16 71.16 60.69 69.79C57.36 66.68 45.69 69.63 42.01 71.82C39.46 55.27 16 70.06 10.11 77.75C5.16003 84.2 6.24003 92.03 12.63 97.26C21.39 104.43 52.69 109.36 64 108.3C66.97 108.02 69.01 107.88 72.53 107.58C72.12 95.94 73.08 84.76 72.53 73.08L72.54 73.07Z" fill="white" stroke="black" stroke-miterlimit="10"/>
<path d="M183.46 108.31C181.16 106.91 183.44 100.56 176.89 98.55C172.28 97.14 159.36 100.38 158.54 99.95C157.97 99.65 157.34 96.56 155.89 95.2C152.58 92.1 140.96 95.04 137.3 97.22C136.31 90.83 133.64 88.81 128.62 89.58C128.46 103.19 128.35 116.81 128.55 130.32C139.79 132.75 152.96 134.11 159.18 133.52C167.93 132.7 180.72 132.09 187.95 129.71C200.04 125.72 191.95 105.18 183.47 108.31H183.46Z" fill="white" stroke="black" stroke-miterlimit="10"/>
<path d="M132.31 70.2601C139.25 78.6001 125.08 83.4501 122.08 75.6401C119.78 69.6701 128.22 65.3401 132.31 70.2601Z" fill="white"/>
<path d="M153.8 70.4301C153.71 72.4101 153.12 71.6001 152.29 71.8801C148.19 73.2701 140.49 74.2701 138.19 78.4501C136.36 81.7901 135.98 86.1701 137.78 89.6101C142.76 99.1101 153.41 92.8501 161.25 91.9601C159.64 115.54 140.84 121.31 121.73 126.78C111.27 129.78 79.75 138.18 70.47 136.54C26.81 128.8 31.95 77.1401 72.54 72.2701C82.18 86.2801 115.85 86.0601 111.96 62.8801C117.43 62.9001 123.59 59.7001 128.93 59.5901C138.63 59.3701 146.65 64.5001 153.79 70.4301H153.8ZM128.75 68.5801C121.27 67.7401 118.36 78.1601 125.26 80.1601C134.55 82.8501 138 69.6201 128.75 68.5801Z" fill="#EAB7E6" stroke="black" stroke-miterlimit="10"/>
<path d="M74.56 65.85C70.5 65.26 60.05 60.38 59.48 55.98C59.23 54.05 60.65 51.31 60.4 50.73C60.05 49.9 48.45 44.44 45.88 40.54C42.23 35 47.8 31.55 46.95 29.07C38.72 26.25 35.04 8.90998 46.48 13.29C53.32 15.9 70.24 28 77.26 32.74C86.29 38.84 109.67 53.69 111.8 64.48C113.36 72.36 109.4 78.95 101.8 80.82C92.76 83.05 66.38 79.95 74.55 65.84L74.56 65.85Z" fill="white" stroke="black" stroke-miterlimit="10"/>
<path d="M105.65 54.35C103.5 50.34 108.78 46.46 108.82 45.06C108.84 44.26 106.99 41.43 106.58 39.65C105.25 33.91 107.2 23.34 114.47 28.3C113.45 21.31 111.86 13.27 118.08 8.14001C119.9 8.34001 120.65 10.22 121.22 11.66C123.89 18.37 127.89 38.67 128.25 45.98C128.86 58.16 122.05 62.09 111.63 62.43L105.65 54.35Z" fill="white" stroke="black" stroke-miterlimit="10"/>
<path d="M146.54 117.17L147.5 116.5C152.07 113.31 155.8 109.06 158.35 104.11L158.46 103.9C158.46 103.9 180.16 116.41 168.32 127.51C157.9 137.27 146.54 117.17 146.54 117.17Z" fill="#EAB7E6" stroke="black" stroke-miterlimit="10"/>
<path d="M142.92 144C139.79 146.05 134.06 146.77 130.38 144.55C125.89 141.84 124.14 126.47 124.84 125.89L141.74 119.81C145.27 127.19 151.97 138.06 142.91 144H142.92Z" fill="#EAB7E6" stroke="black" stroke-miterlimit="10"/>
<path d="M137.72 90.47C135.52 86.24 136.5 80.49 139.81 77.05C141.8 74.99 156.49 70.17 159.28 70.31C170.75 70.91 173.83 85.11 162.98 90.69C156.46 94.05 141.89 98.49 137.72 90.47ZM162.7 75.31C158.11 75.37 157.56 83.41 162.93 83.34C167.52 83.28 168.07 75.24 162.7 75.31ZM150.29 78.03C145.71 78.22 144.27 85.26 148.61 86.64C154.29 88.44 158.06 77.71 150.29 78.03Z" fill="#EAB7E6" stroke="black" stroke-miterlimit="10"/>
<path d="M78.37 136.45L72.54 155.61C69.6 163.47 53.9 157.91 55.5 150.55C56.46 146.16 60.04 138.48 61.15 133.98L63.74 134.85C67.1 135.98 70.61 136.6 74.15 136.68L78.37 136.44V136.45Z" fill="#EAB7E6" stroke="black" stroke-miterlimit="10"/>
<path d="M56.07 131.6C51.21 137.86 46.5 147.59 36.76 142.92C34.88 142.02 31.86 138.57 31.6 136.58C30.78 130.23 38.5 122.95 43.49 119.31C47.31 125.19 50.32 128.36 56.07 131.61V131.6Z" fill="#EAB7E6" stroke="black" stroke-miterlimit="10"/>
<path d="M150.59 78.02C158.8 77.83 155 88.52 148.96 86.62C144.34 85.17 145.75 78.13 150.59 78.02Z" fill="black"/>
<path d="M162.48 75.5501C167.96 75.5701 167.54 83.3401 162.85 83.3301C157.37 83.3101 157.79 75.5401 162.48 75.5501Z" fill="black"/>
<path d="M130.73 72.53C136.69 79.68 124.53 83.84 121.95 77.15C119.98 72.03 127.21 68.32 130.73 72.53Z" fill="black"/>
</g>
<defs>
<clipPath id="clip0_625_392">
<rect width="201.11" height="166.96" fill="white"/>
</clipPath>
</defs>
</svg>
