<svg width="214" height="246" viewBox="0 0 214 246" fill="none" xmlns="http://www.w3.org/2000/svg">
<g clip-path="url(#clip0_1294_748)">
<path d="M7.85019 244.944C4.12108 244.944 1.10177 241.935 1.10177 238.219V106.076C1.10177 106.076 -4.28001 1.05579 106.862 1.05579C218.005 1.05579 212.909 115.441 212.909 115.441V238.208C212.909 241.925 209.889 244.934 206.16 244.934H7.85019V244.944Z" fill="white" stroke="black" stroke-width="2" stroke-miterlimit="10"/>
<path d="M8.50707 237.3V107.131C8.50707 107.131 3.52786 8.69971 106.544 8.69971C209.561 8.69971 204.836 115.926 204.836 115.926V237.311H8.50707V237.3Z" fill="#9BE0CE" stroke="black" stroke-width="3" stroke-miterlimit="10"/>
<path d="M39.4417 64.0444C39.3464 64.0233 39.251 64.055 39.1875 64.1289C37.7785 65.5648 35.416 65.3747 34.2506 63.7382C34.1977 63.6643 34.1023 63.6116 34.007 63.6116C31.9941 63.6327 30.458 61.8378 30.797 59.8635C30.8182 59.7685 30.7864 59.6734 30.7122 59.6101C29.2714 58.2059 29.4621 55.8515 31.1042 54.6901C31.1784 54.6373 31.2313 54.5423 31.2313 54.4473C31.2101 52.4412 33.0111 50.9103 34.9922 51.2482C35.0876 51.2693 35.1829 51.2376 35.2465 51.1637C36.6555 49.7279 39.018 49.9179 40.1833 51.5544C40.2363 51.6283 40.3316 51.6811 40.427 51.6811C42.4398 51.66 43.976 53.4548 43.637 55.4291C43.6158 55.5242 43.6476 55.6192 43.7217 55.6825C45.1625 57.0867 44.9718 59.4412 43.3297 60.6025C43.2556 60.6553 43.2026 60.7503 43.2026 60.8454C43.2238 62.8514 41.4228 64.3823 39.4417 64.0444Z" fill="#EAB7E6" stroke="black" stroke-miterlimit="10"/>
<path d="M178.52 67.4652C178.425 67.4441 178.33 67.4758 178.266 67.5497C176.857 68.9855 174.495 68.7955 173.329 67.159C173.276 67.0851 173.181 67.0323 173.086 67.0323C171.073 67.0534 169.537 65.2586 169.876 63.2843C169.897 63.1892 169.865 63.0942 169.791 63.0309C168.35 61.6267 168.541 59.2722 170.183 58.1109C170.257 58.0581 170.31 57.9631 170.31 57.868C170.289 55.862 172.09 54.3311 174.071 54.669C174.166 54.6901 174.262 54.6584 174.325 54.5845C175.734 53.1486 178.097 53.3387 179.262 54.9752C179.315 55.0491 179.41 55.1019 179.506 55.1019C181.519 55.0807 183.055 56.8756 182.716 58.8499C182.695 58.9449 182.726 59.04 182.8 59.1033C184.241 60.5075 184.051 62.8619 182.408 64.0233C182.334 64.0761 182.281 64.1711 182.281 64.2661C182.303 66.2722 180.502 67.8031 178.52 67.4652Z" fill="#EAB7E6" stroke="black" stroke-miterlimit="10"/>
<path d="M143.973 136.588C151.326 145.393 136.314 150.514 133.136 142.268C130.699 135.965 139.64 131.394 143.973 136.588Z" fill="white"/>
<path d="M166.729 136.768C166.634 138.858 166.009 138.003 165.13 138.298C160.786 139.766 152.629 140.822 150.192 145.235C148.253 148.761 147.851 153.386 149.758 157.018C155.034 167.048 166.316 160.438 174.622 159.499C172.916 184.394 152.999 190.486 132.754 196.262C121.673 199.429 88.2803 208.298 78.4491 206.566C32.1954 198.394 37.6407 143.852 80.642 138.71C90.8547 153.502 126.525 153.27 122.404 128.796C128.199 128.817 134.725 125.439 140.382 125.323C150.658 125.09 159.155 130.507 166.719 136.768H166.729ZM140.202 134.814C132.277 133.927 129.195 144.929 136.505 147.04C146.346 149.881 150.001 135.912 140.202 134.814Z" fill="#EAB7E6" stroke="black" stroke-miterlimit="10"/>
<path d="M82.782 131.943C78.4809 131.32 67.4101 126.167 66.8062 121.522C66.5414 119.484 68.0457 116.591 67.7809 115.979C67.4101 115.103 55.121 109.338 52.3983 105.22C48.5314 99.3713 54.4323 95.7289 53.5318 93.1105C44.8129 90.1332 40.9143 71.8257 53.0339 76.4501C60.2803 79.2057 78.2054 91.9808 85.6424 96.9853C95.2089 103.426 119.978 119.104 122.234 130.496C123.887 138.816 119.692 145.773 111.64 147.748C102.063 150.102 74.1161 146.829 82.7715 131.932L82.782 131.943Z" fill="white" stroke="black" stroke-miterlimit="10"/>
<path d="M115.719 119.79C113.441 115.557 119.035 111.46 119.077 109.982C119.098 109.137 117.139 106.15 116.704 104.27C115.295 98.2099 117.361 87.0502 125.063 92.2869C123.982 84.9069 122.298 76.4184 128.887 71.0021C130.816 71.2133 131.61 73.1982 132.214 74.7185C135.043 81.8029 139.28 103.236 139.662 110.953C140.308 123.813 133.093 127.962 122.054 128.321L115.719 119.79Z" fill="white" stroke="black" stroke-miterlimit="10"/>
<path d="M159.038 186.126L160.055 185.419C164.897 182.051 168.848 177.563 171.55 172.337L171.666 172.116C171.666 172.116 194.655 185.324 182.112 197.043C171.073 207.347 159.038 186.126 159.038 186.126Z" fill="#EAB7E6" stroke="black" stroke-miterlimit="10"/>
<path d="M155.203 214.442C151.887 216.607 145.817 217.367 141.918 215.023C137.161 212.162 135.307 195.934 136.049 195.322L153.953 188.903C157.693 196.694 164.791 208.171 155.192 214.442H155.203Z" fill="#EAB7E6" stroke="black" stroke-miterlimit="10"/>
<path d="M149.694 157.926C147.363 153.46 148.402 147.389 151.908 143.757C154.016 141.582 169.579 136.493 172.535 136.641C184.686 137.274 187.949 152.267 176.455 158.158C169.547 161.705 154.112 166.393 149.694 157.926ZM176.169 141.92C171.306 141.983 170.723 150.472 176.412 150.398C181.275 150.334 181.858 141.846 176.169 141.92ZM163.021 144.792C158.169 144.992 156.644 152.425 161.242 153.882C167.259 155.782 171.253 144.454 163.021 144.792Z" fill="#EAB7E6" stroke="black" stroke-miterlimit="10"/>
<path d="M86.8289 206.471L80.6526 226.7C77.5379 234.999 60.9053 229.128 62.6003 221.358C63.6173 216.723 67.41 208.614 68.5859 203.863L71.3298 204.782C74.8894 205.975 78.6079 206.629 82.3582 206.714L86.8289 206.461V206.471Z" fill="#EAB7E6" stroke="black" stroke-miterlimit="10"/>
<path d="M63.2042 201.35C58.0555 207.96 53.0656 218.233 42.747 213.302C40.7554 212.352 37.5559 208.709 37.2805 206.608C36.4118 199.904 44.5904 192.218 49.8768 188.375C53.9238 194.583 57.1126 197.93 63.2042 201.361V201.35Z" fill="#EAB7E6" stroke="black" stroke-miterlimit="10"/>
<path d="M163.329 144.781C172.026 144.58 168.001 155.867 161.602 153.861C156.707 152.33 158.201 144.897 163.329 144.781Z" fill="black"/>
<path d="M175.925 142.173C181.73 142.194 181.286 150.398 176.317 150.387C170.511 150.366 170.956 142.163 175.925 142.173Z" fill="black"/>
<path d="M142.299 138.985C148.614 146.534 135.731 150.926 132.998 143.863C130.911 138.457 138.57 134.54 142.299 138.985Z" fill="black"/>
<path d="M64.1576 37.1851C63.9775 36.161 63.8398 35.6014 63.6279 35.1052C62.6744 32.8774 60.4179 32.3495 57.1761 33.7221C55.0997 34.5984 52.2816 36.2243 50.1311 37.7552L49.5166 31.885C51.6884 30.3963 54.6865 28.6965 56.8371 27.7779C63.5749 24.9273 68.4694 26.0148 70.567 30.9242C71.0543 32.0645 71.3616 33.2681 71.5628 34.5773C72.0819 38.1881 72.4315 40.817 72.5905 42.6224L65.2912 45.7159C65.0369 43.3298 64.5919 39.8879 64.1576 37.1956V37.1851ZM51.7625 40.7537L58.5851 37.8713L59.8034 48.0281L53.0232 50.8998L51.7625 40.7537Z" fill="black"/>
<path d="M78.629 21.8127L86.5216 20.3979L85.441 31.8744L77.4955 33.2892L78.6185 21.8022L78.629 21.8127Z" fill="black"/>
<path d="M92.8463 30.8081C92.645 23.8926 97.8997 18.9409 105.644 18.7192C112.022 18.582 116.302 22.0344 116.45 27.3662C116.651 34.2816 111.344 39.2861 103.472 39.5078C97.3699 39.6767 93.0052 36.0976 92.8463 30.8186V30.8081ZM108.907 28.0102C108.843 25.8986 107.445 24.3888 105.559 24.3572C102.413 24.2727 99.7218 26.9439 99.8066 30.0796C99.8701 32.3284 101.512 33.8699 103.811 33.796C106.714 33.7115 108.992 31.1354 108.907 28.0102Z" fill="black"/>
<path d="M117.435 38.1247L119.999 33.0992C121.556 33.9438 122.838 34.4611 123.855 34.6617C126.345 35.1474 128.347 33.9227 129.703 31.1776L134.11 22.1611L141.706 23.6498L137.299 32.888C134.184 39.4656 130.042 42.0628 124.374 40.9543C122.118 40.5108 119.639 39.5289 117.425 38.1142L117.435 38.1247Z" fill="black"/>
<path d="M141.092 37.2695C142.967 33.7221 146.77 32.9197 151.135 35.2002C152.501 35.9181 154.006 37.1006 154.811 38.0719L152.173 40.7748C151.823 40.5425 151.241 40.1413 150.944 39.9829C149.535 39.2439 148.37 39.3389 147.925 40.1941C147.491 41.0176 148.327 42.1473 150.118 43.0764C153.148 44.6601 156.209 43.8788 157.671 41.1021C159.049 38.4837 157.438 35.5064 153.497 33.437C151.834 32.5713 149.302 31.7372 147.247 31.3149L150.584 27.7885C152.724 27.8624 155.976 28.8126 158.349 30.0585C164.833 33.4476 167.153 38.9905 164.356 44.3011C161.114 50.467 154.832 52.019 147.734 48.3026C141.749 45.1774 139.185 40.8909 141.092 37.2695Z" fill="black"/>
</g>
<defs>
<clipPath id="clip0_1294_748">
<rect width="214" height="246" fill="white"/>
</clipPath>
</defs>
</svg>
