<svg width="223" height="182" viewBox="0 0 223 182" fill="none" xmlns="http://www.w3.org/2000/svg">
<path d="M74.8354 181C67.834 181 60.6227 177.725 56.4705 172.659C54.4496 170.197 53.2017 167.432 52.782 164.557C51.4679 164.829 50.0764 164.98 48.6077 164.98C45.361 164.98 42.059 164.2 38.7902 162.659C34.5276 160.653 28.1666 154.406 27.3163 147.898C26.1236 138.831 32.1201 130.794 37.7853 125.382C37.6197 124.829 37.4651 124.265 37.3105 123.701C27.5482 121.575 16.9136 118.299 10.884 113.451C-0.391178 104.384 -2.24644 89.6876 6.48876 78.5054C12.2975 71.0651 27.736 60.295 40.4467 60.295C46.0788 60.295 50.8384 62.269 54.2397 65.7939C55.2888 65.5553 56.349 65.3492 57.4091 65.1757C57.2545 64.6117 57.1441 64.0369 57.0668 63.4403C56.9895 62.8872 56.9564 62.3449 56.9453 61.8134C51.4237 58.603 46.7855 55.4794 44.2235 51.6616C40.6345 46.3145 40.7559 41.3037 41.7167 37.6052C36.8798 32.1063 34.6159 24.4816 35.6319 18.4403C36.8798 11.0542 42.7658 6.09761 50.2863 6.09761C52.6053 6.09761 55.0569 6.57484 57.5858 7.52928C64.267 10.0347 75.2771 17.3232 87.9327 25.8807C89.7327 27.0954 91.3229 28.1692 92.604 29.0152C93.3218 29.4924 94.1279 30.0239 95.0003 30.5879C98.3133 32.7679 102.521 35.5228 106.916 38.6464C107.269 34.3731 108.584 30.0239 111.267 26.705C112.272 25.4685 113.409 24.4273 114.668 23.5922C114.668 16.9544 116.347 9.52495 123.404 3.80911L126.871 1L131.344 1.47722C136.876 2.06291 140.951 5.51193 143.469 11.7158C146.782 19.8937 151.277 42.4859 151.718 51.0434C151.818 52.9197 151.785 54.7093 151.619 56.423C159.725 58.3319 166.516 62.5076 172.071 66.7158C172.877 66.6182 173.507 66.5965 174.037 66.5965C174.28 66.5965 174.512 66.5965 174.733 66.6182C185.058 67.1497 193.396 73.9067 195.483 83.4295C196.444 87.833 195.947 92.2581 194.213 96.2169C194.875 96.3362 195.494 96.4881 196.09 96.6725C203.114 98.7766 206.25 103.43 207.752 107.171C215.305 110.024 220.396 118.126 221.666 125.848C223.444 136.683 218 146.108 208.116 149.308C200.717 151.705 190.171 152.551 180.862 153.299C178.819 153.462 176.864 153.625 175.064 153.787C173.75 153.907 172.248 153.972 170.591 153.972C169.012 157.584 166.318 160.685 162.574 163.104C158.897 165.469 154.015 166.824 149.178 166.824C144.982 166.824 141.051 165.816 137.815 163.896C132.636 160.826 129.842 154.482 128.329 148.733C119.759 150.978 106.916 154.113 96.0384 155.881L91.7095 169.872L91.588 170.187C89.048 176.857 82.6209 181 74.8243 181H74.8354Z" fill="white" stroke="#CDCDCD" stroke-miterlimit="10"/>
</svg>
