<svg width="189" height="190" viewBox="0 0 189 190" fill="none" xmlns="http://www.w3.org/2000/svg">
<g clip-path="url(#clip0_1293_576)">
<path d="M167.2 120.533L172.449 139.425C175.203 149.322 167.909 159.164 157.657 159.396L138.079 159.846C136.307 159.887 134.698 160.938 133.962 162.563L125.85 180.417C121.61 189.768 109.708 192.607 101.692 186.191L86.3949 173.933C85.0043 172.814 83.1092 172.596 81.5005 173.374L63.8316 181.837C54.5745 186.26 43.6405 180.786 41.6228 170.712L37.7781 151.479C37.4237 149.731 36.1149 148.339 34.3834 147.888L15.4193 142.988C5.49423 140.422 0.627097 129.187 5.54876 120.178L14.9558 102.979C15.8147 101.422 15.692 99.4978 14.6559 98.0508L3.27198 82.0935C-2.68582 73.7394 0.804331 62.0001 10.3477 58.2599L28.5892 51.1344C30.2525 50.4928 31.3841 48.9503 31.5204 47.1758L33.0473 27.6284C33.8381 17.3906 44.0495 10.6473 53.7701 13.937L72.3252 20.2162C74.0157 20.7895 75.8699 20.3391 77.1242 19.0696L90.8394 5.06425C98.0242 -2.26602 110.172 -0.860025 115.502 7.90354L125.686 24.6526C126.613 26.1678 128.318 27.0278 130.09 26.8639L149.586 24.9665C159.797 23.9701 168.209 32.8701 166.655 43.026L163.696 62.4096C163.424 64.1705 164.187 65.9314 165.66 66.9415L181.815 78.0393C190.268 83.8544 191.004 96.0715 183.301 102.856L168.591 115.81C167.255 116.984 166.709 118.827 167.186 120.547L167.2 120.533Z" fill="white" stroke="black" stroke-width="0.5" stroke-miterlimit="10"/>
<path d="M163.246 120.178L168.563 139.302C170.799 147.37 164.869 155.383 156.512 155.574L136.689 156.024C134.207 156.079 131.971 157.553 130.949 159.819L122.742 177.892C119.279 185.509 109.585 187.83 103.055 182.601L87.581 170.193C85.645 168.637 82.9865 168.337 80.737 169.401L62.85 177.96C55.3107 181.564 46.3944 177.1 44.7448 168.896L40.8593 149.431C40.3685 146.988 38.528 145.049 36.1285 144.421L16.919 139.466C8.82075 137.378 4.85343 128.218 8.87528 120.874L18.3914 103.456C19.5911 101.272 19.4275 98.5968 17.9824 96.5766L6.44854 80.4281C1.59504 73.6166 4.43079 64.0476 12.2155 61.0036L30.6887 53.7825C33.0064 52.8816 34.6015 50.7248 34.7924 48.2405L36.333 28.4474C36.9874 20.107 45.3038 14.6059 53.2248 17.2813L72.0116 23.6424C74.3702 24.4342 76.9742 23.8199 78.7056 22.0453L92.5981 7.87622C98.4468 1.89734 108.358 3.04397 112.707 10.1968L123.014 27.1642C124.309 29.2937 126.695 30.4949 129.177 30.2492L148.918 28.3245C157.234 27.5191 164.092 34.7675 162.837 43.0397L159.838 62.6689C159.456 65.126 160.533 67.5831 162.578 68.9891L178.925 80.2234C185.823 84.9601 186.41 94.9249 180.138 100.453L165.237 113.558C163.369 115.196 162.606 117.762 163.274 120.164L163.246 120.178Z" fill="#C195F4" stroke="black" stroke-miterlimit="10"/>
<path d="M29.8162 88.9186L30.0479 85.9155L35.5286 87.1577L35.2968 90.1198L29.8162 88.905V88.9186Z" fill="black"/>
<path d="M33.579 80.4144L32.8019 84.2911L31.1932 83.9226L26.9805 82.4074L27.5394 79.609L30.866 80.7693L31.6704 76.7561L32.6656 76.838L40.5866 80.3052L40.014 83.1308L33.5654 80.4008L33.579 80.4144Z" fill="black"/>
<path d="M42.2499 75.3365L41.3228 76.7015L32.2566 74.2308L33.2791 71.7055L35.8694 72.4153C36.0739 72.1423 36.2648 71.8966 36.4284 71.6236L36.4011 71.4461C35.924 71.1321 35.3377 70.8045 34.3152 70.2995L33.9335 70.0811L34.8878 67.7059L35.4059 67.9516C36.1421 68.3338 36.5511 68.5386 36.9192 68.7706C38.2826 69.6989 38.637 70.5179 38.2417 71.8693C38.119 72.2788 37.9963 72.62 37.8599 72.9613L39.9049 73.521L40.0685 73.3299C40.6548 70.2176 39.2642 68.0745 35.365 66.532L36.4011 63.952C41.6636 65.8631 43.7359 69.89 42.2635 75.3365H42.2499Z" fill="black"/>
<path d="M47.6895 56.8675C46.6807 55.8847 46.0535 55.3114 45.6854 55.0657L45.2764 55.1885L42.1135 59.3792L40.1912 57.9186C40.8456 56.7993 41.8272 55.3796 43.1769 53.5778C44.8811 51.3255 46.0126 51.3391 48.3167 53.4549C49.7891 54.8063 50.8389 55.9393 52.284 57.4409L50.5662 59.7205C49.8573 59.0379 49.1756 58.3145 47.7032 56.8539L47.6895 56.8675ZM43.6677 60.5122L45.4264 58.178L48.9983 61.7953L47.2805 64.0749L43.6813 60.5122H43.6677Z" fill="black"/>
<path d="M52.4203 56.3214L51.2887 54.1374C53.3883 52.8815 55.4878 51.6121 55.6651 51.5302L55.7878 51.2845C55.4742 50.6292 54.0427 48.6636 53.2383 47.7899L52.7475 47.2576L52.6112 47.3122L51.0843 48.7182L53.0066 50.3835L50.9752 52.2536L48.194 49.8648L47.4578 48.7728L52.952 43.6948C53.5655 44.077 54.0154 44.3637 54.4108 44.7186C56.1286 46.6024 57.5601 48.7591 57.7919 49.8239C58.16 51.2981 57.6692 52.5676 56.1013 54.0145C54.9425 55.0793 53.4837 56.0211 52.4203 56.3214Z" fill="black"/>
<path d="M55.6787 41.7155L58.1327 39.9819L60.6685 45.0053L58.2418 46.7252L55.6787 41.7292V41.7155Z" fill="black"/>
<path d="M73.7021 34.9722C74.0565 35.8185 74.4655 37.3201 75.638 41.7428L72.9795 42.8758C72.775 42.0841 72.5296 41.033 71.957 39.04C71.548 37.5931 71.2889 36.8287 71.0844 36.4055L70.6482 36.3236L68.9031 37.0744L70.0483 41.3469C70.5118 43.1761 70.0074 44.4319 68.5759 45.0462C67.8124 45.3738 66.8036 45.483 66.081 45.3465L65.8492 42.944L67.308 42.8894L67.4034 42.7802L66.2037 38.2483L64.7585 38.8626L63.8042 36.6375C65.0857 35.9277 67.0353 35.0132 69.5166 33.9484C71.1799 33.2386 71.9433 32.9519 72.3387 32.8973C72.6114 33.184 72.8023 33.4024 73.0068 33.6891C73.3203 34.1805 73.5248 34.59 73.6884 34.9995L73.7021 34.9722Z" fill="black"/>
<path d="M76.1562 31.86L79.0465 31.0956L80.1099 40.5963L77.2197 41.3607L76.1562 31.86Z" fill="black"/>
<path d="M89.9533 36.5694L89.8988 39.0128L81.6915 40.0639L81.7324 37.6205L86.0269 37.0745C85.9996 35.259 85.9587 33.853 85.8769 33.1841C85.8497 33.0066 85.8224 32.8838 85.8087 32.8019L85.427 32.5835L81.6778 33.0612L81.3643 30.6588C82.564 30.3448 83.7637 30.1128 84.9907 29.9626C87.4857 29.6486 88.3855 30.2083 88.6445 32.2013C88.7399 32.9657 88.7672 34.5491 88.7399 36.7196L89.9533 36.5694Z" fill="black"/>
<path d="M92.3801 29.594H95.3658L93.9615 39.0537H90.9758L92.3801 29.594Z" fill="black"/>
<path d="M107.009 33.539C106.872 34.4263 106.463 35.8459 105.086 40.3096L102.251 39.8728C102.469 39.1084 102.823 38.0573 103.382 36.0643C103.805 34.6174 103.982 33.8257 104.037 33.3752L103.709 33.0749L101.473 32.7336L99.4012 39.436L96.5654 38.9992L98.6377 32.2968L97.3562 32.0921L97.7243 29.7032C99.2103 29.7715 101.364 30.0309 104.023 30.454C105.809 30.727 106.627 30.8908 106.995 31.0546L107.145 32.0921C107.131 32.5971 107.09 33.0339 107.009 33.5663V33.539Z" fill="black"/>
<path d="M115.461 41.2241L114.316 43.3809L106.504 40.6235L107.636 38.4531L111.726 39.9001C112.53 38.262 113.116 36.9925 113.334 36.3509C113.389 36.1871 113.416 36.0506 113.444 35.9824L113.212 35.6138L109.653 34.358L110.458 32.0784C111.671 32.3377 112.844 32.679 114.003 33.0885C116.375 33.9212 116.92 34.8358 116.252 36.7332C115.993 37.4566 115.311 38.8899 114.302 40.8146L115.461 41.2241Z" fill="black"/>
<path d="M130.867 45.1827C130.349 45.9471 129.327 47.1074 126.273 50.5064L123.873 48.8956C124.419 48.295 125.168 47.5033 126.518 45.9335C127.513 44.8005 128.004 44.1589 128.25 43.7631L128.086 43.3535L126.504 42.3025L123.56 45.5922C122.292 46.9846 120.956 47.2439 119.661 46.3703C118.979 45.9062 118.324 45.1281 118.052 44.4319L119.933 42.9304L120.778 44.118L120.928 44.1453L124.064 40.6644L122.755 39.7908L124.105 37.7842C125.4 38.4667 127.227 39.5997 129.477 41.1012C130.976 42.1114 131.631 42.5891 131.903 42.8894C131.808 43.2716 131.726 43.5583 131.603 43.8859C131.358 44.4183 131.126 44.8141 130.881 45.1827H130.867Z" fill="black"/>
<path d="M139.988 52.0762C138.965 52.8953 137.806 53.7416 136.566 54.5197C133.307 56.5809 132.162 56.5263 129.817 54.1511C128.631 52.9499 127.581 51.4756 127.254 50.561L129.395 49.2233C129.79 49.9195 130.131 50.4655 130.417 50.9433L134.684 45.292L136.757 47.3396L132.121 53.2502C132.217 53.373 132.299 53.4549 132.38 53.5641L132.68 53.6733C133.321 53.5232 136.075 51.5575 138.815 49.3871L140.683 51.2299L140.001 52.0899L139.988 52.0762Z" fill="black"/>
<path d="M135.789 60.4576L136.498 59.7477L133.376 57.9049L135.912 56.4853L138.12 57.9186L142.483 53.646L144.228 55.9529L137.37 62.5461L135.789 60.4576Z" fill="black"/>
<path d="M146.627 59.5703L148.168 62.1366L139.361 65.8358L137.82 63.2695L146.627 59.5566V59.5703Z" fill="black"/>
<path d="M140.37 66.6003L142.905 66.2317C142.987 66.846 143.001 67.4739 143.069 68.1701L143.274 68.3066C143.342 68.3066 144.037 68.1564 144.855 67.9244C145.646 67.7196 146.491 67.4466 147.704 67.0098L146.995 65.4946L149.34 64.3889L151.276 68.5113L150.158 69.2075C148.7 69.7399 147.909 70.0129 146.082 70.5043C142.933 71.3643 141.815 71.064 140.956 69.2348C140.67 68.6069 140.451 67.665 140.356 66.5866L140.37 66.6003Z" fill="black"/>
<path d="M150.308 82.2026C150.308 82.2026 150.308 82.1616 150.281 82.148L147.691 85.1511L145.468 83.3083L149.599 79.0084L144.923 79.3633L144.296 76.5377L153.812 75.8142L154.439 78.6398L151.972 78.8309C151.917 79.5271 151.835 80.7011 151.835 81.0287L151.931 81.1788C152.449 81.2061 152.926 81.1788 153.948 81.0833L154.971 80.9877L155.598 83.7724C155.38 83.827 155.162 83.8543 154.957 83.8816C153.58 84.0318 152.776 84.0727 152.271 84.0045C151.29 83.8952 150.785 83.4311 150.322 82.2026H150.308Z" fill="black"/>
<path d="M153.43 90.2154L153.212 86.2704L154.862 86.2158L159.32 86.6253L159.47 89.4783L155.966 89.1916L156.184 93.2731L155.189 93.4369L146.655 92.0582L146.505 89.178L153.43 90.2154Z" fill="black"/>
<path d="M54.5609 90.6524H58.4874L57.5058 97.423H53.6611L54.5609 90.6524ZM61.7321 92.0175C61.9639 90.1337 62.0729 89.0007 62.0457 88.4001L61.5821 88.0589H54.52V84.8101C56.2515 84.6053 58.5692 84.4961 61.5821 84.4961C65.3722 84.4961 66.272 85.7383 65.8903 89.9153C65.6313 92.6044 65.2768 94.6383 64.8269 97.4094H60.9823C61.1322 96.0989 61.364 94.7749 61.7321 92.0175Z" fill="black"/>
<path d="M73.3614 92.0175C73.5932 90.161 73.7023 89.0007 73.675 88.4001L73.2387 88.0589H67.949V84.8101C69.3396 84.6053 71.0983 84.4961 73.1297 84.4961C76.5653 84.4961 77.6696 85.5335 77.5878 88.5776C77.5333 90.3794 77.0152 94.2015 76.4562 97.4094H72.6116C72.7616 96.0989 72.9933 94.7749 73.3614 92.0175Z" fill="black"/>
<path d="M90.6215 94.1606L90.1307 97.4094H78.9922L79.4557 94.1606H85.2908C85.5771 91.7308 85.7544 89.8471 85.7544 88.9462C85.7544 88.7141 85.7271 88.5366 85.7271 88.4274L85.2636 88.0725H80.1783V84.8237C81.8279 84.619 83.4776 84.5098 85.1272 84.5098C88.5083 84.5098 89.6126 85.4107 89.6126 88.1271C89.6126 89.1646 89.3809 91.2804 88.9719 94.1742H90.6215V94.1606Z" fill="black"/>
<path d="M105.277 88.0179C105.277 89.2328 105.018 91.1985 104.119 97.4231H100.247C100.369 96.3583 100.628 94.8977 100.969 92.1267C101.228 90.1064 101.31 89.028 101.283 88.4138L100.792 88.0725H97.7517L96.3883 97.4231H92.5165L93.8798 88.0725H92.1211V84.8237C94.1116 84.619 97.0155 84.5098 100.656 84.5098C103.082 84.5098 104.214 84.5644 104.732 84.6872L105.141 86.025C105.223 86.6938 105.264 87.2945 105.264 88.0179H105.277Z" fill="black"/>
<path d="M121.324 91.1711C121.324 91.1711 121.269 91.1711 121.242 91.1984L124.419 95.4846L121.351 97.8598L116.92 91.1711L116.02 97.423H112.121L113.948 84.6871H117.847L117.384 87.9905C118.284 88.2772 119.811 88.714 120.22 88.8232L120.451 88.7413C120.629 88.0724 120.738 87.4309 120.915 86.0522L121.092 84.6871H124.937C124.937 85.0011 124.909 85.2878 124.882 85.5608C124.678 87.4172 124.5 88.4819 124.269 89.1235C123.832 90.393 123.083 90.9117 121.324 91.1711Z" fill="black"/>
<path d="M131.999 88.168H126.682L126.736 85.943L127.609 79.9778H131.453L130.813 84.6735H136.307L136.457 86.0113L133.976 97.3957H130.104L131.985 88.1544L131.999 88.168Z" fill="black"/>
<path d="M63.968 113.844C63.968 115.087 63.6817 117.148 62.8092 123.25H58.9101C59.06 122.171 59.3191 120.724 59.6599 117.953C59.9189 115.933 60.0007 114.855 59.9735 114.24L59.4827 113.899H56.9332L56.1016 119.782C55.7198 122.28 54.4247 123.577 52.3387 123.577C51.2344 123.577 49.912 123.195 49.094 122.622L50.0756 119.523L51.9025 120.219L52.0797 120.137L52.9795 113.885H50.8663V110.637C52.8296 110.432 55.7198 110.323 59.36 110.323C61.7867 110.323 62.891 110.377 63.4091 110.5C63.5863 110.991 63.7226 111.374 63.8181 111.838C63.9408 112.616 63.968 113.23 63.968 113.831V113.844Z" fill="black"/>
<path d="M67.4581 110.514H71.48L69.6259 123.25H65.604L67.4581 110.514Z" fill="black"/>
<path d="M83.9955 119.987L83.5047 123.236H72.3662L72.8297 119.987H78.6648C78.9511 117.557 79.1284 115.674 79.1284 114.773C79.1284 114.541 79.1011 114.363 79.1011 114.254L78.6376 113.885H73.5523V110.637C75.202 110.432 76.8516 110.323 78.5012 110.323C81.8823 110.323 82.9866 111.224 82.9866 113.94C82.9866 114.977 82.7549 117.093 82.3459 119.987H83.9955Z" fill="black"/>
<path d="M87.2948 110.514H91.3167L89.4625 123.25H85.4407L87.2948 110.514Z" fill="black"/>
<path d="M106.327 113.844C106.327 115.059 106.068 117.025 105.168 123.25H101.296C101.419 122.185 101.678 120.724 102.019 117.953C102.278 115.933 102.36 114.855 102.333 114.24L101.842 113.899H98.8015L97.4382 123.25H93.5663L94.9296 113.899H93.1709V110.65C95.1614 110.446 98.0653 110.336 101.705 110.336C104.132 110.336 105.264 110.391 105.782 110.514L106.191 111.851C106.273 112.52 106.314 113.121 106.314 113.844H106.327Z" fill="black"/>
<path d="M118.802 113.995H113.485L113.539 111.77L114.412 105.804H118.256L117.616 110.5H123.11L123.26 111.838L120.778 123.222H116.907L118.788 113.981L118.802 113.995Z" fill="black"/>
<path d="M128.604 123.55L126.436 123.086L124.964 110.514H128.631L129.04 114.104C129.477 114.227 129.886 114.336 130.308 114.418L130.513 114.295C130.663 113.544 130.772 112.643 130.894 111.114L130.976 110.514H134.412L134.357 111.292C134.248 112.398 134.207 113.025 134.098 113.585C133.635 115.756 132.789 116.602 130.894 116.793C130.322 116.848 129.831 116.875 129.34 116.875L129.681 119.714L129.995 119.823C134.18 118.991 136.13 116.179 136.102 110.527H139.838C140.097 118.062 136.13 122.663 128.59 123.577L128.604 123.55Z" fill="black"/>
<path d="M74.8883 139.835H69.5713L69.6258 137.61L70.4984 131.645H74.343L73.7022 136.34H79.1965L79.3464 137.678L76.8652 149.062H72.9933L74.8747 139.821L74.8883 139.835Z" fill="black"/>
<path d="M86.4223 139.835H81.1052L81.1598 137.61L82.0323 131.645H85.8769L85.2361 136.34H90.7304L90.8804 137.678L88.3991 149.062H84.5272L86.4086 139.821L86.4223 139.835Z" fill="black"/>
<path d="M91.3167 148.557L92.1483 145.404C94.5478 145.95 97.329 146.537 97.588 146.592L97.9289 146.469C98.2424 145.391 98.5696 142.36 98.5696 140.79C98.5696 139.862 98.5696 139.985 98.5424 139.889L98.2015 139.767H92.9663V136.354H102.046C102.332 137.432 102.455 138.142 102.51 138.879C102.537 140.381 102.428 141.855 102.223 143.275C101.937 144.926 101.583 146.141 101.187 146.838C100.233 148.639 98.556 149.445 95.7475 149.445C94.5069 149.445 92.7618 149.103 91.3167 148.571V148.557Z" fill="black"/>
<path d="M115.284 145.827L114.794 149.076H103.655L104.119 145.827H109.954C110.24 143.398 110.417 141.514 110.417 140.613C110.417 140.381 110.39 140.203 110.39 140.094L109.926 139.726H104.841V136.477C106.491 136.272 108.14 136.163 109.79 136.163C113.171 136.163 114.275 137.064 114.275 139.78C114.275 140.818 114.044 142.933 113.635 145.827H115.284Z" fill="black"/>
</g>
<defs>
<clipPath id="clip0_1293_576">
<rect width="189" height="190" fill="white"/>
</clipPath>
</defs>
</svg>
