<svg width="186" height="184" viewBox="0 0 186 184" fill="none" xmlns="http://www.w3.org/2000/svg">
<g clip-path="url(#clip0_1293_619)">
<path d="M172.812 21.5516C171.48 22.5266 168.516 23.4265 167.953 23.6328C166.978 23.989 164.558 24.2796 163.479 24.2983H163.198L162.935 24.3077C162.917 24.3077 161.463 24.3827 158.733 24.3827C155.713 24.3827 150.723 24.289 144.091 23.8484C142.806 23.764 141.512 23.7171 140.236 23.7171C139.964 23.7171 139.702 23.7265 139.43 23.7359L137.826 23.7734C134.58 23.914 131.691 24.3265 129.206 24.8608C128.596 24.992 127.958 24.8795 127.452 24.5233C125.651 23.2578 123.475 22.5453 121.149 22.5453C119.404 22.5453 117.96 22.9391 117.05 23.2672C112.726 24.7671 108.871 29.4261 109.809 35.6694C110.193 38.2193 111.394 40.2629 112.988 41.7721C113.251 42.0159 113.457 42.3159 113.579 42.6533L124.647 73.045C124.919 73.7856 124.779 74.6012 124.291 75.2105C122.893 76.9823 122.077 79.2415 122.077 81.7726C122.077 86.1785 124.75 88.8502 127.105 91.2032C128.821 92.9187 130.95 95.0466 132.948 98.1496C136.062 102.996 135.79 103.671 135.256 105.03C134.111 107.899 132.545 108.949 129.872 109.98C126.973 111.105 123.287 111.696 119.216 111.696C119.216 111.696 119.207 111.696 119.198 111.696C118.11 111.696 117.172 110.899 116.993 109.821C115.868 102.855 115.53 95.4591 115.155 87.4065C114.855 80.7695 114.536 73.9168 113.729 66.708C112.782 58.2804 111.159 43.7314 101.02 35.5194C100.485 35.0882 100.157 34.4508 100.157 33.7664L100.119 29.0136C100.119 28.9574 100.119 28.9011 100.119 28.8449L98.1026 4.32157C97.8212 0.928049 93.8349 -0.740588 91.2273 1.45301L84.0893 7.4526C83.9674 7.5276 83.7985 7.62134 83.6109 7.71509C83.0388 7.98694 82.2603 8.27755 81.8945 8.34317C81.8945 8.34317 81.8194 8.34317 81.6506 8.35254C81.5943 8.35254 81.5286 8.35254 81.4442 8.35254C81.0315 8.35254 80.6001 8.3338 80.1686 8.31505C79.512 8.28692 78.8648 8.26817 78.227 8.26817C77.4391 8.26817 76.7356 8.2963 76.0603 8.36192L67.6936 9.15874C66.2678 9.28998 65.3205 10.7149 65.7519 12.0835L68.2563 20.1174C68.8848 22.1235 69.5883 24.0546 70.2636 25.9295C71.4079 29.0793 72.5053 32.0978 73.0212 34.9289C73.1713 35.7444 72.8805 36.5788 72.2427 37.1037C71.905 37.3849 71.558 37.6662 71.1922 37.9568C69.3631 39.4286 67.2902 41.0972 65.433 43.2814C54.8058 55.8056 55.256 72.2951 55.65 86.8347C55.8094 92.4968 55.9501 97.8496 55.4342 102.443C53.6896 118.033 45.745 133.378 34.1798 143.475C25.8412 150.758 18.1123 157.817 11.3589 160.283L6.57525 161.389C4.58675 161.773 3.4049 161.68 1.60399 162.017L0.797335 165.195C0.797335 165.195 0.609741 166.507 0.609741 166.545C-0.356371 174.635 4.31473 176.838 6.59401 177.841C13.61 180.935 22.2019 182.575 31.4597 182.575C40.7175 182.575 49.0748 181.038 56.2315 178.244C58.2013 177.475 60.1241 176.594 61.9907 175.61C69.2224 171.795 75.6288 166.386 80.9471 159.664C81.8757 158.492 83.6109 158.53 84.5114 159.72C95.7389 174.616 115.314 183.494 139.223 183.522C139.261 183.522 139.298 183.522 139.336 183.522C139.336 183.522 139.42 183.522 139.467 183.522C145.827 183.522 152.111 182.838 158.17 181.525C165.196 179.997 167.044 178.76 167.935 178.169C173.159 174.682 172.653 168.476 172.465 166.132L172.315 164.136C172.287 163.742 172.156 163.367 171.94 163.039L168.76 158.286C168.366 157.696 167.719 157.33 167.015 157.292L163.601 157.105C163.207 157.086 162.832 157.077 162.448 157.077C160.984 157.077 159.718 157.217 158.705 157.339C158.077 157.414 157.486 157.48 157.11 157.48C156.942 157.48 156.885 157.471 156.867 157.461C153.302 156.58 148.763 154.208 144.335 151.255C142.938 150.327 143.022 148.237 144.476 147.402C149.766 144.365 154.991 140.531 158.105 136.088L158.18 135.984C162.363 130.004 168.685 120.976 165.899 105.424C163.751 93.4624 156.304 85.4754 149.006 79.7196C148.678 79.4665 148.434 79.129 148.294 78.7353L145.461 71.0483C145.189 70.2983 145.32 69.464 145.817 68.8453C146.268 68.3016 146.737 67.7579 147.196 67.261C147.234 67.2235 147.271 67.1861 147.309 67.1392C148.415 66.0892 149.935 64.7581 151.614 63.4082L154.315 61.3458C156.491 59.7709 158.724 58.3648 160.581 57.6054C169.67 53.8838 176.498 46.8718 177.239 46.0937C177.277 46.0562 177.305 46.0187 177.343 45.9812C184.415 38.538 187.154 27.8887 184.574 17.8863L184.105 16.0583C183.749 14.6802 182.126 14.1272 181.019 14.999L172.803 21.5329L172.812 21.5516Z" fill="white" stroke="black" stroke-linecap="round" stroke-linejoin="round"/>
<path d="M121.074 33.3914L146.952 104.355L149.091 103.559L122.884 32.5196C122.884 32.5196 123.953 32.004 123.325 30.2791C122.565 28.198 120.323 29.1448 120.323 29.1448C120.323 29.1448 118.672 29.5761 118.991 31.7134C119.198 33.0914 121.074 33.4008 121.074 33.4008V33.3914Z" fill="black" stroke="black" stroke-width="0.75" stroke-linejoin="round"/>
<path d="M178.252 24.3264C178.252 24.3264 180.316 29.4073 172.69 37.4224C172.69 37.4224 166.518 43.9095 158.696 47.1061C150.873 50.3028 141.775 59.1053 141.775 59.1053C141.775 59.1053 136.672 64.4768 135.875 67.5797L123.418 33.982C123.418 33.982 131.26 29.3792 144.551 30.2604C157.842 31.1416 165.168 30.7385 165.168 30.7385C165.168 30.7385 175.232 30.8041 178.234 24.3264H178.252Z" fill="#F4EDD0" stroke="black" stroke-width="0.75" stroke-linecap="round" stroke-linejoin="round"/>
<path d="M138.389 39.9629L153.19 35.4257L149.494 47.8186L138.389 39.9629Z" stroke="black" stroke-width="0.75" stroke-linejoin="round"/>
<path d="M140.649 48.2779L156.173 42.1846L144.532 34.6476L140.649 48.2779Z" stroke="black" stroke-width="0.75" stroke-linejoin="round"/>
<path d="M82.0163 14.1928C80.0466 14.4459 77.7017 14.0709 75.685 14.2584C77.6923 20.6986 80.8439 27.0638 81.3129 33.9164C81.5286 37.16 81.4348 37.5256 79.2118 39.7285C76.6511 42.2596 73.3026 44.3032 70.967 47.0499C58.5014 61.7208 64.7858 85.4379 62.7973 103.137C60.7337 121.51 51.5322 139.434 37.6502 151.546C28.7489 159.317 17.5682 165.636 5.63722 166.92C5.74977 168.673 4.69924 170.501 6.72527 171.401C19.3973 176.988 38.1005 176.632 50.8756 171.663C66.0708 165.748 76.5386 152.943 82.2884 137.991L83.095 137.522C89.4263 171.185 128.136 181.066 157.739 174.626C159.333 174.279 163.423 173.323 164.633 172.516C165.515 171.935 165.224 169.367 165.149 168.373L164.858 167.942C161.772 167.773 159.305 168.814 156.154 168.045C145.958 165.542 132.029 155.296 124.985 147.581C102.492 122.926 107.839 96.6309 104.434 66.2299C103.271 55.8431 101.264 42.119 90.3737 37.7412L90.2893 26.5763L89.0324 11.2305C87.4097 12.5898 84.0986 13.9303 82.007 14.1928H82.0163Z" fill="black"/>
<path d="M82.0165 14.1928C84.1082 13.9209 87.4192 12.5898 89.0419 11.2305L90.2988 26.5763L90.3832 37.7412C101.273 42.119 103.28 55.8431 104.443 66.2299C107.848 96.6403 102.502 122.926 124.994 147.581C132.039 155.296 145.967 165.542 156.163 168.045C159.305 168.814 161.782 167.782 164.868 167.942L165.158 168.373C165.233 169.367 165.524 171.926 164.643 172.516C163.433 173.323 159.343 174.279 157.748 174.626C128.146 181.056 89.4359 171.185 83.1045 137.522L82.2979 137.991C76.5387 152.943 66.0803 165.748 50.8852 171.663C38.1006 176.641 19.4068 176.997 6.73479 171.401C4.70877 170.51 5.7593 168.673 5.64674 166.92C17.5871 165.645 28.7584 159.317 37.6598 151.546C51.5417 139.434 60.7433 121.501 62.8068 103.137C64.7953 85.4379 58.5015 61.7208 70.9765 47.0499C73.3121 44.3032 76.6607 42.2596 79.2213 39.7285C81.4443 37.5349 81.5475 37.1693 81.3224 33.9164C80.8534 27.0638 77.7112 20.6986 75.6945 14.2584C77.7112 14.0709 80.0561 14.4459 82.0259 14.1928H82.0165ZM130.031 161.258C125.473 158.127 120.858 154.996 117.069 150.908C99.5191 131.944 100.204 105.133 98.4592 81.0882C97.8682 73.0169 97.0428 64.9643 95.5514 57.0149L94.1726 52.3933C99.3033 79.9445 93.4691 109.633 105.353 135.816C110.278 146.662 119.085 156.336 130.031 161.248V161.258ZM70.3481 84.7536C68.172 85.691 67.8156 91.7188 68.5847 94.0998C68.988 95.3466 69.8322 97.5402 71.5862 97.7933C75.7133 97.934 75.5914 86.8253 72.1771 84.7911C71.5675 84.4255 71.0141 84.4724 70.3481 84.7536ZM86.9315 84.538C84.6803 84.3786 83.8549 89.0283 84.1269 91.7281C84.2582 93.078 85.0086 98.7589 87.9632 97.6527C91.8558 96.1903 91.3399 87.2941 87.8319 84.8942C87.4755 84.6505 87.4098 84.5755 86.9315 84.5474V84.538Z" fill="#F7DE63" stroke="black" stroke-width="0.75" stroke-miterlimit="10"/>
<path d="M130.031 161.258C119.085 156.336 110.277 146.671 105.353 135.825C93.4689 109.643 99.3125 79.954 94.1724 52.4027L95.5512 57.0243C97.0426 64.9737 97.8774 73.0263 98.4589 81.0976C100.204 105.143 99.5188 131.944 117.068 150.918C120.848 155.005 125.463 158.136 130.031 161.267V161.258Z" fill="black"/>
<path d="M109.818 120.179C109.818 120.179 122.79 122.917 133.867 118.633C138.088 116.992 142.272 114.452 144.757 108.255C146.361 104.262 146.896 100.878 141.549 92.5812C136.916 85.3911 131.795 82.26 131.795 80.732C131.795 79.204 133.023 79.1665 134.093 79.3446C134.956 79.4852 135.753 79.8414 136.475 80.3195C146.577 87.0972 156.238 94.2592 158.499 106.83C160.712 119.129 155.985 125.766 151.989 131.466C145.686 140.456 124.994 147.581 124.994 147.581C124.994 147.581 109.818 130.585 109.818 120.179Z" fill="#F7DE63" stroke="black" stroke-miterlimit="10"/>
<path d="M74.325 110.936C74.325 110.936 74.672 116.72 79.0054 116.973C81.4911 117.123 84.0517 116.111 84.4175 110.936" stroke="black" stroke-linecap="round" stroke-linejoin="round"/>
</g>
<defs>
<clipPath id="clip0_1293_619">
<rect width="186" height="184" fill="white"/>
</clipPath>
</defs>
</svg>
