<svg width="145" height="117" viewBox="0 0 145 117" fill="none" xmlns="http://www.w3.org/2000/svg">
<g clip-path="url(#clip0_2088_3578)">
<path d="M130.552 0.752014H13.8263C6.43931 0.752014 0.450928 6.74039 0.450928 14.1274V102.209C0.450928 109.596 6.43931 115.584 13.8263 115.584H130.552C137.939 115.584 143.928 109.596 143.928 102.209V14.1274C143.928 6.74039 137.939 0.752014 130.552 0.752014Z" fill="white" stroke="black" stroke-width="0.901917" stroke-miterlimit="10"/>
<path d="M129.001 4.7926H14.7645C8.78715 4.7926 3.94153 9.63822 3.94153 15.6156V101.09C3.94153 107.068 8.78715 111.913 14.7645 111.913H129.001C134.979 111.913 139.824 107.068 139.824 101.09V15.6156C139.824 9.63822 134.979 4.7926 129.001 4.7926Z" fill="#B7E862" stroke="#231F20" stroke-width="1.80383" stroke-miterlimit="10"/>
<path d="M43.7161 29.2705C43.7161 31.6516 43.4185 34.2762 42.4625 40.1386H35.6981C36.4467 34.9887 36.7443 32.1566 36.6812 31.1465L36.4467 30.9661H35.4907L34.8954 35.0428C34.3633 38.7677 32.5684 40.5535 29.4478 40.5535C27.8965 40.5535 25.759 39.9853 24.3881 39.1826L25.759 34.3844L27.5718 35.0698L27.8965 34.9526L28.4918 30.9661H26.3452V25.4013C29.087 25.1939 33.1637 25.0405 36.4377 25.0405C38.9721 25.0405 41.29 25.1307 43.0217 25.275L43.5267 26.8534C43.644 27.602 43.7071 28.4047 43.7071 29.2615L43.7161 29.2705Z" fill="black"/>
<path d="M64.7036 29.2705C64.7036 31.5975 64.4059 34.213 63.4499 40.1386H56.6855C57.4341 34.8985 57.7317 32.1566 57.6686 31.1465L57.4341 30.9661H55.9459L54.6021 40.1386H47.6303L48.9741 30.9661H47.3326V25.4013C49.9572 25.1939 54.0339 25.0405 57.4251 25.0405C60.0767 25.0405 62.3946 25.1307 64.0091 25.275L64.5142 26.8534C64.6314 27.602 64.6945 28.4047 64.6945 29.2615L64.7036 29.2705Z" fill="black"/>
<path d="M69.7992 40.0484L67.8601 23.6696H74.3269L75.4903 33.6177L75.815 33.6808C76.5636 33.1487 77.1228 32.2197 77.1228 31.4441C77.1228 30.8488 76.8252 30.5241 76.2299 30.5241H76.0495L75.4813 25.762C76.4644 25.311 77.7181 25.0495 78.8184 25.0495C81.7045 25.0495 83.4903 26.8623 83.4903 29.8477C83.4903 34.7361 79.5039 38.8668 73.2175 40.4813L69.7902 40.0664L69.7992 40.0484Z" fill="black"/>
<path d="M87.9008 25.3381H95.1973L93.0237 40.1385H85.7272L87.9008 25.3381Z" fill="black"/>
<path d="M112.054 34.4476L111.224 40.1387H97.4069L98.2366 34.4476H104.135C104.288 33.0767 104.343 32.0665 104.288 31.3179L104.018 31.0473H98.6244V25.3562C101.096 25.1217 103.296 25.0316 105.623 25.0316C109.763 25.0316 111.161 26.0778 111.161 29.2345C111.161 30.2446 110.954 32.0936 110.593 34.4476H112.054Z" fill="black"/>
<path d="M130.94 28.5219C130.94 32.2468 130.138 36.2964 129.065 37.965C127.937 39.6967 125.105 40.7068 121.38 40.7068C118.792 40.7068 116.194 40.2919 114.354 39.5794L115.752 34.0958C117.691 34.5738 122.661 35.5839 123.139 35.5839L123.437 35.4667C123.671 35.0518 124.032 31.9492 123.915 31.39L123.554 31.3269L122.598 32.1927L122.751 33.5366H116.645L115.689 25.3472H122.093L122.453 28.2964L125.285 25.3472H130.679L130.859 26.7181C130.95 28.0259 130.95 28.089 130.95 28.5309L130.94 28.5219Z" fill="black"/>
<path d="M43.7161 55.5164C43.7161 57.8974 43.4185 60.522 42.4625 66.3845H35.6981C36.4467 61.2345 36.7443 58.4025 36.6812 57.3924L36.4467 57.212H35.4907L34.8954 61.2886C34.3633 65.0136 32.5684 66.7993 29.4478 66.7993C27.8965 66.7993 25.759 66.2311 24.3881 65.4284L25.759 60.6302L27.5718 61.3157L27.8965 61.1984L28.4918 57.212H26.3452V51.6471C29.087 51.4397 33.1637 51.2864 36.4377 51.2864C38.9721 51.2864 41.29 51.3766 43.0217 51.5209L43.5267 53.0992C43.644 53.8478 43.7071 54.6505 43.7071 55.5073L43.7161 55.5164Z" fill="black"/>
<path d="M64.7036 55.5164C64.7036 57.8433 64.4059 60.4589 63.4499 66.3845H56.6855C57.4341 61.1443 57.7317 58.4025 57.6686 57.3924L57.4341 57.212H55.9459L54.6021 66.3845H47.6303L48.9741 57.212H47.3326V51.6471C49.9572 51.4397 54.0339 51.2864 57.4251 51.2864C60.0767 51.2864 62.3946 51.3766 64.0091 51.5209L64.5142 53.0992C64.6314 53.8478 64.6945 54.6505 64.6945 55.5073L64.7036 55.5164Z" fill="black"/>
<path d="M69.7992 66.2942L67.8601 49.9154H74.3269L75.4903 59.8635L75.815 59.9267C76.5636 59.3945 77.1228 58.4656 77.1228 57.6899C77.1228 57.0947 76.8252 56.77 76.2299 56.77H76.0495L75.4813 52.0079C76.4644 51.5569 77.7181 51.2953 78.8184 51.2953C81.7045 51.2953 83.4903 53.1082 83.4903 56.0935C83.4903 60.9819 79.5039 65.1127 73.2175 66.7271L69.7902 66.3123L69.7992 66.2942Z" fill="black"/>
<path d="M87.9008 51.5839H95.1973L93.0237 66.3844H85.7272L87.9008 51.5839Z" fill="black"/>
<path d="M112.054 60.6933L111.224 66.3844H97.4069L98.2366 60.6933H104.135C104.288 59.3224 104.343 58.3122 104.288 57.5636L104.018 57.2931H98.6244V51.602C101.096 51.3675 103.296 51.2773 105.623 51.2773C109.763 51.2773 111.161 52.3235 111.161 55.4802C111.161 56.4904 110.954 58.3393 110.593 60.6933H112.054Z" fill="black"/>
<path d="M130.94 54.7676C130.94 58.4926 130.138 62.5422 129.065 64.2107C127.937 65.9424 125.105 66.9525 121.38 66.9525C118.792 66.9525 116.194 66.5377 114.354 65.8251L115.752 60.3415C117.691 60.8195 122.661 61.8296 123.139 61.8296L123.437 61.7124C123.671 61.2975 124.032 58.1949 123.915 57.6357L123.554 57.5726L122.598 58.4384L122.751 59.7823H116.645L115.689 51.5929H122.093L122.453 54.5422L125.285 51.5929H130.679L130.859 52.9638C130.95 54.2716 130.95 54.3347 130.95 54.7767L130.94 54.7676Z" fill="black"/>
<path d="M14.8277 87.39L19.8604 88.0754V93.2254H13.4297L14.8277 87.39ZM15.928 72.4723H23.6123L20.3925 85.7214H15.1794L15.928 72.4723Z" fill="black"/>
<path d="M43.7161 81.7621C43.7161 84.1432 43.4185 86.7677 42.4625 92.6302H35.6981C36.4467 87.4802 36.7443 84.6482 36.6812 83.6381L36.4467 83.4577H35.4907L34.8954 87.5344C34.3633 91.2593 32.5684 93.0451 29.4478 93.0451C27.8965 93.0451 25.759 92.4769 24.3881 91.6742L25.759 86.876L27.5718 87.5614L27.8965 87.4442L28.4918 83.4577H26.3452V77.8929C29.087 77.6854 33.1637 77.5321 36.4377 77.5321C38.9721 77.5321 41.29 77.6223 43.0217 77.7666L43.5267 79.345C43.644 80.0935 43.7071 80.8963 43.7071 81.7531L43.7161 81.7621Z" fill="black"/>
<path d="M64.7126 81.7621C64.7126 84.089 64.415 86.7046 63.4589 92.6302H56.6945C57.4431 87.3901 57.7408 84.6482 57.6776 83.6381L57.4431 83.4577H55.955L54.6111 92.6302H47.6393L48.9832 83.4577H47.3417V77.8929C49.9663 77.6854 54.0429 77.5321 57.4341 77.5321C60.0858 77.5321 62.4037 77.6223 64.0181 77.7666L64.5232 79.345C64.6404 80.0935 64.7036 80.8963 64.7036 81.7531L64.7126 81.7621Z" fill="black"/>
<path d="M69.7992 92.5399L67.8601 76.1611H74.3269L75.4903 86.1093L75.815 86.1724C76.5636 85.6403 77.1228 84.7113 77.1228 83.9357C77.1228 83.3404 76.8252 83.0157 76.2299 83.0157H76.0495L75.4813 78.2536C76.4644 77.8026 77.7181 77.5411 78.8184 77.5411C81.7045 77.5411 83.4903 79.3539 83.4903 82.3393C83.4903 87.2276 79.5039 91.3584 73.2175 92.9729L69.7902 92.558L69.7992 92.5399Z" fill="black"/>
<path d="M87.9008 77.8298H95.1973L93.0237 92.6303H85.7272L87.9008 77.8298Z" fill="black"/>
<path d="M112.054 86.939L111.224 92.6301H97.4069L98.2366 86.939H104.135C104.288 85.5681 104.343 84.558 104.288 83.8094L104.018 83.5388H98.6244V77.8477C101.096 77.6132 103.296 77.523 105.623 77.523C109.763 77.523 111.161 78.5692 111.161 81.7259C111.161 82.7361 110.954 84.585 110.593 86.939H112.054Z" fill="black"/>
<path d="M130.94 81.0135C130.94 84.7384 130.138 88.788 129.065 90.4566C127.937 92.1882 125.105 93.1984 121.38 93.1984C118.792 93.1984 116.194 92.7835 114.354 92.071L115.752 86.5873C117.691 87.0653 122.661 88.0755 123.139 88.0755L123.437 87.9582C123.671 87.5434 124.032 84.4408 123.915 83.8816L123.554 83.8184L122.598 84.6843L122.751 86.0281H116.645L115.689 77.8387H122.093L122.453 80.788L125.285 77.8387H130.679L130.859 79.2097C130.95 80.5174 130.95 80.5806 130.95 81.0225L130.94 81.0135Z" fill="black"/>
</g>
<defs>
<clipPath id="clip0_2088_3578">
<rect width="144.379" height="115.734" fill="white" transform="translate(0 0.300903)"/>
</clipPath>
</defs>
</svg>
