<svg width="152" height="157" viewBox="0 0 152 157" fill="none" xmlns="http://www.w3.org/2000/svg">
<g clip-path="url(#clip0_2088_3488)">
<path d="M130.193 120.47L129.904 126.751C129.414 137.301 119.587 144.903 109.226 142.741L103.113 141.464C100.029 140.825 96.8494 141.964 94.8862 144.424L90.9917 149.3C84.3871 157.572 71.9247 157.955 64.808 150.109L60.6681 145.541C58.5555 143.21 55.2905 142.262 52.2496 143.103L46.3065 144.754C36.0848 147.586 25.7565 140.58 24.6361 130.051L23.9853 123.93C23.6545 120.8 21.5739 118.117 18.6184 117.02L12.846 114.859C2.92307 111.143 -1.30217 99.4431 3.96871 90.2661L7.0843 84.8578C8.65276 82.1323 8.54606 78.7575 6.81755 76.1385L3.38187 70.9325C-2.44384 62.1174 1.03452 50.1936 10.68 45.8605L16.4204 43.2841C19.2906 41.9959 21.1898 39.2066 21.3285 36.0766L21.6166 29.7953C22.1074 19.2449 31.9343 11.6434 42.2947 13.8046L48.4085 15.0822C51.4921 15.721 54.6717 14.5818 56.6349 12.1225L60.5294 7.24654C67.134 -1.0256 79.5963 -1.40886 86.7131 6.43743L90.853 11.0047C92.9656 13.3362 96.2306 14.2837 99.2715 13.4427L105.215 11.7925C115.436 8.96059 125.765 15.9658 126.885 26.495L127.536 32.6166C127.867 35.7466 129.947 38.4294 132.903 39.526L138.675 41.6872C148.598 45.4027 152.823 57.103 147.552 66.28L144.437 71.6883C142.868 74.4138 142.975 77.7887 144.704 80.4076L148.139 85.6137C153.965 94.4288 150.487 106.353 140.841 110.686L135.101 113.262C132.231 114.55 130.331 117.34 130.193 120.47Z" fill="white" stroke="black" stroke-width="0.901917" stroke-miterlimit="10"/>
<path d="M126.693 117.84L126.971 125.537C127.301 134.65 118.574 141.4 109.814 138.813L102.409 136.631C99.0691 135.64 95.4627 136.939 93.5208 139.824L89.2102 146.212C84.11 153.782 73.0774 154.122 67.5078 146.894L62.8024 140.783C60.6791 138.025 57.0087 136.961 53.7331 138.153L46.4776 140.793C37.8991 143.923 28.7657 137.727 28.5203 128.614L28.3176 120.917C28.2216 117.435 25.8849 114.422 22.5345 113.464L15.1084 111.346C6.31643 108.844 2.582 98.4744 7.75686 90.9581L12.1315 84.6023C14.1054 81.7385 13.988 77.9165 11.8327 75.1804L7.07399 69.112C1.44033 61.9364 4.52391 51.3541 13.1344 48.3092L20.4113 45.7328C23.6976 44.5724 25.8422 41.4104 25.7248 37.9398L25.4474 30.2425C25.1166 21.1293 33.8445 14.3796 42.6045 16.9666L50.0093 19.1491C53.349 20.1392 56.9554 18.8404 58.8973 15.9552L63.2079 9.56749C68.308 1.99801 79.3406 1.65733 84.9103 8.88614L89.6156 14.9971C91.7389 17.7545 95.4093 18.8191 98.685 17.6267L105.94 14.9864C114.519 11.8564 123.652 18.0526 123.898 27.1658L124.1 34.863C124.196 38.3443 126.533 41.3572 129.884 42.3154L137.31 44.434C146.102 46.9359 149.836 57.3053 144.661 64.8216L140.287 71.1774C138.313 74.0412 138.43 77.8632 140.585 80.5993L145.344 86.6677C150.978 93.8433 147.894 104.426 139.284 107.47L132.007 110.047C128.721 111.207 126.576 114.369 126.693 117.84Z" fill="#7DC1EF" stroke="black" stroke-width="1.80383" stroke-miterlimit="10"/>
<path d="M42.871 46.9252L45.4637 47.4681L43.4472 52.9403L40.8757 52.408L42.871 46.9358V46.9252Z" fill="black"/>
<path d="M57.7874 52.5251C57.6167 53.3555 56.9872 55.1441 55.344 59.6581L52.8366 59.1364C53.3488 57.6992 53.8076 56.4536 54.4584 54.5479C54.8959 53.2597 55.1093 52.5251 55.1733 52.0993L54.8745 51.7479L52.3991 51.2369L50.6066 56.1555C49.9771 57.8589 48.9208 58.5615 47.5017 58.2634C46.6908 58.0931 45.8585 57.6566 45.3037 57.103L46.424 55.176L47.7684 56.0384L47.8965 56.0064L49.8277 50.7046L48.1099 50.3426L48.558 48.2134C50.0304 48.3518 52.2071 48.7244 54.9172 49.2886C56.6991 49.6613 57.542 49.8742 57.8728 50.0445C57.9154 50.4491 57.9581 50.7365 57.9688 51.0772C57.9261 51.6628 57.8621 52.0673 57.7661 52.5145L57.7874 52.5251Z" fill="black"/>
<path d="M62.3002 50.9813L64.8929 51.5243L62.8764 56.9965L60.3049 56.4641L62.3002 50.992V50.9813Z" fill="black"/>
<path d="M73.0766 58.2421C72.9059 58.2421 72.7245 58.2421 72.5324 58.1889L74.4317 62.309L72.127 63.4375L69.6089 57.252L67.7844 62.2451L65.2556 61.7128L68.6913 52.3015L71.22 52.8338L70.3024 55.3144C70.8786 55.6444 72.2443 56.3152 72.7352 56.5174L72.9272 56.4961C73.1726 55.9958 73.3967 55.4422 73.7701 54.3669L74.1116 53.43L76.619 53.9517C76.5763 54.1646 76.5123 54.3775 76.4376 54.5905C75.9574 56.0171 75.648 56.7729 75.3599 57.252C74.8584 58.0718 74.2716 58.3166 73.0659 58.2315L73.0766 58.2421Z" fill="black"/>
<path d="M86.1686 55.9532L88.7614 56.4961L85.3043 65.9074L82.7329 65.3751L86.1686 55.9638V55.9532Z" fill="black"/>
<path d="M95.1634 63.0329C95.6009 61.7447 95.8143 61.0101 95.8783 60.5843L95.5796 60.233L91.365 59.36L91.8131 57.2307C92.8268 57.2946 94.1925 57.4969 95.7183 57.8163C98.1297 58.3166 98.8125 59.2003 98.3857 61.255C98.151 62.4048 97.0413 65.6306 96.0384 68.1431L93.5416 67.6215C94.0538 66.1842 94.5126 64.9386 95.1634 63.0329Z" fill="black"/>
<path d="M108.682 68.5477L107.925 70.6131L99.5808 68.8777L100.338 66.8123L105.001 67.7812C105.705 65.7264 106.271 63.8846 106.42 63.1926C106.452 63.0542 106.463 62.9158 106.484 62.8094L106.175 62.4367L102.12 61.5957L102.568 59.4664C103.689 59.5516 105.012 59.7432 106.313 60.02C108.768 60.5311 109.418 61.3508 109.002 63.3417C108.832 64.1508 108.255 65.9394 107.391 68.2815L108.693 68.5583L108.682 68.5477Z" fill="black"/>
<path d="M120.824 65.5561L119.523 65.29L116.887 72.4868L114.358 71.9545L116.983 64.7577L112.63 63.8527L113.11 61.5638L121.657 63.3417L120.846 65.5561H120.824Z" fill="black"/>
<path d="M36.4263 64.0656L42.6681 65.3645L41.0997 72.7317L34.8792 71.4328L36.4156 64.0656H36.4263Z" fill="black"/>
<path d="M49.1129 73.5195C49.3263 72.4762 49.2196 72.1674 48.3447 71.9864L44.4929 71.188L45.5492 66.131C47.4271 66.3439 49.6571 66.7059 51.0975 67.004L51.599 67.1104C55.5255 67.9302 56.5178 69.1439 55.8349 72.391L54.1064 80.6525L47.8859 79.3536L49.1023 73.5195H49.1129Z" fill="black"/>
<path d="M59.6548 68.9096L65.8966 70.2084L64.3282 77.5757L58.1077 76.2768L59.6441 68.9096H59.6548Z" fill="black"/>
<path d="M86.2862 75.6701C84.6858 83.3354 79.2228 86.2418 69.7694 84.4L66.8672 83.1224L68.6384 71.0922L74.1867 71.8587L73.6532 75.5317C73.8773 75.6062 74.016 75.6381 74.176 75.6381C74.3574 75.2655 74.4641 74.8929 74.6775 73.8815L75.0403 72.1674L80.1084 73.0937C80.0942 73.2285 80.0231 73.6011 79.895 74.2115C78.9774 78.5765 77.3663 79.7476 73.0984 79.162L72.981 79.9924C74.4001 80.2586 75.6698 80.2692 76.8755 79.9711C78.9774 79.3537 80.0337 77.629 80.9407 73.3385L86.489 74.4883C86.489 74.7225 86.4463 74.9248 86.2969 75.6594L86.2862 75.6701Z" fill="black"/>
<path d="M102.718 81.1208C100.328 89.3185 96.4441 91.4903 86.4358 90.2553L86.8946 85.6881C87.9722 85.7307 88.9005 85.7733 89.7328 85.7839L88.6658 75.7764L94.7902 75.6274L95.3024 83.9634C95.8359 83.1436 96.156 81.9725 96.5508 80.365C96.7962 79.46 96.8815 79.0342 97.3617 76.7559L103.401 78.0121C103.166 79.3642 102.953 80.3756 102.729 81.1102L102.718 81.1208Z" fill="black"/>
<path d="M104.468 85.6775L109.12 86.6463L109.269 85.9543C109.483 84.9323 109.376 84.7087 108.608 84.549L105.076 83.8144L106.132 78.7574C107.253 78.8426 110.016 79.2791 112.086 79.7156C115.639 80.4608 116.525 81.8342 115.778 85.4007L115.244 87.9345L116.813 88.2646L115.724 93.4706L103.39 90.9048L104.478 85.6988L104.468 85.6775Z" fill="black"/>
<path d="M57.5524 91.5754C55.9519 99.2408 50.4889 102.147 41.0355 100.305L38.1333 99.0278L39.9045 86.9976L45.4528 87.7641L44.9193 91.437C45.1434 91.5116 45.2821 91.5435 45.4421 91.5435C45.6235 91.1709 45.7302 90.7983 45.9436 89.7869L46.3064 88.0728L51.3745 88.9991C51.3603 89.1339 51.2892 89.5065 51.1611 90.1169C50.2435 94.4819 48.6324 95.6423 44.3645 95.0674L44.2471 95.8978C45.6662 96.164 46.9359 96.1746 48.1416 95.8765C50.2435 95.2591 51.2998 93.5344 52.2068 89.2439L57.7551 90.3937C57.7551 90.6279 57.7124 90.8302 57.563 91.5648L57.5524 91.5754Z" fill="black"/>
<path d="M71.765 98.8362L70.3246 98.5381L68.8414 105.607L62.6743 104.319L64.1574 97.2499L59.6121 96.3024L60.7217 91.0219L73.6215 93.7154L71.765 98.8468V98.8362Z" fill="black"/>
<path d="M76.2247 94.2478L82.4452 95.5466L79.8631 107.896L73.6426 106.597L76.2247 94.2478Z" fill="black"/>
<path d="M85.6035 96.3345C86.8732 96.4409 89.6794 96.9307 92.3895 97.4949L93.3071 97.6866C98.0765 98.6767 99.2288 100.029 98.45 103.755L96.8388 111.442L90.725 110.164L91.952 104.309C92.1548 103.34 92.0267 102.978 91.3972 102.85L90.6503 102.69L89.1565 109.834L83.0107 108.556L85.5928 96.3345H85.6035Z" fill="black"/>
<path d="M103.529 112.368C104.926 108.418 105.727 106.203 105.78 105.842L100.957 104.841L102.921 95.4401L109.162 96.739L108.287 100.934L113.654 102.051L113.366 103.446C113.27 103.915 111.328 109.472 109.504 114.476L103.539 112.378L103.529 112.368Z" fill="black"/>
</g>
<defs>
<clipPath id="clip0_2088_3488">
<rect width="151.522" height="156.032" fill="white" transform="translate(0 0.262695)"/>
</clipPath>
</defs>
</svg>
