<svg width="171" height="172" viewBox="0 0 171 172" fill="none" xmlns="http://www.w3.org/2000/svg">
<g clip-path="url(#clip0_2088_3771)">
<path d="M150.801 109.347L155.535 126.386C158.019 135.312 151.44 144.188 142.194 144.397L124.536 144.804C122.938 144.841 121.487 145.789 120.823 147.254L113.507 163.357C109.682 171.791 98.9479 174.351 91.7177 168.565L77.9214 157.509C76.6672 156.5 74.958 156.303 73.507 157.005L57.5712 164.638C49.2221 168.627 39.3605 163.69 37.5407 154.604L34.0731 137.257C33.7534 135.681 32.573 134.425 31.0114 134.019L13.9074 129.599C4.95574 127.284 0.565992 117.152 5.00492 109.026L13.4893 93.514C14.264 92.1105 14.1533 90.3745 13.2188 89.0695L2.95145 74.6773C-2.42198 67.1427 0.725842 56.5548 9.33318 53.1814L25.7855 46.7548C27.2856 46.1762 28.3062 44.785 28.4292 43.1845L29.8064 25.5543C30.5195 16.3207 39.7294 10.2388 48.4966 13.2059L65.2317 18.8692C66.7564 19.3863 68.4287 18.98 69.56 17.835L81.9299 5.2034C88.41 -1.40789 99.366 -0.139806 104.174 7.76419L113.359 22.8704C114.195 24.237 115.732 25.0126 117.331 24.8649L134.914 23.1536C144.124 22.2549 151.711 30.282 150.309 39.4417L147.641 56.9241C147.395 58.5123 148.084 60.1005 149.411 61.0115L163.982 71.0208C171.606 76.2655 172.27 87.2843 165.323 93.4032L152.055 105.087C150.85 106.146 150.358 107.808 150.789 109.359L150.801 109.347Z" fill="white" stroke="black" stroke-width="0.450958" stroke-miterlimit="10"/>
<path d="M147.235 109.026L152.03 126.275C154.047 133.551 148.698 140.778 141.161 140.95L123.282 141.357C121.044 141.406 119.027 142.735 118.105 144.779L110.703 161.08C107.58 167.949 98.8371 170.042 92.9472 165.327L78.991 154.136C77.245 152.732 74.8472 152.462 72.8183 153.422L56.6857 161.141C49.8859 164.391 41.8442 160.366 40.3564 152.966L36.8519 135.41C36.4093 133.206 34.7493 131.458 32.5852 130.892L15.2598 126.423C7.95587 124.539 4.37768 116.278 8.00506 109.654L16.5878 93.9448C17.6699 91.975 17.5223 89.5619 16.2189 87.7398L5.81634 73.1753C1.43889 67.0318 3.9965 58.4015 11.0176 55.656L27.679 49.1432C29.7693 48.3306 31.208 46.3854 31.3801 44.1447L32.7696 26.293C33.3598 18.7707 40.8605 13.8091 48.0046 16.2222L64.9488 21.9594C67.076 22.6734 69.4246 22.1194 70.9862 20.5189L83.516 7.73954C88.7911 2.34709 97.7304 3.38126 101.653 9.8325L110.949 25.1357C112.117 27.0563 114.269 28.1397 116.507 27.9181L134.312 26.1822C141.812 25.4558 147.997 31.9932 146.866 39.454L144.161 57.158C143.817 59.3741 144.788 61.5902 146.632 62.8582L161.376 72.9906C167.597 77.2627 168.126 86.2501 162.47 91.2363L149.03 103.055C147.346 104.533 146.657 106.847 147.26 109.014L147.235 109.026Z" fill="#C195F4" stroke="black" stroke-width="0.901917" stroke-miterlimit="10"/>
<path d="M26.8923 80.833L27.1014 78.1245L32.0444 79.2448L31.8354 81.9164L26.8923 80.8207V80.833Z" fill="black"/>
<path d="M30.2861 73.1629L29.5852 76.6594L28.1342 76.327L24.3347 74.9604L24.8389 72.4365L27.8391 73.483L28.5646 69.8634L29.4622 69.9373L36.6063 73.0644L36.0899 75.6129L30.2738 73.1506L30.2861 73.1629Z" fill="black"/>
<path d="M38.1066 68.583L37.2705 69.8142L29.0935 67.5858L30.0157 65.3081L32.352 65.9483C32.5364 65.7021 32.7086 65.4805 32.8561 65.2343L32.8316 65.0742C32.4012 64.7911 31.8724 64.4956 30.9502 64.04L30.6059 63.8431L31.4667 61.7009L31.9339 61.9225C32.5979 62.2672 32.9668 62.4519 33.2988 62.6612C34.5284 63.4983 34.8481 64.237 34.4915 65.4559C34.3809 65.8252 34.2702 66.133 34.1472 66.4408L35.9917 66.9456L36.1392 66.7732C36.668 63.9662 35.4138 62.0333 31.897 60.6421L32.8316 58.3152C37.5779 60.0388 39.4469 63.6707 38.1189 68.583H38.1066Z" fill="black"/>
<path d="M43.0129 51.9255C42.103 51.0391 41.5374 50.522 41.2054 50.3004L40.8365 50.4112L37.9838 54.1908L36.25 52.8735C36.8402 51.864 37.7255 50.5836 38.9429 48.9584C40.4799 46.927 41.5005 46.9393 43.5785 48.8476C44.9065 50.0665 45.8533 51.0883 47.1567 52.4426L45.6074 54.4986C44.968 53.883 44.3532 53.2305 43.0252 51.9132L43.0129 51.9255ZM39.3855 55.2127L40.9717 53.1074L44.1933 56.37L42.644 58.426L39.3978 55.2127H39.3855Z" fill="black"/>
<path d="M47.2793 51.4331L46.2587 49.4632C48.1523 48.3306 50.0459 47.1856 50.2058 47.1117L50.3164 46.8901C50.0336 46.2992 48.7425 44.5263 48.0171 43.7384L47.5744 43.2582L47.4514 43.3075L46.0743 44.5756L47.808 46.0776L45.9759 47.7642L43.4675 45.6097L42.8035 44.6248L47.7588 40.0449C48.3122 40.3896 48.7179 40.6482 49.0745 40.9683C50.6238 42.6673 51.9149 44.6125 52.124 45.5728C52.456 46.9024 52.0133 48.0474 50.5993 49.3524C49.5541 50.3127 48.2384 51.1622 47.2793 51.4331Z" fill="black"/>
<path d="M50.218 38.2597L52.4313 36.6962L54.7184 41.2268L52.5297 42.7781L50.218 38.272V38.2597Z" fill="black"/>
<path d="M66.4737 32.1778C66.7934 32.9411 67.1623 34.2954 68.2197 38.2843L65.822 39.3062C65.6375 38.5921 65.4162 37.6441 64.8998 35.8466C64.5309 34.5416 64.2972 33.8522 64.1128 33.4705L63.7193 33.3967L62.1454 34.0738L63.1783 37.9273C63.5964 39.577 63.1414 40.7097 61.8503 41.2637C61.1617 41.5592 60.2518 41.6577 59.6001 41.5346L59.3911 39.3677L60.7068 39.3185L60.7928 39.22L59.7108 35.1326L58.4074 35.6866L57.5466 33.6798C58.7025 33.0396 60.4608 32.2147 62.6987 31.2544C64.1989 30.6142 64.8875 30.3557 65.2441 30.3065C65.49 30.565 65.6621 30.762 65.8466 31.0205C66.1294 31.4637 66.3138 31.8331 66.4614 32.2024L66.4737 32.1778Z" fill="black"/>
<path d="M68.6868 29.3708L71.2936 28.6814L72.2527 37.2502L69.6459 37.9397L68.6868 29.3708Z" fill="black"/>
<path d="M81.1309 33.6183L81.0817 35.8221L73.6794 36.7701L73.7163 34.5663L77.5896 34.0739C77.565 32.4364 77.5281 31.1683 77.4543 30.5651C77.4297 30.405 77.4051 30.2942 77.3928 30.2204L77.0485 30.0234L73.6671 30.4543L73.3843 28.2874C74.4663 28.0043 75.5484 27.795 76.6551 27.6596C78.9053 27.3764 79.7168 27.8812 79.9504 29.6786C80.0365 30.3681 80.0611 31.7962 80.0365 33.7538L81.1309 33.6183Z" fill="black"/>
<path d="M83.3192 27.3271H86.0121L84.7456 35.859H82.0527L83.3192 27.3271Z" fill="black"/>
<path d="M96.5134 30.8851C96.3904 31.6854 96.0215 32.9658 94.7796 36.9917L92.222 36.5977C92.4187 35.9082 92.7384 34.9603 93.2426 33.1628C93.6238 31.8577 93.7836 31.1437 93.8328 30.7374L93.5377 30.4665L91.5211 30.1588L89.6521 36.2037L87.0945 35.8097L88.9635 29.7648L87.8077 29.5801L88.1397 27.4256C89.4799 27.4872 91.4227 27.7211 93.8205 28.1027C95.4313 28.349 96.1691 28.4967 96.5011 28.6444L96.6363 29.5801C96.624 30.0356 96.5871 30.4296 96.5134 30.9098V30.8851Z" fill="black"/>
<path d="M104.137 37.8166L103.104 39.7618L96.0586 37.2749L97.0792 35.3174L100.768 36.6224C101.494 35.145 102.022 34 102.219 33.4214C102.268 33.2736 102.293 33.1505 102.317 33.089L102.108 32.7566L98.899 31.6239L99.6245 29.5679C100.719 29.8018 101.776 30.1096 102.822 30.4789C104.961 31.2299 105.453 32.0548 104.85 33.7661C104.617 34.4186 104.002 35.7113 103.092 37.4472L104.137 37.8166Z" fill="black"/>
<path d="M118.032 41.3869C117.564 42.0763 116.642 43.1228 113.888 46.1884L111.724 44.7356C112.215 44.1939 112.892 43.4799 114.109 42.064C115.007 41.0422 115.449 40.4635 115.671 40.1065L115.523 39.7372L114.097 38.7892L111.441 41.7562C110.297 43.012 109.092 43.2459 107.924 42.458C107.309 42.0394 106.719 41.3376 106.473 40.7098L108.17 39.3555L108.932 40.4266L109.068 40.4512L111.896 37.3118L110.715 36.5238L111.933 34.7141C113.101 35.3296 114.748 36.3515 116.777 37.7058C118.13 38.6168 118.72 39.0477 118.966 39.3186C118.88 39.6633 118.806 39.9218 118.696 40.2173C118.474 40.6975 118.265 41.0545 118.044 41.3869H118.032Z" fill="black"/>
<path d="M126.258 47.6042C125.336 48.3429 124.29 49.1062 123.172 49.808C120.233 51.667 119.2 51.6178 117.085 49.4756C116.015 48.3922 115.068 47.0625 114.773 46.2377L116.704 45.0311C117.06 45.659 117.368 46.1515 117.626 46.5824L121.475 41.4854L123.344 43.3321L119.163 48.663C119.249 48.7738 119.323 48.8477 119.397 48.9462L119.667 49.0447C120.245 48.9093 122.729 47.1364 125.2 45.1789L126.885 46.8409L126.27 47.6166L126.258 47.6042Z" fill="black"/>
<path d="M122.47 55.1635L123.11 54.5233L120.294 52.8612L122.581 51.5808L124.573 52.8735L128.508 49.02L130.081 51.1007L123.896 57.0471L122.47 55.1635Z" fill="black"/>
<path d="M132.246 54.3633L133.636 56.6779L125.692 60.0143L124.303 57.6997L132.246 54.351V54.3633Z" fill="black"/>
<path d="M126.602 60.7038L128.889 60.3713C128.963 60.9254 128.975 61.4917 129.037 62.1196L129.221 62.2427C129.283 62.2427 129.91 62.1073 130.648 61.898C131.361 61.7133 132.123 61.4671 133.217 61.0731L132.578 59.7065L134.693 58.7093L136.439 62.4274L135.431 63.0553C134.115 63.5354 133.402 63.7816 131.754 64.2249C128.914 65.0005 127.906 64.7296 127.131 63.0799C126.873 62.5136 126.676 61.6641 126.59 60.6914L126.602 60.7038Z" fill="black"/>
<path d="M135.566 74.7756C135.566 74.7756 135.566 74.7387 135.541 74.7264L133.205 77.4349L131.201 75.7729L134.927 71.8948L130.709 72.2148L130.143 69.6664L138.726 69.0139L139.292 71.5623L137.066 71.7347C137.017 72.3626 136.943 73.4214 136.943 73.7169L137.029 73.8523C137.496 73.8769 137.927 73.8523 138.849 73.7661L139.771 73.6799L140.337 76.1915C140.14 76.2407 139.943 76.2653 139.759 76.29C138.517 76.4254 137.792 76.4623 137.337 76.4008C136.451 76.3023 135.996 75.8837 135.578 74.7756H135.566Z" fill="black"/>
<path d="M138.382 82.0025L138.185 78.4445L139.673 78.3953L143.694 78.7646L143.829 81.3377L140.669 81.0792L140.866 84.7603L139.968 84.9081L132.271 83.6646L132.135 81.0669L138.382 82.0025Z" fill="black"/>
<path d="M49.2093 82.3968H52.7506L51.8652 88.5033H48.3977L49.2093 82.3968ZM55.6771 83.628C55.8861 81.929 55.9845 80.9071 55.9599 80.3654L55.5418 80.0576H49.1724V77.1275C50.734 76.9428 52.8243 76.8443 55.5418 76.8443C58.9601 76.8443 59.7717 77.9646 59.4274 81.732C59.1938 84.1573 58.8741 85.9918 58.4683 88.491H55.0008C55.136 87.3091 55.3451 86.1149 55.6771 83.628Z" fill="black"/>
<path d="M66.166 83.628C66.3751 81.9536 66.4734 80.9071 66.4488 80.3654L66.0554 80.0576H61.2844V77.1275C62.5386 76.9428 64.1248 76.8443 65.957 76.8443C69.0556 76.8443 70.0516 77.78 69.9778 80.5254C69.9287 82.1506 69.4614 85.5978 68.9573 88.491H65.4897C65.625 87.3091 65.834 86.1149 66.166 83.628Z" fill="black"/>
<path d="M81.7328 85.5608L81.2901 88.4909H71.2441L71.6622 85.5608H76.925C77.1832 83.3693 77.3431 81.6703 77.3431 80.8578C77.3431 80.6485 77.3185 80.4884 77.3185 80.3899L76.9004 80.0698H72.3139V77.1397C73.8018 76.955 75.2896 76.8565 76.7774 76.8565C79.8269 76.8565 80.8229 77.6691 80.8229 80.1191C80.8229 81.0547 80.6138 82.963 80.245 85.5731H81.7328V85.5608Z" fill="black"/>
<path d="M94.9513 80.0206C94.9513 81.1163 94.7177 82.8892 93.9061 88.5032H90.414C90.5246 87.5429 90.7583 86.2256 91.0657 83.7263C91.2993 81.9042 91.3731 80.9316 91.3485 80.3776L90.9058 80.0698H88.1638L86.9342 88.5032H83.442L84.6717 80.0698H83.0854V77.1397C84.8807 76.955 87.4998 76.8565 90.7829 76.8565C92.9716 76.8565 93.9922 76.9058 94.4594 77.0166L94.8283 78.2231C94.9021 78.8264 94.939 79.3681 94.939 80.0206H94.9513Z" fill="black"/>
<path d="M109.424 82.8646C109.424 82.8646 109.375 82.8646 109.35 82.8892L112.215 86.755L109.449 88.8972L105.452 82.8646L104.641 88.5033H101.124L102.772 77.0166H106.288L105.87 79.996C106.682 80.2545 108.059 80.6485 108.428 80.747L108.637 80.6731C108.797 80.0699 108.895 79.4912 109.055 78.2478L109.215 77.0166H112.682C112.682 77.2998 112.658 77.5583 112.633 77.8045C112.449 79.4789 112.289 80.4392 112.08 81.0178C111.686 82.1628 111.01 82.6307 109.424 82.8646Z" fill="black"/>
<path d="M119.052 80.156H114.256L114.306 78.1492L115.092 72.769H118.56L117.982 77.0042H122.937L123.073 78.2107L120.835 88.4785H117.343L119.04 80.1436L119.052 80.156Z" fill="black"/>
<path d="M57.694 103.314C57.694 104.434 57.4357 106.293 56.6488 111.797H53.1321C53.2673 110.824 53.501 109.519 53.8084 107.02C54.042 105.198 54.1158 104.225 54.0912 103.671L53.6485 103.363H51.3491L50.5991 108.669C50.2548 110.922 49.0866 112.092 47.2053 112.092C46.2093 112.092 45.0166 111.747 44.2788 111.23L45.1641 108.436L46.8118 109.063L46.9717 108.99L47.7832 103.351H45.8773V100.421C47.648 100.236 50.2548 100.138 53.5378 100.138C55.7266 100.138 56.7226 100.187 57.1898 100.298C57.3497 100.741 57.4726 101.086 57.5587 101.504C57.6694 102.206 57.694 102.76 57.694 103.302V103.314Z" fill="black"/>
<path d="M60.842 100.31H64.4693L62.7971 111.797H59.1697L60.842 100.31Z" fill="black"/>
<path d="M75.7572 108.854L75.3145 111.784H65.2686L65.6866 108.854H70.9494C71.2076 106.663 71.3675 104.964 71.3675 104.151C71.3675 103.942 71.3429 103.782 71.3429 103.683L70.9248 103.351H66.3383V100.421C67.8262 100.236 69.314 100.138 70.8018 100.138C73.8513 100.138 74.8473 100.95 74.8473 103.4C74.8473 104.336 74.6383 106.244 74.2694 108.854H75.7572Z" fill="black"/>
<path d="M78.7323 100.31H82.3597L80.6874 111.797H77.0601L78.7323 100.31Z" fill="black"/>
<path d="M95.8981 103.314C95.8981 104.41 95.6644 106.183 94.8529 111.797H91.3608C91.4714 110.836 91.7051 109.519 92.0125 107.02C92.2461 105.198 92.3199 104.225 92.2953 103.671L91.8526 103.363H89.1106L87.8809 111.797H84.3888L85.6184 103.363H84.0322V100.433C85.8275 100.248 88.4466 100.15 91.7297 100.15C93.9184 100.15 94.939 100.199 95.4062 100.31L95.7751 101.517C95.8489 102.12 95.8858 102.662 95.8858 103.314H95.8981Z" fill="black"/>
<path d="M107.15 103.449H102.354L102.403 101.443L103.19 96.0625H106.658L106.08 100.298H111.035L111.17 101.504L108.932 111.772H105.44L107.137 103.437L107.15 103.449Z" fill="black"/>
<path d="M115.99 112.068L114.035 111.649L112.707 100.31H116.015L116.384 103.548C116.777 103.659 117.146 103.757 117.527 103.831L117.712 103.72C117.847 103.043 117.945 102.231 118.056 100.852L118.13 100.31H121.229L121.179 101.012C121.081 102.009 121.044 102.575 120.946 103.08C120.528 105.038 119.765 105.801 118.056 105.973C117.54 106.023 117.097 106.047 116.654 106.047L116.962 108.608L117.245 108.706C121.019 107.955 122.778 105.419 122.753 100.322H126.122C126.356 107.118 122.778 111.267 115.978 112.092L115.99 112.068Z" fill="black"/>
<path d="M67.5431 126.755H62.7476L62.7967 124.748L63.5837 119.368H67.0512L66.4733 123.603H71.4287L71.5639 124.81L69.326 135.078H65.8339L67.5308 126.743L67.5431 126.755Z" fill="black"/>
<path d="M77.9454 126.755H73.1499L73.1991 124.748L73.986 119.368H77.4536L76.8756 123.603H81.831L81.9663 124.81L79.7284 135.078H76.2362L77.9331 126.743L77.9454 126.755Z" fill="black"/>
<path d="M82.3599 134.622L83.1099 131.778C85.2741 132.271 87.7825 132.8 88.0161 132.849L88.3235 132.739C88.6063 131.766 88.9014 129.033 88.9014 127.617C88.9014 126.78 88.9014 126.891 88.8768 126.804L88.5694 126.694H83.8477V123.616H92.037C92.2952 124.588 92.4059 125.229 92.455 125.893C92.4796 127.248 92.3813 128.577 92.1968 129.858C91.9386 131.347 91.6189 132.443 91.2623 133.071C90.4016 134.696 88.8891 135.422 86.3561 135.422C85.2372 135.422 83.6633 135.115 82.3599 134.635V134.622Z" fill="black"/>
<path d="M103.977 132.16L103.534 135.09H93.4883L93.9064 132.16H99.1691C99.4273 129.969 99.5872 128.27 99.5872 127.457C99.5872 127.248 99.5626 127.088 99.5626 126.989L99.1445 126.657H94.5581V123.727C96.0459 123.542 97.5337 123.443 99.0216 123.443C102.071 123.443 103.067 124.256 103.067 126.706C103.067 127.642 102.858 129.55 102.489 132.16H103.977Z" fill="black"/>
</g>
<defs>
<clipPath id="clip0_2088_3771">
<rect width="170.462" height="171.364" fill="white" transform="translate(0 0.635864)"/>
</clipPath>
</defs>
</svg>
